<svg xmlns="http://www.w3.org/2000/svg" width="51" height="44" fill="none" xmlns:v="https://vecta.io/nano"><path d="M13.358 2.482v6.476h4.487v-4.46h14.313v4.46h4.487V2.482A2.48 2.48.0 0 0 34.169.0H15.835a2.48 2.48.0 0 0-2.477 2.482z" fill="#74c6ff"/><path d="M45.276 7.98H4.727C2.122 7.98.002 10.1.002 12.707v26.4c0 2.608 2.118 4.73 4.722 4.73H45.28a4.73 4.73.0 0 0 4.722-4.73v-26.4c0-2.606-2.12-4.726-4.726-4.726zm2.772 31.135c0 1.53-1.242 2.776-2.77 2.776H4.724c-1.527.0-2.77-1.245-2.77-2.776v-12.34a7.4 7.4.0 0 0 5.465 2.407h2.87c.54.0.977-.437.977-.977s-.437-.977-.977-.977H7.42a5.47 5.47.0 0 1-5.465-5.465v-9.057c0-1.53 1.244-2.772 2.772-2.772h40.55c1.53.0 2.772 1.244 2.772 2.772v9.057a5.47 5.47.0 0 1-5.465 5.465h-3.422c-.54.0-.977.437-.977.977s.437.977.977.977h3.422a7.4 7.4.0 0 0 5.465-2.407v12.342zM35.746 27.228H14.378c-.54.0-.977.437-.977.977s.437.977.977.977h21.368c.54.0.977-.437.977-.977s-.437-.977-.977-.977zm.84-14.023H13.42c-.54.0-.977.437-.977.976s.437.977.977.977h23.167c.54.0.977-.437.977-.977s-.437-.976-.977-.976z" fill="#00a9dd"/><path d="M34.613 23.086h5.945v9.26h-5.945v-9.26zm-25.167.0h5.945v9.26H9.446v-9.26z" fill="#74c6ff"/></svg>