<svg xmlns="http://www.w3.org/2000/svg" width="43" height="50" fill="none" xmlns:v="https://vecta.io/nano"><path d="M32.37 18.354h7.34V49.83h-7.34V18.354zM4.573 25.04h6.334v24.8H4.573v-24.8z" fill="#74c6ff"/><path d="M28.317 9.797h-4.5c-.54.0-.977.437-.977.977v4.506c0 .54.437.977.977.977h4.5c.54.0.977-.437.977-.977v-4.506c0-.54-.437-.977-.977-.977zm-.977 4.506h-2.544V11.75h2.544v2.552zm-7.882-4.506H14.96c-.54.0-.977.437-.977.977v4.506c0 .54.437.977.977.977h4.5c.54.0.977-.437.977-.977v-4.506c0-.54-.437-.977-.977-.977zm-.977 4.506h-2.544V11.75h2.544v2.552zm9.836 5.413h-4.5c-.54.0-.977.437-.977.977V25.2c0 .54.437.977.977.977h4.5c.54.0.977-.437.977-.977v-4.506c0-.54-.437-.977-.977-.977zm-.977 4.506h-2.544V21.67h2.544v2.552zm-7.882-4.506H14.96c-.54.0-.977.437-.977.977V25.2c0 .54.437.977.977.977h4.5c.54.0.977-.437.977-.977v-4.506c0-.54-.437-.977-.977-.977zm-.977 4.506h-2.544V21.67h2.544v2.552zm9.836 5.414h-4.5c-.54.0-.977.437-.977.977v4.506c0 .54.437.977.977.977h4.5c.54.0.977-.437.977-.977v-4.506c0-.54-.437-.977-.977-.977zm-.977 4.506h-2.544V31.6h2.544v2.552zm-7.882-4.506H14.96c-.54.0-.977.437-.977.977v4.506c0 .54.437.977.977.977h4.5c.54.0.977-.437.977-.977v-4.506c0-.54-.437-.977-.977-.977zm-.977 4.506h-2.544V31.6h2.544v2.552zm23.11 13.904h-8.246V5.465c0-.54-.437-.977-.977-.977h-2.08V.977c0-.54-.437-.977-.977-.977H13.964c-.54.0-.977.437-.977.977v3.5h-2.08c-.54.0-.977.438-.977.977v42.58H.98c-.54.0-.977.437-.977.977A.98.98.0 0 0 .98 50h40.613c.54.0.977-.437.977-.977s-.437-.977-.977-.977zM14.94 1.954h13.394v2.534H14.94V1.954zm3.757 46.092V42.58h5.88v5.465h-5.88zm7.834.0v-6.443c0-.54-.437-.977-.977-.977H17.72c-.54.0-.977.437-.977.977v6.443h-4.86V6.442H31.39v41.604h-4.86z" fill="#00a9dd"/></svg>