<svg width="50" height="50" viewBox="0 0 50 50" fill="none" xmlns="http://www.w3.org/2000/svg"><path d="M24.9999 39.7081C33.2027 39.7081 39.8525 33.1229 39.8525 24.9997 39.8525 16.8764 33.2027 10.2913 24.9999 10.2913 16.797 10.2913 10.1472 16.8764 10.1472 24.9997 10.1472 33.1229 16.797 39.7081 24.9999 39.7081z" fill="#74c6ff"/><path d="M47.2997 18.7941H46.6588C46.1952 17.2032 45.5533 15.6692 44.7436 14.217L45.1955 13.7696C45.7063 13.2637 45.9877 12.591 45.9877 11.875 45.9877 11.1591 45.7063 10.4863 45.1956 9.98052L40.1616 4.99526C39.1095 3.95327 37.3975 3.95327 36.3453 4.99526L35.8922 5.44409C34.4218 4.63862 32.8683 4.00044 31.2569 3.54019V2.91069C31.2569 1.43433 30.0456.233154 28.5567.233154H21.4435C19.9545.233154 18.7433 1.43433 18.7433 2.91069V3.54019C17.1319 4.00054 15.5783 4.63862 14.108 5.44409L13.6549 4.99546C12.6027 3.95317 10.8907 3.95337 9.83848 4.99526L4.80439 9.98042C4.29365 10.4864 4.0123 11.1592 4.0123 11.8751 4.0123 12.591 4.29365 13.2638 4.80439 13.7696L5.25625 14.217C4.44658 15.6692 3.80469 17.2032 3.34111 18.7941H2.7002C1.21133 18.7941.0 19.9953.0 21.4717V28.5278C0 30.0042 1.21133 31.2053 2.70029 31.2053H3.34121C3.80479 32.7962 4.44668 34.3303 5.25635 35.7824L4.80449 36.2298C4.29365 36.7356 4.0123 37.4083 4.0123 38.1243 4.0123 38.8402 4.29355 39.5131 4.80439 40.019L9.83838 45.0042C10.8905 46.0461 12.6025 46.0461 13.6547 45.0042L14.1078 44.5553C15.5781 45.3609 17.1317 45.999 18.7431 46.4593V47.0888C18.7431 48.5652 19.9544 49.7664 21.4433 49.7664H28.5565C30.0455 49.7664 31.2567 48.5652 31.2567 47.0888V46.4593C32.8681 45.999 34.4217 45.3609 35.892 44.5553L36.3451 45.0042C37.3973 46.0461 39.1093 46.0461 40.1614 45.0042L45.1954 40.019C45.7062 39.513 45.9876 38.8402 45.9875 38.1243 45.9875 37.4083 45.7061 36.7355 45.1953 36.2298L44.7436 35.7824C45.5533 34.3302 46.1951 32.7962 46.6587 31.2053H47.2996C48.7886 31.2053 49.9999 30.0042 49.9999 28.5278V21.4717C50 19.9953 48.7887 18.7941 47.2997 18.7941zM48.0469 28.5278C48.0469 28.9272 47.7117 29.2522 47.2997 29.2522H45.9131C45.4664 29.2522 45.0767 29.5553 44.9666 29.9882 44.4794 31.9049 43.7115 33.7393 42.6842 35.4403 42.4511 35.8263 42.5126 36.3217 42.8329 36.639L43.8212 37.6176C43.9588 37.754 44.0345 37.9338 44.0345 38.1245 44.0346 38.3151 43.9588 38.4951 43.8211 38.6313L38.7871 43.6165C38.4928 43.9081 38.0139 43.9079 37.7195 43.6165L36.7398 42.6461C36.4243 42.3335 35.9373 42.2734 35.555 42.4999 33.8358 43.5181 31.9816 44.2793 30.044 44.7622 29.609 44.8706 29.3036 45.2613 29.3036 45.7097V47.0889C29.3036 47.4883 28.9685 47.8133 28.5565 47.8133H21.4433C21.0313 47.8133 20.6962 47.4883 20.6962 47.0889V45.7097C20.6962 45.2613 20.3909 44.8706 19.9558 44.7622 18.0181 44.2793 16.164 43.5181 14.4448 42.4999 14.2901 42.4081 14.1183 42.3634 13.9475 42.3634 13.6965 42.3634 13.4479 42.46 13.26 42.6461L12.2803 43.6165C11.9859 43.9079 11.5069 43.9079 11.2126 43.6165L6.17871 38.6313C6.04111 38.4951 5.96533 38.3151 5.96533 38.1245 5.96533 37.9339 6.04111 37.754 6.17871 37.6176L7.16699 36.639C7.4874 36.3217 7.54893 35.8263 7.31582 35.4403 6.28848 33.7393 5.52061 31.9049 5.0334 29.9882 4.92334 29.5552 4.53359 29.2522 4.08691 29.2522H2.70029C2.28828 29.2522 1.95312 28.9272 1.95312 28.5278V21.4717C1.95312 21.0722 2.28828 20.7472 2.70029 20.7472H4.08691C4.53359 20.7472 4.92334 20.4441 5.0334 20.0113 5.52061 18.0945 6.28848 16.2602 7.31582 14.5592 7.54893 14.1732 7.4874 13.6778 7.16699 13.3605L6.17871 12.3818C6.04111 12.2456 5.96533 12.0657 5.96533 11.875 5.96533 11.6844 6.04111 11.5043 6.17871 11.3682L11.2127 6.38306C11.507 6.09165 11.986 6.09165 12.2804 6.38315L13.2601 7.35337C13.5757 7.66597 14.0626 7.72622 14.4449 7.49976 16.1641 6.48149 18.0182 5.72026 19.9559 5.23735 20.3909 5.12896 20.6963 4.73814 20.6963 4.2898V2.9106C20.6963 2.51118 21.0314 2.18618 21.4434 2.18618H28.5566C28.9686 2.18618 29.3037 2.51118 29.3037 2.9106V4.2897C29.3037 4.73804 29.609 5.12886 30.0441 5.23726 31.9816 5.72017 33.8358 6.4814 35.5551 7.49966 35.9373 7.72603 36.4242 7.66577 36.7399 7.35327L37.7196 6.38306C38.014 6.09165 38.493 6.09165 38.7873 6.38306L43.8213 11.3683C43.9589 11.5045 44.0347 11.6845 44.0347 11.875 44.0347 12.0656 43.9589 12.2457 43.8213 12.3818L42.833 13.3605C42.5126 13.6778 42.4511 14.1732 42.6843 14.5592 43.7116 16.2602 44.4795 18.0945 44.9667 20.0113 45.0768 20.4442 45.4665 20.7472 45.9132 20.7472H47.2998C47.7118 20.7472 48.047 21.0722 48.047 21.4717V28.5278H48.0469z" fill="#00a9dd"/><path d="M24.9999 17.1265C18.1717 17.1265 13.4422 24.1619 13.2442 24.4614 13.0283 24.788 13.0283 25.212 13.2442 25.5385 13.4422 25.838 18.1717 32.8734 24.9999 32.8734 31.828 32.8734 36.5576 25.838 36.7555 25.5385 36.9714 25.2119 36.9714 24.788 36.7555 24.4614 36.5576 24.1619 31.828 17.1265 24.9999 17.1265zm0 13.7939C20.2308 30.9204 16.4567 26.552 15.2666 25 16.4572 23.4473 20.2311 19.0796 24.9999 19.0796 29.7686 19.0796 33.5424 23.4473 34.7331 25 33.5424 26.5527 29.7686 30.9204 24.9999 30.9204z" fill="#fff"/><path d="M24.9999 20.6938C22.6256 20.6938 20.6941 22.6254 20.6941 24.9996 20.6941 27.3738 22.6256 29.3054 24.9999 29.3054 27.3741 29.3054 29.3056 27.3738 29.3056 24.9996 29.3056 22.6254 27.374 20.6938 24.9999 20.6938zm0 6.6584C23.7026 27.3522 22.6472 26.2969 22.6472 24.9996 22.6472 23.7023 23.7026 22.647 24.9999 22.647 26.2971 22.647 27.3525 23.7023 27.3525 24.9996 27.3525 26.2969 26.2971 27.3522 24.9999 27.3522z" fill="#fff"/></svg>