<svg width="50" height="50" viewBox="0 0 50 50" fill="none" xmlns="http://www.w3.org/2000/svg"><path d="M4 33V43.9091L1.06557 45 1 33H4z" fill="#74c6ff"/><path d="M45.6719 24.8769 43.0874 31.7674 40.9755 31.7613 43.777 24.1662 45.6719 24.8769z" fill="#74c6ff"/><path d="M49.9985 20.6444C49.9786 20.1875 49.724 19.3404 48.2431 18.8014L8.75937 4.44469C6.73545 3.70826 4.48936 4.75533 3.75264 6.77936L2.68379 9.71578C2.68379 9.71578 2.68369 9.71608 2.68359 9.71627L.279004 16.323C-.457617 18.3471.589648 20.593 2.61396 21.3298L14.1214 25.5133C13.9027 26.8434 14.2675 28.1576 15.0614 29.163L12.6101 35.8976C12.4973 36.2076 12.1996 36.4159 11.8694 36.4159H4.6875V34.0721C4.6875 32.7798 3.63613 31.7284 2.34375 31.7284H.78125C.349805 31.7284.0 32.0782.0 32.5096v12.5C0 45.4411.349805 45.7909.78125 45.7909h1.5625C3.63613 45.7909 4.6875 44.7394 4.6875 43.4471V41.1034H11.8694C14.1632 41.1034 16.231 39.6553 17.0148 37.5003L19.4146 30.9071C20.788 30.7143 22.036 29.9125 22.7769 28.6601L36.2244 33.549C36.664 33.709 37.1138 33.7848 37.5565 33.7848 38.8994 33.7847 40.1754 33.0867 40.8899 31.9215L42.4331 32.4832C42.6074 32.5465 42.7881 32.5782 42.9683 32.5782 43.1932 32.5782 43.4173 32.529 43.6271 32.4311 44.0052 32.2548 44.2919 31.9419 44.4345 31.5501L46.5729 25.6749C46.8329 24.9603 46.5361 24.1772 45.906 23.801L48.4104 22.6333C49.8388 21.9673 50.0185 21.1013 49.9985 20.6444zM3.125 43.4471C3.125 43.8779 2.77451 44.2284 2.34375 44.2284H1.5625V33.2909h.78125C2.77451 33.2909 3.125 33.6414 3.125 34.0721v9.375zM15.5466 36.966C14.9863 38.5061 13.5086 39.5409 11.8694 39.5409H4.6875V37.9784H11.8694C12.854 37.9784 13.7416 37.357 14.0783 36.4321L16.321 30.2706C16.5783 30.4252 16.854 30.5579 17.1468 30.6644 17.3546 30.7401 17.5643 30.8 17.7743 30.8454L15.5466 36.966zM18.8578 29.3864C18.8397 29.3863 18.8218 29.3863 18.8038 29.3874 18.4317 29.3923 18.0521 29.3312 17.6812 29.1962 17.2469 29.0381 16.8682 28.7948 16.5579 28.4918 16.5295 28.4572 16.4979 28.4252 16.4635 28.3958 15.8816 27.776 15.5701 26.9347 15.6291 26.0615L21.2695 28.1121C20.6988 28.8959 19.8055 29.3572 18.8578 29.3864zM45.1048 25.1405 42.9678 31.015 41.4984 30.4802 43.5254 24.9112 43.9403 24.7177 45.1048 25.1405zM47.7503 21.2172 43.5738 23.1646C43.5733 23.1648 43.573 23.165 43.5726 23.1652L42.5724 23.6316C42.572 23.6318 42.5717 23.6319 42.5713 23.6321L41.3986 24.1789C40.0225 24.8206 37.6542 24.9239 36.227 24.4045L13.6284 16.1934C13.223 16.0463 12.7747 16.2554 12.6273 16.6609 12.48 17.0665 12.6893 17.5146 13.0948 17.6621L35.693 25.8729C36.4793 26.1591 37.4485 26.2985 38.4376 26.2985 39.5189 26.2985 40.623 26.131 41.5368 25.8067L39.7632 30.6798C39.3212 31.8943 37.9735 32.5226 36.7589 32.0805L3.14805 19.8615C1.93359 19.4195 1.30527 18.0719 1.74727 16.8575L3.08398 13.1848C3.52979 13.8702 4.19277 14.422 5.01855 14.7226L5.75293 14.9898C6.15801 15.1375 6.60664 14.9283 6.7542 14.5228 6.90176 14.1174 6.69268 13.6691 6.28721 13.5215L5.55293 13.2544C4.33867 12.8124 3.71025 11.4651 4.15195 10.2507L4.41934 9.51608C4.41934 9.51608 4.41943 9.51588 4.41943 9.51578L5.2209 7.31373C5.66299 6.09928 7.01055 5.47067 8.22519 5.91295L47.7089 20.2698C48.2104 20.4523 48.396 20.6425 48.4337 20.7127 48.4022 20.7859 48.2341 20.9915 47.7503 21.2172z" fill="#00a9dd"/><path d="M10.692 15.1248 9.2235 14.5902C8.81813 14.4424 8.36979 14.6517 8.22213 15.0571 8.07457 15.4624 8.28356 15.9108 8.68903 16.0584L10.1575 16.593C10.2457 16.6251 10.3359 16.6403 10.4247 16.6403 10.7438 16.6403 11.0433 16.4432 11.1589 16.126 11.3065 15.7207 11.0974 15.2724 10.692 15.1248z" fill="#00a9dd"/></svg>