<svg width="17" height="15" viewBox="0 0 17 15" fill="none" xmlns="http://www.w3.org/2000/svg"><path d="M.591121 6.85221 4.34368 8.25278 5.79614 12.9239C5.88908 13.2231 6.25491 13.3336 6.49773 13.1351L8.58947 11.4299C8.80873 11.2512 9.12103 11.2423 9.35017 11.4087L13.1229 14.1478C13.3827 14.3366 13.7507 14.1942 13.8158 13.8804L16.5796.586279C16.6507.243411 16.3138-.0426208 15.9873.0836478L.586723 6.02473C.206669 6.1713.209981 6.70938.591121 6.85221zM5.56206 7.50722 12.896 2.99027C13.0278 2.90933 13.1634 3.08755 13.0502 3.19254L6.9976 8.81871C6.78485 9.01674 6.64762 9.28176 6.60875 9.56942L6.40257 11.0974C6.37526 11.3014 6.08869 11.3216 6.0324 11.1242L5.23944 8.33795C5.14862 8.02016 5.28097 7.68072 5.56206 7.50722z" fill="#fff"/></svg>