<svg xmlns="http://www.w3.org/2000/svg" width="18" height="12" fill="none" xmlns:v="https://vecta.io/nano"><path d="M16.956 1.925C16.76 1.202 16.19.632 15.47.437c-1.32-.36-6.603-.36-6.603-.36s-5.282.0-6.603.348c-.71.194-1.293.778-1.487 1.5C.43 3.245.43 5.984.43 5.984s0 2.752.348 4.06c.195.723.764 1.293 1.487 1.487 1.334.36 6.603.36 6.603.36s5.282.0 6.603-.348c.723-.194 1.293-.764 1.487-1.487.347-1.32.347-4.06.347-4.06s.014-2.752-.348-4.073zm-9.772 6.59v-5.06l4.392 2.53-4.392 2.53z" fill="#fff"/></svg>