<svg width="34" height="43" viewBox="0 0 34 43" fill="none" xmlns="http://www.w3.org/2000/svg"><path d="M33.6722 8.11182C33.6722 7.86094 33.5669 7.62197 33.3861 7.44814 33.386 7.44805 33.3859 7.44795 33.3859 7.44795 33.3859 7.44795 26.2079.275586 26.2027.270508L26.194.262403C26.0133.0937504 25.7753.0 25.528.0H2.7041C1.21064.0.0 1.21064.0 2.7041V39.365C0 40.8577 1.21006 42.0679 2.70283 42.0679H30.9682C32.4615 42.0679 33.6722 40.8572 33.6722 39.3638V8.14355C33.6722 8.14326 33.6722 8.13144 33.6722 8.11182zM30.3367 7.16211H26.5046V3.33281L30.3367 7.16211zM30.9682 40.1146H2.7041C2.29004 40.1146 1.95312 39.7784 1.95312 39.3649V2.70273C1.95312 2.28936 2.29004 1.95303 2.7041 1.95303H24.5515V8.13867C24.5515 8.67793 24.9888 9.11523 25.528 9.11523H31.719V39.3649C31.719 39.7784 31.3822 40.1146 30.9682 40.1146z" fill="#00a9dd"/><path d="M16.9732 24.2031C16.7703 24.2031 16.6033 24.1307 16.472 23.9861 16.3527 23.8414 16.2931 23.6426 16.2931 23.3894 16.2931 22.7265 16.4124 22.166 16.651 21.7079 16.8896 21.2499 17.2356 20.7497 17.689 20.2072 18.047 19.7733 18.3095 19.4117 18.4765 19.1224 18.6435 18.8331 18.7271 18.5076 18.7271 18.146 18.7271 17.7483 18.5779 17.4349 18.2796 17.2058 17.9933 16.9648 17.5996 16.8442 17.0984 16.8442 16.6689 16.8442 16.2573 16.9407 15.8635 17.1335 15.4698 17.3143 15.0104 17.5795 14.4855 17.9291 14.1872 18.0978 13.9426 18.1822 13.7517 18.1822 13.5488 18.1822 13.3699 18.0918 13.2148 17.911 13.0716 17.7181 13 17.4951 13 17.242 13 16.8924 13.1432 16.6092 13.4295 16.3922 13.9306 15.9583 14.5213 15.6208 15.2013 15.3797 15.8814 15.1266 16.5675 15 17.2595 15 17.9873 15 18.6316 15.1266 19.1924 15.3797 19.7651 15.6328 20.2066 15.9824 20.5168 16.4284 20.8389 16.8744 21 17.3866 21 17.9652 21 18.592 20.8509 19.1405 20.5526 19.6106 20.2543 20.0686 19.8188 20.5869 19.2461 21.1655 18.7569 21.6718 18.387 22.0997 18.1365 22.4492 17.8978 22.7867 17.7487 23.1725 17.689 23.6064 17.6532 23.7993 17.5697 23.9499 17.4385 24.0584 17.3192 24.1548 17.1641 24.2031 16.9732 24.2031zM17.0089 28C16.6271 28 16.311 27.8734 16.0604 27.6203 15.8098 27.3551 15.6846 27.0297 15.6846 26.6439 15.6846 26.2582 15.8098 25.9388 16.0604 25.6857 16.311 25.4205 16.6271 25.2879 17.0089 25.2879 17.3908 25.2879 17.7069 25.4205 17.9575 25.6857 18.2081 25.9388 18.3333 26.2582 18.3333 26.6439 18.3333 27.0297 18.2021 27.3551 17.9396 27.6203 17.689 27.8734 17.3788 28 17.0089 28z" fill="#00a9dd"/></svg>