<svg width="50" height="50" viewBox="0 0 50 50" fill="none" xmlns="http://www.w3.org/2000/svg"><path d="M24.9991 39.7081C33.202 39.7081 39.8518 33.1229 39.8518 24.9997 39.8518 16.8765 33.202 10.2913 24.9991 10.2913 16.7962 10.2913 10.1465 16.8765 10.1465 24.9997 10.1465 33.1229 16.7962 39.7081 24.9991 39.7081z" fill="#74c6ff"/><path d="M47.2997 18.7942H46.6588C46.1952 17.2032 45.5533 15.6693 44.7436 14.2171L45.1955 13.7696C45.7063 13.2638 45.9877 12.591 45.9877 11.8751 45.9877 11.1592 45.7063 10.4863 45.1956 9.98058L40.1616 4.99533C39.1095 3.95333 37.3975 3.95333 36.3453 4.99533L35.8922 5.44415C34.4218 4.63868 32.8683 4.0005 31.2569 3.54025V2.91075C31.2569 1.43439 30.0456.233215 28.5567.233215H21.4435C19.9545.233215 18.7433 1.43439 18.7433 2.91075V3.54025C17.1319 4.0006 15.5783 4.63868 14.108 5.44415L13.6549 4.99552C12.6027 3.95323 10.8907 3.95343 9.83848 4.99533L4.80439 9.98048C4.29365 10.4864 4.0123 11.1593 4.0123 11.8752 4.0123 12.591 4.29365 13.2639 4.80439 13.7696L5.25625 14.2171C4.44658 15.6693 3.80469 17.2032 3.34111 18.7942H2.7002C1.21133 18.7942.0 19.9953.0 21.4718V28.5278C0 30.0042 1.21133 31.2054 2.70029 31.2054H3.34121C3.80479 32.7963 4.44668 34.3304 5.25635 35.7824L4.80449 36.2299C4.29365 36.7357 4.0123 37.4084 4.0123 38.1243 4.0123 38.8402 4.29355 39.5132 4.80439 40.0191L9.83838 45.0042C10.8905 46.0462 12.6025 46.0462 13.6547 45.0042L14.1078 44.5554C15.5781 45.361 17.1317 45.999 18.7431 46.4594V47.0889C18.7431 48.5652 19.9544 49.7664 21.4433 49.7664H28.5565C30.0455 49.7664 31.2567 48.5652 31.2567 47.0889V46.4594C32.8681 45.999 34.4217 45.361 35.892 44.5554L36.3451 45.0042C37.3973 46.0462 39.1093 46.0462 40.1614 45.0042L45.1954 40.0191C45.7062 39.5131 45.9876 38.8402 45.9875 38.1243 45.9875 37.4084 45.7061 36.7356 45.1953 36.2299L44.7436 35.7824C45.5533 34.3303 46.1951 32.7963 46.6587 31.2054H47.2996C48.7886 31.2054 49.9999 30.0042 49.9999 28.5278V21.4718C50 19.9953 48.7887 18.7942 47.2997 18.7942zM48.0469 28.5278C48.0469 28.9273 47.7117 29.2523 47.2997 29.2523H45.9131C45.4664 29.2523 45.0767 29.5554 44.9666 29.9883 44.4794 31.905 43.7115 33.7394 42.6842 35.4403 42.4511 35.8264 42.5126 36.3218 42.8329 36.6391L43.8212 37.6177C43.9588 37.754 44.0345 37.9339 44.0345 38.1245 44.0346 38.3152 43.9588 38.4951 43.8211 38.6314L38.7871 43.6165C38.4928 43.9081 38.0139 43.9079 37.7195 43.6165L36.7398 42.6462C36.4243 42.3336 35.9373 42.2734 35.555 42.4999 33.8358 43.5182 31.9816 44.2794 30.044 44.7622 29.609 44.8706 29.3036 45.2613 29.3036 45.7098V47.089C29.3036 47.4884 28.9685 47.8134 28.5565 47.8134H21.4433C21.0313 47.8134 20.6962 47.4884 20.6962 47.089V45.7098C20.6962 45.2613 20.3909 44.8706 19.9558 44.7622 18.0181 44.2793 16.164 43.5182 14.4448 42.4999 14.2901 42.4081 14.1183 42.3635 13.9475 42.3635 13.6965 42.3635 13.4479 42.4601 13.26 42.6462L12.2803 43.6165C11.9859 43.9079 11.5069 43.9079 11.2126 43.6165L6.17871 38.6314C6.04111 38.4951 5.96533 38.3152 5.96533 38.1245 5.96533 37.934 6.04111 37.754 6.17871 37.6177L7.16699 36.6391C7.4874 36.3218 7.54893 35.8264 7.31582 35.4403 6.28848 33.7394 5.52061 31.905 5.0334 29.9883 4.92334 29.5553 4.53359 29.2523 4.08691 29.2523H2.70029C2.28828 29.2523 1.95312 28.9273 1.95312 28.5278V21.4718C1.95312 21.0723 2.28828 20.7473 2.70029 20.7473H4.08691C4.53359 20.7473 4.92334 20.4442 5.0334 20.0113 5.52061 18.0945 6.28848 16.2603 7.31582 14.5593 7.54893 14.1733 7.4874 13.6778 7.16699 13.3606L6.17871 12.3818C6.04111 12.2456 5.96533 12.0657 5.96533 11.8751 5.96533 11.6845 6.04111 11.5044 6.17871 11.3683L11.2127 6.38312C11.507 6.09171 11.986 6.09171 12.2804 6.38322L13.2601 7.35343C13.5757 7.66603 14.0626 7.72628 14.4449 7.49982 16.1641 6.48156 18.0182 5.72032 19.9559 5.23741 20.3909 5.12902 20.6963 4.7382 20.6963 4.28986V2.91066C20.6963 2.51124 21.0314 2.18624 21.4434 2.18624H28.5566C28.9686 2.18624 29.3037 2.51124 29.3037 2.91066V4.28976C29.3037 4.7381 29.609 5.12892 30.0441 5.23732 31.9816 5.72023 33.8358 6.48146 35.5551 7.49972 35.9373 7.72609 36.4242 7.66583 36.7399 7.35333L37.7196 6.38312C38.014 6.09171 38.493 6.09171 38.7873 6.38312L43.8213 11.3684C43.9589 11.5046 44.0347 11.6846 44.0347 11.8751 44.0347 12.0656 43.9589 12.2457 43.8213 12.3818L42.833 13.3606C42.5126 13.6778 42.4511 14.1733 42.6843 14.5593 43.7116 16.2603 44.4795 18.0945 44.9667 20.0113 45.0768 20.4443 45.4665 20.7473 45.9132 20.7473H47.2998C47.7118 20.7473 48.047 21.0723 48.047 21.4718V28.5278H48.0469z" fill="#00a9dd"/><path d="M24.9996 17.1265C18.1715 17.1265 13.4419 24.1619 13.244 24.4614 13.0281 24.788 13.0281 25.212 13.244 25.5385 13.4419 25.838 18.1715 32.8734 24.9996 32.8734 31.8277 32.8734 36.5573 25.838 36.7553 25.5385 36.9712 25.2119 36.9712 24.788 36.7553 24.4614 36.5573 24.1619 31.8277 17.1265 24.9996 17.1265zm0 13.7939C20.2306 30.9204 16.4565 26.552 15.2663 25 16.457 23.4473 20.2309 19.0796 24.9996 19.0796 29.7684 19.0796 33.5422 23.4473 34.7328 25 33.5422 26.5527 29.7684 30.9204 24.9996 30.9204z" fill="#fff"/><path d="M24.9991 20.694C22.6249 20.694 20.6934 22.6255 20.6934 24.9998 20.6934 27.374 22.6249 29.3055 24.9991 29.3055 27.3733 29.3055 29.3049 27.374 29.3049 24.9998 29.3049 22.6255 27.3732 20.694 24.9991 20.694zm0 6.6584C23.7019 27.3524 22.6465 26.297 22.6465 24.9998 22.6465 23.7025 23.7019 22.6471 24.9991 22.6471 26.2964 22.6471 27.3518 23.7025 27.3518 24.9998 27.3518 26.297 26.2964 27.3524 24.9991 27.3524z" fill="#fff"/></svg>