<svg width="320" height="1115" viewBox="0 0 320 1115" fill="none" xmlns="http://www.w3.org/2000/svg">
<path d="M382.378 2.9207C513.742 -8.83678 556.982 29.8791 610.278 46.402H675V557H-473V40.0247C-402.884 16.0617 -244.771 -22.1825 -173.247 16.5448C-83.8428 64.954 40.9398 67.273 153.381 67.273C265.823 67.273 314.365 9.00808 382.378 2.9207Z" fill="url(#paint0_linear)"/>
<path d="M381.378 12.9207C512.742 1.16325 555.982 39.8791 609.278 56.402H674V1237H-474V50.0247C-403.884 26.0617 -245.771 -12.1825 -174.247 26.5448C-84.8428 74.954 39.9398 77.273 152.381 77.273C264.823 77.273 313.365 19.0081 381.378 12.9207Z" fill="#0277BF"/>
<defs>
<linearGradient id="paint0_linear" x1="-293.066" y1="21.5" x2="-161.282" y2="302.383" gradientUnits="userSpaceOnUse">
<stop stop-color="#80D3FD"/>
<stop offset="1" stop-color="#1393E4"/>
</linearGradient>
</defs>
</svg>
