<svg width="42" height="32" viewBox="0 0 42 32" fill="none" xmlns="http://www.w3.org/2000/svg"><path d="M38.5.0H3.50003C1.56967.0.0 1.56967.0 3.50003V28.0001C0 29.9303 1.56967 31.5 3.50003 31.5H38.5001C40.4303 31.5 42 29.9303 42 28V3.50003C42 1.56967 40.4303.0 38.5.0zM3.50003 1.74997H38.5001C38.629 1.74997 38.7426 1.79698 38.8636 1.82355 35.8335 4.59679 25.7859 13.7886 22.2698 16.9565 21.9947 17.2043 21.5513 17.5 21.0001 17.5 20.4489 17.5 20.0055 17.2043 19.7294 16.9557 16.2136 13.7882 6.16555 4.59596 3.13589 1.82372 3.25713 1.79714 3.37099 1.74997 3.50003 1.74997zM1.74997 28V3.50003C1.74997 3.32858 1.80165 3.17305 1.84792 3.01637 4.16711 5.13901 11.1778 11.5525 15.7237 15.6863 11.1926 19.5785 4.18007 26.2269 1.84242 28.4561 1.80116 28.3073 1.74997 28.1617 1.74997 28zM38.5 29.75H3.50003C3.36025 29.75 3.23597 29.7013 3.10546 29.6701 5.52103 27.3673 12.5782 20.6807 17.0296 16.8725 17.6099 17.3989 18.14 17.8789 18.5578 18.2554 19.2791 18.9066 20.1233 19.25 21 19.25 21.8767 19.25 22.7209 18.9065 23.4412 18.2562 23.8593 17.8795 24.3898 17.3992 24.9704 16.8725 29.4221 20.6802 36.4782 27.3664 38.8945 29.6701 38.764 29.7013 38.6399 29.75 38.5 29.75zM40.25 28C40.25 28.1617 40.1988 28.3073 40.1577 28.4561 37.8191 26.2258 30.8074 19.5781 26.2764 15.6864 30.8224 11.5526 37.8321 5.13967 40.1521 3.01621 40.1983 3.17289 40.25 3.3285 40.25 3.49995V28z" fill="#00a9dd"/></svg>