<svg width="50" height="50" viewBox="0 0 50 50" fill="none" xmlns="http://www.w3.org/2000/svg"><g clip-path="url(#clip0)"><path d="M43 7V33H40V7h3z" fill="#74c6ff"/><path d="M47.3092 32.6127H44.2809L43.4664 7.92188C43.4292 6.79512 42.5171 5.9126 41.3898 5.9126 40.2625 5.9126 39.3503 6.79521 39.3132 7.92188L38.4987 32.6127H33.1878C32.7824 32.6127 32.4539 32.9413 32.4539 33.3466 32.4539 33.7519 32.7824 34.0805 33.1878 34.0805H47.3091C47.9835 34.0805 48.5321 34.6291 48.5321 35.3035v6.0929C48.5321 42.0708 47.9835 42.6195 47.3091 42.6195H16.5015C16.0961 42.6195 15.7676 42.948 15.7676 43.3534 15.7676 43.7588 16.0961 44.0873 16.5015 44.0873H47.3093C48.793 44.0873 50.0001 42.8802 50.0001 41.3965V35.3036C50 33.8198 48.7929 32.6127 47.3092 32.6127zM40.7802 7.97021C40.7911 7.63945 41.0589 7.38027 41.3899 7.38027 41.7209 7.38027 41.9887 7.63945 41.9996 7.97021L42.8124 32.6127H39.9674L40.7802 7.97021z" fill="#00a9dd"/><path d="M13.566 42.6195H2.69082C2.01641 42.6195 1.46777 42.0709 1.46777 41.3964V35.3035C1.46777 34.6291 2.01641 34.0805 2.69082 34.0805H30.2525C30.6579 34.0805 30.9864 33.752 30.9864 33.3466 30.9864 32.9413 30.6579 32.6127 30.2525 32.6127H11.5018L10.6873 7.92188C10.6501 6.79512 9.73799 5.9126 8.61074 5.9126 7.4834 5.9126 6.57119 6.79521 6.53408 7.92188L6.16348 19.1571C6.1501 19.5622 6.46768 19.9014 6.87275 19.9147 7.27568 19.9251 7.61699 19.6105 7.63037 19.2055L8.00098 7.97021C8.01191 7.63945 8.27969 7.38027 8.61074 7.38027 8.9417 7.38027 9.20947 7.63945 9.22041 7.97021L10.0332 32.6127H7.18818L7.53359 22.1387C7.54697 21.7336 7.22939 21.3944 6.82432 21.3811 6.41973 21.3683 6.07998 21.6853 6.0667 22.0903L5.71963 32.6127H2.69082C1.20713 32.6127.0 33.8198.0 35.3035v6.0929C0 42.8801 1.20713 44.0872 2.69082 44.0872H13.566C13.9714 44.0872 14.2999 43.7586 14.2999 43.3533 14.2999 42.948 13.9713 42.6195 13.566 42.6195z" fill="#00a9dd"/><path d="M5.6875 39.1782C5.28213 39.1782 4.95361 39.5068 4.95361 39.9121 4.95361 40.3174 5.28213 40.646 5.6875 40.646H8.03184C8.43721 40.646 8.76573 40.3174 8.76573 39.9121 8.76573 39.5068 8.43721 39.1782 8.03184 39.1782H5.6875z" fill="#00a9dd"/><path d="M13.5661 39.1782H11.2217C10.8163 39.1782 10.4878 39.5068 10.4878 39.9121 10.4878 40.3174 10.8163 40.646 11.2217 40.646H13.5661C13.9715 40.646 14.3 40.3174 14.3 39.9121 14.2999 39.5067 13.9714 39.1782 13.5661 39.1782z" fill="#00a9dd"/><path d="M16.7559 39.1782C16.3505 39.1782 16.022 39.5068 16.022 39.9121 16.022 40.3174 16.3505 40.646 16.7559 40.646H19.1002C19.5056 40.646 19.8341 40.3174 19.8341 39.9121 19.8341 39.5068 19.5056 39.1782 19.1002 39.1782H16.7559z" fill="#00a9dd"/><path d="M22.29 39.1782C21.8847 39.1782 21.5562 39.5068 21.5562 39.9121 21.5562 40.3174 21.8847 40.646 22.29 40.646H24.6344C25.0397 40.646 25.3683 40.3174 25.3683 39.9121 25.3683 39.5068 25.0397 39.1782 24.6344 39.1782H22.29z" fill="#00a9dd"/><path d="M38.88 40.646C39.2854 40.646 39.6139 40.3174 39.6139 39.9121 39.6139 39.5068 39.2854 39.1782 38.88 39.1782H36.5356C36.1303 39.1782 35.8018 39.5068 35.8018 39.9121 35.8018 40.3174 36.1303 40.646 36.5356 40.646H38.88z" fill="#00a9dd"/><path d="M44.3395 40.646C44.7448 40.646 45.0733 40.3174 45.0733 39.9121 45.0733 39.5068 44.7448 39.1782 44.3395 39.1782H41.9951C41.5897 39.1782 41.2612 39.5068 41.2612 39.9121 41.2612 40.3174 41.5897 40.646 41.9951 40.646H44.3395z" fill="#00a9dd"/><path d="M16.0165 17.9819C20.9704 13.0277 29.0312 13.0279 33.9851 17.9819 34.1285 18.1251 34.3162 18.1968 34.504 18.1968 34.6918 18.1968 34.8796 18.1251 35.023 17.9819 35.3095 17.6953 35.3095 17.2306 35.023 16.9441 29.4967 11.4178 20.5048 11.4177 14.9786 16.9441 14.692 17.2306 14.692 17.6953 14.9786 17.9819 15.2652 18.2685 15.7298 18.2685 16.0165 17.9819z" fill="#00a9dd"/><path d="M32.2392 20.7652C32.5257 20.4786 32.5257 20.0139 32.2392 19.7274 28.2518 15.7401 21.7663 15.7361 17.7739 19.7152 17.5465 19.9318 17.4763 20.2792 17.6241 20.5747 17.7526 20.8318 18.0119 20.9805 18.281 20.9805 18.3912 20.9805 18.5033 20.9556 18.6086 20.9029 18.6819 20.8663 18.7472 20.8184 18.8029 20.7619 22.2225 17.3459 27.7832 17.3472 31.2013 20.7652 31.4879 21.0517 31.9526 21.0517 32.2392 20.7652z" fill="#00a9dd"/><path d="M28.9891 23.7116C29.1769 23.7116 29.3647 23.6399 29.508 23.4967 29.7945 23.2102 29.7945 22.7454 29.508 22.4589 28.304 21.2549 26.7032 20.5918 25.0004 20.5918 23.2978 20.5918 21.6969 21.2549 20.4928 22.4589 20.2062 22.7454 20.2062 23.2102 20.4928 23.4967 20.7793 23.7833 21.244 23.7833 21.5307 23.4967 22.4574 22.5699 23.6898 22.0595 25.0003 22.0595 26.3111 22.0595 27.5432 22.5699 28.4699 23.4967 28.6135 23.64 28.8013 23.7116 28.9891 23.7116z" fill="#00a9dd"/><path d="M22.8853 24.8458C22.7465 24.9832 22.6676 25.171 22.6676 25.3676 22.6585 26.0179 23.4827 26.3472 23.9246 25.8822 24.2125 25.5964 24.5943 25.439 25.0003 25.439 25.4082 25.439 25.7917 25.5979 26.0801 25.8863 26.791 26.5494 27.7809 25.5587 27.1179 24.8485 25.951 23.6816 24.0532 23.6808 22.8853 24.8458z" fill="#00a9dd"/></g><defs><clipPath id="clip0"><path d="M0 0h50v50H0z" fill="#fff"/></clipPath></defs></svg>