<svg width="46" height="43" viewBox="0 0 46 43" fill="none" xmlns="http://www.w3.org/2000/svg"><g clip-path="url(#clip0)"><path d="M41.2083 32.25h-5.75C34.9293 32.25 34.5 31.8487 34.5 31.3542 34.5 30.8597 34.9293 30.4583 35.4583 30.4583h5.75c1.585099999999997.0 2.875-1.2058 2.875-2.6875V15.2292c0-1.4817-1.289900000000003-2.6875-2.875-2.6875H4.79167C3.20658 12.5417 1.91667 13.7475 1.91667 15.2292V27.7708C1.91667 29.2525 3.20658 30.4583 4.79167 30.4583H10.5417C11.0707 30.4583 11.5 30.8597 11.5 31.3542 11.5 31.8487 11.0707 32.25 10.5417 32.25H4.79167C2.14858 32.25.0 30.2397.0 27.7708V15.2292C0 12.7602 2.14858 10.75 4.79167 10.75H41.2083C43.8514 10.75 46 12.7602 46 15.2292V27.7708C46 30.2397 43.8514 32.25 41.2083 32.25z" fill="#00a9dd"/><path d="M34.5002 1.0752 35.0752 6.4502 10.9252 6.45019 11.5002 1.0752h23z" fill="#74c6ff"/><path d="M27.7918 37.6252h-11.5C15.7628 37.6252 15.3335 37.2238 15.3335 36.7293 15.3335 36.2348 15.7628 35.8335 16.2918 35.8335h11.5C28.3208 35.8335 28.7502 36.2348 28.7502 36.7293 28.7502 37.2238 28.3208 37.6252 27.7918 37.6252z" fill="#00a9dd"/><path d="M27.7918 34.0417h-11.5C15.7628 34.0417 15.3335 33.6403 15.3335 33.1458 15.3335 32.6513 15.7628 32.25 16.2918 32.25h11.5C28.3208 32.25 28.7502 32.6513 28.7502 33.1458 28.7502 33.6403 28.3208 34.0417 27.7918 34.0417z" fill="#00a9dd"/><path d="M20.1252 30.4582H16.2918C15.7628 30.4582 15.3335 30.0568 15.3335 29.5623 15.3335 29.0678 15.7628 28.6665 16.2918 28.6665H20.1252C20.6542 28.6665 21.0835 29.0678 21.0835 29.5623 21.0835 30.0568 20.6542 30.4582 20.1252 30.4582z" fill="#00a9dd"/><path d="M35.4585 12.5417C34.9295 12.5417 34.5002 12.1403 34.5002 11.6458V4.47917C34.5002 2.99746 33.2103 1.79167 31.6252 1.79167h-17.25C12.7901 1.79167 11.5002 2.99746 11.5002 4.47917V11.6458C11.5002 12.1403 11.0708 12.5417 10.5418 12.5417 10.0128 12.5417 9.5835 12.1403 9.5835 11.6458V4.47917C9.5835 2.01025 11.7321.0 14.3752.0h17.25C34.2683.0 36.4168 2.01025 36.4168 4.47917V11.6458C36.4168 12.1403 35.9875 12.5417 35.4585 12.5417z" fill="#00a9dd"/><path d="M31.6252 42.9998h-17.25C11.7321 42.9998 9.5835 40.9896 9.5835 38.5207V24.1873C9.5835 23.6928 10.0128 23.2915 10.5418 23.2915H35.4585C35.9875 23.2915 36.4168 23.6928 36.4168 24.1873V38.5207C36.4168 40.9896 34.2683 42.9998 31.6252 42.9998zM11.5002 25.0832V38.5207C11.5002 40.0024 12.7901 41.2082 14.3752 41.2082h17.25C33.2103 41.2082 34.5002 40.0024 34.5002 38.5207V25.0832h-23z" fill="#00a9dd"/></g><defs><clipPath id="clip0"><path d="M0 0h46v43H0z" fill="#fff"/></clipPath></defs></svg>