<svg width="50" height="50" viewBox="0 0 50 50" fill="none" xmlns="http://www.w3.org/2000/svg"><path d="M49.9977 40.6311C49.9972 40.6237 49.9973 40.6165 49.9966 40.6092 49.9939 40.5802 49.9897 40.5518 49.9838 40.5239 49.9832 40.5212 49.9823 40.5185 49.9816 40.5157 49.9759 40.4901 49.9688 40.4651 49.9604 40.4407 49.9581 40.4342 49.9557 40.4278 49.9532 40.4214 49.945 40.3992 49.9357 40.3776 49.9255 40.3566 49.9237 40.3529 49.9226 40.3491 49.9207 40.3454L46.0035 32.619V7.19912C46.0035 6.41729 45.3675 5.78125 44.5856 5.78125H5.41416C4.63232 5.78125 3.99629 6.41729 3.99629 7.19912V32.6188L.0791992 40.3453C.0773437 40.349.0761719 40.3528.0744141 40.3565.0641602 40.3775.0549805 40.3991.0466797 40.4212.0442383 40.4276.0417969 40.4341.0395508 40.4406.03125 40.4651.0240234 40.4902.0182617 40.5158.0176758 40.5185.0167969 40.5211.0162109 40.5237.0102539 40.5517.00605469 40.5801.00341797 40.6091.00273437 40.6163.00273437 40.6236.00234375 40.6309.00136719 40.6461.0 40.6611.0 40.6766V42.5346C0 43.4632.755371 44.2186 1.68398 44.2186H48.316C49.2446 44.2186 50 43.4632 50 42.5346V40.6766C50 40.6611 49.9986 40.6461 49.9977 40.6311zM5.46123 7.24629H44.5388V32.0616H5.46123V7.24629zM5.17861 33.5264H44.8213L48.075 39.944H31.9832L31.1755 37.0154C31.011 36.4192 30.4644 36.0028 29.8459 36.0028h-9.692C19.5354 36.0028 18.9887 36.4192 18.8243 37.0153L18.0166 39.944H1.9249l3.25371-6.4176zM30.4637 39.9441H19.5363L20.2192 37.4678H29.7808L30.4637 39.9441zM48.5352 42.5345C48.5352 42.6553 48.4368 42.7536 48.316 42.7536H1.68398C1.56318 42.7536 1.46484 42.6553 1.46484 42.5345V41.4089H48.5352V42.5345z" fill="#00a9dd"/><path d="M42 10V30H8V10H42z" fill="#74c6ff"/><path d="M42.2436 20.8745C41.839 20.8745 41.5111 21.2023 41.5111 21.6069V29.0342H8.48828V21.6069C8.48828 21.2023 8.16045 20.8745 7.75586 20.8745 7.35127 20.8745 7.02344 21.2023 7.02344 21.6069V29.3505C7.02344 29.9838 7.53857 30.499 8.17197 30.499H41.8275C42.4608 30.499 42.9761 29.9839 42.9761 29.3505V21.6069C42.976 21.2025 42.6481 20.8745 42.2436 20.8745z" fill="#00a9dd"/><path d="M41.8274 8.80859H8.17197C7.53867 8.80859 7.02344 9.32373 7.02344 9.95713V17.7007C7.02344 18.1053 7.35127 18.4331 7.75586 18.4331 8.16045 18.4331 8.48828 18.1053 8.48828 17.7007V10.2734H41.5111V17.7007C41.5111 18.1053 41.839 18.4331 42.2436 18.4331 42.6481 18.4331 42.976 18.1053 42.976 17.7007V9.95713C42.976 9.32363 42.4608 8.80859 41.8274 8.80859z" fill="#00a9dd"/></svg>