<svg width="166" height="517" viewBox="0 0 166 517" fill="none" xmlns="http://www.w3.org/2000/svg"><path d="M166 451.163C166 463.81 164.404 476.084 161.212 487.987 158.019 499.89 153.763 509.561 148.442 517L115.151 502.494C119.864 495.501 123.664 487.392 126.552 478.167 129.44 468.943 130.885 459.867 130.885 450.94 130.885 433.979 126.552 425.498 117.887 425.498 113.327 425.498 109.983 427.953 107.854 432.863 105.574 437.624 103.218 445.361 100.786 456.073 98.2015 467.827 95.4652 477.647 92.5769 485.532 89.5366 493.418 84.7482 500.187 78.2115 505.841 71.6749 511.495 62.8581 514.322 51.761 514.322 42.0321 514.322 33.2912 511.718 25.5385 506.511 17.6337 501.303 11.4011 493.567 6.84066 483.3 2.28022 472.886-248435e-11 460.165-314121e-11 445.137-358995e-11 434.871 1.21612 424.754 3.64835 414.786 5.92857 404.817 9.3489 396.039 13.9093 388.451L47.4286 402.065C39.2198 416.943 35.1154 431.375 35.1154 445.361 35.1154 454.139 36.4835 460.537 39.2198 464.554 41.804 468.571 45.2244 470.579 49.4808 470.579 53.7372 470.579 56.9295 468.199 59.0577 463.438 61.1859 458.677 63.3901 451.014 65.6703 440.451 68.2546 428.548 71.0668 418.728 74.1071 410.992 76.9954 403.106 81.7079 396.336 88.2445 390.683 94.6291 384.88 103.37 381.979 114.467 381.979 124.044 381.979 132.709 384.583 140.462 389.79 148.214 394.997 154.447 402.809 159.159 413.223 163.72 423.638 166 436.285 166 451.163z" fill="#dbf0ff"/><path d="M162.808 220.52 78.2115 220.966 147.074 261.138V280.777L80.4917 320.726H162.808V361.567H3.1923V325.189L95.3132 270.288 3.19229 216.726V180.348L162.808 179.902V220.52z" fill="#dbf0ff"/><path d="M79.5797 28.5665C82.772 19.6394 87.7884 12.6466 94.6291 7.58798 101.318 2.52929 109.451-478424e-11 119.027-520286e-11 133.013-581417e-11 143.806 5.50494 151.407 16.5149 159.007 27.525 162.808 43.4448 162.808 64.2745V148.635H3.19229V68.738C3.19229 48.801 6.99265 33.6251 14.5934 23.2102 22.0421 12.7954 32.1511 7.58798 44.9203 7.58798 52.521 7.58798 59.3617 9.44775 65.4423 13.1673 71.3709 16.7381 76.0833 21.8712 79.5797 28.5665zM35.7994 104.892H66.5824V74.5406C66.5824 59.6622 61.4139 52.223 51.0769 52.223 40.8919 52.223 35.7994 59.6622 35.7994 74.5406V104.892zM130.201 67.8453C130.201 52.3718 124.804 44.6351 114.011 44.6351 103.218 44.6351 97.8214 52.3718 97.8214 67.8453V104.892H130.201V67.8453z" fill="#dbf0ff"/></svg>