<svg width="50" height="50" viewBox="0 0 50 50" fill="none" xmlns="http://www.w3.org/2000/svg"><path d="M46.6658.833252H3.33418C1.4958.833252.0 2.32915.0 4.16743V31.6666C0 32.1265.37334 32.4999.833301 32.4999H49.1666C49.6266 32.4999 49.9999 32.1265 49.9999 31.6666V4.16743C50 2.32915 48.5042.833252 46.6658.833252zM48.3333 30.8333H1.6667V4.16743C1.6667 3.24741 2.41504 2.49995 3.33418 2.49995H46.6658C47.585 2.49995 48.3333 3.24741 48.3333 4.16743V30.8333z" fill="#00a9dd"/><path d="M49.1667 30.8333H.833301C.37334 30.8333.0 31.2066.0 31.6666V35.8324C0 37.6708 1.4958 39.1666 3.33418 39.1666H46.6658C48.5042 39.1666 50 37.6708 50 35.8324V31.6666C50 31.2066 49.6267 30.8333 49.1667 30.8333zM48.3333 35.8325C48.3333 36.7525 47.585 37.5 46.6658 37.5H3.33418C2.41504 37.5 1.6667 36.7525 1.6667 35.8325V32.5H48.3334V35.8325H48.3333z" fill="#00a9dd"/><path d="M27.4998 34.1667h-5C22.0398 34.1667 21.6665 34.5401 21.6665 35 21.6665 35.46 22.0398 35.8334 22.4998 35.8334h5C27.9598 35.8334 28.3331 35.46 28.3331 35 28.3331 34.5401 27.9598 34.1667 27.4998 34.1667z" fill="#00a9dd"/><path d="M45.8334 4.16675H4.1668C3.70684 4.16675 3.3335 4.54009 3.3335 5.00005V31.6667C3.3335 32.1267 3.70684 32.5001 4.1668 32.5001H45.8335C46.2935 32.5001 46.6668 32.1267 46.6668 31.6667V5.00005C46.6668 4.54009 46.2935 4.16675 45.8334 4.16675zM45.0001 30.8334h-40V5.83335h40V30.8334z" fill="#00a9dd"/><path d="M35.8336 44.1667H14.167C12.7887 44.1667 11.667 45.2884 11.667 46.6667 11.667 48.0451 12.7887 49.1668 14.167 49.1668H35.8337C37.212 49.1668 38.3337 48.0451 38.3337 46.6667 38.3337 45.2884 37.2119 44.1667 35.8336 44.1667zM35.8336 47.5001H14.167C13.707 47.5001 13.3337 47.1259 13.3337 46.6667 13.3337 46.2076 13.707 45.8334 14.167 45.8334H35.8337C36.2936 45.8334 36.667 46.2076 36.667 46.6667 36.667 47.1259 36.2937 47.5001 35.8336 47.5001z" fill="#00a9dd"/><path d="M34.1666 44.1667C31.4016 44.1667 29.9999 42.2042 29.9999 38.3334 29.9999 37.8735 29.6266 37.5001 29.1666 37.5001H20.8333C20.3733 37.5001 20 37.8735 20 38.3334 20 42.2042 18.5983 44.1667 15.8333 44.1667 15.3733 44.1667 15 44.5401 15 45 15 45.46 15.3733 45.8333 15.8333 45.8333H34.1666C34.6265 45.8333 34.9999 45.46 34.9999 45 34.9999 44.5401 34.6265 44.1667 34.1666 44.1667zM19.8924 44.1667C20.9183 43.0301 21.5224 41.3375 21.644 39.1667H28.3565C28.4773 41.3375 29.0815 43.0301 30.1082 44.1667H19.8924z" fill="#00a9dd"/><path d="M39.8197 25.3866 37.8081 23.375 38.9272 22.2559C39.1347 22.0483 39.218 21.7467 39.1463 21.4625 39.0747 21.1783 38.8588 20.9533 38.578 20.8684L30.2447 18.3684C29.9506 18.28 29.6331 18.3608 29.4164 18.5775 29.1989 18.7942 29.1189 19.1125 29.2072 19.4059L31.7072 27.7392C31.7914 28.0208 32.0171 28.2366 32.3013 28.3083 32.5846 28.3783 32.8872 28.2966 33.0947 28.0892L34.273 26.91 36.2846 28.9225C36.4405 29.0791 36.653 29.1666 36.8738 29.1666 37.0946 29.1666 37.3071 29.0791 37.4629 28.9225L39.8196 26.5649C40.1455 26.2392 40.1455 25.7125 39.8197 25.3866zM36.8738 27.155 35.0421 25.3225C34.8296 25.11 34.5513 25.0041 34.273 25.0041 33.9938 25.0041 33.7155 25.1107 33.5039 25.3216L32.9022 25.9232 31.248 20.4091 36.7622 22.0633 36.1171 22.7083C35.9396 22.8866 35.8421 23.1233 35.8421 23.375 35.8421 23.6275 35.9405 23.8658 36.1188 24.0425L38.0521 25.9758 36.8738 27.155z" fill="#00a9dd"/><path d="M35 8v5H12.0435L11 8H35z" fill="#74c6ff"/><path d="M21 17v4H15.2609L15 17h6z" fill="#74c6ff"/><path d="M35.0001 7.5H11.6668C11.2068 7.5 10.8335 7.87334 10.8335 8.3333V12.5C10.8335 12.96 11.2068 13.3333 11.6668 13.3333H35.0001C35.4601 13.3333 35.8334 12.96 35.8334 12.5V8.3333C35.8334 7.87334 35.4601 7.5 35.0001 7.5zM34.1668 11.6667H12.5001v-2.5H34.1668v2.5z" fill="#00a9dd"/><path d="M21.667 16.6667H15.0003C14.5403 16.6667 14.167 17.0401 14.167 17.5V20.8333C14.167 21.2933 14.5403 21.6666 15.0003 21.6666H21.667C22.127 21.6666 22.5003 21.2933 22.5003 20.8333V17.5C22.5003 17.0401 22.127 16.6667 21.667 16.6667zM20.8336 20h-5V18.3333h5V20z" fill="#00a9dd"/><path d="M35.0001 7.5H11.6668C11.2068 7.5 10.8335 7.87334 10.8335 8.3333V24.1666C10.8335 24.6266 11.2068 24.9999 11.6668 24.9999H31.5052C31.7693 24.9999 32.0168 24.8758 32.1735 24.6641 32.3311 24.4524 32.3794 24.1791 32.3035 23.9266L31.2485 20.4091 34.761 21.4633C35.0136 21.5392 35.2869 21.4908 35.4977 21.3333 35.7093 21.1767 35.8335 20.9283 35.8335 20.6649V8.3333C35.8334 7.87334 35.4601 7.5 35.0001 7.5zM34.1668 19.545 30.2442 18.3684C29.9501 18.28 29.6326 18.3608 29.4159 18.5775 29.1984 18.795 29.1185 19.1125 29.2067 19.4067L30.3851 23.3334H12.5001V9.1667H34.1668V19.545z" fill="#00a9dd"/></svg>