<svg width="50" height="50" viewBox="0 0 50 50" fill="none" xmlns="http://www.w3.org/2000/svg"><path d="M46.0938 3.90625H3.90625C3.28487 3.90697 2.68915 4.15414 2.24977 4.59352 1.81039 5.0329 1.56322 5.62862 1.5625 6.25V34.375C1.56322 34.9964 1.81039 35.5921 2.24977 36.0315 2.68915 36.4709 3.28487 36.718 3.90625 36.7188H20.9527L19.6507 44.5312H15.625V46.0938h18.75V44.5312H30.3493L29.0473 36.7188H46.0938C46.7151 36.718 47.3108 36.4709 47.7502 36.0315 48.1896 35.5921 48.4368 34.9964 48.4375 34.375V6.25C48.4368 5.62862 48.1896 5.0329 47.7502 4.59352 47.3108 4.15414 46.7151 3.90697 46.0938 3.90625zM46.875 6.25V17.1875H42.1875V16.4062C42.1866 15.5777 41.857 14.7834 41.2712 14.1976 40.6853 13.6117 39.891 13.2822 39.0625 13.2812H33.5938C32.7652 13.2822 31.9709 13.6117 31.3851 14.1976 30.7992 14.7834 30.4697 15.5777 30.4688 16.4062V17.1875H25.7812V5.46875H46.0938C46.3009 5.46898 46.4995 5.55137 46.6459 5.69783 46.7924 5.84429 46.8748 6.04287 46.875 6.25zm-6.25 24.2188H32.0312V29.6875C32.0317 29.2733 32.1965 28.8761 32.4894 28.5832 32.7824 28.2903 33.1795 28.1255 33.5938 28.125H39.0625C39.4767 28.1255 39.8739 28.2903 40.1668 28.5832 40.4597 28.8761 40.6245 29.2733 40.625 29.6875V30.4688zM39.0625 26.5625H33.5938C32.7652 26.5634 31.9709 26.893 31.3851 27.4788 30.7992 28.0647 30.4697 28.859 30.4688 29.6875V30.4688H25.7812V18.75H46.875V30.4688H42.1875V29.6875C42.1866 28.859 41.857 28.0647 41.2712 27.4788 40.6853 26.893 39.891 26.5634 39.0625 26.5625zM17.9688 30.4688H9.375V29.6875C9.37549 29.2733 9.54027 28.8761 9.83319 28.5832 10.1261 28.2903 10.5232 28.1255 10.9375 28.125H16.4062C16.8205 28.1255 17.2176 28.2903 17.5106 28.5832 17.8035 28.8761 17.9683 29.2733 17.9688 29.6875V30.4688zM16.4062 26.5625H10.9375C10.109 26.5634 9.31467 26.893 8.72882 27.4788 8.14297 28.0647 7.81343 28.859 7.8125 29.6875V30.4688H3.125V18.75H24.2188V30.4688H19.5312V29.6875C19.5303 28.859 19.2008 28.0647 18.6149 27.4788 18.0291 26.893 17.2348 26.5634 16.4062 26.5625zM17.9688 17.1875H9.375V16.4062C9.37549 15.992 9.54027 15.5949 9.83319 15.3019 10.1261 15.009 10.5232 14.8442 10.9375 14.8438H16.4062C16.8205 14.8442 17.2176 15.009 17.5106 15.3019 17.8035 15.5949 17.9683 15.992 17.9688 16.4062V17.1875zm22.6562.0H32.0312V16.4062C32.0317 15.992 32.1965 15.5949 32.4894 15.3019 32.7824 15.009 33.1795 14.8442 33.5938 14.8438H39.0625C39.4767 14.8442 39.8739 15.009 40.1668 15.3019 40.4597 15.5949 40.6245 15.992 40.625 16.4062V17.1875zM3.90625 5.46875H24.2188V17.1875H19.5312V16.4062C19.5303 15.5777 19.2008 14.7834 18.6149 14.1976 18.0291 13.6117 17.2348 13.2822 16.4062 13.2812H10.9375C10.109 13.2822 9.31467 13.6117 8.72882 14.1976 8.14297 14.7834 7.81343 15.5777 7.8125 16.4062V17.1875H3.125V6.25C3.12523 6.04287 3.20762 5.84429 3.35408 5.69783 3.50054 5.55137 3.69912 5.46898 3.90625 5.46875zM28.7653 44.5312H21.2348L22.5368 36.7188H27.4632L28.7653 44.5312zM46.0938 35.1562H3.90625C3.69912 35.156 3.50054 35.0736 3.35408 34.9272 3.20762 34.7807 3.12523 34.5821 3.125 34.375V32.0312h43.75V34.375C46.8748 34.5821 46.7924 34.7807 46.6459 34.9272 46.4995 35.0736 46.3009 35.156 46.0938 35.1562z" fill="#00a9dd"/><path d="M13.5 7.5 16 10l-2.5 2.5L11 10l2.5-2.5z" fill="#74c6ff"/><path d="M36.5 7.5 39 10l-2.5 2.5L34 10l2.5-2.5z" fill="#74c6ff"/><path d="M36.5 21 39 23.5 36.5 26 34 23.5 36.5 21z" fill="#74c6ff"/><path d="M13.5 21 16 23.5 13.5 26 11 23.5 13.5 21z" fill="#74c6ff"/><path d="M39.4531 10.1563C39.4531 9.53819 39.2699 8.934 38.9265 8.4201 38.5831 7.90619 38.095 7.50565 37.524 7.26913 36.953 7.0326 36.3247 6.97072 35.7185 7.0913 35.1123 7.21188 34.5555 7.5095 34.1184 7.94654 33.6814 8.38358 33.3838 8.9404 33.2632 9.54659 33.1426 10.1528 33.2045 10.7811 33.441 11.3521 33.6775 11.9232 34.0781 12.4112 34.592 12.7546 35.1059 13.098 35.7101 13.2813 36.3281 13.2813 37.1567 13.2803 37.951 12.9508 38.5368 12.3649 39.1227 11.7791 39.4522 10.9848 39.4531 10.1563zm-3.125 1.5625C36.0191 11.7188 35.717 11.6271 35.4601 11.4554 35.2031 11.2837 35.0028 11.0397 34.8846 10.7542 34.7663 10.4687 34.7354 10.1545 34.7957 9.85142 34.8559 9.54833 35.0048 9.26992 35.2233 9.0514 35.4418 8.83288 35.7202 8.68406 36.0233 8.62377 36.3264 8.56349 36.6406 8.59443 36.9261 8.71269 37.2116 8.83095 37.4556 9.03122 37.6273 9.28817 37.799 9.54513 37.8906 9.84722 37.8906 10.1563 37.8901 10.5705 37.7254 10.9676 37.4324 11.2606 37.1395 11.5535 36.7424 11.7183 36.3281 11.7188z" fill="#00a9dd"/><path d="M16.7969 10.1563C16.7969 9.53819 16.6136 8.934 16.2702 8.4201 15.9268 7.90619 15.4388 7.50565 14.8678 7.26913 14.2967 7.0326 13.6684 6.97072 13.0622 7.0913 12.456 7.21188 11.8992 7.5095 11.4622 7.94654 11.0251 8.38358 10.7275 8.9404 10.6069 9.54659 10.4863 10.1528 10.5482 10.7811 10.7848 11.3521 11.0213 11.9232 11.4218 12.4112 11.9357 12.7546 12.4496 13.098 13.0538 13.2813 13.6719 13.2813 14.5004 13.2803 15.2947 12.9508 15.8806 12.3649 16.4664 11.7791 16.7959 10.9848 16.7969 10.1563zm-3.125 1.5625C13.3628 11.7188 13.0607 11.6271 12.8038 11.4554 12.5468 11.2837 12.3466 11.0397 12.2283 10.7542 12.1101 10.4687 12.0791 10.1545 12.1394 9.85142 12.1997 9.54833 12.3485 9.26992 12.567 9.0514 12.7855 8.83288 13.064 8.68406 13.367 8.62377 13.6701 8.56349 13.9843 8.59443 14.2698 8.71269 14.5553 8.83095 14.7994 9.03122 14.971 9.28817 15.1427 9.54513 15.2344 9.84722 15.2344 10.1563 15.2339 10.5705 15.0691 10.9676 14.7762 11.2606 14.4833 11.5535 14.0861 11.7183 13.6719 11.7188z" fill="#00a9dd"/><path d="M39.4531 23.4375C39.4531 22.8194 39.2699 22.2153 38.9265 21.7013 38.5831 21.1874 38.095 20.7869 37.524 20.5504 36.953 20.3139 36.3247 20.252 35.7185 20.3725 35.1123 20.4931 34.5555 20.7908 34.1184 21.2278 33.6814 21.6648 33.3838 22.2217 33.2632 22.8279 33.1426 23.434 33.2045 24.0624 33.441 24.6334 33.6775 25.2044 34.0781 25.6925 34.592 26.0359 35.1059 26.3792 35.7101 26.5625 36.3281 26.5625 37.1567 26.5616 37.951 26.232 38.5368 25.6462 39.1227 25.0603 39.4522 24.266 39.4531 23.4375zM36.3281 25C36.0191 25 35.717 24.9084 35.4601 24.7367 35.2031 24.565 35.0028 24.321 34.8846 24.0355 34.7663 23.7499 34.7354 23.4358 34.7957 23.1327 34.8559 22.8296 35.0048 22.5512 35.2233 22.3327 35.4418 22.1141 35.7202 21.9653 36.0233 21.905 36.3264 21.8447 36.6406 21.8757 36.9261 21.9939 37.2116 22.1122 37.4556 22.3125 37.6273 22.5694 37.799 22.8264 37.8906 23.1285 37.8906 23.4375 37.8901 23.8518 37.7254 24.2489 37.4324 24.5418 37.1395 24.8347 36.7424 24.9995 36.3281 25z" fill="#00a9dd"/><path d="M16.7969 23.4375C16.7969 22.8194 16.6136 22.2153 16.2702 21.7013 15.9268 21.1874 15.4388 20.7869 14.8678 20.5504 14.2967 20.3139 13.6684 20.252 13.0622 20.3725 12.456 20.4931 11.8992 20.7908 11.4622 21.2278 11.0251 21.6648 10.7275 22.2217 10.6069 22.8279 10.4863 23.434 10.5482 24.0624 10.7848 24.6334 11.0213 25.2044 11.4218 25.6925 11.9357 26.0359 12.4496 26.3792 13.0538 26.5625 13.6719 26.5625 14.5004 26.5616 15.2947 26.232 15.8806 25.6462 16.4664 25.0603 16.7959 24.266 16.7969 23.4375zM13.6719 25C13.3628 25 13.0607 24.9084 12.8038 24.7367 12.5468 24.565 12.3466 24.321 12.2283 24.0355 12.1101 23.7499 12.0791 23.4358 12.1394 23.1327 12.1997 22.8296 12.3485 22.5512 12.567 22.3327 12.7855 22.1141 13.064 21.9653 13.367 21.905 13.6701 21.8447 13.9843 21.8757 14.2698 21.9939 14.5553 22.1122 14.7994 22.3125 14.971 22.5694 15.1427 22.8264 15.2344 23.1285 15.2344 23.4375 15.2339 23.8518 15.0691 24.2489 14.7762 24.5418 14.4833 24.8347 14.0861 24.9995 13.6719 25z" fill="#00a9dd"/></svg>