<svg width="51" height="50" viewBox="0 0 51 50" fill="none" xmlns="http://www.w3.org/2000/svg">
<rect x="23.0789" y="46.1539" width="3.84615" height="3.84615" fill="#D5EDFF"/>
<rect x="34.6174" y="46.1539" width="3.84615" height="3.84615" fill="#D5EDFF"/>
<rect x="46.1558" y="46.1539" width="3.84615" height="3.84615" fill="#D5EDFF"/>
<rect x="0.00195312" y="46.1539" width="3.84615" height="3.84615" fill="#D5EDFF"/>
<rect x="11.5405" y="46.1539" width="3.84615" height="3.84615" fill="#D5EDFF"/>
<rect x="23.0789" y="34.6155" width="3.84615" height="3.84615" fill="#D5EDFF"/>
<rect x="34.6174" y="34.6155" width="3.84615" height="3.84615" fill="#D5EDFF"/>
<rect x="46.1558" y="34.6155" width="3.84615" height="3.84615" fill="#D5EDFF"/>
<rect x="0.00195312" y="34.6155" width="3.84615" height="3.84615" fill="#D5EDFF"/>
<rect x="11.5405" y="34.6155" width="3.84615" height="3.84615" fill="#D5EDFF"/>
<rect x="23.0789" y="23.077" width="3.84615" height="3.84615" fill="#D5EDFF"/>
<rect x="34.6174" y="23.077" width="3.84615" height="3.84615" fill="#D5EDFF"/>
<rect x="46.1558" y="23.077" width="3.84615" height="3.84615" fill="#D5EDFF"/>
<rect x="0.00195312" y="23.077" width="3.84615" height="3.84615" fill="#D5EDFF"/>
<rect x="11.5405" y="23.077" width="3.84615" height="3.84615" fill="#D5EDFF"/>
<rect x="23.0789" y="11.5386" width="3.84615" height="3.84615" fill="#D5EDFF"/>
<rect x="34.6174" y="11.5386" width="3.84615" height="3.84615" fill="#D5EDFF"/>
<rect x="46.1558" y="11.5386" width="3.84615" height="3.84615" fill="#D5EDFF"/>
<rect x="0.00195312" y="11.5386" width="3.84615" height="3.84615" fill="#D5EDFF"/>
<rect x="11.5405" y="11.5386" width="3.84615" height="3.84615" fill="#D5EDFF"/>
<rect x="23.0789" y="0.00012207" width="3.84615" height="3.84615" fill="#D5EDFF"/>
<rect x="34.6174" y="0.00012207" width="3.84615" height="3.84615" fill="#D5EDFF"/>
<rect x="46.1558" y="0.00012207" width="3.84615" height="3.84615" fill="#D5EDFF"/>
<rect x="0.00195312" y="0.00012207" width="3.84615" height="3.84615" fill="#D5EDFF"/>
<rect x="11.5405" y="0.00012207" width="3.84615" height="3.84615" fill="#D5EDFF"/>
</svg>
