<svg xmlns="http://www.w3.org/2000/svg" width="1920" height="1274" fill="none" xmlns:v="https://vecta.io/nano"><mask id="A" mask-type="alpha" maskUnits="userSpaceOnUse" x="0" y="0" width="1920" height="1275"><path transform="rotate(180 1920 1274)" fill="#c4c4c4" d="M1920 1274h1920v1274H1920z"/></mask><g mask="url(#A)"><ellipse cx="910" cy="1469" rx="1572" ry="501" transform="rotate(180 910 1469)" fill="url(#B)"/><path d="M1116 103.5c185.74-105.912 563.5-82.5 822 0v2104.44c-896.1-3.22-2695.16-7.74-2722.45.0-34.114 9.67-245.72-1167.58 452.638-1167.58 363.32.0 774.5-70.534 1041.302-277.005C937.38 586.996 883.825 235.89 1116 103.5z" fill="url(#C)"/></g><defs><linearGradient id="B" x1="-662" y1="968" x2="-465.445" y2="2380.23" gradientUnits="userSpaceOnUse"><stop stop-color="#80d3fd"/><stop offset="1" stop-color="#1393e4"/></linearGradient><linearGradient id="C" x1="-441.5" y1="-290" x2="137.677" y2="1644.34" gradientUnits="userSpaceOnUse"><stop stop-color="#80d3fd"/><stop offset="1" stop-color="#1393e4"/></linearGradient></defs></svg>