<svg xmlns="http://www.w3.org/2000/svg" width="31" height="50" fill="#00a9dd" xmlns:v="https://vecta.io/nano"><path d="M29.892 31.673l-3.93-2.005c.562-3.302 1-6.7 1-9.3.0-7.3-3.057-12.42-5.62-15.42-2.78-3.252-5.55-4.767-5.665-4.83-.3-.156-.638-.156-.928.0-.117.063-2.885 1.578-5.665 4.83-2.564 3-5.62 8.1-5.62 15.42.0 2.598.436 5.998 1 9.3l-3.93 2.005c-.386.197-.596.625-.516 1.05l2.186 11.592a.98.98.0 0 0 .582.72.99.99.0 0 0 .378.076.98.98.0 0 0 .543-.165l4.36-2.916h2.483a4.78 4.78.0 0 0-.108 1.011c0 2.374 3.393 5.968 4.073 6.664a.98.98.0 0 0 .698.294c.262.0.515-.106.7-.294.68-.696 4.074-4.3 4.074-6.664a4.79 4.79.0 0 0-.108-1.011h2.483l4.36 2.916a.97.97.0 0 0 .543.165.98.98.0 0 0 .96-.796l2.186-11.592c.08-.426-.13-.854-.516-1.05zM10.517 6.277c1.905-2.245 3.835-3.6 4.695-4.16.86.55 2.8 1.915 4.695 4.16.556.655 1.066 1.33 1.532 2.024H8.985a22.09 22.09.0 0 1 1.532-2.024zm-2.694 3.977h14.78C24.203 13.304 25 16.69 25 20.37c0 5.97-2.504 16.795-3.206 19.7H8.62c-.7-2.914-3.206-13.737-3.206-19.7.0-3.678.808-7.063 2.407-10.115zM2.07 33.08l2.75-1.403c.73 3.92 1.553 7.423 1.9 8.896L3.848 42.5 2.07 33.08zm15.96 9.962c0 1-1.48 3.035-2.82 4.546-1.34-1.5-2.82-3.556-2.82-4.546a2.82 2.82.0 0 1 .187-1.011h5.264a2.82 2.82.0 0 1 .187 1.011zm8.545-.54-2.883-1.928c.357-1.473 1.18-4.976 1.9-8.896l2.75 1.403-1.777 9.42zM15.212 25.1c1.72.0 3.12-1.4 3.12-3.12s-1.4-3.12-3.12-3.12-3.12 1.4-3.12 3.12 1.4 3.12 3.12 3.12zm0-4.284a1.17 1.17.0 0 1 1.166 1.166 1.17 1.17.0 0 1-1.166 1.166 1.17 1.17.0 0 1-1.166-1.166 1.17 1.17.0 0 1 1.166-1.166z"/></svg>