<svg xmlns="http://www.w3.org/2000/svg" width="50" height="28" fill="none" xmlns:v="https://vecta.io/nano"><path d="M39.776 2v7.34H8.3V2h31.476z" fill="#74c6ff"/><g fill="#00a9dd"><path d="M38.542.0H9.374a3.13 3.13.0 0 0-3.125 3.125v2.083c0 7.433 4.106 14.175 10.715 17.594.51.262 1.14.065 1.404-.448s.065-1.14-.448-1.404c-5.913-3.058-9.588-9.1-9.588-15.742V3.125a1.04 1.04.0 0 1 1.042-1.042h29.167a1.04 1.04.0 0 1 1.042 1.042v2.083c0 6.652-3.675 12.684-9.6 15.74-.513.265-.7.894-.448 1.404.186.358.55.565.927.565.163.0.325-.038.477-.117 6.61-3.417 10.717-10.156 10.717-17.592V3.125A3.13 3.13.0 0 0 38.542.0z"/><path d="M47.84 21.476c-.162-.4-.542-.644-.962-.644H1.043c-.42.0-.8.254-.963.644a1.04 1.04.0 0 0 .225 1.135l2.335 2.34a7.25 7.25.0 0 0 5.156 2.136H40.12a7.26 7.26.0 0 0 5.161-2.136l2.335-2.338a1.04 1.04.0 0 0 .225-1.135zm-4.035 2a5.18 5.18.0 0 1-3.683 1.525H7.797a5.18 5.18.0 0 1-3.683-1.525l-.558-.558h40.807l-.558.558zm4.18-18.556c-2.806-1.804-7.3.154-7.792.38-.523.24-.24.85.0 1.375s.338.763.865.523c1.004-.456 4.225-1.538 5.8-.523.7.456 1.058 1.342 1.058 2.7.0 4.17-8.413 6.692-11.66 7.313l-.737.146a1.04 1.04.0 0 0 .2 2.063.97.97.0 0 0 .202-.021l.73-.144C37.198 18.628 50 16.117 50 9.375c0-2.096-.68-3.594-2.014-4.456z"/></g></svg>