<svg width="50" height="50" viewBox="0 0 50 50" fill="none" xmlns="http://www.w3.org/2000/svg"><g clip-path="url(#clip0)"><path d="M41.5434 41.6316C41.5434 40.9761 41.0119 40.4446 40.3563 40.4446H39.4015C39.0448 39.0228 38.4846 37.682 37.7536 36.4557L38.4342 35.7728C38.8958 35.3096 38.8958 34.5603 38.4342 34.097L34.9676 30.6182C34.5037 30.1526 33.7498 30.1526 33.2859 30.6182L32.6112 31.2952C31.3891 30.5617 30.053 29.9995 28.6361 29.6416V28.6792C28.6361 28.0236 28.1047 27.4922 27.4491 27.4922H22.5507C21.8951 27.4922 21.3637 28.0236 21.3637 28.6792V29.6416C19.9468 29.9995 18.6107 30.5617 17.3886 31.2952L16.714 30.6182C16.2501 30.1526 15.4962 30.1526 15.0323 30.6182L11.5657 34.0969C11.1041 34.5601 11.1041 35.3095 11.5657 35.7727L12.2463 36.4556C11.5153 37.682 10.9551 39.0227 10.5984 40.4445H9.64355C8.98799 40.4445 8.45654 40.976 8.45654 41.6315V45.6136H16.7254C16.636 45.1205 16.5894 44.6125 16.5894 44.0936 16.5894 39.4321 20.355 35.6533 25.0002 35.6533 29.6454 35.6533 33.411 39.4321 33.411 44.0936 33.411 44.6125 33.3644 45.1205 33.2749 45.6136H41.5437V41.6316H41.5434z" fill="#74c6ff"/><path d="M46.5396 3.40894H3.46035C1.55225 3.40894.0 4.97231.0 6.89409V43.1054C0 45.0272 1.55225 46.5906 3.46035 46.5906H46.5396C48.4478 46.5906 50 45.0271 50 43.1054V6.89409C50 4.97231 48.4477 3.40894 46.5396 3.40894zM1.95312 6.89409C1.95312 6.04927 2.6293 5.36206 3.46035 5.36206H46.5396C47.3707 5.36206 48.0469 6.04937 48.0469 6.89409V10.7774H1.95312V6.89409zM17.5852 44.6375C17.5723 44.4567 17.5657 44.2753 17.5657 44.094 17.5657 39.9785 20.9007 36.6303 25 36.6303 29.0993 36.6303 32.4343 39.9785 32.4343 44.094 32.4343 44.2753 32.4277 44.4568 32.4147 44.6375H17.5852zM48.0469 43.1054C48.0469 43.9501 47.3707 44.6375 46.5396 44.6375H34.3719C34.3822 44.4565 34.3874 44.2751 34.3874 44.094 34.3874 38.9016 30.1762 34.6772 25 34.6772 19.8238 34.6772 15.6126 38.9015 15.6126 44.094 15.6126 44.2752 15.6178 44.4565 15.6281 44.6375H3.46035C2.6293 44.6375 1.95312 43.9501 1.95312 43.1054V12.7305H48.0469V43.1054z" fill="#00a9dd"/><path d="M30.6767 7.09302H29.3303C28.791 7.09302 28.3538 7.53022 28.3538 8.06958 28.3538 8.60894 28.791 9.04614 29.3303 9.04614H30.6767C31.2161 9.04614 31.6533 8.60894 31.6533 8.06958 31.6533 7.53022 31.2161 7.09302 30.6767 7.09302z" fill="#00a9dd"/><path d="M36.2492 7.09302H34.9028C34.3635 7.09302 33.9263 7.53022 33.9263 8.06958 33.9263 8.60894 34.3635 9.04614 34.9028 9.04614H36.2492C36.7886 9.04614 37.2258 8.60894 37.2258 8.06958 37.2258 7.53022 36.7886 7.09302 36.2492 7.09302z" fill="#00a9dd"/><path d="M9.68945 23.2705H40.3104C40.8497 23.2705 41.2869 22.8333 41.2869 22.2939V17.3789C41.2869 16.8396 40.8497 16.4023 40.3104 16.4023H9.68945C9.1501 16.4023 8.71289 16.8396 8.71289 17.3789V22.2939C8.71289 22.8334 9.1501 23.2705 9.68945 23.2705zM10.666 18.3556H39.3338v2.9619H10.666V18.3556z" fill="#00a9dd"/><path d="M41.822 9.04614H40.4756C39.9362 9.04614 39.499 8.60894 39.499 8.06958 39.499 7.53022 39.9362 7.09302 40.4756 7.09302H41.822C42.3613 7.09302 42.7985 7.53022 42.7985 8.06958 42.7985 8.60894 42.3613 9.04614 41.822 9.04614z" fill="#00a9dd"/></g><defs><clipPath id="clip0"><path d="M0 0h50v50H0z" fill="#fff"/></clipPath></defs></svg>