<svg width="50" height="50" viewBox="0 0 50 50" fill="none" xmlns="http://www.w3.org/2000/svg">
<g clip-path="url(#clip0)">
<path d="M43.1016 42.0678H38.7692C38.2299 42.0678 37.7927 41.6305 37.7927 41.0912C37.7927 40.552 38.2299 40.1146 38.7692 40.1146H43.1015C43.5151 40.1146 43.8518 39.778 43.8518 39.3643V2.70342C43.8518 2.28975 43.5152 1.95312 43.1015 1.95312H14.8362C14.4226 1.95312 14.0859 2.28965 14.0859 2.70342V6.52637C14.0859 7.06563 13.6487 7.50293 13.1094 7.50293C12.57 7.50293 12.1328 7.06563 12.1328 6.52637V2.70342C12.1327 1.2127 13.3455 0 14.8362 0H43.1016C44.5923 0 45.805 1.2127 45.805 2.70342V39.3644C45.8049 40.855 44.5922 42.0678 43.1016 42.0678Z" fill="#00A9DD"/>
<path d="M39.1326 4.94287H10.8672C9.91353 4.94287 9.14038 5.71602 9.14038 6.66973V8.53809L9.42505 8.90898H29.7227L36.8903 16.0712V44.6884L37.1737 45.0575H39.1326C40.0863 45.0575 40.8594 44.2844 40.8594 43.3307V6.66973C40.8594 5.71602 40.0863 4.94287 39.1326 4.94287Z" fill="#74C6FF"/>
<path d="M37.867 16.0439C37.867 15.7931 37.7617 15.5541 37.581 15.3803C37.5809 15.3802 37.5808 15.3801 37.5808 15.3801C37.5808 15.3801 30.4027 8.20772 30.3976 8.20264L30.3889 8.19453C30.2081 8.02588 29.9701 7.93213 29.7229 7.93213H6.89893C5.40547 7.93213 4.19482 9.14277 4.19482 10.6362V47.2972C4.19482 48.7898 5.40488 50 6.89766 50H35.163C36.6563 50 37.867 48.7894 37.867 47.2959V16.0757C37.867 16.0754 37.867 16.0636 37.867 16.0439ZM34.5315 15.0942H30.6994V11.2649L34.5315 15.0942ZM35.163 48.0468H6.89893C6.48486 48.0468 6.14795 47.7105 6.14795 47.2971V10.6349C6.14795 10.2215 6.48486 9.88516 6.89893 9.88516H28.7463V16.0708C28.7463 16.6101 29.1836 17.0474 29.7229 17.0474H35.9139V47.2971C35.9139 47.7105 35.5771 48.0468 35.163 48.0468Z" fill="#00A9DD"/>
</g>
<defs>
<clipPath id="clip0">
<rect width="50" height="50" fill="white"/>
</clipPath>
</defs>
</svg>
