<svg width="50" height="50" viewBox="0 0 50 50" fill="none" xmlns="http://www.w3.org/2000/svg">
<path d="M44.2738 17.189V12.9148C41.7954 12.9148 41.4136 11.7194 41.4136 9.24097H23.879C23.879 11.7194 23.4972 12.9148 21.0188 12.9148V17.189C23.4972 17.189 23.879 18.3844 23.879 20.8629H41.4136C41.4136 18.3844 41.7954 17.189 44.2738 17.189Z" fill="#74C6FF"/>
<path d="M49.0234 4.00513H16.2688C15.7294 4.00513 15.2922 4.44233 15.2922 4.98169V25.1216C15.2922 25.661 15.7294 26.0982 16.2688 26.0982H49.0234C49.5626 26.0982 50 25.661 50 25.1216V4.98169C50 4.44233 49.5626 4.00513 49.0234 4.00513ZM48.0468 24.1451H17.2454V5.95825H48.0468V24.1451Z" fill="#00A9DD"/>
<path d="M48.4481 30.1919C46.888 29.0954 44.782 29.2856 43.4405 30.6445C43.3976 30.6881 43.3587 30.7355 43.3246 30.7864L41.1822 33.9783C40.5824 32.5626 39.1889 31.5681 37.5698 31.5681L22.1565 31.5577H22.1559C21.9221 31.5577 21.6962 31.6415 21.519 31.7939L17.6577 35.1159H14.8398V34.2576C14.8398 33.7182 14.4025 33.281 13.8633 33.281H9.56348V33.1475C9.56348 32.6081 9.12617 32.1709 8.58691 32.1709H0.976562C0.437207 32.1709 0 32.6081 0 33.1475V44.6004C0 45.1397 0.437207 45.5769 0.976562 45.5769H8.58691C9.12617 45.5769 9.56348 45.1397 9.56348 44.6004V44.4668H13.8632C14.4024 44.4668 14.8397 44.0296 14.8397 43.4902V42.5885H18.0777L21.0029 45.6893C21.1876 45.885 21.4446 45.9958 21.7133 45.9958C21.7179 45.9958 21.7225 45.9957 21.7271 45.9957L41.8944 45.7128C42.2091 45.7084 42.5023 45.5526 42.6821 45.2944L49.0899 36.0929C49.0939 36.0871 49.0979 36.0812 49.1018 36.0755C49.7223 35.1423 50.0397 34.0721 49.996 33.062C49.9446 31.8765 49.3949 30.8572 48.4481 30.1919ZM7.61035 43.6238H1.95312V34.124H7.61035V43.6238ZM12.8866 42.5136H9.56348V35.234H12.8866V42.5136ZM47.4809 34.9857L41.3658 43.767L22.1291 44.0368L19.2096 40.9419C19.025 40.7463 18.7681 40.6354 18.4992 40.6354H14.8398V37.069H18.02C18.2538 37.069 18.4797 36.9852 18.6568 36.8328L22.5179 33.5111L37.5691 33.5212C38.6577 33.5212 39.5434 34.4231 39.5434 35.5318C39.5434 36.6404 38.6578 37.5423 37.5691 37.5423C37.5679 37.5423 37.5666 37.5423 37.5653 37.5423H29.1396C28.8715 37.5423 28.6153 37.6524 28.4309 37.847L26.3764 40.014C26.0053 40.4054 26.0218 41.0234 26.4132 41.3945C26.6021 41.5735 26.8437 41.6624 27.0849 41.6624C27.3436 41.6624 27.6018 41.5602 27.7938 41.3577L29.5594 39.4953L39.3101 39.4958H39.3104C39.6357 39.4958 39.9398 39.3337 40.1212 39.0635L44.8899 31.9588C45.5603 31.3341 46.5711 31.2597 47.325 31.7896C48.3428 32.5051 48.174 33.937 47.4809 34.9857Z" fill="#00A9DD"/>
</svg>
