<svg width="50" height="50" viewBox="0 0 50 50" fill="none" xmlns="http://www.w3.org/2000/svg">
<g clip-path="url(#clip0)">
<path d="M0.976562 20.5083H44.3608V26.214H0.976562V20.5083Z" fill="#74C6FF"/>
<path d="M46.6298 6.35107H8.03271C6.17451 6.35107 4.6626 7.86289 4.6626 9.72129V13.5767H3.37021C1.51182 13.5766 0 15.0885 0 16.9468V40.2783C0 42.1366 1.51182 43.6485 3.37021 43.6485H41.9673C43.8255 43.6485 45.3374 42.1367 45.3374 40.2783V36.423H46.6298C48.4881 36.423 50 34.9112 50 33.0528V9.72129C50 7.86299 48.4882 6.35107 46.6298 6.35107ZM43.3843 40.2783C43.3843 41.0598 42.7486 41.6954 41.9673 41.6954H3.37021C2.58887 41.6954 1.95312 41.0598 1.95312 40.2783V16.9468C1.95312 16.1654 2.58887 15.5297 3.37021 15.5297H41.9673C42.7486 15.5297 43.3843 16.1653 43.3843 16.9468V40.2783ZM48.0469 33.0528C48.0469 33.8342 47.4111 34.4699 46.6298 34.4699H45.3374V16.9468C45.3374 15.0885 43.8255 13.5766 41.9673 13.5766H6.61572V9.72129C6.61572 8.93994 7.25137 8.3042 8.03271 8.3042H46.6298C47.4111 8.3042 48.0469 8.93984 48.0469 9.72129V33.0528Z" fill="#00A9DD"/>
<path d="M20.34 32.6426H15.5154C14.9761 32.6426 14.5388 33.0798 14.5388 33.6191V37.6633C14.5388 38.2026 14.9761 38.6398 15.5154 38.6398H20.34C20.8792 38.6398 21.3166 38.2026 21.3166 37.6633V33.6191C21.3166 33.0798 20.8793 32.6426 20.34 32.6426ZM19.3634 36.6867H16.4919V34.5957H19.3634V36.6867Z" fill="#00A9DD"/>
<path d="M29.8222 32.6426H24.9976C24.4583 32.6426 24.021 33.0798 24.021 33.6191V37.6633C24.021 38.2026 24.4583 38.6398 24.9976 38.6398H29.8222C30.3614 38.6398 30.7987 38.2026 30.7987 37.6633V33.6191C30.7987 33.0798 30.3614 32.6426 29.8222 32.6426ZM28.8456 36.6867H25.9741V34.5957H28.8456V36.6867Z" fill="#00A9DD"/>
<path d="M39.3041 32.6426H34.4795C33.9402 32.6426 33.5029 33.0798 33.5029 33.6191V37.6633C33.5029 38.2026 33.9402 38.6398 34.4795 38.6398H39.3041C39.8434 38.6398 40.2807 38.2026 40.2807 37.6633V33.6191C40.2807 33.0798 39.8434 32.6426 39.3041 32.6426ZM38.3275 36.6867H35.4561V34.5957H38.3275V36.6867Z" fill="#00A9DD"/>
<path d="M10.8579 32.6426H6.0332C5.49395 32.6426 5.05664 33.0798 5.05664 33.6191V37.6633C5.05664 38.2026 5.49395 38.6398 6.0332 38.6398H10.8578C11.3971 38.6398 11.8344 38.2026 11.8344 37.6633V33.6191C11.8345 33.0798 11.3972 32.6426 10.8579 32.6426ZM9.88135 36.6867H7.00977V34.5957H9.88125V36.6867H9.88135Z" fill="#00A9DD"/>
</g>
<defs>
<clipPath id="clip0">
<rect width="50" height="50" fill="white"/>
</clipPath>
</defs>
</svg>
