<svg width="46" height="50" viewBox="0 0 46 50" fill="none" xmlns="http://www.w3.org/2000/svg"><path d="M32.9341 35.1763C31.214 36.2752 29.3006 37.0972 27.2564 37.5794L22.9999 44.2038 18.7434 37.5794C16.6992 37.0972 14.7858 36.2752 13.0657 35.1763H8.28906L.566895 50H37.7107L45.4329 35.1763H32.9341z" fill="#74c6ff"/><path d="M23 0C12.2571.0 3.51709 8.75859 3.51709 19.5245 3.51709 23.9499 5.03555 28.2847 7.79268 31.7302 10.4245 35.0192 14.0839 37.3888 18.1319 38.4341L21.2118 43.2272H19.5027C18.9634 43.2272 18.5262 43.6646 18.5262 44.2038 18.5262 44.7431 18.9634 45.1804 19.5027 45.1804H26.4975C27.0368 45.1804 27.474 44.7431 27.474 44.2038 27.474 43.6646 27.0368 43.2272 26.4975 43.2272H24.7884L27.8683 38.4341C31.9162 37.3888 35.5756 35.0191 38.2075 31.7302 40.9647 28.2847 42.4831 23.9499 42.4831 19.5245 42.4829 8.75859 33.7429.0 23 0V0zM27.0323 36.6289C26.786 36.687 26.5719 36.8385 26.435 37.0514L23 42.3973 19.565 37.0514C19.4282 36.8385 19.2141 36.6869 18.9677 36.6289 11.0206 34.7541 5.47022 27.7204 5.47022 19.5245 5.47022 9.83565 13.3341 1.95313 23 1.95313 32.6659 1.95313 40.5298 9.83565 40.5298 19.5245 40.5298 27.7204 34.9794 34.7541 27.0323 36.6289z" fill="#00a9dd"/><path d="M22.9999 5.86841C15.4855 5.86841 9.37207 11.9946 9.37207 19.5247 9.37207 27.0547 15.4855 33.1809 22.9999 33.1809 30.5144 33.1809 36.6277 27.0548 36.6277 19.5247 36.6277 11.9945 30.5144 5.86841 22.9999 5.86841zM22.9999 31.2278c-6.4375.0-11.6747-5.25-11.6747-11.7031C11.3252 13.0715 16.5624 7.82153 22.9999 7.82153 29.4374 7.82153 34.6746 13.0715 34.6746 19.5247 34.6746 25.9778 29.4374 31.2278 22.9999 31.2278z" fill="#00a9dd"/></svg>