<svg width="1920" height="478" viewBox="0 0 1920 478" fill="none" xmlns="http://www.w3.org/2000/svg">
<path d="M2759.32 2.9207C3295.19 -8.83678 3471.57 29.8791 3688.98 46.402H3953V557H-730V40.0247C-443.978 16.0617 201.006 -22.1825 492.771 16.5448C857.477 64.954 1366.5 67.273 1825.18 67.273C2283.86 67.273 2481.87 9.00808 2759.32 2.9207Z" fill="url(#paint0_linear)"/>
<path d="M2756.32 16.9207C3292.19 5.16322 3468.57 43.8791 3685.98 60.402H3950V571H-733V54.0247C-446.978 30.0617 198.006 -8.18252 489.771 30.5448C854.477 78.954 1363.5 81.273 1822.18 81.273C2280.86 81.273 2478.87 23.0081 2756.32 16.9207Z" fill="#0277BF"/>
<defs>
<linearGradient id="paint0_linear" x1="4.00008" y1="21.5" x2="42.9024" y2="359.739" gradientUnits="userSpaceOnUse">
<stop stop-color="#80D3FD"/>
<stop offset="1" stop-color="#1393E4"/>
</linearGradient>
</defs>
</svg>
