<svg width="1920" height="1860" viewBox="0 0 1920 1860" fill="none" xmlns="http://www.w3.org/2000/svg">
<path opacity="0.8" d="M252 93.7094C140.4 -10.7495 10.5 -7.13138 -40.5 7.73502L-131 602.57C-91.3333 660.961 -173.7 784.003 -16.5 759.5C255.5 666.885 969 1092.09 1049 1245.23C1129 1398.37 1540.5 1748.72 1647 1815.35C1732.2 1868.65 2008.5 1863.35 2136 1854.03V777.743C2053.17 783.296 1839.4 784.943 1647 747.115C1406.5 699.829 1220 544 1116.5 408.053C1013 272.106 847 238.254 764.5 221.596C682 204.939 391.5 224.283 252 93.7094Z" fill="url(#paint0_linear)"/>
<defs>
<linearGradient id="paint0_linear" x1="194.897" y1="-275.803" x2="709.745" y2="1364.77" gradientUnits="userSpaceOnUse">
<stop stop-color="#80D3FD"/>
<stop offset="1" stop-color="#1393E4"/>
</linearGradient>
</defs>
</svg>
