<svg width="178" height="178" viewBox="0 0 178 178" fill="none" xmlns="http://www.w3.org/2000/svg">
<path d="M72.4863 66.75C72.4863 70.0505 73.465 73.2768 75.2987 76.0211C77.1323 78.7653 79.7386 80.9042 82.7878 82.1672C85.837 83.4303 89.1923 83.7607 92.4294 83.1168C95.6665 82.4729 98.6399 80.8836 100.974 78.5498C103.307 76.216 104.897 73.2426 105.541 70.0056C106.185 66.7685 105.854 63.4132 104.591 60.364C103.328 57.3147 101.189 54.7085 98.4449 52.8749C95.7006 51.0412 92.4743 50.0625 89.1738 50.0625C84.7495 50.0675 80.5079 51.8272 77.3795 54.9556C74.251 58.0841 72.4913 62.3257 72.4863 66.75ZM89.1738 55.625C91.3741 55.625 93.525 56.2775 95.3545 57.4999C97.184 58.7223 98.61 60.4598 99.452 62.4926C100.294 64.5255 100.514 66.7623 100.085 68.9204C99.6558 71.0784 98.5962 73.0607 97.0404 74.6165C95.4845 76.1724 93.5022 77.232 91.3442 77.6612C89.1862 78.0905 86.9493 77.8702 84.9165 77.0281C82.8836 76.1861 81.1462 74.7602 79.9237 72.9307C78.7013 71.1012 78.0488 68.9503 78.0488 66.75C78.0521 63.8005 79.2253 60.9727 81.3109 58.8871C83.3965 56.8015 86.2243 55.6283 89.1738 55.625Z" fill="#0F91E3"/>
<path d="M58.58 94.7485V97.3445H44.6737C44.2794 97.3445 43.8896 97.4284 43.5301 97.5905C43.1706 97.7527 42.8498 97.9895 42.5888 98.2851C42.3278 98.5807 42.1327 98.9285 42.0163 99.3053C41.9 99.6821 41.8651 100.079 41.914 100.471L47.4765 144.971C47.5606 145.643 47.8874 146.262 48.3956 146.711C48.9038 147.159 49.5583 147.407 50.2362 147.407H128.111C128.789 147.407 129.444 147.159 129.952 146.711C130.46 146.262 130.787 145.643 130.871 144.971L136.433 100.471C136.482 100.079 136.447 99.6821 136.331 99.3053C136.215 98.9285 136.02 98.5807 135.759 98.2851C135.498 97.9895 135.177 97.7527 134.817 97.5905C134.458 97.4284 134.068 97.3445 133.674 97.3445H119.767V94.7485C119.764 91.799 118.591 88.9713 116.505 86.8856C114.42 84.8 111.592 83.6268 108.642 83.6235H69.705C66.7555 83.6268 63.9277 84.8 61.8421 86.8856C59.7565 88.9713 58.5833 91.799 58.58 94.7485ZM130.523 102.907L125.656 141.845H52.6914L47.8242 102.907H130.523ZM114.205 94.7485V97.3445H64.1425V94.7485C64.1441 93.2738 64.7307 91.8599 65.7735 90.8171C66.8164 89.7743 68.2302 89.1877 69.705 89.186H108.642C110.117 89.1878 111.531 89.7744 112.574 90.8172C113.617 91.86 114.203 93.2738 114.205 94.7485Z" fill="#0F91E3"/>
<path d="M41.8926 152.969H136.455V158.531H41.8926V152.969Z" fill="#0F91E3"/>
<path d="M89.1739 133.5C91.3742 133.5 93.5251 132.848 95.3546 131.625C97.1841 130.403 98.61 128.665 99.452 126.632C100.294 124.6 100.514 122.363 100.085 120.205C99.6559 118.047 98.5963 116.064 97.0404 114.508C95.4846 112.953 93.5023 111.893 91.3442 111.464C89.1862 111.035 86.9493 111.255 84.9165 112.097C82.8837 112.939 81.1462 114.365 79.9237 116.194C78.7013 118.024 78.0488 120.175 78.0488 122.375C78.0521 125.325 79.2253 128.152 81.3109 130.238C83.3966 132.324 86.2243 133.497 89.1739 133.5ZM89.1739 116.813C90.274 116.813 91.3495 117.139 92.2642 117.75C93.179 118.361 93.8919 119.23 94.3129 120.246C94.734 121.263 94.8441 122.381 94.6295 123.46C94.4149 124.539 93.8851 125.53 93.1071 126.308C92.3292 127.086 91.3381 127.616 90.259 127.831C89.18 128.045 88.0616 127.935 87.0452 127.514C86.0288 127.093 85.16 126.38 84.5488 125.465C83.9376 124.551 83.6113 123.475 83.6113 122.375C83.613 120.9 84.1996 119.486 85.2424 118.444C86.2852 117.401 87.6991 116.814 89.1739 116.813Z" fill="#0F91E3"/>
<path d="M171.401 65.7583L93.9974 7.23073C92.5565 6.14795 90.8029 5.5625 89.0006 5.5625C87.1982 5.5625 85.4446 6.14795 84.0037 7.23073L6.60011 65.7583C6.05003 66.174 5.68655 66.7903 5.58887 67.4728C5.49119 68.1553 5.66723 68.8488 6.07863 69.4021L12.9205 78.5993C13.1263 78.8761 13.3848 79.1094 13.6812 79.2857C13.9776 79.462 14.306 79.5779 14.6474 79.6267C14.9888 79.6754 15.3364 79.6561 15.6703 79.5698C16.0042 79.4836 16.3178 79.332 16.5928 79.124L22.4244 74.7153V169.656C22.4244 170.393 22.7174 171.101 23.239 171.622C23.7606 172.144 24.468 172.437 25.2056 172.437H153.143C153.881 172.437 154.588 172.144 155.11 171.622C155.631 171.101 155.924 170.393 155.924 169.656V74.9782L161.407 79.124C161.861 79.4671 162.414 79.6528 162.983 79.6527C163.107 79.6527 163.23 79.644 163.353 79.6267C163.694 79.5778 164.022 79.4619 164.319 79.2856C164.615 79.1093 164.874 78.876 165.08 78.5993L171.921 69.4021C172.333 68.8489 172.509 68.1555 172.412 67.473C172.314 66.7905 171.951 66.1742 171.401 65.7583ZM150.362 166.874H27.9869V70.5094L89.0006 24.3744L150.362 70.7722V166.874ZM162.46 73.3675L90.5765 19.0142C90.1228 18.6711 89.5694 18.4854 89.0006 18.4854C88.4317 18.4854 87.8784 18.6711 87.4246 19.0142L15.5425 73.3675L11.8209 68.363L87.158 11.3984C87.69 10.9986 88.3375 10.7825 89.003 10.7825C89.6685 10.7825 90.316 10.9986 90.848 11.3984L166.18 68.363L162.46 73.3675Z" fill="#0F91E3"/>
</svg>
