<svg width="179" height="178" viewBox="0 0 179 178" fill="none" xmlns="http://www.w3.org/2000/svg">
<path d="M72.4912 66.75C72.4912 70.0505 73.4699 73.2768 75.3036 76.0211C77.1372 78.7653 79.7434 80.9042 82.7927 82.1672C85.8419 83.4303 89.1972 83.7607 92.4343 83.1168C95.6713 82.4729 98.6448 80.8836 100.979 78.5498C103.312 76.216 104.902 73.2426 105.546 70.0056C106.189 66.7685 105.859 63.4132 104.596 60.364C103.333 57.3147 101.194 54.7085 98.4498 52.8749C95.7055 51.0412 92.4792 50.0625 89.1787 50.0625C84.7544 50.0675 80.5128 51.8272 77.3844 54.9556C74.2559 58.0841 72.4962 62.3257 72.4912 66.75ZM89.1787 55.625C91.379 55.625 93.5299 56.2775 95.3594 57.4999C97.1889 58.7223 98.6148 60.4598 99.4569 62.4926C100.299 64.5255 100.519 66.7623 100.09 68.9204C99.6607 71.0784 98.6011 73.0607 97.0453 74.6165C95.4894 76.1724 93.5071 77.232 91.3491 77.6612C89.191 78.0905 86.9542 77.8702 84.9214 77.0281C82.8885 76.1861 81.151 74.7602 79.9286 72.9307C78.7062 71.1012 78.0537 68.9503 78.0537 66.75C78.057 63.8005 79.2302 60.9727 81.3158 58.8871C83.4014 56.8015 86.2292 55.6283 89.1787 55.625Z" fill="white"/>
<path d="M58.5849 94.7485V97.3445H44.6786C44.2843 97.3445 43.8944 97.4284 43.535 97.5905C43.1755 97.7527 42.8547 97.9895 42.5937 98.2851C42.3327 98.5807 42.1376 98.9285 42.0212 99.3053C41.9049 99.6821 41.87 100.079 41.9189 100.471L47.4814 144.971C47.5655 145.643 47.8923 146.262 48.4005 146.711C48.9087 147.159 49.5632 147.407 50.2411 147.407H128.116C128.794 147.407 129.449 147.159 129.957 146.711C130.465 146.262 130.792 145.643 130.876 144.971L136.438 100.471C136.487 100.079 136.452 99.6821 136.336 99.3053C136.22 98.9285 136.025 98.5807 135.764 98.2851C135.503 97.9895 135.182 97.7527 134.822 97.5905C134.463 97.4284 134.073 97.3445 133.679 97.3445H119.772V94.7485C119.769 91.799 118.596 88.9713 116.51 86.8856C114.425 84.8 111.597 83.6268 108.647 83.6235H69.7099C66.7604 83.6268 63.9326 84.8 61.847 86.8856C59.7613 88.9713 58.5882 91.799 58.5849 94.7485ZM130.528 102.907L125.661 141.845H52.6963L47.8291 102.907H130.528ZM114.21 94.7485V97.3445H64.1474V94.7485C64.149 93.2738 64.7356 91.8599 65.7784 90.8171C66.8212 89.7743 68.2351 89.1877 69.7099 89.186H108.647C110.122 89.1878 111.536 89.7744 112.579 90.8172C113.622 91.86 114.208 93.2738 114.21 94.7485Z" fill="white"/>
<path d="M41.8975 152.969H136.46V158.531H41.8975V152.969Z" fill="white"/>
<path d="M89.1787 133.5C91.3791 133.5 93.53 132.848 95.3595 131.625C97.189 130.403 98.6149 128.665 99.4569 126.632C100.299 124.6 100.519 122.363 100.09 120.205C99.6607 118.047 98.6012 116.064 97.0453 114.508C95.4895 112.953 93.5072 111.893 91.3491 111.464C89.1911 111.035 86.9542 111.255 84.9214 112.097C82.8885 112.939 81.151 114.365 79.9286 116.194C78.7062 118.024 78.0537 120.175 78.0537 122.375C78.057 125.325 79.2302 128.152 81.3158 130.238C83.4014 132.324 86.2292 133.497 89.1787 133.5ZM89.1787 116.813C90.2789 116.813 91.3544 117.139 92.2691 117.75C93.1839 118.361 93.8968 119.23 94.3178 120.246C94.7388 121.263 94.849 122.381 94.6344 123.46C94.4197 124.539 93.89 125.53 93.112 126.308C92.3341 127.086 91.343 127.616 90.2639 127.831C89.1849 128.045 88.0665 127.935 87.0501 127.514C86.0336 127.093 85.1649 126.38 84.5537 125.465C83.9425 124.551 83.6162 123.475 83.6162 122.375C83.6179 120.9 84.2045 119.486 85.2473 118.444C86.2901 117.401 87.704 116.814 89.1787 116.813Z" fill="white"/>
<path d="M171.406 65.7583L94.0023 7.23073C92.5614 6.14795 90.8078 5.5625 89.0054 5.5625C87.2031 5.5625 85.4495 6.14795 84.0086 7.23073L6.605 65.7583C6.05492 66.174 5.69143 66.7903 5.59375 67.4728C5.49607 68.1553 5.67211 68.8488 6.08351 69.4021L12.9254 78.5993C13.1312 78.8761 13.3897 79.1094 13.6861 79.2857C13.9825 79.462 14.3108 79.5779 14.6522 79.6267C14.9936 79.6754 15.3413 79.6561 15.6752 79.5698C16.0091 79.4836 16.3226 79.332 16.5977 79.124L22.4293 74.7153V169.656C22.4293 170.393 22.7223 171.101 23.2439 171.622C23.7655 172.144 24.4729 172.437 25.2105 172.437H153.148C153.886 172.437 154.593 172.144 155.115 171.622C155.636 171.101 155.929 170.393 155.929 169.656V74.9782L161.412 79.124C161.866 79.4671 162.419 79.6528 162.988 79.6527C163.112 79.6527 163.235 79.644 163.358 79.6267C163.699 79.5778 164.027 79.4619 164.324 79.2856C164.62 79.1093 164.879 78.876 165.084 78.5993L171.926 69.4021C172.338 68.8489 172.514 68.1555 172.417 67.473C172.319 66.7905 171.956 66.1742 171.406 65.7583ZM150.367 166.874H27.9918V70.5094L89.0054 24.3744L150.367 70.7722V166.874ZM162.465 73.3675L90.5814 19.0142C90.1276 18.6711 89.5743 18.4854 89.0054 18.4854C88.4366 18.4854 87.8832 18.6711 87.4295 19.0142L15.5474 73.3675L11.8257 68.363L87.1629 11.3984C87.6949 10.9986 88.3424 10.7825 89.0079 10.7825C89.6734 10.7825 90.3209 10.9986 90.8529 11.3984L166.185 68.363L162.465 73.3675Z" fill="white"/>
</svg>
