<svg width="17" height="17" viewBox="0 0 17 17" fill="none" xmlns="http://www.w3.org/2000/svg">
<g clip-path="url(#clip0)">
<path d="M16.4126 4.78804C16.3744 3.92272 16.2345 3.32782 16.0341 2.81233C15.8273 2.26515 15.5091 1.77526 15.0923 1.36801C14.6851 0.954428 14.1919 0.633054 13.6511 0.429492C13.1326 0.229038 12.5408 0.0891047 11.6755 0.0509525C10.8037 0.00956912 10.527 0 8.31587 0C6.10479 0 5.82803 0.00956912 4.95947 0.0477214C4.09415 0.0858736 3.49925 0.225931 2.98388 0.426261C2.43658 0.633054 1.94669 0.951196 1.53944 1.36801C1.12586 1.77526 0.80461 2.26838 0.600925 2.80922C0.40047 3.32782 0.260537 3.91949 0.222385 4.78481C0.181002 5.6566 0.171432 5.93336 0.171432 8.14445C0.171432 10.3555 0.181002 10.6323 0.219154 11.5009C0.257306 12.3662 0.397363 12.9611 0.597818 13.4766C0.80461 14.0237 1.12586 14.5136 1.53944 14.9209C1.94669 15.3345 2.43981 15.6558 2.98065 15.8594C3.49925 16.0599 4.09092 16.1998 4.95637 16.2379C5.8248 16.2762 6.10168 16.2857 8.31277 16.2857C10.5239 16.2857 10.8006 16.2762 11.6692 16.2379C12.5345 16.1998 13.1294 16.0599 13.6448 15.8594C14.7392 15.4362 15.6046 14.5709 16.0277 13.4766C16.228 12.958 16.3681 12.3662 16.4063 11.5009C16.4444 10.6323 16.454 10.3555 16.454 8.14445C16.454 5.93336 16.4507 5.6566 16.4126 4.78804ZM14.946 11.4372C14.911 12.2326 14.7774 12.6621 14.666 12.9484C14.3924 13.6579 13.8293 14.221 13.1198 14.4946C12.8335 14.606 12.4009 14.7396 11.6086 14.7745C10.7497 14.8128 10.492 14.8222 8.31911 14.8222C6.14617 14.8222 5.88532 14.8128 5.02944 14.7745C4.23408 14.7396 3.80459 14.606 3.51826 14.4946C3.1652 14.3641 2.84383 14.1573 2.58298 13.8869C2.31255 13.6228 2.10576 13.3047 1.97527 12.9516C1.86392 12.6653 1.73033 12.2326 1.69541 11.4405C1.65713 10.5815 1.64769 10.3237 1.64769 8.15079C1.64769 5.97785 1.65713 5.717 1.69541 4.86124C1.73033 4.06589 1.86392 3.63639 1.97527 3.35007C2.10576 2.99688 2.31255 2.67563 2.58621 2.41465C2.85017 2.14423 3.16831 1.93744 3.5215 1.80707C3.80782 1.69572 4.24055 1.56213 5.03267 1.52708C5.89165 1.48893 6.1494 1.47936 8.32221 1.47936C10.4984 1.47936 10.756 1.48893 11.6119 1.52708C12.4072 1.56213 12.8367 1.69572 13.1231 1.80707C13.4761 1.93744 13.7975 2.14423 14.0583 2.41465C14.3288 2.67874 14.5356 2.99688 14.666 3.35007C14.7774 3.63639 14.911 4.06899 14.946 4.86124C14.9842 5.72023 14.9938 5.97785 14.9938 8.15079C14.9938 10.3237 14.9842 10.5782 14.946 11.4372Z" fill="white"/>
<path d="M8.31585 3.96094C6.00621 3.96094 4.13228 5.83475 4.13228 8.14451C4.13228 10.4543 6.00621 12.3281 8.31585 12.3281C10.6256 12.3281 12.4994 10.4543 12.4994 8.14451C12.4994 5.83475 10.6256 3.96094 8.31585 3.96094ZM8.31585 10.8583C6.81748 10.8583 5.60207 9.64301 5.60207 8.14451C5.60207 6.64601 6.81748 5.43073 8.31585 5.43073C9.81435 5.43073 11.0296 6.64601 11.0296 8.14451C11.0296 9.64301 9.81435 10.8583 8.31585 10.8583Z" fill="white"/>
<path d="M13.6416 3.79552C13.6416 4.33487 13.2043 4.7722 12.6648 4.7722C12.1255 4.7722 11.6882 4.33487 11.6882 3.79552C11.6882 3.25605 12.1255 2.81885 12.6648 2.81885C13.2043 2.81885 13.6416 3.25605 13.6416 3.79552Z" fill="white"/>
</g>
<defs>
<clipPath id="clip0">
<rect width="16.2857" height="16.2857" fill="white" transform="translate(0.142822)"/>
</clipPath>
</defs>
</svg>
