<svg width="100" height="88" viewBox="0 0 100 88" fill="none" xmlns="http://www.w3.org/2000/svg">
<path d="M26.7139 4.96354V17.9146H35.6884V8.99215H64.3137V17.9146H73.2882V4.96354C73.2882 2.22221 71.0703 0 68.3344 0H31.6678C28.9318 0.000195307 26.7139 2.2224 26.7139 4.96354Z" fill="#74C6FF"/>
<path d="M90.5491 15.9615H9.45317C4.24198 15.9615 0.00244141 20.2012 0.00244141 25.4122V78.2307C0.00244141 83.446 4.23885 87.6889 9.44614 87.6889H90.5563C95.7636 87.6889 100 83.446 100 78.2307V25.4122C99.9998 20.2012 95.7603 15.9615 90.5491 15.9615ZM96.0937 78.2307C96.0937 81.2922 93.6096 83.7827 90.5561 83.7827H9.44614C6.3927 83.7827 3.90859 81.2922 3.90859 78.2307V53.547C6.62238 56.5039 10.5172 58.3603 14.8376 58.3603H20.5761C21.6548 58.3603 22.5292 57.486 22.5292 56.4073C22.5292 55.3286 21.6548 54.4542 20.5761 54.4542H14.8376C8.81139 54.4544 3.90859 49.5516 3.90859 43.5254V25.4124C3.90859 22.355 6.39583 19.8678 9.45317 19.8678H90.5491C93.6064 19.8678 96.0937 22.355 96.0937 25.4124V43.5254C96.0937 49.5518 91.1909 54.4544 85.1646 54.4544H78.3207C77.242 54.4544 76.3676 55.3288 76.3676 56.4075C76.3676 57.4861 77.242 58.3605 78.3207 58.3605H85.1646C89.485 58.3605 93.3799 56.5041 96.0937 53.5472V78.2307Z" fill="#00A9DD"/>
<path d="M71.4887 54.4544H28.7539C27.6752 54.4544 26.8008 55.3288 26.8008 56.4075C26.8008 57.4862 27.6752 58.3606 28.7539 58.3606H71.4889C72.5675 58.3606 73.4419 57.4862 73.4419 56.4075C73.4419 55.3288 72.5673 54.4544 71.4887 54.4544Z" fill="#00A9DD"/>
<path d="M73.1677 26.4083H26.8349C25.7562 26.4083 24.8818 27.2827 24.8818 28.3614C24.8818 29.4401 25.7562 30.3144 26.8349 30.3144H73.1675C74.2462 30.3144 75.1206 29.4401 75.1206 28.3614C75.1208 27.2827 74.2464 26.4083 73.1677 26.4083Z" fill="#00A9DD"/>
<path d="M69.2227 46.1711H81.1128V64.6909H69.2227V46.1711Z" fill="#74C6FF"/>
<path d="M18.8906 46.1721H30.7807V64.6919H18.8906V46.1721Z" fill="#74C6FF"/>
</svg>
