<svg width="61" height="100" viewBox="0 0 61 100" fill="none" xmlns="http://www.w3.org/2000/svg">
<path d="M40.7013 54.2706C46.3822 48.5897 46.3822 39.3792 40.7013 33.6983C35.0204 28.0174 25.8098 28.0174 20.1289 33.6983C14.448 39.3792 14.448 48.5897 20.1289 54.2706C25.8098 59.9515 35.0204 59.9515 40.7013 54.2706Z" fill="#74C6FF"/>
<path d="M59.7854 63.3461L51.9275 59.3365C53.0523 52.7328 53.9254 45.9339 53.9254 40.7372C53.9254 26.1171 47.8121 15.8956 42.6836 9.89522C37.1242 3.39092 31.5865 0.36045 31.3533 0.234668C30.7742 -0.0782227 30.0765 -0.0782227 29.4974 0.234668C29.2644 0.360254 23.7265 3.39092 18.1672 9.89522C13.0386 15.8956 6.92535 26.1171 6.92535 40.7372C6.92535 45.9337 7.7982 52.7326 8.9232 59.3365L1.06558 63.3461C0.293309 63.7402 -0.126614 64.5959 0.0339325 65.4478L4.40659 88.6322C4.52827 89.2767 4.96519 89.8172 5.57007 90.0711C5.81304 90.173 6.07007 90.2232 6.32573 90.2232C6.70698 90.2232 7.0857 90.1117 7.41187 89.8933L16.1306 84.0609H21.0974C20.9545 84.7219 20.8814 85.3998 20.8814 86.0838C20.8814 90.8314 27.6677 98.0189 29.0283 99.4117C29.3959 99.7879 29.8996 100 30.4254 100C30.9511 100 31.4551 99.7879 31.8224 99.4117C33.183 98.0189 39.9693 90.8312 39.9693 86.0838C39.9693 85.3998 39.8963 84.7219 39.7533 84.0609H44.7201L53.4391 89.8933C53.7654 90.1115 54.144 90.2232 54.5252 90.2232C54.7811 90.2232 55.0381 90.173 55.2809 90.0711C55.8857 89.8172 56.3227 89.2767 56.4443 88.6322L60.817 65.4478C60.9777 64.5959 60.5576 63.7402 59.7854 63.3461ZM21.0349 12.553C24.8453 8.06339 28.7043 5.33448 30.4256 4.23428C32.1484 5.33545 36.0064 8.06397 39.8162 12.553C40.9273 13.8624 41.9486 15.2124 42.8797 16.6017H17.9715C18.9023 15.2124 19.9236 13.8624 21.0349 12.553ZM15.6461 20.5079H45.2051C48.4041 26.6103 50.0191 33.3818 50.0191 40.7372C50.0191 52.6773 45.0103 74.3261 43.6076 80.1547H17.2435C15.8406 74.3269 10.832 52.6816 10.832 40.7372C10.832 33.3818 12.447 26.6103 15.6461 20.5079ZM4.1439 66.1607L9.64137 63.3554C11.1025 71.1943 12.748 78.2006 13.4625 81.1465L7.69761 85.0029L4.1439 66.1607ZM36.0633 86.084C36.0633 88.066 33.1056 92.1539 30.4256 95.1768C27.7451 92.1539 24.7879 88.0658 24.7879 86.084C24.7879 85.3877 24.9156 84.7025 25.1619 84.0611H35.6894C35.9355 84.7025 36.0633 85.3877 36.0633 86.084ZM53.1537 85.0029L47.3889 81.1467C48.1033 78.201 49.7486 71.1945 51.21 63.3556L56.7074 66.1609L53.1537 85.0029Z" fill="#00A9DD"/>
<path d="M30.426 50.2212C33.8652 50.2212 36.6635 47.423 36.6635 43.9835C36.6635 40.5441 33.8652 37.7462 30.426 37.7462C26.9867 37.7462 24.1885 40.5443 24.1885 43.9837C24.1885 47.4232 26.9867 50.2212 30.426 50.2212ZM30.426 41.6525C31.7115 41.6525 32.7572 42.6984 32.7572 43.9837C32.7572 45.2693 31.7115 46.3152 30.426 46.3152C29.1404 46.3152 28.0947 45.2693 28.0947 43.9837C28.0947 42.6982 29.1404 41.6525 30.426 41.6525Z" fill="#00A9DD"/>
</svg>
