<svg width="86" height="100" viewBox="0 0 86 100" fill="none" xmlns="http://www.w3.org/2000/svg">
<path d="M64.7388 36.7087H79.4161V99.661H64.7388V36.7087Z" fill="#74C6FF"/>
<path d="M9.14307 50.0815H21.812V99.661H9.14307V50.0815Z" fill="#74C6FF"/>
<path d="M56.6323 19.5935H47.6353C46.556 19.5935 45.6812 20.4683 45.6812 21.5476V30.5599C45.6812 31.6392 46.556 32.514 47.6353 32.514H56.6323C57.7116 32.514 58.5864 31.6392 58.5864 30.5599V21.5476C58.5864 20.4683 57.7116 19.5935 56.6323 19.5935ZM54.6782 28.6056H49.5894V23.5017H54.6782V28.6056Z" fill="#00A9DD"/>
<path d="M38.9126 19.5935H29.9155C28.8362 19.5935 27.9614 20.4683 27.9614 21.5476V30.5599C27.9614 31.6392 28.8362 32.514 29.9155 32.514H38.9126C39.9919 32.514 40.8667 31.6392 40.8667 30.5599V21.5476C40.8669 20.4683 39.9919 19.5935 38.9126 19.5935ZM36.9585 28.6056H31.8696V23.5017H36.9585V28.6056Z" fill="#00A9DD"/>
<path d="M56.6323 39.4327H47.6353C46.556 39.4327 45.6812 40.3075 45.6812 41.3868V50.3991C45.6812 51.4784 46.556 52.3532 47.6353 52.3532H56.6323C57.7116 52.3532 58.5864 51.4784 58.5864 50.3991V41.3868C58.5864 40.3075 57.7116 39.4327 56.6323 39.4327ZM54.6782 48.4448H49.5894V43.3409H54.6782V48.4448Z" fill="#00A9DD"/>
<path d="M38.9126 39.4327H29.9155C28.8362 39.4327 27.9614 40.3075 27.9614 41.3868V50.3991C27.9614 51.4784 28.8362 52.3532 29.9155 52.3532H38.9126C39.9919 52.3532 40.8667 51.4784 40.8667 50.3991V41.3868C40.8669 40.3075 39.9919 39.4327 38.9126 39.4327ZM36.9585 48.4448H31.8696V43.3409H36.9585V48.4448Z" fill="#00A9DD"/>
<path d="M56.6323 59.2715H47.6353C46.556 59.2715 45.6812 60.1464 45.6812 61.2256V70.2378C45.6812 71.3171 46.556 72.1919 47.6353 72.1919H56.6323C57.7116 72.1919 58.5864 71.3171 58.5864 70.2378V61.2256C58.5864 60.1465 57.7116 59.2715 56.6323 59.2715ZM54.6782 68.2837H49.5894V63.1797H54.6782V68.2837Z" fill="#00A9DD"/>
<path d="M38.9126 59.2715H29.9155C28.8362 59.2715 27.9614 60.1464 27.9614 61.2256V70.2378C27.9614 71.3171 28.8362 72.1919 29.9155 72.1919H38.9126C39.9919 72.1919 40.8667 71.3171 40.8667 70.2378V61.2256C40.8669 60.1465 39.9919 59.2715 38.9126 59.2715ZM36.9585 68.2837H31.8696V63.1797H36.9585V68.2837Z" fill="#00A9DD"/>
<path d="M83.1831 96.0918H66.6907V10.9299C66.6907 9.85059 65.8159 8.97578 64.7366 8.97578H60.5767V1.9543C60.5767 0.874805 59.7019 0 58.6226 0H27.9272C26.8479 0 25.9731 0.874805 25.9731 1.9541V8.97559H21.8132C20.7339 8.97559 19.8591 9.85059 19.8591 10.9297V96.0918H1.95654C0.877246 96.0918 0.00244141 96.9666 0.00244141 98.0459C0.00244141 99.1252 0.877246 100 1.95654 100H83.1831C84.2624 100 85.1372 99.1252 85.1372 98.0459C85.1372 96.9666 84.2624 96.0918 83.1831 96.0918ZM29.8813 3.9082H56.6685V8.97559H29.8813V3.9082ZM37.3954 96.0918V85.1607H49.1542V96.0918H37.3954ZM53.0626 96.0918V83.2066C53.0626 82.1273 52.1878 81.2525 51.1085 81.2525H35.4413C34.362 81.2525 33.4872 82.1273 33.4872 83.2066V96.0918H23.7673V12.884H62.7825V96.0918H53.0626Z" fill="#00A9DD"/>
</svg>
