<svg width="100" height="55" viewBox="0 0 100 55" fill="none" xmlns="http://www.w3.org/2000/svg">
<path d="M79.5527 3.99997L79.5527 18.6772L16.6007 18.6772L16.6007 3.99997L79.5527 3.99997Z" fill="#74C6FF"/>
<path d="M77.0832 0H18.7487C15.3027 0 12.4985 2.80416 12.4985 6.25012V10.4168C12.4985 25.2837 20.7112 38.7674 33.9281 45.605C34.949 46.13 36.2072 45.7341 36.7365 44.7091C37.2615 43.6882 36.8656 42.4299 35.8406 41.9006C24.0154 35.7839 16.6652 23.7212 16.6652 10.4166V6.24993C16.6652 5.0999 17.5986 4.16649 18.7487 4.16649H77.0832C78.2332 4.16649 79.1666 5.0999 79.1666 6.24993V10.4166C79.1666 23.721 71.8165 35.7837 59.9872 41.8963C58.9621 42.4254 58.5662 43.6839 59.0912 44.7048C59.4621 45.4214 60.1913 45.8339 60.9454 45.8339C61.2704 45.8339 61.5954 45.7589 61.8995 45.6005C75.1207 38.767 83.3333 25.2876 83.3333 10.4164V6.24973C83.3333 2.80415 80.529 0 77.0832 0Z" fill="#00A9DD"/>
<path d="M95.6792 42.9509C95.3542 42.1718 94.5957 41.6634 93.7541 41.6634H2.08573C1.24411 41.6634 0.4857 42.1718 0.160694 42.9509C-0.164312 43.73 0.0147927 44.6259 0.610703 45.2218L5.28169 49.8969C8.04014 52.6511 11.6984 54.1679 15.5944 54.1679H80.2373C84.1332 54.1679 87.7958 52.6513 90.5584 49.8969L95.2294 45.2218C95.8251 44.6259 96.0042 43.73 95.6792 42.9509ZM87.6083 46.951C85.6417 48.9176 83.0207 50.001 80.2416 50.001H15.5944C12.8152 50.001 10.1943 48.9176 8.22765 46.951L7.11102 45.8343H88.7249L87.6083 46.951Z" fill="#00A9DD"/>
<path d="M95.9704 9.83767C90.3578 6.2292 81.3911 10.1461 80.3867 10.6002C79.3408 11.0793 79.9076 12.3002 80.3867 13.3502C80.8659 14.4003 81.0618 14.8753 82.1159 14.3962C84.1243 13.4836 90.566 11.3211 93.7161 13.3502C95.137 14.2628 95.8327 16.0337 95.8327 18.7503C95.8327 27.0921 79.0074 32.134 72.5114 33.3756L71.0364 33.6672C69.9072 33.8881 69.1738 34.9839 69.3947 36.1132C69.5906 37.1048 70.4614 37.7923 71.4364 37.7923C71.5698 37.7923 71.703 37.7798 71.8405 37.7507L73.303 37.4632C74.3946 37.2548 99.9994 32.234 99.9994 18.7503C99.9996 14.5587 98.6414 11.5627 95.9704 9.83767Z" fill="#00A9DD"/>
</svg>
