<svg width="50" height="50" viewBox="0 0 50 50" fill="none" xmlns="http://www.w3.org/2000/svg"><path d="M34.9336 35.1762C33.2135 36.2751 31.3001 37.0971 29.256 37.5793L24.9994 44.2037 20.7429 37.5793C18.6987 37.0971 16.7854 36.2751 15.0652 35.1762H10.2886L2.56641 49.9999H39.7103L47.4324 35.1762H34.9336z" fill="#74c6ff"/><path d="M24.9985.0C14.2557.0 5.51562 8.75859 5.51562 19.5245 5.51562 23.9499 7.03408 28.2847 9.79121 31.7302 12.423 35.0192 16.0824 37.3888 20.1305 38.4341L23.2104 43.2272H21.5013C20.9619 43.2272 20.5247 43.6646 20.5247 44.2038 20.5247 44.7431 20.9619 45.1804 21.5013 45.1804H28.496C29.0354 45.1804 29.4726 44.7431 29.4726 44.2038 29.4726 43.6646 29.0354 43.2272 28.496 43.2272H26.7869L29.8668 38.4341C33.9147 37.3888 37.5741 35.0191 40.2061 31.7302 42.9632 28.2847 44.4816 23.9499 44.4816 19.5245 44.4814 8.75859 35.7414.0 24.9985.0V0zM29.0309 36.6289C28.7846 36.687 28.5704 36.8385 28.4335 37.0514L24.9985 42.3973 21.5636 37.0514C21.4268 36.8385 21.2126 36.6869 20.9662 36.6289 13.0191 34.7541 7.46875 27.7204 7.46875 19.5245 7.46875 9.83565 15.3326 1.95313 24.9985 1.95313 34.6645 1.95313 42.5283 9.83565 42.5283 19.5245 42.5283 27.7204 36.9779 34.7541 29.0309 36.6289z" fill="#00a9dd"/><path d="M24.9989 5.86847C17.4845 5.86847 11.3711 11.9946 11.3711 19.5247 11.3711 27.0548 17.4845 33.181 24.9989 33.181 32.5134 33.181 38.6268 27.0549 38.6268 19.5247 38.6268 11.9945 32.5134 5.86847 24.9989 5.86847zm0 25.35933c-6.4375.0-11.6747-5.25-11.6747-11.7031C13.3242 13.0716 18.5614 7.82159 24.9989 7.82159 31.4364 7.82159 36.6736 13.0716 36.6736 19.5247 36.6736 25.9778 31.4364 31.2278 24.9989 31.2278z" fill="#00a9dd"/></svg>