<svg width="83" height="31" viewBox="0 0 83 31" fill="none" xmlns="http://www.w3.org/2000/svg">
<path d="M1.22781 22.7146C2.94676 23.6354 5.70934 24.4949 8.53331 24.4949C11.5415 24.4949 13.1376 23.2671 13.1376 21.364C13.1376 19.5836 11.787 18.54 8.28775 17.3122C3.43788 15.5932 0.306954 12.8921 0.306954 8.71748C0.306954 3.74483 4.48152 0 11.2959 0C14.611 0 17.0052 0.675294 18.7242 1.47337L17.2508 6.75298C16.1458 6.20047 13.9971 5.40238 11.2345 5.40238C8.41053 5.40238 6.99855 6.75298 6.99855 8.22636C6.99855 10.0681 8.5947 10.8662 12.4009 12.3395C17.4964 14.2427 19.8906 16.8825 19.8906 20.9956C19.8906 25.8455 16.2072 30.0201 8.22636 30.0201C4.91126 30.0201 1.65755 29.0992 0 28.2397L1.22781 22.7146Z" fill="white"/>
<path d="M48.7443 18.3559C48.6215 14.8566 48.4987 10.6207 48.4987 6.44612H48.4374C47.5165 10.1296 46.2887 14.3041 45.1836 17.6806L41.623 28.9765H36.5275L33.458 17.8034C32.5372 14.3655 31.5549 10.2523 30.8182 6.44612H30.7568C30.634 10.3751 30.4499 14.8566 30.2657 18.4787L29.7132 29.529H23.6355L25.4772 0.491211H34.1947L37.0187 10.191C37.9395 13.5674 38.799 17.1895 39.4743 20.566H39.6585C40.4566 17.1895 41.4388 13.3833 42.4211 10.1296L45.4906 0.491211H54.0853L55.6201 29.529H49.2354L48.7443 18.3559Z" fill="white"/>
<path d="M60.6541 0.797989C62.373 0.491036 65.8109 0.184082 69.126 0.184082C73.1164 0.184082 75.5721 0.552429 77.7207 1.84163C79.7466 2.94667 81.1586 4.91117 81.1586 7.55097C81.1586 10.068 79.6238 12.4622 76.3701 13.69V13.7514C79.6852 14.6109 82.1409 17.1279 82.1409 20.8728C82.1409 23.5126 80.913 25.5999 79.1327 27.0732C77.0454 28.7308 73.4848 29.713 67.714 29.713C64.4603 29.713 62.0661 29.4675 60.5927 29.2833V0.797989H60.6541ZM67.1615 11.9097H69.3102C72.8095 11.9097 74.5898 10.4977 74.5898 8.34905C74.5898 6.13899 72.9323 4.97256 69.9241 4.97256C68.4507 4.97256 67.6526 5.03395 67.1001 5.15673V11.9097H67.1615ZM67.1615 24.8018C67.7754 24.8632 68.5735 24.8632 69.6785 24.8632C72.6253 24.8632 75.2651 23.6967 75.2651 20.6272C75.2651 17.7418 72.6253 16.5754 69.3716 16.5754H67.1615V24.8018Z" fill="white"/>
</svg>
