<svg width="211" height="49" viewBox="0 0 211 49" fill="none" xmlns="http://www.w3.org/2000/svg">
<path d="M1.22781 22.7146C2.94676 23.6354 5.70934 24.4949 8.53331 24.4949C11.5415 24.4949 13.1376 23.2671 13.1376 21.364C13.1376 19.5836 11.787 18.54 8.28775 17.3122C3.43788 15.5932 0.306954 12.8921 0.306954 8.71748C0.306954 3.74483 4.48152 0 11.2959 0C14.611 0 17.0052 0.675294 18.7242 1.47337L17.2508 6.75298C16.1458 6.20047 13.9971 5.40238 11.2345 5.40238C8.41053 5.40238 6.99855 6.75298 6.99855 8.22636C6.99855 10.0681 8.5947 10.8662 12.4009 12.3395C17.4964 14.2427 19.8906 16.8825 19.8906 20.9956C19.8906 25.8455 16.2072 30.0201 8.22636 30.0201C4.91126 30.0201 1.65755 29.0992 0 28.2397L1.22781 22.7146Z" fill="#43A7DB"/>
<path d="M48.7443 18.3559C48.6215 14.8566 48.4987 10.6207 48.4987 6.44612H48.4374C47.5165 10.1296 46.2887 14.3041 45.1836 17.6806L41.623 28.9765H36.5275L33.458 17.8034C32.5372 14.3655 31.5549 10.2523 30.8182 6.44612H30.7568C30.634 10.3751 30.4499 14.8566 30.2657 18.4787L29.7132 29.529H23.6355L25.4772 0.491211H34.1947L37.0187 10.191C37.9395 13.5674 38.799 17.1895 39.4743 20.566H39.6585C40.4566 17.1895 41.4388 13.3833 42.4211 10.1296L45.4906 0.491211H54.0853L55.6201 29.529H49.2354L48.7443 18.3559Z" fill="#43A7DB"/>
<path d="M60.6541 0.797989C62.373 0.491036 65.8109 0.184082 69.126 0.184082C73.1164 0.184082 75.5721 0.552429 77.7207 1.84163C79.7466 2.94667 81.1586 4.91117 81.1586 7.55097C81.1586 10.068 79.6238 12.4622 76.3701 13.69V13.7514C79.6852 14.6109 82.1409 17.1279 82.1409 20.8728C82.1409 23.5126 80.913 25.5999 79.1327 27.0732C77.0454 28.7308 73.4848 29.713 67.714 29.713C64.4603 29.713 62.0661 29.4675 60.5927 29.2833V0.797989H60.6541ZM67.1615 11.9097H69.3102C72.8095 11.9097 74.5898 10.4977 74.5898 8.34905C74.5898 6.13899 72.9323 4.97256 69.9241 4.97256C68.4507 4.97256 67.6526 5.03395 67.1001 5.15673V11.9097H67.1615ZM67.1615 24.8018C67.7754 24.8632 68.5735 24.8632 69.6785 24.8632C72.6253 24.8632 75.2651 23.6967 75.2651 20.6272C75.2651 17.7418 72.6253 16.5754 69.3716 16.5754H67.1615V24.8018Z" fill="#43A7DB"/>
<path d="M102.277 28.9764C101.663 29.2834 100.312 29.7131 98.532 29.7131C94.603 29.7131 92.0246 27.0733 92.0246 23.0829C92.0246 19.0925 94.7872 16.1458 99.0231 16.1458C100.435 16.1458 101.663 16.5141 102.277 16.821L101.724 18.6014C101.172 18.2944 100.251 17.9875 98.9618 17.9875C95.9536 17.9875 94.3574 20.1975 94.3574 22.8987C94.3574 25.9069 96.3219 27.7486 98.9004 27.7486C100.251 27.7486 101.11 27.4417 101.786 27.1347L102.277 28.9764Z" fill="white"/>
<path d="M116.704 22.8373C116.704 27.6258 113.327 29.7744 110.196 29.7744C106.697 29.7744 103.935 27.196 103.935 23.0828C103.935 18.7241 106.82 16.2071 110.381 16.2071C114.187 16.1457 116.704 18.8469 116.704 22.8373ZM106.39 22.9601C106.39 25.784 107.986 27.9941 110.319 27.9941C112.591 27.9941 114.248 25.8454 114.248 22.9601C114.248 20.75 113.143 17.9874 110.319 17.9874C107.618 17.926 106.39 20.5044 106.39 22.9601Z" fill="white"/>
<path d="M119.65 19.9519C119.65 18.6013 119.589 17.4962 119.528 16.4526H121.615L121.738 18.6013H121.799C122.536 17.3735 123.764 16.207 125.912 16.207C127.693 16.207 128.982 17.3121 129.596 18.8468H129.657C130.087 18.1101 130.578 17.5576 131.131 17.1279C131.929 16.514 132.727 16.207 133.955 16.207C135.673 16.207 138.252 17.3121 138.252 21.855V29.4674H135.919V22.1005C135.919 19.5835 134.998 18.1101 133.095 18.1101C131.744 18.1101 130.701 19.0924 130.271 20.2588C130.148 20.6272 130.087 20.9955 130.087 21.4252V29.4674H127.754V21.6708C127.754 19.5835 126.833 18.1101 125.053 18.1101C123.579 18.1101 122.474 19.2766 122.106 20.5044C121.983 20.8113 121.922 21.2411 121.922 21.6708V29.5288H119.589V19.9519H119.65Z" fill="white"/>
<path d="M142.12 20.6887C142.12 19.0311 142.058 17.6805 141.997 16.4527H144.084L144.207 18.6628H144.268C145.189 17.0666 146.785 16.1458 148.873 16.1458C152.065 16.1458 154.398 18.7856 154.398 22.7146C154.398 27.3803 151.512 29.7131 148.443 29.7131C146.724 29.7131 145.189 28.9764 144.452 27.6872H144.391V34.7471H142.058V20.6887H142.12ZM144.452 24.1265C144.452 24.4949 144.452 24.8018 144.575 25.1088C145.005 26.7663 146.417 27.8714 148.136 27.8714C150.653 27.8714 152.065 25.8455 152.065 22.8373C152.065 20.2589 150.714 18.0489 148.197 18.0489C146.601 18.0489 145.066 19.1539 144.637 20.9342C144.575 21.2412 144.452 21.6095 144.452 21.8551V24.1265Z" fill="white"/>
<path d="M168.333 25.8454C168.333 27.196 168.333 28.4238 168.456 29.4061H166.369L166.246 27.2574H166.185C165.571 28.3011 164.22 29.6516 161.887 29.6516C159.862 29.6516 157.406 28.4852 157.406 23.9423V16.4526H159.8V23.6354C159.8 26.091 160.598 27.8099 162.685 27.8099C164.282 27.8099 165.387 26.7049 165.816 25.6612C165.939 25.3543 166.001 24.9246 166.001 24.4334V16.4526H168.395V25.8454H168.333Z" fill="white"/>
<path d="M175.086 13.3218V16.4527H178.463V18.233H175.086V25.2316C175.086 26.8277 175.516 27.7486 176.867 27.7486C177.542 27.7486 177.91 27.6872 178.217 27.5644L178.34 29.3448C177.91 29.5289 177.174 29.6517 176.253 29.6517C175.148 29.6517 174.288 29.2834 173.674 28.6695C173.061 27.9328 172.754 26.7664 172.754 25.2316V18.233H170.728V16.4527H172.754V14.0585L175.086 13.3218Z" fill="white"/>
<path d="M182.269 23.3899C182.331 26.5822 184.356 27.9328 186.751 27.9328C188.47 27.9328 189.513 27.6258 190.373 27.2575L190.802 28.9764C189.943 29.3448 188.531 29.8359 186.444 29.8359C182.453 29.8359 180.059 27.1961 180.059 23.2671C180.059 19.3381 182.392 16.2686 186.137 16.2686C190.434 16.2686 191.539 19.952 191.539 22.3462C191.539 22.8374 191.539 23.2057 191.478 23.4513H182.269V23.3899ZM189.268 21.6709C189.268 20.1976 188.654 17.8647 186.014 17.8647C183.62 17.8647 182.576 20.0134 182.392 21.6709H189.268Z" fill="white"/>
<path d="M194.486 20.5044C194.486 18.9696 194.486 17.6804 194.363 16.4526H196.45L196.573 19.031H196.635C197.249 17.3121 198.661 16.207 200.257 16.207C200.502 16.207 200.686 16.207 200.871 16.2684V18.4785C200.625 18.4171 200.379 18.4171 200.072 18.4171C198.415 18.4171 197.249 19.6449 196.88 21.4252C196.819 21.7322 196.819 22.1619 196.819 22.5303V29.4674H194.425V20.5044H194.486Z" fill="white"/>
<path d="M202.958 27.0733C203.695 27.503 204.922 27.9942 206.089 27.9942C207.808 27.9942 208.606 27.1347 208.606 26.0297C208.606 24.9246 207.931 24.3107 206.212 23.6354C203.817 22.776 202.774 21.4867 202.774 19.952C202.774 17.8647 204.493 16.1458 207.255 16.1458C208.544 16.1458 209.711 16.5141 210.448 16.9438L209.895 18.6628C209.404 18.3558 208.422 17.8647 207.255 17.8647C205.843 17.8647 205.107 18.6628 205.107 19.645C205.107 20.7501 205.843 21.1798 207.562 21.8551C209.772 22.7146 211 23.8196 211 25.7841C211 28.117 209.22 29.7131 206.15 29.7131C204.738 29.7131 203.388 29.3448 202.467 28.7922L202.958 27.0733Z" fill="white"/>
<path d="M87.1749 0.429688V30.5725" stroke="white" stroke-width="0.75" stroke-miterlimit="10"/>
<path d="M2.4557 35.6067V45.3678H1.1051V35.6067H2.4557Z" fill="white"/>
<path d="M6.69178 36.6503H3.56085V35.6067H11.1733V36.6503H8.04238V45.3064H6.69178V36.6503Z" fill="white"/>
<path d="M14.6111 41.009V41.9299H10.8663V41.009H14.6111Z" fill="white"/>
<path d="M16.2072 40.6406C16.2072 39.7197 16.2072 39.0444 16.1458 38.3691H17.3122L17.3736 39.5969C17.9261 38.7375 18.7856 38.2463 20.0134 38.2463C21.7938 38.2463 23.1444 39.6583 23.1444 41.807C23.1444 44.324 21.4868 45.5518 19.7679 45.5518C18.7856 45.5518 17.9261 45.1221 17.4964 44.4468V48.253H16.1458V40.6406H16.2072ZM17.4964 42.4823C17.4964 42.6665 17.4964 42.8506 17.5578 43.0348C17.8034 43.8943 18.6014 44.5082 19.5837 44.5082C20.9957 44.5082 21.8552 43.4032 21.8552 41.807C21.8552 40.395 21.0571 39.2286 19.6451 39.2286C18.7242 39.2286 17.8648 39.8425 17.6192 40.7634C17.5578 40.9475 17.5578 41.1317 17.5578 41.2545V42.4823H17.4964Z" fill="white"/>
<path d="M25.6 42.1139C25.6 43.8329 26.7664 44.5696 28.117 44.5696C29.0993 44.5696 29.6518 44.3854 30.1429 44.2012L30.3885 45.1221C29.8973 45.3063 29.0993 45.5518 27.9328 45.5518C25.6614 45.5518 24.3108 44.1398 24.3108 41.9912C24.3108 39.8425 25.6 38.2463 27.7487 38.2463C30.1429 38.2463 30.8182 40.2722 30.8182 41.5614C30.8182 41.807 30.8182 41.9912 30.7568 42.1753H25.6V42.1139ZM29.529 41.1931C29.529 40.395 29.1607 39.1672 27.6873 39.1672C26.3367 39.1672 25.7228 40.3336 25.6 41.1931H29.529Z" fill="white"/>
<path d="M33.765 38.3691V44.3854H36.3434V38.3691H37.694V44.3854H40.2724V38.3691H41.623V45.3677H32.5372V38.3691H33.765Z" fill="white"/>
<path d="M44.5085 42.1139C44.5699 43.8329 45.6749 44.5696 47.0255 44.5696C48.0078 44.5696 48.5603 44.3854 49.0514 44.2012L49.297 45.1221C48.8059 45.3063 48.0078 45.5518 46.8413 45.5518C44.5699 45.5518 43.2193 44.1398 43.2193 41.9912C43.2193 39.8425 44.5085 38.2463 46.6572 38.2463C49.0514 38.2463 49.7267 40.2722 49.7267 41.5614C49.7267 41.807 49.7267 41.9912 49.6653 42.1753H44.5085V42.1139ZM48.4375 41.1931C48.4375 40.395 48.0692 39.1672 46.5958 39.1672C45.2452 39.1672 44.6313 40.3336 44.5085 41.1931H48.4375Z" fill="white"/>
<path d="M52.6733 38.3691V41.1931H56.1726V38.3691H57.5232V45.3677H56.1726V42.1754H52.6733V45.3677H51.3228V38.3691H52.6733Z" fill="white"/>
<path d="M60.961 38.3691V41.3159C60.961 42.4209 60.8996 43.0962 60.8996 44.1399H60.961C61.3907 43.2804 61.6363 42.7893 62.1888 41.9912L64.5217 38.3691H66.1178V45.3677H64.8286V42.4209C64.8286 41.2545 64.8286 40.702 64.89 39.5356C64.3989 40.4564 64.0919 41.0089 63.6622 41.7456C62.9869 42.8507 62.1274 44.2013 61.3907 45.4291H59.856V38.4305H60.961V38.3691Z" fill="white"/>
<path d="M73.6076 45.3677H72.257V42.4209H71.2748C70.7222 42.4209 70.3539 42.5437 70.0469 42.8506C69.4944 43.2804 69.3103 44.1398 69.0033 44.8151C68.9419 45.0607 68.8191 45.2449 68.6964 45.3677H67.2844C67.4685 45.1221 67.5913 44.8765 67.7141 44.5696C68.021 43.8943 68.2052 42.9734 68.8805 42.4823C69.1261 42.2981 69.3716 42.1753 69.74 42.0526C68.7577 41.9298 67.7755 41.3773 67.7755 40.2722C67.7755 39.5355 68.2052 39.0444 68.7577 38.7375C69.3716 38.3691 70.2925 38.2463 71.2134 38.2463C72.0728 38.2463 72.9323 38.3077 73.5462 38.3691V45.3677H73.6076ZM72.257 39.1672C71.9501 39.1058 71.6431 39.1058 71.152 39.1058C70.2311 39.1058 69.1261 39.3514 69.1261 40.3336C69.1261 41.2545 70.2925 41.5614 71.0906 41.5614C71.6431 41.5614 71.9501 41.5614 72.257 41.5614V39.1672Z" fill="white"/>
<path d="M84.7194 38.3691V44.4468H85.4561L85.3947 47.5778H84.3511L84.2897 45.3677H79.1943L79.1329 47.5778H78.0892L78.0278 44.4468H78.6417C78.9487 44.0171 79.1943 43.526 79.3784 43.0348C79.6854 42.1754 79.8082 41.2545 79.8082 40.2722V38.4305H84.7194V38.3691ZM80.9746 40.4564C80.9746 41.3773 80.8518 42.2981 80.6062 43.0962C80.4835 43.5874 80.2379 44.0171 80.0537 44.3854H83.4302V39.29H80.9746V40.4564Z" fill="white"/>
<path d="M92.7615 38.3693V45.3678H91.4109V39.3515H88.8939V41.1318C88.8939 43.0963 88.7097 44.4469 87.7274 44.9995C87.3591 45.245 86.9294 45.4292 86.2541 45.4292L86.1313 44.4469C86.3768 44.3855 86.6838 44.3242 86.868 44.14C87.5433 43.6489 87.6047 42.6666 87.6047 41.1318V38.3079H92.7615V38.3693Z" fill="white"/>
<path d="M100.374 45.3677H99.0233V42.4209H98.0411C97.4885 42.4209 97.1202 42.5437 96.8132 42.8506C96.2607 43.2804 96.0765 44.1398 95.7696 44.8151C95.6468 45.0607 95.5854 45.2449 95.4626 45.3677H94.0507C94.2348 45.1221 94.3576 44.8765 94.4804 44.5696C94.7873 43.8943 94.9715 42.9734 95.6468 42.4823C95.8924 42.2981 96.1379 42.1753 96.5063 42.0526C95.524 41.9298 94.5418 41.3773 94.5418 40.2722C94.5418 39.5355 94.9715 39.0444 95.524 38.7375C96.1379 38.3691 97.0588 38.2463 97.9797 38.2463C98.8391 38.2463 99.6986 38.3077 100.313 38.3691V45.3677H100.374ZM99.0847 39.1672C98.7777 39.1058 98.4708 39.1058 97.9797 39.1058C97.0588 39.1058 95.9538 39.3514 95.9538 40.3336C95.9538 41.2545 97.1202 41.5614 97.9183 41.5614C98.4708 41.5614 98.7777 41.5614 99.0847 41.5614V39.1672Z" fill="white"/>
<path d="M105.899 38.3691H107.557L108.907 41.9298C109.091 42.4209 109.398 43.2804 109.583 43.8329C109.767 43.2804 110.135 42.1754 110.442 41.4387L111.608 38.3691H113.266L113.757 45.3677H112.468L112.284 42.0526C112.284 41.3159 112.222 40.395 112.161 39.5356H112.1C111.915 40.1495 111.67 40.702 111.302 41.807L109.89 45.3677H108.907L107.618 41.8684C107.373 41.1931 107.066 40.2109 106.881 39.5356C106.82 40.3336 106.82 41.3159 106.759 42.0526L106.574 45.3677H105.347L105.899 38.3691Z" fill="white"/>
<path d="M120.694 43.6488C120.694 44.2627 120.756 44.8767 120.817 45.3064H119.589L119.466 44.4469H119.405C118.975 44.9994 118.177 45.4906 117.134 45.4906C115.66 45.4906 114.862 44.5083 114.862 43.4647C114.862 41.7457 116.458 40.8249 119.282 40.8862V40.7635C119.282 40.211 119.098 39.1673 117.625 39.1673C116.949 39.1673 116.213 39.3515 115.66 39.6584L115.476 38.799C116.09 38.4306 117.011 38.1851 117.932 38.1851C120.203 38.1851 120.756 39.6584 120.756 41.009V43.6488H120.694ZM119.405 41.8071C117.932 41.8071 116.274 42.0527 116.274 43.4033C116.274 44.2627 116.827 44.6311 117.502 44.6311C118.484 44.6311 119.098 44.0786 119.344 43.4647C119.405 43.3419 119.405 43.1577 119.405 43.0349V41.8071Z" fill="white"/>
<path d="M128.552 38.3693V45.3678H127.202V39.3515H124.685V41.1318C124.685 43.0963 124.501 44.4469 123.518 44.9995C123.15 45.245 122.72 45.4292 122.045 45.4292L121.922 44.4469C122.168 44.3855 122.475 44.3242 122.659 44.14C123.334 43.6489 123.395 42.6666 123.395 41.1318V38.3079H128.552V38.3693Z" fill="white"/>
<path d="M137.393 41.8071C137.393 44.3855 135.49 45.552 133.709 45.552C131.745 45.552 130.148 44.14 130.148 41.9299C130.148 39.5971 131.806 38.2465 133.832 38.2465C135.981 38.1851 137.393 39.6585 137.393 41.8071ZM131.56 41.8685C131.56 43.4033 132.481 44.5697 133.771 44.5697C135.06 44.5697 136.042 43.4033 136.042 41.8685C136.042 40.7021 135.428 39.1673 133.832 39.1673C132.236 39.1673 131.56 40.5793 131.56 41.8685Z" fill="white"/>
<path d="M143.593 38.3691V39.4128H140.401V45.4291H139.05V38.4305H143.593V38.3691Z" fill="white"/>
<path d="M151.328 41.8071C151.328 44.3855 149.425 45.552 147.645 45.552C145.68 45.552 144.084 44.14 144.084 41.9299C144.084 39.5971 145.742 38.2465 147.768 38.2465C149.855 38.1851 151.328 39.6585 151.328 41.8071ZM145.496 41.8685C145.496 43.4033 146.417 44.5697 147.706 44.5697C148.995 44.5697 149.978 43.4033 149.978 41.8685C149.978 40.7021 149.364 39.1673 147.768 39.1673C146.171 39.1673 145.496 40.5793 145.496 41.8685Z" fill="white"/>
<path d="M161.826 35.9749C161.458 36.0977 160.782 36.2205 160.291 36.2819C159.125 36.466 158.204 36.8344 157.652 37.5711C157.16 38.185 156.915 39.1058 156.853 39.9039H156.915C157.406 38.8603 158.45 38.3078 159.493 38.3078C161.335 38.3078 162.624 39.5356 162.624 41.7456C162.624 44.0171 161.396 45.4905 159.186 45.4905C156.608 45.4905 155.748 43.0962 155.748 40.7634C155.748 39.1672 156.117 37.878 156.915 36.8958C157.59 35.9135 158.634 35.4838 160.107 35.2382C160.721 35.1154 161.458 34.9927 161.949 34.8699L161.826 35.9749ZM159.186 39.29C158.388 39.29 157.836 39.6583 157.529 40.2723C157.283 40.702 157.16 41.1931 157.16 41.7456C157.16 42.9121 157.774 44.5696 159.248 44.5696C160.721 44.5696 161.274 43.219 161.274 41.8684C161.212 40.7634 160.782 39.29 159.186 39.29Z" fill="white"/>
<path d="M165.509 38.3691V41.3159C165.509 42.4209 165.448 43.0962 165.387 44.1399H165.448C165.878 43.2804 166.123 42.7893 166.676 41.9912L168.947 38.3691H170.544V45.3677H169.254V42.4209C169.254 41.2545 169.316 40.702 169.316 39.5356H169.254C168.763 40.4564 168.456 41.0089 168.027 41.7456C167.351 42.8507 166.492 44.2013 165.755 45.4291H164.22V38.4305H165.509V38.3691Z" fill="white"/>
<path d="M173.367 41.316H173.981C175.086 41.316 175.884 40.8249 175.884 40.1496C175.884 39.5357 175.271 39.1059 174.472 39.1059C173.859 39.1059 173.183 39.2901 172.692 39.597L172.385 38.799C173.122 38.3692 173.981 38.1851 174.841 38.1851C175.946 38.1851 177.358 38.6762 177.358 40.0268C177.358 40.8863 176.498 41.4388 175.7 41.6229C176.805 41.7457 177.726 42.3596 177.726 43.4033C177.726 44.938 176.069 45.4906 174.534 45.4906C173.674 45.4906 172.815 45.245 172.14 44.938L172.508 44.0786C173.06 44.3855 173.797 44.5697 174.472 44.5697C175.577 44.5697 176.314 44.0786 176.314 43.3419C176.314 42.421 175.271 42.1141 174.165 42.1141H173.49L173.367 41.316Z" fill="white"/>
<path d="M180.612 38.3691V41.1931H184.111V38.3691H185.461V45.3677H184.111V42.1754H180.612V45.3677H179.261V38.3691H180.612Z" fill="white"/>
<path d="M188.347 42.1139C188.408 43.8329 189.513 44.5696 190.864 44.5696C191.846 44.5696 192.399 44.3854 192.89 44.2012L193.135 45.1221C192.644 45.3063 191.846 45.5518 190.68 45.5518C188.408 45.5518 187.058 44.1398 187.058 41.9912C187.058 39.8425 188.347 38.2463 190.496 38.2463C192.89 38.2463 193.565 40.2722 193.565 41.5614C193.565 41.807 193.565 41.9912 193.504 42.1753H188.347V42.1139ZM192.337 41.1931C192.337 40.395 191.969 39.1672 190.496 39.1672C189.145 39.1672 188.531 40.3336 188.47 41.1931H192.337Z" fill="white"/>
<path d="M200.502 45.1221C200.134 45.3063 199.397 45.5518 198.354 45.5518C196.144 45.5518 194.67 44.1398 194.67 41.9912C194.67 39.8425 196.205 38.2463 198.661 38.2463C199.459 38.2463 200.134 38.4305 200.502 38.6147L200.195 39.5969C199.888 39.4128 199.397 39.29 198.661 39.29C196.942 39.29 196.082 40.5178 196.082 41.9298C196.082 43.5259 197.187 44.5696 198.661 44.5696C199.397 44.5696 199.95 44.3854 200.318 44.2626L200.502 45.1221Z" fill="white"/>
<path d="M207.317 43.6488C207.317 44.2627 207.317 44.8767 207.439 45.3064H206.212L206.089 44.4469H206.027C205.598 44.9994 204.8 45.4906 203.756 45.4906C202.283 45.4906 201.485 44.5083 201.485 43.4647C201.485 41.7457 203.081 40.8249 205.905 40.8862V40.7635C205.905 40.211 205.721 39.1673 204.247 39.1673C203.572 39.1673 202.835 39.3515 202.344 39.6584L202.037 38.799C202.651 38.4306 203.572 38.1851 204.493 38.1851C206.764 38.1851 207.317 39.6584 207.317 41.009V43.6488ZM206.027 41.8071C204.554 41.8071 202.897 42.0527 202.897 43.4033C202.897 44.2627 203.449 44.6311 204.124 44.6311C205.107 44.6311 205.721 44.0786 205.966 43.4647C206.027 43.3419 206.027 43.1577 206.027 43.0349V41.8071Z" fill="white"/>
</svg>
