<svg width="30" height="30" viewBox="0 0 30 30" fill="none" xmlns="http://www.w3.org/2000/svg"><path d="M25.6066 4.39336C22.7735 1.56029 19.0066.0 15 0 10.9934.0 7.22654 1.56029 4.39336 4.39336 1.56029 7.22654.0 10.9934.0 15 0 19.0066 1.56029 22.7735 4.39336 25.6066 7.22654 28.4397 10.9934 30 15 30 19.0066 30 22.7735 28.4397 25.6066 25.6066 28.4397 22.7735 30 19.0066 30 15 30 10.9934 28.4397 7.22654 25.6066 4.39336zM27.1232 9.65531H24.5406C24.1649 8.36344 22.9838 7.41176 21.5792 7.3824 20.7711 5.28357 19.6526 3.52488 18.2711 2.16299 20.5568 2.74119 22.653 3.92572 24.3636 5.63637 25.5417 6.81445 26.4703 8.17553 27.1232 9.65531zM28.2422 15C28.2422 16.2299 28.0753 17.434 27.7529 18.5869H22.6533C22.9263 16.8919 23.0058 15.127 22.8813 13.375 23.6788 12.9892 24.2895 12.2769 24.5406 11.4131H27.7529C28.0753 12.566 28.2422 13.7701 28.2422 15zM4.60031 18.5869H2.24713C1.92475 17.434 1.75781 16.2299 1.75781 15 1.75781 13.7701 1.92475 12.566 2.24713 11.4131H7.34848C7.11691 12.8498 7.0234 14.3382 7.07625 15.8247 5.85299 16.2696 4.91221 17.3064 4.60031 18.5869zm16.91229-6.657C20.743 11.9299 20.1169 11.3038 20.1169 10.5342 20.1169 9.76465 20.743 9.13857 21.5126 9.13857 22.2822 9.13857 22.9083 9.76471 22.9083 10.5342 22.9083 11.3038 22.2822 11.9299 21.5126 11.9299zM18.4847 9.65531H15.8789V2.4351C17.916 3.90094 19.1437 6.01916 19.8711 7.84277 19.2079 8.24871 18.7063 8.89301 18.4847 9.65531zM14.1211 2.43773V9.65531H9.52301C9.71871 8.94258 9.95402 8.25451 10.2277 7.60049 11.158 5.37691 12.4891 3.61846 14.1211 2.43773zm0 8.97537v7.1738H12.2287C11.8419 16.9989 10.4876 15.7859 8.82773 15.6114 8.78719 14.1912 8.8909 12.7734 9.1299 11.4131H14.1211zM8.41447 17.3474C9.61014 17.3474 10.5829 18.3202 10.5829 19.5158 10.5829 20.7114 9.61014 21.6841 8.41447 21.6841 7.21887 21.6841 6.24615 20.7114 6.24615 19.5158 6.24615 18.3202 7.21887 17.3474 8.41447 17.3474zM12.2518 20.3447H14.1211v7.2285C12.5687 26.4722 11.3326 24.9013 10.4309 22.883 11.3464 22.3327 12.0197 21.4199 12.2518 20.3447zM15.8789 27.5635V20.3447H20.4776C20.3142 20.9388 20.1234 21.5169 19.9048 22.0734 18.9696 24.4542 17.5926 26.3253 15.8789 27.5635zM15.8789 18.5869V11.4131H18.4846C18.8326 12.6098 19.8715 13.5146 21.1392 13.6649 21.2444 15.3261 21.1517 16.9944 20.8718 18.5868H15.8789V18.5869zM5.63637 5.63637C7.349 3.92367 9.4483 2.7382 11.7372 2.16082 10.4583 3.42299 9.39855 5.02799 8.60613 6.92203 8.24455 7.78623 7.94432 8.70334 7.7073 9.65531H2.87678C3.52975 8.17553 4.45828 6.81445 5.63637 5.63637zM2.87678 20.3447H4.57717C4.95879 22.1127 6.53396 23.4419 8.41447 23.4419 8.5275 23.4419 8.63906 23.436 8.74969 23.4266 9.50865 25.1797 10.4929 26.65 11.6927 27.8275 9.42111 27.246 7.33787 26.0651 5.63631 24.3636 4.45828 23.1855 3.52975 21.8245 2.87678 20.3447zM24.3636 24.3636C22.6515 26.0758 20.5529 27.2611 18.2647 27.8387 19.6242 26.4974 20.7342 24.7698 21.5409 22.716 21.8389 21.9574 22.0905 21.1635 22.2946 20.3446H27.1232C26.4703 21.8245 25.5417 23.1855 24.3636 24.3636z" fill="#0f91e3"/></svg>