<svg width="25" height="30" viewBox="0 0 25 30" fill="none" xmlns="http://www.w3.org/2000/svg">
<path d="M24.0127 5.78481C24.0127 5.6059 23.9377 5.43548 23.8088 5.31152C23.8087 5.31145 23.8086 5.31138 23.8086 5.31138C23.8086 5.31138 18.6897 0.19653 18.686 0.192908L18.6798 0.187128C18.5509 0.0668565 18.3812 0 18.2049 0H1.92838C0.863351 0 0 0.863351 0 1.92839V28.0725C0 29.137 0.862933 30 1.92748 30H22.0844C23.1494 30 24.0127 29.1367 24.0127 28.0716V5.80744C24.0127 5.80723 24.0127 5.79881 24.0127 5.78481ZM21.6341 5.10754H18.9013V2.37674L21.6341 5.10754ZM22.0844 28.6071H1.92838C1.6331 28.6071 1.39284 28.3673 1.39284 28.0725V1.92741C1.39284 1.63262 1.6331 1.39277 1.92838 1.39277H17.5085V5.80396C17.5085 6.18852 17.8203 6.50038 18.2049 6.50038H22.6199V28.0725C22.6199 28.3673 22.3797 28.6071 22.0844 28.6071Z" fill="#00A9DD"/>
</svg>
