<svg width="48" height="48" viewBox="0 0 48 48" fill="none" xmlns="http://www.w3.org/2000/svg">
<g clip-path="url(#clip0)">
<path d="M29.2002 16.8008C30.3048 16.8008 31.2002 17.6962 31.2002 18.8008L31.2002 29.2008C31.2002 30.3054 30.3048 31.2008 29.2002 31.2008L18.8002 31.2008C17.6956 31.2008 16.8002 30.3054 16.8002 29.2008L16.8002 18.8008C16.8002 17.6962 17.6956 16.8008 18.8002 16.8008L29.2002 16.8008Z" fill="#74C6FF"/>
<path d="M26.0858 23.606C25.955 23.4126 25.737 23.297 25.5036 23.297H23.5361L24.6534 20.5037C24.7977 20.1431 24.6223 19.7339 24.2617 19.5897C23.9011 19.4451 23.4919 19.6208 23.3477 19.9814L21.8447 23.739C21.7581 23.9556 21.7845 24.2012 21.9153 24.3943C22.0461 24.5875 22.2643 24.7032 22.4975 24.7032H24.4651L23.3477 27.4965C23.2035 27.8571 23.3789 28.2663 23.7394 28.4105C23.8251 28.4448 23.9134 28.461 24.0003 28.461C24.2794 28.461 24.5434 28.2938 24.6534 28.0189L26.1564 24.2613C26.243 24.0446 26.2167 23.7991 26.0858 23.606Z" fill="#00A9DD"/>
<path d="M44.1232 4.02764C41.6259 1.49104 38.2973 0.0613459 34.7502 0.00190823C31.2108 -0.0584669 27.8319 1.31563 25.2366 3.86779C22.5712 6.48886 21.0426 10.1153 21.0426 13.817V16.5332H18.7397C17.5232 16.5332 16.5336 17.5229 16.5336 18.7393V29.2604C16.5336 30.4769 17.5233 31.4665 18.7397 31.4665H21.0426V34.521C21.0426 36.6422 20.1397 38.6808 18.5653 40.114C16.9707 41.5655 14.9044 42.2531 12.7482 42.0501C8.91679 41.6894 5.91566 38.2759 5.91566 34.2789C5.91566 33.8905 5.60084 33.5757 5.21253 33.5757C4.82422 33.5757 4.5094 33.8905 4.5094 34.2789C4.5094 36.5465 5.32681 38.734 6.81097 40.4383C8.31904 42.1701 10.3808 43.2397 12.6164 43.4501C12.91 43.4777 13.2019 43.4914 13.492 43.4914C15.7271 43.4914 17.8382 42.6775 19.512 41.1538C21.3784 39.4547 22.449 37.0372 22.449 34.521V31.4665H25.5518V34.1827C25.5518 37.51 24.1763 40.7709 21.778 43.1292C19.4537 45.415 16.435 46.6447 13.274 46.5917C10.0979 46.5386 7.1166 45.2578 4.87972 42.9855C2.64012 40.7106 1.40683 37.7045 1.40683 34.5209V24.7514C1.40683 24.7247 1.42849 24.703 1.45521 24.703H4.46122C4.48794 24.703 4.50959 24.7247 4.50959 24.7514V31.2332C4.50959 31.6215 4.8244 31.9363 5.21272 31.9363C5.60103 31.9363 5.91584 31.6215 5.91584 31.2332V24.7514C5.91584 23.9493 5.26334 23.2968 4.46122 23.2968H3.66125V19.4908C3.66125 19.1025 3.34643 18.7877 2.95812 18.7877C2.56981 18.7877 2.25499 19.1025 2.25499 19.4908V23.2968H1.45512C0.65299 23.2968 0.000488281 23.9493 0.000488281 24.7514V34.5209C0.000488281 38.076 1.3774 41.4326 3.87753 43.9721C6.37475 46.5087 9.70345 47.9384 13.2505 47.9978C13.324 47.999 13.397 47.9997 13.4703 47.9997C16.9297 47.9997 20.2226 46.6312 22.764 44.1319C25.4294 41.5108 26.958 37.8844 26.958 34.1827V31.4665H29.2609C30.4774 31.4665 31.467 30.4768 31.467 29.2604V18.7394C31.467 17.5229 30.4773 16.5333 29.2609 16.5333H26.958V13.4788C26.958 11.3576 27.8609 9.31899 29.4353 7.88583C31.0299 6.4343 33.0961 5.74692 35.2524 5.9497C39.0838 6.31036 42.085 9.7239 42.085 13.7209C42.085 14.1093 42.3998 14.4241 42.7881 14.4241C43.1764 14.4241 43.4912 14.1093 43.4912 13.7209C43.4912 11.4533 42.6738 9.26583 41.1896 7.56145C39.6816 5.8297 37.6198 4.76011 35.3842 4.54973C32.8281 4.30917 30.3797 5.12461 28.4886 6.84595C26.6222 8.54508 25.5516 10.9626 25.5516 13.4788V16.5333H22.4487V13.8171C22.4487 10.4898 23.8242 7.22892 26.2225 4.87054C28.5469 2.58482 31.5659 1.35585 34.7265 1.40807C37.9027 1.46122 40.8839 2.74195 43.1208 5.01426C45.3604 7.2892 46.5937 10.2953 46.5937 13.4789V23.2484C46.5937 23.2751 46.572 23.2968 46.5453 23.2968H43.5393C43.5126 23.2968 43.4909 23.2751 43.4909 23.2484V16.7666C43.4909 16.3783 43.1761 16.0635 42.7878 16.0635C42.3995 16.0635 42.0847 16.3783 42.0847 16.7666V23.2484C42.0847 24.0505 42.7372 24.703 43.5393 24.703H44.3392V28.509C44.3392 28.8973 44.654 29.2121 45.0423 29.2121C45.4306 29.2121 45.7454 28.8973 45.7454 28.509V24.703H46.5453C47.3474 24.703 47.9999 24.0505 47.9999 23.2484V13.4788C48.0002 9.92368 46.6233 6.56733 44.1232 4.02764ZM29.2609 17.9395C29.7019 17.9395 30.0607 18.2984 30.0607 18.7394V29.2605C30.0607 29.7016 29.7019 30.0604 29.2609 30.0604H18.7397C18.2987 30.0604 17.9399 29.7015 17.9399 29.2605V18.7394C17.9399 18.2983 18.2987 17.9395 18.7397 17.9395H29.2609Z" fill="#00A9DD"/>
<path d="M2.08367 16.9212L1.33217 15.4182C1.15854 15.0708 0.736196 14.9299 0.388852 15.1038C0.0415073 15.2774 -0.0993055 15.6997 0.0744136 16.0471L0.825915 17.5501C0.949103 17.7965 1.19735 17.9389 1.45535 17.9389C1.56101 17.9389 1.66826 17.915 1.76923 17.8645C2.11657 17.6909 2.25739 17.2685 2.08367 16.9212Z" fill="#00A9DD"/>
<path d="M5.527 15.1047C5.17966 14.9309 4.75731 15.0719 4.58369 15.4192L3.83218 16.9222C3.65856 17.2695 3.79928 17.6919 4.14662 17.8655C4.24759 17.916 4.35484 17.9398 4.4605 17.9398C4.71841 17.9398 4.96675 17.7973 5.08994 17.551L5.84144 16.048C6.01516 15.7007 5.87435 15.2783 5.527 15.1047Z" fill="#00A9DD"/>
<path d="M47.9254 31.9524L47.174 30.4494C47.0003 30.1021 46.5781 29.9612 46.2306 30.135C45.8833 30.3086 45.7425 30.731 45.9162 31.0783L46.6677 32.5813C46.7909 32.8277 47.0391 32.9701 47.2971 32.9701C47.4028 32.9701 47.51 32.9462 47.611 32.8958C47.9584 32.7221 48.0992 32.2998 47.9254 31.9524Z" fill="#00A9DD"/>
<path d="M43.8537 30.135C43.5064 29.9612 43.0841 30.1022 42.9104 30.4494L42.1589 31.9524C41.9852 32.2998 42.126 32.7221 42.4733 32.8957C42.5743 32.9463 42.6815 32.9701 42.7872 32.9701C43.0451 32.9701 43.2934 32.8276 43.4166 32.5813L44.1681 31.0783C44.3419 30.731 44.201 30.3086 43.8537 30.135Z" fill="#00A9DD"/>
</g>
<defs>
<clipPath id="clip0">
<rect width="48" height="48" fill="white"/>
</clipPath>
</defs>
</svg>
