<svg width="50" height="50" viewBox="0 0 50 50" fill="none" xmlns="http://www.w3.org/2000/svg">
<path d="M33.3332 4.16699H16.6665V5.83366H33.3332V4.16699Z" fill="#00A9DD"/>
<path d="M41.2502 31.2503C41.2502 29.6422 39.9415 28.3337 38.3335 28.3337H36.6668V16.667H35.0002V28.3337H32.9168C31.3087 28.3337 30.0002 29.6423 30.0002 31.2503C30.0002 32.0668 30.3395 32.8037 30.882 33.3337C30.3395 33.8637 30.0002 34.6005 30.0002 35.417C30.0002 35.9788 30.1674 36.4993 30.4438 36.9449C29.4469 37.4092 28.7502 38.4137 28.7502 39.5837C28.7502 40.0327 28.8607 40.4533 29.0428 40.8337H22.5002C22.5002 38.2856 21.2233 36.0306 19.2759 34.6748C21.159 33.957 22.5002 32.1325 22.5002 30.0003C22.5002 29.5401 22.1275 29.167 21.6668 29.167H15.0002V20.8337H13.3335V29.167C11.955 29.167 10.8335 30.2885 10.8335 31.667V50.0003H12.5002V31.667C12.5002 31.2076 12.8737 30.8337 13.3335 30.8337H20.7277C20.3574 32.2696 19.0504 33.3337 17.5002 33.3337H15.0002C14.5395 33.3337 14.1668 33.7068 14.1668 34.167C14.1668 34.6272 14.5395 35.0003 15.0002 35.0003C18.2163 35.0003 20.8335 37.6171 20.8335 40.8337V41.667C20.8335 42.1272 21.2062 42.5003 21.6668 42.5003H26.5428C26.3607 42.8806 26.2502 43.3013 26.2502 43.7503C26.2502 45.3584 27.5588 46.667 29.1668 46.667V50.0003H30.8335V46.667H34.1668H34.5835C36.1916 46.667 37.5002 45.3583 37.5002 43.7503C37.5002 43.2965 37.3869 42.8719 37.2011 42.4884C38.7537 42.4251 40.0002 41.1515 40.0002 39.5837C40.0002 39.0219 39.833 38.5014 39.5565 38.0557C40.5534 37.5915 41.2502 36.587 41.2502 35.417C41.2502 34.6005 40.9108 33.8637 40.3683 33.3337C40.9108 32.8037 41.2502 32.0668 41.2502 31.2503ZM34.5835 45.0003H34.1668H30.0002H29.1668C28.4776 45.0003 27.9168 44.4396 27.9168 43.7503C27.9168 43.0611 28.4776 42.5003 29.1668 42.5003H31.6668H34.5835C35.2728 42.5003 35.8335 43.0611 35.8335 43.7503C35.8335 44.4396 35.2728 45.0003 34.5835 45.0003ZM37.0835 40.8337H34.5835H31.6668C30.9776 40.8337 30.4168 40.2729 30.4168 39.5837C30.4168 38.8944 30.9776 38.3337 31.6668 38.3337H32.9168H37.0835C37.7728 38.3337 38.3335 38.8944 38.3335 39.5837C38.3335 40.2729 37.7728 40.8337 37.0835 40.8337ZM38.3335 36.667H37.0835H32.9168C32.2276 36.667 31.6668 36.1063 31.6668 35.417C31.6668 34.7277 32.2276 34.167 32.9168 34.167H38.3335C39.0228 34.167 39.5835 34.7277 39.5835 35.417C39.5835 36.1063 39.0228 36.667 38.3335 36.667ZM38.3335 32.5003H32.9168C32.2276 32.5003 31.6668 31.9396 31.6668 31.2503C31.6668 30.5611 32.2276 30.0003 32.9168 30.0003H38.3335C39.0228 30.0003 39.5835 30.5611 39.5835 31.2503C39.5835 31.9396 39.0228 32.5003 38.3335 32.5003Z" fill="#00A9DD"/>
<path d="M12.4973 10.6071C12.4802 10.3678 12.3614 10.1473 12.1701 10.0024L11.3026 9.34479C11.0951 8.29427 10.173 7.5 9.07031 7.5C7.82604 7.5 6.81115 8.51156 6.7949 9.76115C6.12917 9.64479 5.49281 9.38927 4.92312 9.00552L4.6326 8.80938C4.37792 8.63729 4.0475 8.61854 3.7749 8.76417C3.50312 8.90865 3.33302 9.19187 3.33302 9.4999V10.1835C3.33302 11.1878 3.63573 12.1456 4.19729 12.9501L3.57396 13.5808C3.33719 13.8197 3.26792 14.1774 3.3974 14.4878C3.52667 14.7978 3.83021 15 4.16635 15H8.20448C9.815 15 11.1464 13.7724 11.3254 12.1969L12.2589 11.2525C12.4273 11.082 12.5144 10.8468 12.4973 10.6071ZM9.9199 11.2476C9.76531 11.4034 9.67896 11.6143 9.67896 11.8335C9.67896 12.6604 9.01729 13.3333 8.20437 13.3333H6.08448C6.21635 13.0298 6.15937 12.6635 5.91281 12.4142C5.52385 12.0203 5.24552 11.5247 5.10469 10.9904C5.89979 11.3257 6.75427 11.4999 7.62833 11.4999C8.08896 11.4999 8.46167 11.1268 8.46167 10.6666V9.79167C8.46167 9.44698 8.7351 9.16667 9.07042 9.16667C9.40573 9.16667 9.67917 9.44698 9.67917 9.79167C9.67917 10.0525 9.80125 10.2982 10.0087 10.4557L10.4059 10.7565L9.9199 11.2476Z" fill="#00A9DD"/>
<path d="M31 10L31 23L19 23L19 10L31 10Z" fill="#74C6FF"/>
<path d="M27.5 14.1667V12.5H25C24.5394 12.5 24.1667 12.8731 24.1667 13.3333V15.8333H22.5V17.5H24.1667V20.8333H25.8333V17.5H27.5V15.8333H25.8333V14.1667H27.5Z" fill="white"/>
<path d="M30 9.16699H20C18.6215 9.16699 17.5 10.2885 17.5 11.667V21.667C17.5 23.0455 18.6215 24.167 20 24.167H30C31.3785 24.167 32.5 23.0455 32.5 21.667V11.667C32.5 10.2885 31.3785 9.16699 30 9.16699ZM30.8333 21.667C30.8333 22.1264 30.4598 22.5003 30 22.5003H20C19.5402 22.5003 19.1667 22.1264 19.1667 21.667V11.667C19.1667 11.2076 19.5402 10.8337 20 10.8337H30C30.4598 10.8337 30.8333 11.2076 30.8333 11.667V21.667Z" fill="#00A9DD"/>
<path d="M12.5 4.16699H2.5C1.12146 4.16699 0 5.28845 0 6.66699V16.667C0 18.0455 1.12146 19.167 2.5 19.167H12.5C13.8785 19.167 15 18.0455 15 16.667V6.66699C15 5.28845 13.8785 4.16699 12.5 4.16699ZM13.3333 16.667C13.3333 17.1264 12.9598 17.5003 12.5 17.5003H2.5C2.04021 17.5003 1.66667 17.1264 1.66667 16.667V6.66699C1.66667 6.20762 2.04021 5.83366 2.5 5.83366H12.5C12.9598 5.83366 13.3333 6.20762 13.3333 6.66699V16.667Z" fill="#00A9DD"/>
<path d="M47.5 0H37.5C36.1215 0 35 1.12146 35 2.5V12.5C35 13.8785 36.1215 15 37.5 15H47.5C48.8785 15 50 13.8785 50 12.5V2.5C50 1.12146 48.8785 0 47.5 0ZM48.3333 12.5C48.3333 12.9594 47.9598 13.3333 47.5 13.3333H37.5C37.0402 13.3333 36.6667 12.9594 36.6667 12.5V8.33333H38.4176C38.8048 10.2327 40.488 11.6667 42.5 11.6667C44.512 11.6667 46.1952 10.2327 46.5824 8.33333H48.3333V12.5ZM40 7.5C40 6.12146 41.1215 5 42.5 5C43.8785 5 45 6.12146 45 7.5C45 8.87854 43.8785 10 42.5 10C41.1215 10 40 8.87854 40 7.5ZM48.3333 6.66667H46.5824C46.1952 4.76729 44.512 3.33333 42.5 3.33333C40.488 3.33333 38.8048 4.76729 38.4176 6.66667H36.6667V2.5C36.6667 2.04063 37.0402 1.66667 37.5 1.66667H47.5C47.9598 1.66667 48.3333 2.04063 48.3333 2.5V6.66667Z" fill="#00A9DD"/>
<path d="M25.8332 34.167H24.1665V35.8337H25.8332V34.167Z" fill="#00A9DD"/>
</svg>
