<svg width="60" height="60" viewBox="0 0 60 60" fill="none" xmlns="http://www.w3.org/2000/svg"><circle cx="30" cy="30" r="30" fill="url(#paint0_linear)"/><g clip-path="url(#clip0)"><path d="M16.2188 30.2905 18.306 29.2984 19.7752 29.907 20.5496 32.0845C20.5928 32.206 20.6726 32.3111 20.7779 32.3855 20.8833 32.4599 21.0091 32.4999 21.138 32.5H23.862C23.991 32.5 24.1169 32.46 24.2223 32.3856 24.3277 32.3112 24.4075 32.206 24.4508 32.0845L25.2252 29.907 26.6944 29.2984 28.7816 30.2905C28.8982 30.3459 29.0291 30.3638 29.1562 30.3419 29.2834 30.3199 29.4007 30.2592 29.492 30.168L31.418 28.2422C31.5092 28.1509 31.57 28.0337 31.592 27.9065 31.6139 27.7793 31.596 27.6484 31.5405 27.5319L30.5484 25.4446 31.157 23.9754 33.3345 23.201C33.4561 23.1578 33.5613 23.0779 33.6357 22.9724 33.7101 22.867 33.75 22.741 33.75 22.612V19.888C33.75 19.759 33.71 19.6331 33.6356 19.5277 33.5612 19.4223 33.456 19.3425 33.3345 19.2992L31.157 18.5248 30.5484 17.0556 31.5405 14.9684C31.596 14.8518 31.614 14.7209 31.5921 14.5936 31.5701 14.4664 31.5093 14.3491 31.418 14.2578L29.4922 12.332C29.4009 12.2408 29.2837 12.18 29.1565 12.158 29.0293 12.1361 28.8984 12.154 28.7819 12.2095L26.6946 13.2016 25.2254 12.593 24.4508 10.4155C24.4075 10.294 24.3277 10.1888 24.2223 10.1144 24.1169 10.04 23.991 10 23.862 10H21.138C21.009 10 20.8831 10.04 20.7777 10.1144 20.6723 10.1888 20.5925 10.294 20.5492 10.4155l-.7744 2.1775L18.3056 13.2016 16.2188 12.2095C16.1021 12.1539 15.9711 12.1359 15.8438 12.1578 15.7165 12.1798 15.5991 12.2406 15.5078 12.332L13.582 14.2578C13.4906 14.3491 13.4298 14.4665 13.4078 14.5938 13.3859 14.7211 13.4039 14.8521 13.4595 14.9688L14.4516 17.056 13.843 18.5252 11.6655 19.2992C11.544 19.3425 11.4388 19.4223 11.3644 19.5277 11.29 19.6331 11.25 19.759 11.25 19.888V22.612C11.25 22.741 11.29 22.8669 11.3644 22.9723 11.4388 23.0777 11.544 23.1575 11.6655 23.2008l2.1775.7744L14.4516 25.4444 13.4595 27.5316C13.404 27.6482 13.386 27.7791 13.4079 27.9064 13.4299 28.0336 13.4907 28.1509 13.582 28.2422L15.5078 30.168C15.5992 30.2593 15.7165 30.3201 15.8438 30.3421 15.9711 30.364 16.1021 30.346 16.2188 30.2905zM15.7128 25.2227 14.8916 23.2402C14.8581 23.1594 14.808 23.0865 14.7446 23.0263 14.6812 22.9661 14.6058 22.9199 14.5234 22.8906L12.5 22.1709V20.3291L14.5234 19.6094C14.6058 19.5801 14.6812 19.5338 14.7446 19.4736 14.8079 19.4134 14.858 19.3405 14.8914 19.2597L15.7128 17.2773C15.7463 17.1965 15.7625 17.1095 15.7603 17.0221 15.7581 16.9346 15.7375 16.8486 15.6999 16.7695L14.778 14.8298 16.0801 13.5278 18.0198 14.4497C18.0989 14.4873 18.1849 14.5079 18.2724 14.5101 18.3599 14.5123 18.4468 14.4961 18.5277 14.4626L20.5102 13.6413C20.5909 13.6078 20.6636 13.5578 20.7238 13.4944 20.784 13.4311 20.8301 13.3558 20.8594 13.2734L21.5791 11.25H23.4209L24.1406 13.2734C24.1699 13.3558 24.2162 13.4312 24.2764 13.4946 24.3366 13.5579 24.4095 13.608 24.4903 13.6414L26.4727 14.4628C26.5535 14.4964 26.6404 14.5126 26.7279 14.5103 26.8154 14.5081 26.9015 14.4875 26.9805 14.4499L28.9202 13.528 30.2225 14.8303 29.3006 16.7701C29.263 16.8491 29.2425 16.9351 29.2403 17.0226 29.238 17.1101 29.2542 17.1971 29.2877 17.2779L30.109 19.2604C30.1425 19.341 30.1925 19.4137 30.2558 19.4738 30.3191 19.534 30.3943 19.5801 30.4766 19.6094L32.5 20.329V22.1707L30.4766 22.8906C30.3942 22.9199 30.3188 22.9662 30.2554 23.0264 30.1921 23.0866 30.142 23.1595 30.1086 23.2403L29.2872 25.2227C29.2537 25.3035 29.2375 25.3905 29.2397 25.4779 29.2419 25.5654 29.2625 25.6514 29.3001 25.7305L30.222 27.6702 28.9197 28.9725 26.9799 28.0506C26.9009 28.013 26.8149 27.9924 26.7274 27.9902 26.6399 27.988 26.5529 28.0042 26.4721 28.0377L24.4896 28.859C24.409 28.8925 24.3363 28.9425 24.2762 29.0058 24.216 29.0691 24.1699 29.1443 24.1406 29.2266L23.4209 31.25H21.5791L20.8594 29.2266C20.8301 29.1442 20.7838 29.0688 20.7236 29.0054 20.6634 28.9421 20.5905 28.892 20.5097 28.8586L18.5273 28.0372C18.4465 28.0036 18.3595 27.9874 18.2721 27.9897 18.1846 27.9919 18.0985 28.0125 18.0195 28.0501L16.0798 28.972 14.7778 27.6699 15.6997 25.7302C15.7373 25.6512 15.7578 25.5652 15.7601 25.4778 15.7624 25.3904 15.7463 25.3035 15.7128 25.2227z" fill="#fff"/><path d="M22.5 26.875C23.6125 26.875 24.7001 26.5451 25.6251 25.927 26.5501 25.3089 27.2711 24.4304 27.6968 23.4026 28.1226 22.3748 28.234 21.2438 28.0169 20.1526 27.7999 19.0615 27.2641 18.0592 26.4775 17.2725 25.6908 16.4859 24.6885 15.9501 23.5974 15.7331 22.5062 15.516 21.3752 15.6274 20.3474 16.0532 19.3196 16.4789 18.4411 17.1999 17.823 18.1249 17.2049 19.0499 16.875 20.1375 16.875 21.25 16.8767 22.7413 17.4698 24.1711 18.5244 25.2256 19.5789 26.2802 21.0087 26.8733 22.5 26.875zm0-10C23.3653 16.875 24.2112 17.1316 24.9306 17.6123 25.6501 18.0931 26.2108 18.7763 26.542 19.5758 26.8731 20.3752 26.9597 21.2549 26.7909 22.1035 26.6221 22.9522 26.2054 23.7317 25.5936 24.3436 24.9817 24.9554 24.2022 25.3721 23.3535 25.5409 22.5049 25.7097 21.6252 25.6231 20.8258 25.292 20.0263 24.9608 19.3431 24.4001 18.8623 23.6806 18.3816 22.9612 18.125 22.1153 18.125 21.25 18.1263 20.0901 18.5877 18.978 19.4078 18.1578 20.228 17.3377 21.3401 16.8763 22.5 16.875z" fill="#fff"/><path d="M34.5937 40.1154 33.7726 42.0979C33.739 42.1787 33.7229 42.2657 33.7251 42.3532 33.7273 42.4406 33.7479 42.5267 33.7854 42.6057L34.7073 44.5455 33.4051 45.8477 31.4653 44.9259C31.3863 44.8883 31.3002 44.8677 31.2128 44.8655 31.1253 44.8633 31.0383 44.8795 30.9575 44.913L28.9757 45.7337C28.8949 45.7671 28.822 45.8172 28.7618 45.8805 28.7015 45.9439 28.6552 46.0193 28.6259 46.1016L27.9062 48.1252H26.0647L25.345 46.1018C25.3157 46.0194 25.2694 45.9441 25.2092 45.8807 25.149 45.8173 25.0761 45.7673 24.9953 45.7338L23.0128 44.9126C22.932 44.879 22.845 44.8628 22.7575 44.865 22.67 44.8673 22.584 44.8879 22.505 44.9255L20.5652 45.8473 19.2629 44.5451 20.1848 42.6053C20.2224 42.5263 20.243 42.4403 20.2452 42.3528 20.2474 42.2653 20.2312 42.1783 20.1977 42.0975L19.3766 40.115C19.3431 40.0344 19.2932 39.9616 19.2299 39.9015 19.1666 39.8414 19.0914 39.7952 19.0091 39.7659L16.9857 39.0463V37.2044L19.0091 36.4848C19.0915 36.4555 19.1669 36.4092 19.2302 36.349 19.2936 36.2887 19.3437 36.2159 19.3772 36.1351L20.1983 34.1526C20.2318 34.0717 20.248 33.9848 20.2457 33.8973 20.2435 33.8098 20.2229 33.7238 20.1854 33.6448L19.0739 31.3066 17.9452 31.844 18.9374 33.9313 18.3289 35.4005 16.1514 36.1748C16.0298 36.218 15.9246 36.2978 15.8502 36.4033 15.7758 36.5087 15.7358 36.6346 15.7358 36.7637V39.4876C15.7358 39.6166 15.7758 39.7425 15.8502 39.848 15.9246 39.9534 16.0298 40.0332 16.1514 40.0765L18.3289 40.8508 18.9374 42.32 17.9452 44.4073C17.8898 44.5238 17.8719 44.6547 17.8938 44.7819 17.9158 44.9091 17.9766 45.0263 18.0679 45.1176L19.9937 47.0432C20.0849 47.1345 20.2022 47.1952 20.3293 47.2172 20.4565 47.2391 20.5873 47.2212 20.7039 47.1658L22.7912 46.1736 24.2599 46.7822 25.0344 48.9597C25.0776 49.0813 25.1575 49.1866 25.263 49.261 25.3685 49.3354 25.4945 49.3753 25.6236 49.3752H28.3475C28.4765 49.3752 28.6024 49.3353 28.7079 49.2609 28.8133 49.1865 28.8931 49.0813 28.9364 48.9597L29.7107 46.7822 31.1799 46.1736 33.2671 47.1658C33.3836 47.2212 33.5145 47.2391 33.6417 47.2172 33.7688 47.1952 33.8861 47.1345 33.9773 47.0432L35.9034 45.1174C35.9947 45.0262 36.0555 44.9089 36.0775 44.7817 36.0994 44.6545 36.0815 44.5237 36.0261 44.4071L35.0339 42.3198 35.7487 40.594 34.5937 40.1154z" fill="#fff"/><path d="M35.9036 31.1323 33.9775 29.2065C33.8862 29.1153 33.769 29.0545 33.6418 29.0325 33.5146 29.0106 33.3838 29.0286 33.2672 29.0839L30.9292 30.1954 31.4658 31.3244 33.4056 30.4025 34.7079 31.7048 33.786 33.6446C33.7484 33.7236 33.7279 33.8096 33.7256 33.8971 33.7234 33.9846 33.7396 34.0716 33.7731 34.1524L34.4822 35.8643 35.6369 35.3858 35.0343 33.9307 36.0265 31.8434C36.082 31.7267 36.1 31.5957 36.078 31.4683 36.056 31.341 35.9951 31.2236 35.9036 31.1323z" fill="#fff"/><path d="M26.9858 43.75C28.0984 43.75 29.1859 43.4201 30.1109 42.802 31.0359 42.1839 31.7569 41.3054 32.1827 40.2776 32.6084 39.2498 32.7198 38.1188 32.5028 37.0276 32.2857 35.9365 31.75 34.9342 30.9633 34.1475 30.1766 33.3609 29.1744 32.8251 28.0832 32.6081 26.9921 32.391 25.8611 32.5024 24.8332 32.9282 23.8054 33.3539 22.9269 34.0749 22.3088 34.9999 21.6907 35.9249 21.3608 37.0125 21.3608 38.125 21.3625 39.6163 21.9557 41.0461 23.0102 42.1006 24.0647 43.1552 25.4945 43.7483 26.9858 43.75zm0-10C27.8511 33.75 28.697 34.0066 29.4165 34.4873 30.1359 34.9681 30.6967 35.6513 31.0278 36.4508 31.3589 37.2502 31.4456 38.1299 31.2768 38.9785 31.108 39.8272 30.6913 40.6067 30.0794 41.2186 29.4676 41.8305 28.688 42.2471 27.8394 42.4159 26.9907 42.5848 26.111 42.4981 25.3116 42.167 24.5122 41.8358 23.8289 41.2751 23.3482 40.5556 22.8674 39.8362 22.6108 38.9903 22.6108 38.125 22.6121 36.9651 23.0735 35.853 23.8937 35.0328 24.7139 34.2127 25.8259 33.7513 26.9858 33.75z" fill="#fff"/><path d="M48.3348 21.1742 46.1573 20.3998 45.5487 18.9306 46.5409 16.8434C46.5963 16.7268 46.6143 16.5959 46.5924 16.4686 46.5704 16.3414 46.5096 16.2241 46.4183 16.1328L44.4925 14.207C44.4013 14.1158 44.284 14.055 44.1568 14.033 44.0296 14.0111 43.8988 14.029 43.7822 14.0845L41.6949 15.0766 40.2257 14.468 39.4514 12.2905C39.4082 12.1689 39.3283 12.0637 39.2228 11.9893 39.1173 11.9149 38.9914 11.8749 38.8623 11.875H36.1384C36.0093 11.875 35.8834 11.9149 35.778 11.9893 35.6725 12.0637 35.5927 12.169 35.5495 12.2905L34.7752 14.468 33.0493 15.183 33.5277 16.3378 35.5102 15.5166C35.5909 15.4831 35.6638 15.433 35.724 15.3696 35.7842 15.3062 35.8304 15.2308 35.8597 15.1484L36.5792 13.125H38.421L39.141 15.1484C39.1702 15.2308 39.2165 15.3062 39.2767 15.3696 39.337 15.4329 39.4098 15.483 39.4906 15.5164L41.473 16.3378C41.5538 16.3713 41.6408 16.3875 41.7283 16.3853 41.8157 16.3831 41.9018 16.3625 41.9808 16.3249L43.9206 15.403 45.2228 16.7053 44.301 18.6451C44.2634 18.7241 44.2428 18.8101 44.2406 18.8976 44.2384 18.9851 44.2545 19.0721 44.2881 19.1529L45.1093 21.1354C45.1428 21.216 45.1928 21.2887 45.2561 21.3488 45.3195 21.4089 45.3947 21.4551 45.4769 21.4844L47.5003 22.2039V24.0456L45.4769 24.7656C45.3945 24.7949 45.3192 24.8412 45.2558 24.9015 45.1924 24.9617 45.1424 25.0346 45.1089 25.1154L44.2875 27.0977C44.254 27.1785 44.2378 27.2655 44.24 27.3529 44.2423 27.4404 44.2628 27.5264 44.3004 27.6055L45.2223 29.5452 43.6081 31.1594 44.4925 32.043 46.4183 30.1172C46.5096 30.0259 46.5704 29.9087 46.5923 29.7815 46.6143 29.6543 46.5963 29.5234 46.5409 29.4069L45.5487 27.3196 46.1573 25.8504 48.3348 25.0761C48.4564 25.0328 48.5617 24.953 48.6361 24.8475 48.7105 24.742 48.7504 24.616 48.7503 24.487V21.763C48.7503 21.634 48.7104 21.5081 48.636 21.4027 48.5616 21.2973 48.4564 21.2175 48.3348 21.1742z" fill="#fff"/><path d="M37.5001 27.5002C36.6279 27.5027 35.775 27.2435 35.0517 26.756 34.3284 26.2685 33.768 25.5753 33.4429 24.7659L32.2842 25.2346C32.7139 26.2968 33.4578 27.2024 34.4163 27.8303 35.3747 28.4582 36.5021 28.7784 37.6476 28.748 38.793 28.7177 39.9018 28.3383 40.8257 27.6605 41.7496 26.9828 42.4445 26.0391 42.8174 24.9556 43.1903 23.8722 43.2234 22.7007 42.9123 21.5979 42.6013 20.4951 41.9608 19.5136 41.0767 18.7847 40.1926 18.0559 39.1069 17.6144 37.9651 17.5194 36.8232 17.4244 35.6795 17.6803 34.6871 18.2531L35.3132 19.335C35.8944 18.9999 36.5449 18.803 37.2143 18.7595 37.8838 18.7159 38.5543 18.8269 39.174 19.0839 39.7937 19.3408 40.3461 19.7369 40.7883 20.2414 41.2305 20.7459 41.5508 21.3453 41.7243 21.9933 41.8979 22.6414 41.9201 23.3207 41.7893 23.9786 41.6584 24.6366 41.378 25.2557 40.9696 25.788 40.5613 26.3203 40.036 26.7516 39.4344 27.0485 38.8328 27.3454 38.171 27.5 37.5001 27.5002z" fill="#fff"/><path d="M44.5895 33.75H42.5001v-2.5C42.5001 30.7527 42.3025 30.2758 41.9509 29.9242 41.5993 29.5725 41.1224 29.375 40.6251 29.375 40.1278 29.375 39.6509 29.5725 39.2993 29.9242 38.9476 30.2758 38.7501 30.7527 38.7501 31.25V36.6162L38.3304 36.1963C37.9645 35.8305 37.4683 35.6249 36.9509 35.6249 36.4335 35.6249 35.9373 35.8305 35.5714 36.1963 35.2055 36.5622 35 37.0584 35 37.5758 35 38.0932 35.2055 38.5894 35.5714 38.9553L38.7501 42.1338V43.125h-.625C37.9593 43.125 37.8003 43.1908 37.6831 43.3081 37.5659 43.4253 37.5001 43.5842 37.5001 43.75v5.625h1.25v-5h7.5v5h1.25V43.75C47.5001 43.5842 47.4342 43.4253 47.317 43.3081 47.1998 43.1908 47.0408 43.125 46.8751 43.125h-.625V42.1338L47.5313 40.8526C48.1132 40.2707 48.5095 39.5294 48.67 38.7223 48.8306 37.9153 48.7482 37.0787 48.4333 36.3185 48.1184 35.5582 47.5852 34.9084 46.901 34.4512 46.2168 33.994 45.4124 33.75 44.5895 33.75zM46.6476 39.9688 45.1831 41.4332C45.066 41.5504 45.0001 41.7093 45.0001 41.875v1.25h-5v-1.25C40.0001 41.7929 39.9839 41.7116 39.9525 41.6358 39.9211 41.56 39.8751 41.4911 39.817 41.433L36.4554 38.0713C36.3894 38.0065 36.3369 37.9292 36.3009 37.8439 36.2649 37.7586 36.2462 37.6671 36.2457 37.5745 36.2453 37.482 36.2633 37.3903 36.2985 37.3047 36.3337 37.2191 36.3855 37.1414 36.451 37.0759 36.5164 37.0105 36.5942 36.9586 36.6798 36.9234 36.7654 36.8882 36.8571 36.8703 36.9496 36.8707 37.0422 36.8711 37.1337 36.8898 37.219 36.9258 37.3042 36.9618 37.3815 37.0143 37.4464 37.0803L38.9331 38.567C39.0205 38.6544 39.1319 38.7139 39.2531 38.738 39.3744 38.7621 39.5 38.7498 39.6143 38.7024 39.7285 38.6551 39.8261 38.575 39.8948 38.4722 39.9634 38.3695 40.0001 38.2486 40.0001 38.125V31.25C40.0001 31.0842 40.0659 30.9253 40.1831 30.8081 40.3003 30.6908 40.4593 30.625 40.6251 30.625 40.7908 30.625 40.9498 30.6908 41.067 30.8081 41.1842 30.9253 41.2501 31.0842 41.2501 31.25v3.125C41.2501 34.5408 41.3159 34.6997 41.4331 34.8169 41.5503 34.9342 41.7093 35 41.8751 35H44.5895C45.1652 35 45.728 35.1707 46.2066 35.4905 46.6853 35.8103 47.0584 36.2649 47.2787 36.7968 47.4989 37.3286 47.5566 37.9139 47.4442 38.4785 47.3319 39.0431 47.0547 39.5617 46.6476 39.9688z" fill="#fff"/><path d="M43.75 45.625H45v1.25H43.75v-1.25z" fill="#fff"/></g><defs><linearGradient id="paint0_linear" x1="8.62541" y1="-8.89688" x2="28.0232" y2="41.8173" gradientUnits="userSpaceOnUse"><stop stop-color="#80d3fd"/><stop offset="1" stop-color="#1393e4"/></linearGradient><clipPath id="clip0"><path d="M0 0h40v40H0z" fill="#fff" transform="translate(10 10)"/></clipPath></defs></svg>