<svg width="60" height="60" viewBox="0 0 60 60" fill="none" xmlns="http://www.w3.org/2000/svg"><circle cx="30" cy="30" r="30" fill="url(#paint0_linear)"/><path d="M43.3146 15.9661 39.024 12.1744C38.9122 12.0756 38.7684 12.021 38.6193 12.021H17.632C17.2946 12.021 17.021 12.2946 17.021 12.632V47.3892C17.021 47.7266 17.2946 48.0002 17.632 48.0002H42.91C43.2473 48.0002 43.521 47.7264 43.521 47.3892V16.4237C43.521 16.2488 43.4457 16.0818 43.3146 15.9661zM42.299 46.7781H18.2429V13.2429H38.3882L42.299 16.6989V46.7781z" fill="#fff"/><path d="M43.3208 15.9436 38.8972 12.1519C38.71 11.9916 38.4467 11.955 38.2218 12.0573 37.9978 12.1608 37.854 12.3849 37.854 12.6316V16.4233C37.854 16.7723 38.137 17.0553 38.486 17.0553H42.9097C43.1741 17.0553 43.4105 16.8906 43.5023 16.6428 43.5939 16.3946 43.5216 16.1157 43.3208 15.9436zM39.1179 15.7914V14.0059L41.2015 15.7915H39.1179V15.7914z" fill="#fff"/><path d="M38.4863 25.2705H17.632C17.283 25.2705 17 25.5535 17 25.9025V36.6456C17 36.9946 17.283 37.2776 17.632 37.2776H38.4863C38.8353 37.2776 39.1183 36.9946 39.1183 36.6456V25.9025C39.1183 25.5535 38.8353 25.2705 38.4863 25.2705zM37.8544 36.0137H18.264V26.5345H37.8544V36.0137z" fill="#fff"/><path d="M27.0497 28.8429C27.0386 28.7416 27.0127 28.6508 26.9719 28.5706 26.9312 28.4905 26.8702 28.4257 26.7886 28.3763 26.7071 28.3269 26.5948 28.3022 26.4517 28.3022 26.3086 28.3022 26.1961 28.3271 26.1147 28.3763 26.0333 28.4256 25.9723 28.4904 25.9314 28.5706 25.8906 28.6509 25.8648 28.7416 25.8537 28.8429 25.8426 28.9441 25.8371 29.0478 25.8371 29.1539H25.8369V32.6346C25.8369 32.7431 25.8425 32.848 25.8535 32.9493 25.8646 33.0506 25.8904 33.1413 25.9312 33.2215 25.972 33.3018 26.033 33.366 26.1145 33.4141 26.1961 33.4623 26.3082 33.4863 26.4515 33.4863 26.5948 33.4863 26.7075 33.4623 26.7904 33.4141 26.8732 33.3659 26.935 33.3018 26.9755 33.2215 27.0161 33.1413 27.0414 33.0505 27.0514 32.9493 27.0613 32.8482 27.0662 32.7432 27.0662 32.6346V29.1539C27.0663 29.0477 27.0608 28.944 27.0497 28.8429z" fill="#fff"/><path d="M31.2123 28.5336C31.1617 28.4633 31.0956 28.4106 31.0142 28.3762 30.9326 28.3418 30.842 28.3208 30.7419 28.3134 30.6419 28.3059 30.5425 28.3022 30.4437 28.3022H28.5625C28.4637 28.3022 28.3644 28.306 28.2644 28.3134 28.1645 28.3206 28.0737 28.3416 27.9922 28.3762 27.9106 28.4108 27.8446 28.4632 27.7941 28.5336 27.7435 28.6038 27.7183 28.702 27.7183 28.828 27.7183 28.9514 27.7435 29.0484 27.7941 29.1186 27.8446 29.189 27.9106 29.2414 27.9922 29.276 28.0737 29.3106 28.1644 29.3321 28.2644 29.3408 28.3645 29.3495 28.4638 29.3538 28.5625 29.3538H28.9403V32.6418C28.9403 32.748 28.9434 32.8515 28.9496 32.9528 28.9558 33.0541 28.9762 33.1442 29.0107 33.2231 29.0454 33.3021 29.101 33.3656 29.1775 33.4138 29.2539 33.462 29.3624 33.486 29.5032 33.486 29.6438 33.486 29.7523 33.462 29.829 33.4138 29.9056 33.3656 29.9611 33.3021 29.9957 33.2231 30.0303 33.1442 30.0507 33.0541 30.0568 32.9528 30.063 32.8515 30.0661 32.7479 30.0661 32.6418V29.3538H30.4439C30.5427 29.3538 30.642 29.3495 30.7421 29.3408 30.8421 29.3321 30.9328 29.3106 31.0143 29.276 31.0959 29.2414 31.1619 29.189 31.2124 29.1186 31.263 29.0484 31.2883 28.9514 31.2883 28.828 31.2881 28.702 31.2628 28.6038 31.2123 28.5336z" fill="#fff"/><defs><linearGradient id="paint0_linear" x1="8.62541" y1="-8.89688" x2="28.0232" y2="41.8173" gradientUnits="userSpaceOnUse"><stop stop-color="#80d3fd"/><stop offset="1" stop-color="#1393e4"/></linearGradient></defs></svg>