<svg width="60" height="60" viewBox="0 0 60 60" fill="none" xmlns="http://www.w3.org/2000/svg">
<circle cx="30" cy="30" r="30" fill="url(#paint0_linear)"/>
<path d="M40.3695 26.829C40.197 26.3928 39.7037 26.1791 39.2673 26.3514C38.8311 26.5239 38.6173 27.0173 38.7897 27.4536C39.2214 28.5452 39.4401 29.6989 39.4401 30.8827C39.4401 36.0254 35.2563 40.2093 30.1135 40.2093C24.9704 40.2093 20.786 36.0254 20.786 30.8827C20.786 25.74 24.9704 21.5561 30.1135 21.5561C31.3015 21.5561 32.4572 21.7763 33.5484 22.2104C33.9842 22.384 34.4781 22.1711 34.6516 21.7353C34.825 21.2995 34.6123 20.8056 34.1765 20.6322C32.8845 20.1181 31.5175 19.8574 30.1136 19.8574C24.0338 19.8574 19.0874 24.8033 19.0874 30.8826C19.0874 36.962 24.0336 41.9079 30.1135 41.9079C36.1928 41.9079 41.1387 36.9621 41.1387 30.8827C41.1387 29.4841 40.8799 28.1203 40.3695 26.829Z" fill="white"/>
<path d="M45.6059 26.4417C45.4769 25.9907 45.007 25.7301 44.5557 25.8588C44.1047 25.9879 43.8438 26.4581 43.9728 26.909C44.341 28.1958 44.5276 29.533 44.5276 30.8832C44.5276 38.8316 38.0616 45.2982 30.1137 45.2982C22.1652 45.2982 15.6987 38.8317 15.6987 30.8832C15.6987 22.9347 22.1652 16.4683 30.1137 16.4683C31.4669 16.4683 32.8063 16.6558 34.0946 17.0257C34.5455 17.1551 35.0159 16.8947 35.1453 16.4437C35.2747 15.9928 35.0142 15.5224 34.5633 15.3931C33.1227 14.9793 31.6255 14.7695 30.1137 14.7695C21.2285 14.7696 14 21.9981 14 30.8833C14 39.7684 21.2285 46.997 30.1137 46.997C38.9982 46.997 46.2263 39.7684 46.2263 30.8833C46.2263 29.3749 46.0176 27.8806 45.6059 26.4417Z" fill="white"/>
<path d="M36.0272 30.3646C35.9856 29.8974 35.5728 29.5542 35.1058 29.5941C34.6386 29.6358 34.2935 30.0484 34.3353 30.5156C34.3461 30.6365 34.3515 30.7602 34.3515 30.8832C34.3515 33.2202 32.4503 35.1213 30.1135 35.1213C27.776 35.1213 25.8743 33.22 25.8743 30.8832C25.8745 28.5457 27.7761 26.6441 30.1135 26.6441C30.2441 26.6441 30.3719 26.6498 30.4936 26.6609C30.9611 26.7038 31.3743 26.3603 31.4174 25.8931C31.4604 25.426 31.1167 25.0125 30.6496 24.9694C30.4763 24.9534 30.296 24.9453 30.1136 24.9453C26.8395 24.9453 24.1758 27.6089 24.1758 30.8831C24.1758 34.1567 26.8395 36.8198 30.1136 36.8198C33.3871 36.8198 36.0504 34.1567 36.0504 30.8831C36.0503 30.71 36.0426 30.5354 36.0272 30.3646Z" fill="white"/>
<path d="M49.8695 16.7141C49.6057 16.077 48.9894 15.6652 48.2997 15.6652H45.3383V12.7038C45.3383 12.014 44.9265 11.3979 44.2893 11.134C43.6524 10.8702 42.9259 11.0148 42.4384 11.5024L37.49 16.4508C37.009 16.9318 36.7441 17.5715 36.7441 18.252V23.0582L29.8415 29.9608C29.5099 30.2925 29.5099 30.8303 29.8415 31.162C30.0073 31.3278 30.2247 31.4108 30.4421 31.4108C30.6594 31.4108 30.8768 31.3278 31.0426 31.162L37.9452 24.2594H42.7515C43.432 24.2594 44.0718 23.9944 44.5527 23.5135L49.5011 18.565C49.9888 18.0774 50.1334 17.351 49.8695 16.7141ZM38.4428 18.2519C38.4428 18.0252 38.5311 17.812 38.6913 17.6519L43.6396 12.7043V16.1628L38.4427 21.3597V18.2519H38.4428ZM43.3516 22.3123C43.1939 22.4701 42.9751 22.5607 42.7515 22.5607H39.644L44.8407 17.364L48.2995 17.3644L43.3516 22.3123Z" fill="white"/>
<defs>
<linearGradient id="paint0_linear" x1="8.62541" y1="-8.89688" x2="28.0232" y2="41.8173" gradientUnits="userSpaceOnUse">
<stop stop-color="#80D3FD"/>
<stop offset="1" stop-color="#1393E4"/>
</linearGradient>
</defs>
</svg>
