<svg width="50" height="50" viewBox="0 0 50 50" fill="none" xmlns="http://www.w3.org/2000/svg">
<g clip-path="url(#clip0)">
<path d="M48.7932 34.1769C47.8901 33.6562 46.7923 33.7938 46.0358 34.4288L40.7069 31.2062C40.9902 30.5342 41.1471 29.7977 41.1471 29.0243C41.1471 26.2033 39.0634 23.8596 36.3181 23.4547C36.3181 23.433 36.3181 23.4121 36.3181 23.3904C36.3181 22.5107 36.1708 21.6656 35.9092 20.872L46.0108 15.5423C46.4535 15.9262 47.0121 16.1459 47.5899 16.1459C47.9996 16.1459 48.4141 16.0421 48.7932 15.8232C49.9465 15.1576 50.3425 13.6775 49.6769 12.5241C49.0105 11.3716 47.5304 10.9748 46.3786 11.6404C45.4796 12.1595 45.049 13.1736 45.2148 14.1419L35.25 19.3991C33.8609 16.9798 31.2548 15.3419 28.2696 15.3419C27.4366 15.3419 26.6261 15.4795 25.855 15.7226V4.73079C26.7895 4.39759 27.4647 3.51226 27.4647 2.46434C27.4647 1.13313 26.3814 0.0498047 25.0502 0.0498047C23.719 0.0498047 22.6357 1.13313 22.6357 2.46434C22.6357 3.51226 23.3109 4.39759 24.2453 4.73079V16.4325C23.3866 16.9307 22.6131 17.5794 21.9797 18.3754C21.1885 17.9689 20.3161 17.7564 19.4163 17.7564C17.6472 17.7564 16.0681 18.5774 15.0347 19.8563L4.78174 14.1572C4.95478 13.1841 4.525 12.1627 3.62115 11.6412C2.46781 10.9756 0.988499 11.3716 0.322891 12.5249C-0.342718 13.6783 0.0540716 15.1576 1.20661 15.8232C1.5857 16.0421 2.00019 16.1459 2.40986 16.1459C2.9821 16.1459 3.53664 15.9294 3.9777 15.552L14.2113 21.2406C13.9361 21.903 13.7823 22.629 13.7823 23.3904C13.7823 23.4097 13.7823 23.4282 13.7823 23.4475C11.0555 23.8387 8.95326 26.1904 8.95326 29.0243C8.95326 29.7953 9.1094 30.5302 9.3911 31.2006L3.96804 34.4321C3.21229 33.7938 2.11206 33.6546 1.20742 34.1777C0.0540717 34.8433 -0.341913 36.3234 0.323695 37.476C0.770385 38.2486 1.58328 38.6824 2.41791 38.6824C2.82757 38.6824 3.24207 38.5786 3.62115 38.3597C4.53143 37.8341 4.96042 36.8023 4.77691 35.8236L10.2209 32.5801C11.2551 33.8469 12.8278 34.6582 14.5872 34.6582H24.2453V45.2693C23.3109 45.6025 22.6357 46.4879 22.6357 47.5358C22.6357 48.867 23.719 49.9503 25.0502 49.9503C26.3814 49.9503 27.4647 48.867 27.4647 47.5358C27.4647 46.4879 26.7895 45.6025 25.855 45.2693V34.6582H35.5132C37.271 34.6582 38.8412 33.8485 39.8755 32.5841L45.2237 35.8188C45.0386 36.7991 45.4667 37.8333 46.3786 38.3597C46.7577 38.5786 47.1722 38.6824 47.5819 38.6824C48.4173 38.6824 49.2302 38.2494 49.6777 37.476C50.3425 36.3218 49.9457 34.8425 48.7932 34.1769ZM47.1835 13.0352C47.3098 12.962 47.4475 12.9274 47.5843 12.9274C47.8628 12.9274 48.134 13.0714 48.2829 13.3298C48.505 13.7145 48.3722 14.2071 47.9883 14.4292C47.6036 14.6497 47.111 14.5193 46.8889 14.1346C46.6668 13.7499 46.7988 13.2573 47.1835 13.0352ZM3.11168 14.1346C2.88874 14.5193 2.39457 14.6505 2.01146 14.4292C1.62755 14.2071 1.49555 13.7145 1.71769 13.3298C1.86578 13.0722 2.13702 12.9274 2.41549 12.9274C2.55232 12.9274 2.68994 12.962 2.81711 13.0352C3.20102 13.2573 3.33382 13.7499 3.11168 14.1346ZM2.81631 36.9649C2.43159 37.1862 1.93902 37.0542 1.71769 36.6703C1.49555 36.2856 1.62755 35.793 2.01226 35.5709C2.13862 35.4977 2.27625 35.4631 2.41308 35.4631C2.69155 35.4631 2.96279 35.6071 3.11168 35.8655C3.33382 36.2502 3.20102 36.7428 2.81631 36.9649ZM25.0502 1.6595C25.4937 1.6595 25.855 2.02087 25.855 2.46434C25.855 2.90782 25.4937 3.26919 25.0502 3.26919C24.6067 3.26919 24.2453 2.90782 24.2453 2.46434C24.2453 2.02087 24.6067 1.6595 25.0502 1.6595ZM25.0502 48.3406C24.6067 48.3406 24.2453 47.9792 24.2453 47.5358C24.2453 47.0923 24.6067 46.7309 25.0502 46.7309C25.4937 46.7309 25.855 47.0923 25.855 47.5358C25.855 47.9792 25.4937 48.3406 25.0502 48.3406ZM35.5132 33.0485H14.5872C12.3682 33.0485 10.563 31.2432 10.563 29.0243C10.563 26.8053 12.3682 25.0001 14.5638 24.9992L15.6166 25.0186L15.454 24.0632C15.4122 23.8201 15.392 23.5996 15.392 23.3904C15.392 21.1714 17.1973 19.3661 19.4163 19.3661C20.2493 19.3661 21.0501 19.6213 21.7334 20.1042L22.4167 20.5871L22.8731 19.8861C24.0683 18.0486 26.086 16.9516 28.2696 16.9516C31.8198 16.9516 34.7084 19.8402 34.7084 23.3904C34.7084 23.6334 34.6915 23.8725 34.6657 24.1091L34.6142 25.0001H35.5132C37.7322 25.0001 39.5374 26.8053 39.5374 29.0243C39.5374 31.2432 37.7322 33.0485 35.5132 33.0485ZM48.283 36.6703C48.0601 37.055 47.5667 37.1862 47.1828 36.9649C46.7981 36.7436 46.6661 36.2502 46.8882 35.8655C47.0371 35.6079 47.3075 35.4631 47.586 35.4631C47.7228 35.4631 47.8605 35.4977 47.9876 35.5709C48.3723 35.793 48.505 36.2856 48.283 36.6703Z" fill="#00A9DD"/>
<path d="M28.2695 18.561V20.1707C30.045 20.1707 31.4889 21.6146 31.4889 23.3901H33.0986C33.0986 20.7269 30.9328 18.561 28.2695 18.561Z" fill="#00A9DD"/>
<path d="M35.5132 26.6099V28.2196C35.9567 28.2196 36.318 28.5809 36.318 29.0244C36.318 29.4679 35.9567 29.8293 35.5132 29.8293V31.4389C36.8444 31.4389 37.9277 30.3556 37.9277 29.0244C37.9277 27.6932 36.8444 26.6099 35.5132 26.6099Z" fill="#00A9DD"/>
<path d="M33.9032 29.8291H32.2935V31.4388H33.9032V29.8291Z" fill="#00A9DD"/>
<path d="M25.8549 29.8291H18.6113V31.4388H25.8549V29.8291Z" fill="#00A9DD"/>
<path d="M17.0013 29.8291H15.3916V31.4388H17.0013V29.8291Z" fill="#00A9DD"/>
</g>
<defs>
<clipPath id="clip0">
<rect width="50" height="50" fill="white"/>
</clipPath>
</defs>
</svg>
