<svg width="50" height="50" viewBox="0 0 50 50" fill="none" xmlns="http://www.w3.org/2000/svg"><path d="M42.7083 39.582H26.0417C25.4667 39.582 25 40.0487 25 40.6237 25 41.1987 25.4667 41.6654 26.0417 41.6654H42.7084C43.2834 41.6654 43.7501 41.1987 43.7501 40.6237 43.7501 40.0487 43.2833 39.582 42.7083 39.582z" fill="#00a9dd"/><path d="M42.7083 43.7485H26.0417C25.4667 43.7485 25 44.2152 25 44.7902 25 45.3652 25.4667 45.8319 26.0417 45.8319H42.7084C43.2834 45.8319 43.7501 45.3652 43.7501 44.7902 43.75 44.2152 43.2833 43.7485 42.7083 43.7485z" fill="#00a9dd"/><path d="M7.2915 39.582C5.56855 39.582 4.1665 40.9841 4.1665 42.707 4.1665 44.43 5.56855 45.832 7.2915 45.832 9.01445 45.832 10.4165 44.43 10.4165 42.707 10.4165 40.9841 9.01436 39.582 7.2915 39.582zM7.2915 43.7486C6.7165 43.7486 6.2498 43.2819 6.2498 42.7069 6.2498 42.1319 6.7165 41.6652 7.2915 41.6652 7.8665 41.6652 8.3332 42.1319 8.3332 42.7069 8.33311 43.282 7.8665 43.7486 7.2915 43.7486z" fill="#00a9dd"/><path d="M7.2915 27.082C5.56855 27.082 4.1665 28.4841 4.1665 30.207 4.1665 31.93 5.56855 33.332 7.2915 33.332 9.01445 33.332 10.4165 31.93 10.4165 30.207 10.4165 28.4841 9.01436 27.082 7.2915 27.082zM7.2915 31.2486C6.7165 31.2486 6.2498 30.7819 6.2498 30.2069 6.2498 29.6319 6.7165 29.1652 7.2915 29.1652 7.8665 29.1652 8.3332 29.6319 8.3332 30.2069 8.3332 30.7819 7.8665 31.2486 7.2915 31.2486z" fill="#00a9dd"/><path d="M42.7083 18.7485H26.0417C25.4667 18.7485 25 19.2152 25 19.7902 25 20.3652 25.4667 20.8319 26.0417 20.8319H42.7084C43.2834 20.8319 43.7501 20.3652 43.7501 19.7902 43.7501 19.2152 43.2833 18.7485 42.7083 18.7485z" fill="#00a9dd"/><path d="M41.1905 1 47 11H3L8.80952 1H41.1905z" fill="#74c6ff"/><path d="M50 19.79V15.6233C50 14.6233 49.7021 13.6963 49.2104 12.9004 49.1959 12.8712 49.1938 12.8379 49.1772 12.8108L42.7354 2.45674C41.7792.919238 40.125 488281e-9 38.3125 488281e-9H11.6938C9.8792 488281e-9 8.22705.919238 7.2708 2.45674L.829199 12.8108C.81875 12.8275.81875 12.8463.808398 12.865.304199 13.6671.0 14.6088.0 15.6233V19.79C0 21.4983.839551 23.0067 2.1167 23.9567.839551 24.9088.0 26.415.0 28.1233V32.29C0 33.9983.839551 35.5067 2.1167 36.4567.839551 37.4088.0 38.915.0 40.6233V44.79C0 47.6608 2.3375 49.9983 5.2083 49.9983H44.7916C47.6624 49.9983 49.9999 47.6608 49.9999 44.79V40.6233C49.9999 38.915 49.1604 37.4066 47.8832 36.4566 49.1604 35.5067 50 33.9983 50 32.29V28.1233C50 26.415 49.1604 24.9066 47.8833 23.9566 49.1604 23.0067 50 21.5005 50 19.79zM9.03955 3.55674C9.6125 2.63379 10.6041 2.08174 11.6916 2.08174H38.3104C39.3979 2.08174 40.3895 2.63379 40.9624 3.55674L45.2604 10.463C45.1041 10.4484 44.952 10.415 44.7916 10.415H5.2083C5.04785 10.415 4.89785 10.4483 4.7416 10.463L9.03955 3.55674zM47.9167 40.6233V44.79C47.9167 46.513 46.5146 47.915 44.7917 47.915H5.2083C3.48535 47.915 2.0833 46.513 2.0833 44.79V40.6233C2.0833 38.9004 3.48535 37.4983 5.2083 37.4983H44.7916C46.5145 37.4983 47.9167 38.9005 47.9167 40.6233zm0-12.5V32.29C47.9167 34.013 46.5146 35.415 44.7917 35.415H5.2083C3.48535 35.415 2.0833 34.013 2.0833 32.29V28.1233C2.0833 26.4004 3.48535 24.9983 5.2083 24.9983H44.7916C46.5145 24.9983 47.9167 26.4005 47.9167 28.1233zM47.9167 19.79C47.9167 21.513 46.5146 22.915 44.7917 22.915H5.2083C3.48535 22.915 2.0833 21.513 2.0833 19.79V15.6233C2.0833 13.9004 3.48535 12.4983 5.2083 12.4983H44.7916C46.5145 12.4983 47.9166 13.9004 47.9166 15.6233V19.79H47.9167z" fill="#00a9dd"/><path d="M42.7083 14.582H26.0417C25.4667 14.582 25 15.0487 25 15.6237 25 16.1987 25.4667 16.6654 26.0417 16.6654H42.7084C43.2834 16.6654 43.7501 16.1987 43.7501 15.6237 43.7501 15.0487 43.2833 14.582 42.7083 14.582z" fill="#00a9dd"/><path d="M42.7083 31.2485H26.0417C25.4667 31.2485 25 31.7152 25 32.2902 25 32.8652 25.4667 33.3319 26.0417 33.3319H42.7084C43.2834 33.3319 43.7501 32.8652 43.7501 32.2902 43.7501 31.7152 43.2833 31.2485 42.7083 31.2485z" fill="#00a9dd"/><path d="M42.7083 27.082H26.0417C25.4667 27.082 25 27.5487 25 28.1237 25 28.6987 25.4667 29.1654 26.0417 29.1654H42.7084C43.2834 29.1654 43.7501 28.6987 43.7501 28.1237 43.7501 27.5487 43.2833 27.082 42.7083 27.082z" fill="#00a9dd"/><path d="M7.2915 14.582C5.56855 14.582 4.1665 15.9841 4.1665 17.707 4.1665 19.43 5.56855 20.832 7.2915 20.832 9.01445 20.832 10.4165 19.43 10.4165 17.707 10.4165 15.9841 9.01436 14.582 7.2915 14.582zM7.2915 18.7486C6.7165 18.7486 6.2498 18.2819 6.2498 17.7069 6.2498 17.1319 6.7165 16.6652 7.2915 16.6652 7.8665 16.6652 8.3332 17.1319 8.3332 17.7069 8.3332 18.2819 7.8665 18.7486 7.2915 18.7486z" fill="#00a9dd"/></svg>