<svg width="42" height="42" viewBox="0 0 42 42" fill="none" xmlns="http://www.w3.org/2000/svg">
<g clip-path="url(#clip0)">
<path d="M40.8979 32.4012L32.3969 26.7321C31.3181 26.0184 29.8721 26.2532 29.0745 27.2717L26.5983 30.4555C26.28 30.8751 25.7016 30.9968 25.2412 30.7411L24.7701 30.4814C23.2087 29.6303 21.2658 28.5707 17.3513 24.6548C13.4367 20.7388 12.375 18.7945 11.5239 17.2359L11.2656 16.7649C11.0064 16.3046 11.1258 15.7236 11.5456 15.4028L14.7272 12.9273C15.7453 12.1297 15.9804 10.684 15.2676 9.60491L9.59842 1.10397C8.86788 0.00507471 7.40219 -0.324806 6.27123 0.35505L2.71645 2.49042C1.59951 3.14706 0.780057 4.21052 0.429918 5.45795C-0.850154 10.122 0.112831 18.1716 11.9705 30.0306C21.403 39.4624 28.4251 41.9988 33.2516 41.9988C34.3624 42.0036 35.4688 41.8591 36.5411 41.5691C37.7888 41.2194 38.8524 40.3999 39.5086 39.2826L41.6461 35.73C42.327 34.5988 41.9973 33.1322 40.8979 32.4012ZM40.4401 35.0118L38.3076 38.5666C37.8364 39.373 37.0714 39.9659 36.1728 40.2212C31.8671 41.4033 24.3446 40.4242 12.9608 29.0403C1.57695 17.6565 0.597893 10.1347 1.78003 5.82826C2.03561 4.92868 2.62926 4.1627 3.43666 3.69077L6.99144 1.55819C7.48216 1.26292 8.1183 1.40604 8.43531 1.8829L11.5149 6.5064L14.0996 10.3831C14.4092 10.8512 14.3075 11.4786 13.8659 11.8249L10.6834 14.3004C9.71497 15.041 9.4384 16.3809 10.0347 17.4444L10.2874 17.9035C11.1819 19.5441 12.294 21.5849 16.3541 25.6444C20.4142 29.7038 22.4544 30.816 24.0942 31.7104L24.554 31.9637C25.6174 32.5599 26.9574 32.2834 27.698 31.315L30.1735 28.1325C30.5199 27.6912 31.147 27.5896 31.6153 27.8988L40.1155 33.5679C40.5927 33.8847 40.7358 34.5212 40.4401 35.0118Z" fill="#00A9DD"/>
<path d="M23.799 7.00325C30.3672 7.01055 35.6899 12.3333 35.6973 18.9015C35.6973 19.2881 36.0106 19.6014 36.3971 19.6014C36.7837 19.6014 37.097 19.2881 37.097 18.9015C37.0889 11.5606 31.1399 5.61155 23.799 5.60352C23.4124 5.60352 23.0991 5.91683 23.0991 6.30338C23.0991 6.68994 23.4124 7.00325 23.799 7.00325Z" fill="#00A9DD"/>
<path d="M23.799 11.2034C28.0489 11.2085 31.4929 14.6524 31.4979 18.9023C31.4979 19.2889 31.8113 19.6022 32.1977 19.6022C32.5843 19.6022 32.8976 19.2889 32.8976 18.9023C32.8918 13.8796 28.8216 9.80945 23.799 9.80371C23.4124 9.80371 23.0991 10.117 23.0991 10.5036C23.0991 10.8901 23.4124 11.2034 23.799 11.2034Z" fill="#00A9DD"/>
<path d="M23.799 15.4027C25.7307 15.405 27.2961 16.9704 27.2985 18.9022C27.2985 19.2887 27.6119 19.602 27.9984 19.602C28.3848 19.602 28.6982 19.2887 28.6982 18.9022C28.6951 16.1977 26.5035 14.006 23.799 14.0029C23.4124 14.0029 23.0991 14.3162 23.0991 14.7028C23.0991 15.0894 23.4124 15.4027 23.799 15.4027Z" fill="#00A9DD"/>
</g>
<defs>
<clipPath id="clip0">
<rect width="42" height="42" fill="white"/>
</clipPath>
</defs>
</svg>
