<svg width="50" height="50" viewBox="0 0 50 50" fill="none" xmlns="http://www.w3.org/2000/svg">
<path d="M46.6658 0.833008H3.33418C1.4958 0.833008 0 2.32891 0 4.16719V31.6663C0 32.1263 0.37334 32.4996 0.833301 32.4996H49.1666C49.6266 32.4996 49.9999 32.1263 49.9999 31.6663V4.16719C50 2.32891 48.5042 0.833008 46.6658 0.833008ZM48.3333 30.833H1.6667V4.16719C1.6667 3.24717 2.41504 2.49971 3.33418 2.49971H46.6658C47.585 2.49971 48.3333 3.24717 48.3333 4.16719V30.833Z" fill="#00A9DD"/>
<path d="M49.1667 30.833H0.833301C0.37334 30.833 0 31.2063 0 31.6663V35.8321C0 37.6705 1.4958 39.1663 3.33418 39.1663H46.6658C48.5042 39.1663 50 37.6705 50 35.8321V31.6663C50 31.2063 49.6267 30.833 49.1667 30.833ZM48.3333 35.8322C48.3333 36.7522 47.585 37.4997 46.6658 37.4997H3.33418C2.41504 37.4997 1.6667 36.7522 1.6667 35.8322V32.4997H48.3334V35.8322H48.3333Z" fill="#00A9DD"/>
<path d="M27.4998 34.167H22.4998C22.0398 34.167 21.6665 34.5403 21.6665 35.0003C21.6665 35.4603 22.0398 35.8336 22.4998 35.8336H27.4998C27.9598 35.8336 28.3331 35.4603 28.3331 35.0003C28.3331 34.5403 27.9598 34.167 27.4998 34.167Z" fill="#00A9DD"/>
<path d="M45.8334 4.16699H4.1668C3.70684 4.16699 3.3335 4.54033 3.3335 5.00029V31.667C3.3335 32.127 3.70684 32.5003 4.1668 32.5003H45.8335C46.2935 32.5003 46.6668 32.127 46.6668 31.667V5.00029C46.6668 4.54033 46.2935 4.16699 45.8334 4.16699ZM45.0001 30.8336H5.0001V5.83359H45.0001V30.8336Z" fill="#00A9DD"/>
<path d="M35.8336 44.167H14.167C12.7887 44.167 11.667 45.2887 11.667 46.667C11.667 48.0453 12.7887 49.167 14.167 49.167H35.8337C37.212 49.167 38.3337 48.0453 38.3337 46.667C38.3337 45.2887 37.2119 44.167 35.8336 44.167ZM35.8336 47.5003H14.167C13.707 47.5003 13.3337 47.1262 13.3337 46.667C13.3337 46.2078 13.707 45.8337 14.167 45.8337H35.8337C36.2936 45.8337 36.667 46.2078 36.667 46.667C36.667 47.1262 36.2937 47.5003 35.8336 47.5003Z" fill="#00A9DD"/>
<path d="M34.1666 44.1666C31.4016 44.1666 29.9999 42.2041 29.9999 38.3333C29.9999 37.8733 29.6266 37.5 29.1666 37.5H20.8333C20.3733 37.5 20 37.8733 20 38.3333C20 42.2041 18.5983 44.1666 15.8333 44.1666C15.3733 44.1666 15 44.5399 15 44.9999C15 45.4599 15.3733 45.8332 15.8333 45.8332H34.1666C34.6265 45.8332 34.9999 45.4599 34.9999 44.9999C34.9999 44.5399 34.6265 44.1666 34.1666 44.1666ZM19.8924 44.1666C20.9183 43.03 21.5224 41.3374 21.644 39.1666H28.3565C28.4773 41.3374 29.0815 43.03 30.1082 44.1666H19.8924Z" fill="#00A9DD"/>
<path d="M39.8197 25.3865L37.8081 23.3749L38.9272 22.2557C39.1347 22.0482 39.218 21.7466 39.1463 21.4624C39.0747 21.1782 38.8588 20.9532 38.578 20.8682L30.2447 18.3682C29.9506 18.2799 29.6331 18.3607 29.4164 18.5774C29.1989 18.7941 29.1189 19.1124 29.2072 19.4057L31.7072 27.739C31.7914 28.0207 32.0171 28.2365 32.3013 28.3082C32.5846 28.3782 32.8872 28.2965 33.0947 28.089L34.273 26.9098L36.2846 28.9223C36.4405 29.079 36.653 29.1665 36.8738 29.1665C37.0946 29.1665 37.3071 29.079 37.4629 28.9223L39.8196 26.5648C40.1455 26.239 40.1455 25.7124 39.8197 25.3865ZM36.8738 27.1549L35.0421 25.3223C34.8296 25.1098 34.5513 25.004 34.273 25.004C33.9938 25.004 33.7155 25.1106 33.5039 25.3215L32.9022 25.9231L31.248 20.409L36.7622 22.0632L36.1171 22.7082C35.9396 22.8865 35.8421 23.1232 35.8421 23.3749C35.8421 23.6274 35.9405 23.8657 36.1188 24.0424L38.0521 25.9757L36.8738 27.1549Z" fill="#00A9DD"/>
<path d="M35 8L35 13L12.0435 13L11 8L35 8Z" fill="#74C6FF"/>
<path d="M21 17L21 21L15.2609 21L15 17L21 17Z" fill="#74C6FF"/>
<path d="M35.0001 7.5H11.6668C11.2068 7.5 10.8335 7.87334 10.8335 8.3333V12.5C10.8335 12.96 11.2068 13.3333 11.6668 13.3333H35.0001C35.4601 13.3333 35.8334 12.96 35.8334 12.5V8.3333C35.8334 7.87334 35.4601 7.5 35.0001 7.5ZM34.1668 11.6667H12.5001V9.1667H34.1668V11.6667Z" fill="#00A9DD"/>
<path d="M21.667 16.667H15.0003C14.5403 16.667 14.167 17.0403 14.167 17.5003V20.8336C14.167 21.2936 14.5403 21.6669 15.0003 21.6669H21.667C22.127 21.6669 22.5003 21.2936 22.5003 20.8336V17.5003C22.5003 17.0403 22.127 16.667 21.667 16.667ZM20.8336 20.0003H15.8336V18.3336H20.8336V20.0003Z" fill="#00A9DD"/>
<path d="M35.0001 7.5H11.6668C11.2068 7.5 10.8335 7.87334 10.8335 8.3333V24.1666C10.8335 24.6266 11.2068 24.9999 11.6668 24.9999H31.5052C31.7693 24.9999 32.0168 24.8758 32.1735 24.6641C32.3311 24.4524 32.3794 24.1791 32.3035 23.9266L31.2485 20.4091L34.761 21.4633C35.0136 21.5392 35.2869 21.4908 35.4977 21.3333C35.7093 21.1767 35.8335 20.9283 35.8335 20.6649V8.3333C35.8334 7.87334 35.4601 7.5 35.0001 7.5ZM34.1668 19.545L30.2442 18.3684C29.9501 18.28 29.6326 18.3608 29.4159 18.5775C29.1984 18.795 29.1185 19.1125 29.2067 19.4067L30.3851 23.3334H12.5001V9.1667H34.1668V19.545Z" fill="#00A9DD"/>
</svg>
