<svg width="60" height="60" viewBox="0 0 60 60" fill="none" xmlns="http://www.w3.org/2000/svg">
<circle cx="30" cy="30" r="30" fill="url(#paint0_linear)"/>
<g clip-path="url(#clip0)">
<path d="M46.7054 27.4432V15.841C46.7054 15.5257 46.5022 15.246 46.2022 15.1486L30.4697 10.0359C30.3104 9.98388 30.1457 9.9902 29.9999 10.0432C29.8528 9.99067 29.6886 9.98434 29.5293 10.0359L13.7973 15.1486C13.4972 15.2459 13.2941 15.5251 13.2941 15.841L13.295 27.4156C13.2887 27.5849 12.8466 44.4147 29.6235 49.9629C29.6973 49.9878 29.7751 50 29.8525 50H30.1481C30.2255 50 30.3033 49.9878 30.377 49.9629C47.1534 44.4147 46.7113 27.5844 46.7054 27.4432ZM30.0298 48.5437H29.9701C14.3598 43.311 14.7263 28.1157 14.7499 27.4432V16.3696L29.9788 11.4207C29.986 11.4184 29.9928 11.4157 30 11.4134C30.0063 11.4157 30.0136 11.4184 30.0204 11.4207L45.2496 16.37L45.2506 27.4713C45.2564 27.6288 45.6687 43.2987 30.0298 48.5437Z" fill="white"/>
<path d="M42.1609 17.9101L30.3546 13.9372C30.2524 13.9033 30.1464 13.8951 30.0482 13.9033C29.9496 13.8957 29.845 13.9033 29.7418 13.9372L17.9369 17.9101C17.6414 18.0101 17.4414 18.2875 17.4414 18.6002L17.4423 27.6405C17.4464 27.7704 18.0366 40.7026 29.7854 45.2538C29.87 45.2864 29.9596 45.3027 30.0482 45.3027C30.1369 45.3027 30.2265 45.2864 30.3111 45.2538C42.0604 40.7026 42.6514 27.7705 42.6563 27.6148V18.6002C42.656 18.2876 42.4564 18.0101 42.1609 17.9101ZM30.0482 43.793C19.4607 39.5034 18.9013 27.7089 18.8972 27.6152V19.1233L30.0482 15.3704L41.2006 19.1233L41.201 27.589C41.1961 27.7084 40.6358 39.5034 30.0482 43.793Z" fill="white"/>
<path d="M38.3818 24.6234C38.0723 24.3646 37.6129 24.408 37.3564 24.7158L28.9315 34.8065L23.497 29.0995C23.2178 28.8072 22.7585 28.7981 22.4679 29.0738C22.1765 29.3512 22.1652 29.8123 22.4422 30.1028L28.4396 36.4012C28.5777 36.5456 28.7682 36.6275 28.9673 36.6275C28.9749 36.6275 28.9827 36.6275 28.9908 36.6265C29.1985 36.6202 29.3931 36.5247 29.5262 36.3658L38.4742 25.6483C38.7316 25.3398 38.6904 24.8809 38.3818 24.6234Z" fill="white"/>
</g>
<defs>
<linearGradient id="paint0_linear" x1="8.62541" y1="-8.89688" x2="28.0232" y2="41.8173" gradientUnits="userSpaceOnUse">
<stop stop-color="#80D3FD"/>
<stop offset="1" stop-color="#1393E4"/>
</linearGradient>
<clipPath id="clip0">
<rect width="40" height="40" fill="white" transform="translate(10 10)"/>
</clipPath>
</defs>
</svg>
