<svg width="50" height="50" viewBox="0 0 50 50" fill="none" xmlns="http://www.w3.org/2000/svg"><g clip-path="url(#clip0)"><path d="M4 52V44H46v8H4z" fill="#74c6ff"/><path d="M20.3613 18.75C20.3613 19.6771 20.6362 20.5834 21.1513 21.3542 21.6664 22.1251 22.3985 22.7259 23.255 23.0807 24.1115 23.4355 25.054 23.5283 25.9633 23.3474 26.8726 23.1666 27.7078 22.7201 28.3634 22.0646 29.0189 21.409 29.4654 20.5738 29.6463 19.6645 29.8271 18.7552 29.7343 17.8127 29.3795 16.9562 29.0247 16.0996 28.4239 15.3676 27.6531 14.8525 26.8822 14.3374 25.9759 14.0625 25.0488 14.0625 23.8061 14.0639 22.6146 14.5582 21.7358 15.437 20.857 16.3158 20.3627 17.5072 20.3613 18.75zm4.6875-3.125C25.6669 15.625 26.2711 15.8083 26.785 16.1517 27.2989 16.495 27.6994 16.9831 27.9359 17.5541 28.1725 18.1251 28.2344 18.7535 28.1138 19.3597 27.9932 19.9658 27.6956 20.5227 27.2585 20.9597 26.8215 21.3967 26.2647 21.6944 25.6585 21.8149 25.0523 21.9355 24.424 21.8736 23.8529 21.6371 23.2819 21.4006 22.7939 21.0001 22.4505 20.4862 22.1071 19.9722 21.9238 19.3681 21.9238 18.75 21.9248 17.9215 22.2543 17.1272 22.8401 16.5413 23.426 15.9555 24.2203 15.6259 25.0488 15.625z" fill="#00a9dd"/><path d="M16.4551 26.6147V27.3439H12.5488C12.438 27.344 12.3285 27.3675 12.2276 27.4131 12.1266 27.4586 12.0365 27.5251 11.9631 27.6082 11.8898 27.6912 11.835 27.7889 11.8023 27.8947 11.7697 28.0006 11.7599 28.1122 11.7736 28.2221L13.3361 40.7221C13.3597 40.911 13.4515 41.0849 13.5943 41.2109 13.737 41.3369 13.9209 41.4065 14.1113 41.4065h21.875C36.1767 41.4065 36.3606 41.3369 36.5033 41.2109 36.6461 41.0849 36.7379 40.911 36.7615 40.7221L38.324 28.2221C38.3377 28.1122 38.3279 28.0006 38.2953 27.8947 38.2626 27.7889 38.2078 27.6912 38.1345 27.6082 38.0612 27.5251 37.971 27.4586 37.8701 27.4131 37.7691 27.3675 37.6596 27.344 37.5488 27.3439H33.6426V26.6147C33.6416 25.7862 33.3121 24.9919 32.7262 24.4061 32.1404 23.8202 31.3461 23.4907 30.5176 23.4897H19.5801C18.7515 23.4907 17.9572 23.8202 17.3714 24.4061 16.7855 24.9919 16.456 25.7862 16.4551 26.6147zM36.6638 28.9064 35.2967 39.844H14.801L13.4338 28.9064H36.6638zM32.0801 26.6147V27.3439H18.0176V26.6147C18.018 26.2005 18.1828 25.8033 18.4757 25.5104 18.7686 25.2175 19.1658 25.0527 19.5801 25.0522H30.5176C30.9318 25.0527 31.3289 25.2175 31.6219 25.5104 31.9148 25.8034 32.0796 26.2005 32.0801 26.6147z" fill="#00a9dd"/><path d="M11.7676 42.9688H38.3301V44.5312H11.7676V42.9688z" fill="#00a9dd"/><path d="M25.0488 37.5C25.6669 37.5 26.2711 37.3167 26.785 36.9734 27.2989 36.63 27.6994 36.1419 27.936 35.5709 28.1725 34.9999 28.2344 34.3715 28.1138 33.7654 27.9932 33.1592 27.6956 32.6023 27.2585 32.1653 26.8215 31.7283 26.2647 31.4306 25.6585 31.31 25.0523 31.1895 24.424 31.2514 23.8529 31.4879 23.2819 31.7244 22.7939 32.1249 22.4505 32.6388 22.1071 33.1528 21.9238 33.7569 21.9238 34.375 21.9248 35.2035 22.2543 35.9978 22.8401 36.5837 23.426 37.1695 24.2203 37.4991 25.0488 37.5zm0-4.6875C25.3579 32.8125 25.66 32.9041 25.9169 33.0758 26.1739 33.2475 26.3741 33.4916 26.4924 33.7771 26.6107 34.0626 26.6416 34.3767 26.5813 34.6798 26.521 34.9829 26.3722 35.2613 26.1537 35.4799 25.9352 35.6984 25.6568 35.8472 25.3537 35.9075 25.0506 35.9678 24.7364 35.9368 24.4509 35.8186 24.1654 35.7003 23.9214 35.5 23.7497 35.2431 23.578 34.9861 23.4863 34.684 23.4863 34.375 23.4868 33.9607 23.6516 33.5636 23.9445 33.2707 24.2374 32.9777 24.6346 32.813 25.0488 32.8125z" fill="#00a9dd"/><path d="M48.1463 18.4714 26.4038 2.0311C25.999 1.72695 25.5064 1.5625 25.0002 1.5625 24.4939 1.5625 24.0013 1.72695 23.5965 2.0311L1.85396 18.4714C1.69945 18.5882 1.59734 18.7613 1.56991 18.953 1.54247 19.1448 1.59192 19.3396 1.70748 19.495L3.62935 22.0785C3.68716 22.1562 3.75978 22.2217 3.84304 22.2713 3.92629 22.3208 4.01853 22.3533 4.11443 22.367 4.21033 22.3807 4.30799 22.3753 4.40178 22.3511 4.49558 22.3268 4.58364 22.2843 4.6609 22.2258L6.29898 20.9875V47.6561C6.29898 47.8633 6.38129 48.062 6.52781 48.2085 6.67432 48.355 6.87303 48.4374 7.08023 48.4374H43.0177C43.2249 48.4374 43.4236 48.355 43.5702 48.2085 43.7167 48.062 43.799 47.8633 43.799 47.6561V21.0613L45.3391 22.2258C45.4666 22.3222 45.622 22.3744 45.7818 22.3744 45.8165 22.3744 45.8512 22.3719 45.8856 22.367 45.9815 22.3533 46.0737 22.3208 46.157 22.2712 46.2402 22.2217 46.3128 22.1562 46.3707 22.0785L48.2925 19.495C48.4081 19.3396 48.4576 19.1448 48.4302 18.9531 48.4029 18.7614 48.3008 18.5882 48.1463 18.4714zM42.2365 46.8749H7.86148V19.806L25.0002 6.84673 42.2365 19.8798V46.8749zM45.6349 20.6088 25.4428 5.34107C25.3154 5.24468 25.16 5.19252 25.0002 5.19252 24.8404 5.19252 24.6849 5.24468 24.5575 5.34107L4.36588 20.6088 3.32047 19.2031 24.4826 3.20181C24.632 3.08951 24.8139 3.02878 25.0008 3.02878 25.1878 3.02878 25.3697 3.08951 25.5191 3.20181L46.6798 19.2031 45.6349 20.6088z" fill="#00a9dd"/></g><defs><clipPath id="clip0"><path d="M0 0h50v50H0z" fill="#fff"/></clipPath></defs></svg>