<svg width="60" height="60" viewBox="0 0 60 60" fill="none" xmlns="http://www.w3.org/2000/svg"><path d="M59.25 30c0 16.1543-13.0957 29.25-29.25 29.25C13.8457 59.25.75 46.1543.75 30 .75 13.8457 13.8457.75 30 .75 46.1543.75 59.25 13.8457 59.25 30z" fill="#27ae60" stroke="#fff" stroke-width="1.5"/><path fill-rule="evenodd" clip-rule="evenodd" d="M21.2386 27.5425 29.7239 19.0572C30.2446 18.5365 31.0888 18.5365 31.6095 19.0572L40.0948 27.5425C40.6155 28.0632 40.6155 28.9074 40.0948 29.4281 39.5741 29.9488 38.7298 29.9488 38.2091 29.4281L32 23.2189V40H29.3333V23.2189L23.1242 29.4281C22.6035 29.9488 21.7593 29.9488 21.2386 29.4281 20.7179 28.9074 20.7179 28.0632 21.2386 27.5425z" fill="#fefeff"/></svg>