<svg width="17" height="17" viewBox="0 0 17 17" fill="none" xmlns="http://www.w3.org/2000/svg">
<path d="M7.49638 0C3.36292 0 0 3.35372 0 7.47593C0 11.5981 3.36295 14.9519 7.49638 14.9519C11.6298 14.9519 14.9928 11.5981 14.9928 7.47593C14.9928 3.35372 11.6298 0 7.49638 0ZM7.49638 13.7229C4.04046 13.7229 1.22892 10.9204 1.22892 7.4759C1.22892 4.03123 4.04046 1.22888 7.49638 1.22888C10.9523 1.22888 13.7639 4.03123 13.7639 7.4759C13.7639 10.9204 10.9523 13.7229 7.49638 13.7229Z" fill="#E3E3E3"/>
<path d="M16.8191 15.909L12.7841 11.8945C12.5435 11.6553 12.1545 11.6563 11.9151 11.8968C11.6759 12.1374 11.6769 12.5264 11.9173 12.7658L15.9523 16.7803C16.0723 16.8995 16.2288 16.9591 16.3857 16.9591C16.5436 16.9591 16.7013 16.8987 16.8214 16.778C17.0606 16.5374 17.0596 16.1484 16.8191 15.909Z" fill="#E3E3E3"/>
</svg>
