<svg width="50" height="50" viewBox="0 0 50 50" fill="none" xmlns="http://www.w3.org/2000/svg"><g clip-path="url(#clip0)"><path d="M41.5438 41.6317C41.5438 40.9762 41.0124 40.4447 40.3568 40.4447H39.4019C39.0453 39.0228 38.4851 37.6821 37.7541 36.4558L38.4347 35.7728C38.8963 35.3097 38.8963 34.5603 38.4347 34.0971L34.9681 30.6183C34.5042 30.1527 33.7503 30.1527 33.2864 30.6183L32.6117 31.2953C31.3895 30.5618 30.0535 29.9996 28.6366 29.6417V28.6793C28.6366 28.0237 28.1052 27.4923 27.4496 27.4923H22.5512C21.8956 27.4923 21.3642 28.0237 21.3642 28.6793V29.6417C19.9473 29.9996 18.6112 30.5618 17.3891 31.2953L16.7145 30.6183C16.2506 30.1527 15.4967 30.1527 15.0328 30.6183L11.5662 34.097C11.1046 34.5601 11.1046 35.3096 11.5662 35.7727L12.2468 36.4557C11.5158 37.6821 10.9556 39.0227 10.5989 40.4446H9.64404C8.98848 40.4446 8.45703 40.9761 8.45703 41.6316V45.6137H16.7259C16.6365 45.1206 16.5898 44.6126 16.5898 44.0936 16.5898 39.4322 20.3555 35.6534 25.0007 35.6534 29.6459 35.6534 33.4115 39.4322 33.4115 44.0936 33.4115 44.6126 33.3648 45.1206 33.2754 45.6137H41.5442V41.6317H41.5438z" fill="#74c6ff"/><path d="M46.5396 3.40897H3.46035C1.55225 3.40897.0 4.97234.0 6.89412V43.1054C0 45.0272 1.55225 46.5906 3.46035 46.5906H46.5396C48.4478 46.5906 50 45.0271 50 43.1054V6.89412C50 4.97234 48.4477 3.40897 46.5396 3.40897zM1.95312 6.89412C1.95312 6.0493 2.6293 5.36209 3.46035 5.36209H46.5396C47.3707 5.36209 48.0469 6.0494 48.0469 6.89412V10.7774H1.95312V6.89412zM17.5852 44.6375C17.5723 44.4567 17.5657 44.2754 17.5657 44.094 17.5657 39.9785 20.9007 36.6304 25 36.6304 29.0993 36.6304 32.4343 39.9785 32.4343 44.094 32.4343 44.2754 32.4277 44.4568 32.4147 44.6375H17.5852zM48.0469 43.1054C48.0469 43.9502 47.3707 44.6375 46.5396 44.6375H34.3719C34.3822 44.4565 34.3874 44.2752 34.3874 44.094 34.3874 38.9016 30.1762 34.6772 25 34.6772 19.8238 34.6772 15.6126 38.9015 15.6126 44.094 15.6126 44.2753 15.6178 44.4565 15.6281 44.6375H3.46035C2.6293 44.6375 1.95312 43.9502 1.95312 43.1054V12.7305H48.0469V43.1054z" fill="#00a9dd"/><path d="M30.6765 7.09317H29.3301C28.7907 7.09317 28.3535 7.53038 28.3535 8.06973 28.3535 8.60909 28.7907 9.0463 29.3301 9.0463H30.6765C31.2158 9.0463 31.653 8.60909 31.653 8.06973 31.653 7.53038 31.2158 7.09317 30.6765 7.09317z" fill="#00a9dd"/><path d="M36.2487 7.09317H34.9023C34.363 7.09317 33.9258 7.53038 33.9258 8.06973 33.9258 8.60909 34.363 9.0463 34.9023 9.0463H36.2487C36.7881 9.0463 37.2253 8.60909 37.2253 8.06973 37.2253 7.53038 36.7881 7.09317 36.2487 7.09317z" fill="#00a9dd"/><path d="M9.68945 23.2705H40.3104C40.8497 23.2705 41.2869 22.8333 41.2869 22.2939V17.3789C41.2869 16.8395 40.8497 16.4023 40.3104 16.4023H9.68945C9.1501 16.4023 8.71289 16.8395 8.71289 17.3789V22.2939C8.71289 22.8334 9.1501 23.2705 9.68945 23.2705zM10.666 18.3555H39.3338v2.9619H10.666V18.3555z" fill="#00a9dd"/><path d="M41.821 9.0463H40.4746C39.9353 9.0463 39.498 8.60909 39.498 8.06973 39.498 7.53038 39.9353 7.09317 40.4746 7.09317H41.821C42.3604 7.09317 42.7976 7.53038 42.7976 8.06973 42.7976 8.60909 42.3604 9.0463 41.821 9.0463z" fill="#00a9dd"/></g><defs><clipPath id="clip0"><path d="M0 0h50v50H0z" fill="#fff"/></clipPath></defs></svg>