<svg width="166" height="517" viewBox="0 0 166 517" fill="none" xmlns="http://www.w3.org/2000/svg">
<path d="M166 451.163C166 463.81 164.404 476.084 161.212 487.987C158.019 499.89 153.763 509.561 148.442 517L115.151 502.494C119.864 495.501 123.664 487.392 126.552 478.167C129.44 468.943 130.885 459.867 130.885 450.94C130.885 433.979 126.552 425.498 117.887 425.498C113.327 425.498 109.983 427.953 107.854 432.863C105.574 437.624 103.218 445.361 100.786 456.073C98.2015 467.827 95.4652 477.647 92.5769 485.532C89.5366 493.418 84.7482 500.187 78.2115 505.841C71.6749 511.495 62.8581 514.322 51.761 514.322C42.0321 514.322 33.2912 511.718 25.5385 506.511C17.6337 501.303 11.4011 493.567 6.84066 483.3C2.28022 472.886 -2.48435e-06 460.165 -3.14121e-06 445.137C-3.58995e-06 434.871 1.21612 424.754 3.64835 414.786C5.92857 404.817 9.3489 396.039 13.9093 388.451L47.4286 402.065C39.2198 416.943 35.1154 431.375 35.1154 445.361C35.1154 454.139 36.4835 460.537 39.2198 464.554C41.804 468.571 45.2244 470.579 49.4808 470.579C53.7372 470.579 56.9295 468.199 59.0577 463.438C61.1859 458.677 63.3901 451.014 65.6703 440.451C68.2546 428.548 71.0668 418.728 74.1071 410.992C76.9954 403.106 81.7079 396.336 88.2445 390.683C94.6291 384.88 103.37 381.979 114.467 381.979C124.044 381.979 132.709 384.583 140.462 389.79C148.214 394.997 154.447 402.809 159.159 413.223C163.72 423.638 166 436.285 166 451.163Z" fill="#DBF0FF"/>
<path d="M162.808 220.52L78.2115 220.966L147.074 261.138L147.074 280.777L80.4917 320.726L162.808 320.726L162.808 361.567L3.1923 361.567L3.1923 325.189L95.3132 270.288L3.19229 216.726L3.19229 180.348L162.808 179.902L162.808 220.52Z" fill="#DBF0FF"/>
<path d="M79.5797 28.5665C82.772 19.6394 87.7884 12.6466 94.6291 7.58798C101.318 2.52929 109.451 -4.78424e-06 119.027 -5.20286e-06C133.013 -5.81417e-06 143.806 5.50494 151.407 16.5149C159.007 27.525 162.808 43.4448 162.808 64.2745L162.808 148.635L3.19229 148.635L3.19229 68.738C3.19229 48.801 6.99265 33.6251 14.5934 23.2102C22.0421 12.7954 32.1511 7.58798 44.9203 7.58798C52.521 7.58798 59.3617 9.44775 65.4423 13.1673C71.3709 16.7381 76.0833 21.8712 79.5797 28.5665ZM35.7994 104.892L66.5824 104.892L66.5824 74.5406C66.5824 59.6622 61.4139 52.223 51.0769 52.223C40.8919 52.223 35.7994 59.6622 35.7994 74.5406L35.7994 104.892ZM130.201 67.8453C130.201 52.3718 124.804 44.6351 114.011 44.6351C103.218 44.6351 97.8214 52.3718 97.8214 67.8453L97.8214 104.892L130.201 104.892L130.201 67.8453Z" fill="#DBF0FF"/>
</svg>
