<svg width="50" height="50" viewBox="0 0 50 50" fill="none" xmlns="http://www.w3.org/2000/svg">
<g clip-path="url(#clip0)">
<path d="M43 7L43 33L40 33L40 7L43 7Z" fill="#74C6FF"/>
<path d="M47.3092 32.6129H44.2809L43.4664 7.92206C43.4292 6.7953 42.5171 5.91278 41.3898 5.91278C40.2625 5.91278 39.3503 6.7954 39.3132 7.92206L38.4987 32.6129H33.1878C32.7824 32.6129 32.4539 32.9415 32.4539 33.3468C32.4539 33.752 32.7824 34.0807 33.1878 34.0807H47.3091C47.9835 34.0807 48.5321 34.6293 48.5321 35.3037V41.3966C48.5321 42.071 47.9835 42.6197 47.3091 42.6197H16.5015C16.0961 42.6197 15.7676 42.9482 15.7676 43.3536C15.7676 43.759 16.0961 44.0875 16.5015 44.0875H47.3093C48.793 44.0875 50.0001 42.8804 50.0001 41.3967V35.3038C50 33.82 48.7929 32.6129 47.3092 32.6129ZM40.7802 7.9704C40.7911 7.63964 41.0589 7.38046 41.3899 7.38046C41.7209 7.38046 41.9887 7.63964 41.9996 7.9704L42.8124 32.6129H39.9674L40.7802 7.9704Z" fill="#00A9DD"/>
<path d="M13.566 42.6197H2.69082C2.01641 42.6197 1.46777 42.0711 1.46777 41.3966V35.3037C1.46777 34.6293 2.01641 34.0807 2.69082 34.0807H30.2525C30.6579 34.0807 30.9864 33.7521 30.9864 33.3468C30.9864 32.9415 30.6579 32.6129 30.2525 32.6129H11.5018L10.6873 7.92206C10.6501 6.7953 9.73799 5.91278 8.61074 5.91278C7.4834 5.91278 6.57119 6.7954 6.53408 7.92206L6.16348 19.1573C6.1501 19.5624 6.46768 19.9015 6.87275 19.9149C7.27568 19.9253 7.61699 19.6107 7.63037 19.2057L8.00098 7.9704C8.01191 7.63964 8.27969 7.38046 8.61074 7.38046C8.9417 7.38046 9.20947 7.63964 9.22041 7.9704L10.0332 32.6129H7.18818L7.53359 22.1389C7.54697 21.7338 7.22939 21.3946 6.82432 21.3812C6.41973 21.3684 6.07998 21.6854 6.0667 22.0905L5.71963 32.6129H2.69082C1.20713 32.6129 0 33.82 0 35.3037V41.3966C0 42.8803 1.20713 44.0874 2.69082 44.0874H13.566C13.9714 44.0874 14.2999 43.7588 14.2999 43.3535C14.2999 42.9482 13.9713 42.6197 13.566 42.6197Z" fill="#00A9DD"/>
<path d="M5.6875 39.1786C5.28213 39.1786 4.95361 39.5073 4.95361 39.9125C4.95361 40.3178 5.28213 40.6464 5.6875 40.6464H8.03184C8.43721 40.6464 8.76573 40.3178 8.76573 39.9125C8.76573 39.5073 8.43721 39.1786 8.03184 39.1786H5.6875Z" fill="#00A9DD"/>
<path d="M13.5661 39.1786H11.2217C10.8163 39.1786 10.4878 39.5073 10.4878 39.9125C10.4878 40.3178 10.8163 40.6464 11.2217 40.6464H13.5661C13.9715 40.6464 14.3 40.3178 14.3 39.9125C14.2999 39.5072 13.9714 39.1786 13.5661 39.1786Z" fill="#00A9DD"/>
<path d="M16.7559 39.1786C16.3505 39.1786 16.022 39.5073 16.022 39.9125C16.022 40.3178 16.3505 40.6464 16.7559 40.6464H19.1002C19.5056 40.6464 19.8341 40.3178 19.8341 39.9125C19.8341 39.5073 19.5056 39.1786 19.1002 39.1786H16.7559Z" fill="#00A9DD"/>
<path d="M22.29 39.1786C21.8847 39.1786 21.5562 39.5073 21.5562 39.9125C21.5562 40.3178 21.8847 40.6464 22.29 40.6464H24.6344C25.0397 40.6464 25.3683 40.3178 25.3683 39.9125C25.3683 39.5073 25.0397 39.1786 24.6344 39.1786H22.29Z" fill="#00A9DD"/>
<path d="M38.88 40.6463C39.2854 40.6463 39.6139 40.3177 39.6139 39.9124C39.6139 39.5071 39.2854 39.1785 38.88 39.1785H36.5356C36.1303 39.1785 35.8018 39.5071 35.8018 39.9124C35.8018 40.3177 36.1303 40.6463 36.5356 40.6463H38.88Z" fill="#00A9DD"/>
<path d="M44.3395 40.6463C44.7448 40.6463 45.0733 40.3177 45.0733 39.9124C45.0733 39.5071 44.7448 39.1785 44.3395 39.1785H41.9951C41.5897 39.1785 41.2612 39.5071 41.2612 39.9124C41.2612 40.3177 41.5897 40.6463 41.9951 40.6463H44.3395Z" fill="#00A9DD"/>
<path d="M16.0165 17.982C20.9704 13.0279 29.0312 13.0281 33.9851 17.982C34.1285 18.1253 34.3162 18.1969 34.504 18.1969C34.6918 18.1969 34.8796 18.1253 35.023 17.982C35.3095 17.6955 35.3095 17.2307 35.023 16.9442C29.4967 11.4179 20.5048 11.4178 14.9786 16.9442C14.692 17.2307 14.692 17.6955 14.9786 17.982C15.2652 18.2686 15.7298 18.2686 16.0165 17.982Z" fill="#00A9DD"/>
<path d="M32.2392 20.7656C32.5257 20.4789 32.5257 20.0143 32.2392 19.7278C28.2518 15.7405 21.7663 15.7365 17.7739 19.7156C17.5465 19.9322 17.4763 20.2795 17.6241 20.575C17.7526 20.8322 18.0119 20.9809 18.281 20.9809C18.3912 20.9809 18.5033 20.956 18.6086 20.9032C18.6819 20.8666 18.7472 20.8188 18.8029 20.7622C22.2225 17.3462 27.7832 17.3476 31.2013 20.7656C31.4879 21.0521 31.9526 21.0521 32.2392 20.7656Z" fill="#00A9DD"/>
<path d="M28.9891 23.7117C29.1769 23.7117 29.3647 23.6401 29.508 23.4968C29.7945 23.2103 29.7945 22.7455 29.508 22.459C28.304 21.255 26.7032 20.5919 25.0004 20.5919C23.2978 20.5919 21.6969 21.255 20.4928 22.459C20.2062 22.7455 20.2062 23.2103 20.4928 23.4968C20.7793 23.7834 21.244 23.7834 21.5307 23.4968C22.4574 22.57 23.6898 22.0596 25.0003 22.0596C26.3111 22.0596 27.5432 22.57 28.4699 23.4968C28.6135 23.6402 28.8013 23.7117 28.9891 23.7117Z" fill="#00A9DD"/>
<path d="M22.8853 24.8462C22.7465 24.9836 22.6676 25.1714 22.6676 25.368C22.6585 26.0183 23.4827 26.3476 23.9246 25.8826C24.2125 25.5968 24.5943 25.4393 25.0003 25.4393C25.4082 25.4393 25.7917 25.5982 26.0801 25.8866C26.791 26.5498 27.7809 25.5591 27.1179 24.8488C25.951 23.6819 24.0532 23.6811 22.8853 24.8462Z" fill="#00A9DD"/>
</g>
<defs>
<clipPath id="clip0">
<rect width="50" height="50" fill="white"/>
</clipPath>
</defs>
</svg>
