<svg width="50" height="50" viewBox="0 0 50 50" fill="none" xmlns="http://www.w3.org/2000/svg">
<path d="M12.5 12.5L12.5 42L1.5 42L0.999995 12.5L12.5 12.5Z" fill="#74C6FF"/>
<path d="M46.0938 7.03125H3.90625C1.75234 7.03125 0 8.78359 0 10.9375V39.0625C0 41.2164 1.75234 42.9688 3.90625 42.9688H46.0938C48.2477 42.9688 50 41.2164 50 39.0625V10.9375C50 8.78359 48.2477 7.03125 46.0938 7.03125ZM1.5625 39.0625V13.2812H11.7188V41.4062H3.90625C2.61387 41.4062 1.5625 40.3548 1.5625 39.0625ZM46.0938 41.4062H13.2812V13.2812H43.75C44.1814 13.2812 44.5312 12.9314 44.5312 12.5C44.5312 12.0686 44.1814 11.7188 43.75 11.7188H1.5625V10.9375C1.5625 9.64521 2.61387 8.59375 3.90625 8.59375H46.0938C47.3861 8.59375 48.4375 9.64521 48.4375 10.9375V11.7188H46.875C46.4436 11.7188 46.0938 12.0686 46.0938 12.5C46.0938 12.9314 46.4436 13.2812 46.875 13.2812H48.4375V39.0625C48.4375 40.3548 47.3861 41.4062 46.0938 41.4062Z" fill="#00A9DD"/>
<path d="M3.90625 9.375C3.70117 9.375 3.49902 9.45801 3.35352 9.60352C3.20801 9.74902 3.125 9.9502 3.125 10.1562C3.125 10.3622 3.20801 10.5635 3.35352 10.709C3.49902 10.8544 3.70117 10.9375 3.90625 10.9375C4.11133 10.9375 4.3125 10.8544 4.45898 10.709C4.60449 10.5635 4.6875 10.3622 4.6875 10.1562C4.6875 9.9502 4.60449 9.74902 4.45898 9.60352C4.31348 9.45801 4.11133 9.375 3.90625 9.375Z" fill="#00A9DD"/>
<path d="M6.25 9.375C6.04492 9.375 5.84277 9.45801 5.69727 9.60352C5.55176 9.74902 5.46875 9.9502 5.46875 10.1562C5.46875 10.3622 5.55176 10.5635 5.69727 10.709C5.84277 10.8544 6.04492 10.9375 6.25 10.9375C6.45508 10.9375 6.65625 10.8544 6.80273 10.709C6.94824 10.5635 7.03125 10.3622 7.03125 10.1562C7.03125 9.9502 6.94824 9.74902 6.80273 9.60352C6.65723 9.45801 6.45508 9.375 6.25 9.375Z" fill="#00A9DD"/>
<path d="M8.59375 9.375C8.38867 9.375 8.18652 9.45801 8.04102 9.60352C7.89551 9.74902 7.8125 9.9502 7.8125 10.1562C7.8125 10.3622 7.89551 10.5635 8.04102 10.709C8.18652 10.8544 8.38867 10.9375 8.59375 10.9375C8.79883 10.9375 9.00098 10.8544 9.14648 10.709C9.29199 10.5635 9.375 10.3613 9.375 10.1562C9.375 9.95107 9.29199 9.74902 9.14648 9.60352C9.00098 9.45801 8.7998 9.375 8.59375 9.375Z" fill="#00A9DD"/>
<path d="M3.90625 16.4062H9.375C9.80645 16.4062 10.1562 16.0564 10.1562 15.625C10.1562 15.1936 9.80645 14.8438 9.375 14.8438H3.90625C3.4748 14.8438 3.125 15.1936 3.125 15.625C3.125 16.0564 3.4748 16.4062 3.90625 16.4062Z" fill="#00A9DD"/>
<path d="M9.375 17.9688H3.90625C3.4748 17.9688 3.125 18.3186 3.125 18.75C3.125 19.1814 3.4748 19.5312 3.90625 19.5312H9.375C9.80645 19.5312 10.1562 19.1814 10.1562 18.75C10.1562 18.3186 9.80645 17.9688 9.375 17.9688Z" fill="#00A9DD"/>
<path d="M9.375 21.0938H3.90625C3.4748 21.0938 3.125 21.4436 3.125 21.875C3.125 22.3064 3.4748 22.6562 3.90625 22.6562H9.375C9.80645 22.6562 10.1562 22.3064 10.1562 21.875C10.1562 21.4436 9.80645 21.0938 9.375 21.0938Z" fill="#00A9DD"/>
<path d="M7.03125 24.2188H3.90625C3.4748 24.2188 3.125 24.5686 3.125 25C3.125 25.4314 3.4748 25.7812 3.90625 25.7812H7.03125C7.4627 25.7812 7.8125 25.4314 7.8125 25C7.8125 24.5686 7.4627 24.2188 7.03125 24.2188Z" fill="#00A9DD"/>
<path d="M7.03125 27.3438H3.90625C3.4748 27.3438 3.125 27.6936 3.125 28.125C3.125 28.5564 3.4748 28.9062 3.90625 28.9062H7.03125C7.4627 28.9062 7.8125 28.5564 7.8125 28.125C7.8125 27.6936 7.4627 27.3438 7.03125 27.3438Z" fill="#00A9DD"/>
<path d="M4.6875 30.4688H3.90625C3.4748 30.4688 3.125 30.8186 3.125 31.25C3.125 31.6814 3.4748 32.0312 3.90625 32.0312H4.6875C5.11895 32.0312 5.46875 31.6814 5.46875 31.25C5.46875 30.8186 5.11895 30.4688 4.6875 30.4688Z" fill="#00A9DD"/>
<path d="M21.0937 23.4375C22.1371 23.4375 23.1181 23.8438 23.8558 24.5817C24.1609 24.8866 24.6556 24.8866 24.9606 24.5817C25.2658 24.2765 25.2658 23.782 24.9606 23.4768C22.8284 21.3446 19.3589 21.3448 17.2268 23.4768C16.1938 24.5097 15.625 25.883 15.625 27.3438C15.625 28.8045 16.1938 30.1779 17.2268 31.2109C18.2929 32.277 19.6933 32.81 21.0937 32.81C22.4942 32.81 23.8946 32.277 24.9607 31.2109C25.2659 30.9057 25.2659 30.4112 24.9607 30.106C24.6557 29.801 24.161 29.801 23.8559 30.106C23.1181 30.8438 22.1371 31.25 21.0937 31.25C20.0504 31.25 19.0694 30.8438 18.3316 30.1059C17.5938 29.3681 17.1875 28.3872 17.1875 27.3438C17.1875 26.3003 17.5938 25.3195 18.3316 24.5817C19.0694 23.8438 20.0504 23.4375 21.0937 23.4375Z" fill="#00A9DD"/>
<path d="M32.0333 29.3621C33.4127 28.7586 34.3789 27.3807 34.3789 25.7812C34.3789 23.6273 32.6266 21.875 30.4727 21.875H27.3437C26.9123 21.875 26.5625 22.2248 26.5625 22.6562C26.5625 22.6824 26.5638 22.7083 26.5663 22.7339V32.0312C26.5663 32.4627 26.9161 32.8125 27.3476 32.8125C27.779 32.8125 28.1288 32.4627 28.1288 32.0312V23.4375H30.4726C31.7648 23.4375 32.8163 24.489 32.8163 25.7812C32.8163 27.0735 31.7648 28.125 30.4726 28.125C30.1565 28.125 29.8717 28.3153 29.7508 28.6072C29.6299 28.8991 29.6967 29.2353 29.9201 29.4587L33.0451 32.5837C33.1977 32.7362 33.3976 32.8125 33.5976 32.8125C33.7976 32.8125 33.9975 32.7362 34.15 32.5837C34.4552 32.2785 34.4552 31.784 34.15 31.4788L32.0333 29.3621Z" fill="#00A9DD"/>
<path d="M44.7312 21.9C44.3865 21.8111 44.0251 21.9656 43.8522 22.2769L40.6289 28.0788L37.4056 22.2769C37.2327 21.9655 36.8714 21.8105 36.5267 21.9C36.182 21.9893 35.9414 22.3003 35.9414 22.6562V32.0313C35.9414 32.4627 36.2912 32.8125 36.7227 32.8125C37.1541 32.8125 37.5039 32.4627 37.5039 32.0313V25.6712L39.946 30.0669C40.0838 30.315 40.3452 30.4688 40.6289 30.4688C40.9126 30.4688 41.1741 30.315 41.3118 30.0669L43.7539 25.6712V32.0313C43.7539 32.4627 44.1037 32.8125 44.5352 32.8125C44.9666 32.8125 45.3164 32.4627 45.3164 32.0313V22.6562C45.3164 22.3002 45.0758 21.9893 44.7312 21.9Z" fill="#00A9DD"/>
</svg>
