<svg width="42" height="42" viewBox="0 0 42 42" fill="none" xmlns="http://www.w3.org/2000/svg"><g clip-path="url(#clip0)"><path d="M40.8979 32.4011 32.3969 26.7319C31.3181 26.0183 29.8721 26.2531 29.0745 27.2715L26.5983 30.4554C26.28 30.875 25.7016 30.9967 25.2412 30.7409L24.7701 30.4813C23.2087 29.6302 21.2658 28.5706 17.3513 24.6546 13.4367 20.7387 12.375 18.7944 11.5239 17.2358L11.2656 16.7647C11.0064 16.3044 11.1258 15.7235 11.5456 15.4027L14.7272 12.9272C15.7453 12.1296 15.9804 10.6839 15.2676 9.60479L9.59842 1.10384C8.86788.00495264 7.40219-.324928 6.27123.354928L2.71645 2.49029C1.59951 3.14694.780057 4.2104.429918 5.45783-.850154 10.1219.112831 18.1714 11.9705 30.0305 21.403 39.4623 28.4251 41.9987 33.2516 41.9987 34.3624 42.0035 35.4688 41.859 36.5411 41.569 37.7888 41.2193 38.8524 40.3998 39.5086 39.2825L41.6461 35.7298C42.327 34.5986 41.9973 33.132 40.8979 32.4011zM40.4401 35.0117 38.3076 38.5665C37.8364 39.3729 37.0714 39.9658 36.1728 40.221 31.8671 41.4032 24.3446 40.424 12.9608 29.0402 1.57695 17.6564.597893 10.1346 1.78003 5.82814 2.03561 4.92856 2.62926 4.16258 3.43666 3.69064L6.99144 1.55807C7.48216 1.2628 8.1183 1.40592 8.43531 1.88278L11.5149 6.50628 14.0996 10.383C14.4092 10.8511 14.3075 11.4784 13.8659 11.8248L10.6834 14.3003C9.71497 15.0409 9.4384 16.3808 10.0347 17.4443L10.2874 17.9034C11.1819 19.5439 12.294 21.5848 16.3541 25.6443 20.4142 29.7036 22.4544 30.8158 24.0942 31.7102L24.554 31.9636C25.6174 32.5598 26.9574 32.2833 27.698 31.3148L30.1735 28.1324C30.5199 27.6911 31.147 27.5894 31.6153 27.8987L40.1155 33.5678C40.5927 33.8846 40.7358 34.521 40.4401 35.0117z" fill="#00a9dd"/><path d="M23.799 7.00362C30.3672 7.01092 35.6899 12.3337 35.6973 18.9019 35.6973 19.2884 36.0106 19.6018 36.3971 19.6018 36.7837 19.6018 37.097 19.2884 37.097 18.9019 37.0889 11.5609 31.1399 5.61192 23.799 5.60388 23.4124 5.60388 23.0991 5.9172 23.0991 6.30375 23.0991 6.69031 23.4124 7.00362 23.799 7.00362z" fill="#00a9dd"/><path d="M23.799 11.203C28.0489 11.208 31.4929 14.652 31.4979 18.9019 31.4979 19.2885 31.8113 19.6018 32.1977 19.6018 32.5843 19.6018 32.8976 19.2885 32.8976 18.9019 32.8918 13.8792 28.8216 9.80903 23.799 9.80328 23.4124 9.80328 23.0991 10.1166 23.0991 10.5032 23.0991 10.8897 23.4124 11.203 23.799 11.203z" fill="#00a9dd"/><path d="M23.799 15.4024C25.7307 15.4047 27.2961 16.9701 27.2985 18.9019 27.2985 19.2885 27.6119 19.6018 27.9984 19.6018 28.3848 19.6018 28.6982 19.2885 28.6982 18.9019 28.6951 16.1974 26.5035 14.0057 23.799 14.0027 23.4124 14.0027 23.0991 14.316 23.0991 14.7026 23.0991 15.0891 23.4124 15.4024 23.799 15.4024z" fill="#00a9dd"/></g><defs><clipPath id="clip0"><path d="M0 0h42v42H0z" fill="#fff"/></clipPath></defs></svg>