<svg width="50" height="50" viewBox="0 0 50 50" fill="none" xmlns="http://www.w3.org/2000/svg"><path d="M27 20v7H4V20H27z" fill="#74c6ff"/><path d="M42 7l7 7H36V1l6 6z" fill="#74c6ff"/><path d="M3.78781 28.1061H27.1969C27.6515 28.1061 27.9544 27.803 27.9544 27.3485V19.7728C27.9544 19.3182 27.5756 19.0153 27.1969 19.0153H3.78781C3.33323 19.0153 3.03027 19.3183 3.03027 19.7728V27.3485C3.03027 27.803 3.33323 28.1061 3.78781 28.1061zM4.54534 20.5303H26.4393V26.5909H4.54534V20.5303z" fill="#00a9dd"/><path d="M7.42465 29.4697H4.24289C3.7883 29.4697 3.48535 29.7728 3.48535 30.2273V33.3334C3.48535 33.7879 3.78841 34.0909 4.24289 34.0909H7.34899C7.80357 34.0909 8.10652 33.7878 8.10652 33.3334V30.1515C8.18229 29.7728 7.80347 29.4697 7.42465 29.4697zM5.00042 32.5758V30.9091H6.59135V32.5758H5.00042z" fill="#00a9dd"/><path d="M7.42465 35.8334H4.24289C3.7883 35.8334 3.48535 36.1364 3.48535 36.5909V39.7728C3.48535 40.2274 3.78841 40.5303 4.24289 40.5303H7.34899C7.80357 40.5303 8.10652 40.2273 8.10652 39.7728V36.5909C8.18229 36.1364 7.80347 35.8334 7.42465 35.8334zM5.00042 39.0152V37.3485H6.59135V39.0152H5.00042z" fill="#00a9dd"/><path d="M7.42465 42.197H4.24289C3.7883 42.197 3.48535 42.5001 3.48535 42.9546V46.1364C3.48535 46.591 3.78841 46.894 4.24289 46.894H7.34899C7.80357 46.894 8.10652 46.5909 8.10652 46.1364V42.9546C8.18229 42.5758 7.80347 42.197 7.42465 42.197zM5.00042 45.3789V43.7122H6.59135V45.3789H5.00042z" fill="#00a9dd"/><path d="M13.8637 29.4697H10.6819C10.2273 29.4697 9.92432 29.7728 9.92432 30.2273V33.3334C9.92432 33.7879 10.2274 34.0909 10.6819 34.0909H13.8637C14.3183 34.0909 14.6213 33.7878 14.6213 33.3334V30.1515C14.6214 29.7728 14.2425 29.4697 13.8637 29.4697zM13.1062 32.5758H11.4395V30.9091H13.1062V32.5758z" fill="#00a9dd"/><path d="M13.8637 35.8334H10.6819C10.2273 35.8334 9.92432 36.1364 9.92432 36.5909V39.7728C9.92432 40.2274 10.2274 40.5303 10.6819 40.5303H13.8637C14.3183 40.5303 14.6213 40.2273 14.6213 39.7728V36.5909C14.6214 36.1364 14.2425 35.8334 13.8637 35.8334zM13.1062 39.0152H11.4395V37.3485H13.1062V39.0152z" fill="#00a9dd"/><path d="M13.8637 42.197H10.6819C10.2273 42.197 9.92432 42.5001 9.92432 42.9546V46.1364C9.92432 46.591 10.2274 46.894 10.6819 46.894H13.8637C14.3183 46.894 14.6213 46.5909 14.6213 46.1364V42.9546C14.6214 42.5758 14.2425 42.197 13.8637 42.197zM13.1062 45.3789H11.4395V43.7122H13.1062V45.3789z" fill="#00a9dd"/><path d="M20.3031 29.4697H17.197C16.7424 29.4697 16.4395 29.7728 16.4395 30.2273V33.3334C16.4395 33.7879 16.7425 34.0909 17.197 34.0909H20.3031C20.7577 34.0909 21.0606 33.7878 21.0606 33.3334V30.1515C21.0607 29.7728 20.6819 29.4697 20.3031 29.4697zM19.5456 32.5758H17.9546V30.9091H19.5456V32.5758z" fill="#00a9dd"/><path d="M20.3031 35.8334H17.197C16.7424 35.8334 16.4395 36.1364 16.4395 36.5909V39.7728C16.4395 40.2274 16.7425 40.5303 17.197 40.5303H20.3031C20.7577 40.5303 21.0606 40.2273 21.0606 39.7728V36.5909C21.0607 36.1364 20.6819 35.8334 20.3031 35.8334zM19.5456 39.0152H17.9546V37.3485H19.5456V39.0152z" fill="#00a9dd"/><path d="M20.3031 42.197H17.197C16.7424 42.197 16.4395 42.5001 16.4395 42.9546V46.1364C16.4395 46.591 16.7425 46.894 17.197 46.894H20.3031C20.7577 46.894 21.0606 46.5909 21.0606 46.1364V42.9546C21.0607 42.5758 20.6819 42.197 20.3031 42.197zM19.5456 45.3789H17.9546V43.7122H19.5456V45.3789z" fill="#00a9dd"/><path d="M26.6669 29.4697H23.5608C23.1062 29.4697 22.8032 29.7728 22.8032 30.2273V33.3334C22.8032 33.7879 23.1063 34.0909 23.5608 34.0909H26.6669C27.1215 34.0909 27.4244 33.7878 27.4244 33.3334V30.1515C27.4245 29.7728 27.1215 29.4697 26.6669 29.4697zM25.9093 32.5758H24.3184V30.9091H25.9093V32.5758z" fill="#00a9dd"/><path d="M26.6669 35.8334H23.5608C23.1062 35.8334 22.8032 36.1364 22.8032 36.5909V46.1364C22.8032 46.591 23.1063 46.8939 23.5608 46.8939H26.6669C27.1215 46.8939 27.4244 46.5909 27.4244 46.1364V36.5909C27.4245 36.1364 27.1215 35.8334 26.6669 35.8334zM25.9093 45.3789H24.3184V37.3485H25.9093v8.0304z" fill="#00a9dd"/><path d="M49.7727 13.1818 36.2879.227291C36.1364.0757635 35.9091.0 35.7576.0H9.69693C9.24234.0 8.93939.303054 8.93939.757535V15.7575H.757535C.302953 15.7575.0 16.0606.0 16.515V49.2424C0 49.6969.303054 49.9999.757535 49.9999 1.21202 49.9999 2.72719 49.9999 49.2424 49.9999 49.6969 49.9999 49.9999 49.6968 49.9999 49.2424 49.9999 46.0605 49.9999 56.1363 49.9999 13.7121 50 13.5606 49.9242 13.2576 49.7727 13.1818zM36.5152 2.49999 47.3485 12.8788H36.5152V2.49999zM29.4697 48.4848H1.51517V17.2728H29.4697v31.212zm19.0151.0H30.9849V16.5151C30.9849 16.0606 30.6818 15.7576 30.2273 15.7576H10.4546V1.51517H35V13.7122C35 14.1668 35.3031 14.4697 35.7576 14.4697H48.4848C48.4848 40.4546 48.4848 48.1061 48.4848 48.4848z" fill="#00a9dd"/><path d="M29.7724 4.77271H14.5451C14.0906 4.77271 13.7876 5.07576 13.7876 5.53024 13.7876 5.98472 14.0907 6.28778 14.5451 6.28778H29.7724C30.227 6.28778 30.5299 5.98472 30.5299 5.53024 30.5299 5.07576 30.227 4.77271 29.7724 4.77271z" fill="#00a9dd"/><path d="M29.7724 9.24243H14.5451C14.0906 9.24243 13.7876 9.54549 13.7876 9.99997 13.7876 10.4544 14.0907 10.7575 14.5451 10.7575H29.7724C30.227 10.7575 30.5299 10.4544 30.5299 9.99997 30.5299 9.54549 30.227 9.24243 29.7724 9.24243z" fill="#00a9dd"/><path d="M34.8489 25.9091c-.07580000000000098.0.0.0.0.07580000000000098L31.7428 32.5758C31.5912 32.8789 31.667 33.2576 31.97 33.4849 32.1973 33.7122 32.5762 33.7122 32.8791 33.5606L38.8639 29.4697 38.9397 29.3939C38.9397 29.3939 39.0155 29.3939 39.0155 29.3182L47.3488 19.5455C48.3337 18.4091 48.1821 16.7424 47.0458 15.7576 46.5912 15.3788 45.9852 15.1516 45.3033 15.1516 44.5458 15.1516 43.7881 15.4547 43.2579 16.0607L34.9245 25.8334C34.9246 25.8334 34.9246 25.9091 34.8489 25.9091zM44.47 17.0455C44.8488 16.5909 45.6064 16.5152 46.061 16.894 46.5913 17.3486 46.5913 18.0303 46.2125 18.5607L38.3337 27.7273 36.5912 26.2122 44.47 17.0455zM37.1973 28.7122 34.3185 30.6818 35.8337 27.5 37.1973 28.7122z" fill="#00a9dd"/></svg>