<svg width="48" height="42" viewBox="0 0 48 42" fill="none" xmlns="http://www.w3.org/2000/svg">
<path d="M40.5 32L43 36L5 36L7.5 32L40.5 32Z" fill="#74C6FF"/>
<path d="M41.5 5.25H6.50003C4.56967 5.25 3 6.81967 3 8.75003V33.2501C3 35.1803 4.56967 36.75 6.50003 36.75H41.5001C43.4303 36.75 45 35.1803 45 33.25V8.75003C45 6.81967 43.4303 5.25 41.5 5.25ZM6.50003 6.99997H41.5001C41.629 6.99997 41.7426 7.04698 41.8636 7.07355C38.8335 9.84679 28.7859 19.0386 25.2698 22.2065C24.9947 22.4543 24.5513 22.75 24.0001 22.75C23.4489 22.75 23.0055 22.4543 22.7294 22.2057C19.2136 19.0382 9.16555 9.84596 6.13589 7.07372C6.25713 7.04714 6.37099 6.99997 6.50003 6.99997ZM4.74997 33.25V8.75003C4.74997 8.57858 4.80165 8.42305 4.84792 8.26637C7.16711 10.389 14.1778 16.8025 18.7237 20.9363C14.1926 24.8285 7.18007 31.4769 4.84242 33.7061C4.80116 33.5573 4.74997 33.4117 4.74997 33.25ZM41.5 35H6.50003C6.36025 35 6.23597 34.9513 6.10546 34.9201C8.52103 32.6173 15.5782 25.9307 20.0296 22.1225C20.6099 22.6489 21.14 23.1289 21.5578 23.5054C22.2791 24.1566 23.1233 24.5 24 24.5C24.8767 24.5 25.7209 24.1565 26.4412 23.5062C26.8593 23.1295 27.3898 22.6492 27.9704 22.1225C32.4221 25.9302 39.4782 32.6164 41.8945 34.9201C41.764 34.9513 41.6399 35 41.5 35ZM43.25 33.25C43.25 33.4117 43.1988 33.5573 43.1577 33.7061C40.8191 31.4758 33.8074 24.8281 29.2764 20.9364C33.8224 16.8026 40.8321 10.3897 43.1521 8.26621C43.1983 8.42289 43.25 8.5785 43.25 8.74995V33.25Z" fill="#00A9DD"/>
</svg>
