<svg width="50" height="50" viewBox="0 0 50 50" fill="none" xmlns="http://www.w3.org/2000/svg">
<path d="M33.3332 4.16663H16.6665V5.83329H33.3332V4.16663Z" fill="#00A9DD"/>
<path d="M41.2502 31.25C41.2502 29.6418 39.9415 28.3333 38.3335 28.3333H36.6668V16.6666H35.0002V28.3333H32.9168C31.3087 28.3333 30.0002 29.6419 30.0002 31.25C30.0002 32.0664 30.3395 32.8033 30.882 33.3333C30.3395 33.8633 30.0002 34.6002 30.0002 35.4166C30.0002 35.9784 30.1674 36.4989 30.4438 36.9445C29.4469 37.4088 28.7502 38.4133 28.7502 39.5833C28.7502 40.0324 28.8607 40.453 29.0428 40.8333H22.5002C22.5002 38.2853 21.2233 36.0303 19.2759 34.6744C21.159 33.9566 22.5002 32.1321 22.5002 30C22.5002 29.5398 22.1275 29.1666 21.6668 29.1666H15.0002V20.8333H13.3335V29.1666C11.955 29.1666 10.8335 30.2881 10.8335 31.6666V50H12.5002V31.6666C12.5002 31.2073 12.8737 30.8333 13.3335 30.8333H20.7277C20.3574 32.2692 19.0504 33.3333 17.5002 33.3333H15.0002C14.5395 33.3333 14.1668 33.7064 14.1668 34.1666C14.1668 34.6268 14.5395 35 15.0002 35C18.2163 35 20.8335 37.6167 20.8335 40.8333V41.6666C20.8335 42.1268 21.2062 42.5 21.6668 42.5H26.5428C26.3607 42.8803 26.2502 43.3009 26.2502 43.75C26.2502 45.3581 27.5588 46.6666 29.1668 46.6666V50H30.8335V46.6666H34.1668H34.5835C36.1916 46.6666 37.5002 45.358 37.5002 43.75C37.5002 43.2961 37.3869 42.8715 37.2011 42.4881C38.7537 42.4247 40.0002 41.1511 40.0002 39.5833C40.0002 39.0215 39.833 38.501 39.5565 38.0554C40.5534 37.5911 41.2502 36.5866 41.2502 35.4166C41.2502 34.6002 40.9108 33.8633 40.3683 33.3333C40.9108 32.8033 41.2502 32.0664 41.2502 31.25ZM34.5835 45H34.1668H30.0002H29.1668C28.4776 45 27.9168 44.4392 27.9168 43.75C27.9168 43.0607 28.4776 42.5 29.1668 42.5H31.6668H34.5835C35.2728 42.5 35.8335 43.0607 35.8335 43.75C35.8335 44.4392 35.2728 45 34.5835 45ZM37.0835 40.8333H34.5835H31.6668C30.9776 40.8333 30.4168 40.2726 30.4168 39.5833C30.4168 38.894 30.9776 38.3333 31.6668 38.3333H32.9168H37.0835C37.7728 38.3333 38.3335 38.894 38.3335 39.5833C38.3335 40.2726 37.7728 40.8333 37.0835 40.8333ZM38.3335 36.6666H37.0835H32.9168C32.2276 36.6666 31.6668 36.1059 31.6668 35.4166C31.6668 34.7274 32.2276 34.1666 32.9168 34.1666H38.3335C39.0228 34.1666 39.5835 34.7274 39.5835 35.4166C39.5835 36.1059 39.0228 36.6666 38.3335 36.6666ZM38.3335 32.5H32.9168C32.2276 32.5 31.6668 31.9392 31.6668 31.25C31.6668 30.5607 32.2276 30 32.9168 30H38.3335C39.0228 30 39.5835 30.5607 39.5835 31.25C39.5835 31.9392 39.0228 32.5 38.3335 32.5Z" fill="#00A9DD"/>
<path d="M12.4973 10.6071C12.4802 10.3678 12.3614 10.1473 12.1701 10.0024L11.3026 9.34479C11.0951 8.29427 10.173 7.5 9.07031 7.5C7.82604 7.5 6.81115 8.51156 6.7949 9.76115C6.12917 9.64479 5.49281 9.38927 4.92312 9.00552L4.6326 8.80938C4.37792 8.63729 4.0475 8.61854 3.7749 8.76417C3.50312 8.90865 3.33302 9.19187 3.33302 9.4999V10.1835C3.33302 11.1878 3.63573 12.1456 4.19729 12.9501L3.57396 13.5808C3.33719 13.8197 3.26792 14.1774 3.3974 14.4878C3.52667 14.7978 3.83021 15 4.16635 15H8.20448C9.815 15 11.1464 13.7724 11.3254 12.1969L12.2589 11.2525C12.4273 11.082 12.5144 10.8468 12.4973 10.6071ZM9.9199 11.2476C9.76531 11.4034 9.67896 11.6143 9.67896 11.8335C9.67896 12.6604 9.01729 13.3333 8.20437 13.3333H6.08448C6.21635 13.0298 6.15937 12.6635 5.91281 12.4142C5.52385 12.0203 5.24552 11.5247 5.10469 10.9904C5.89979 11.3257 6.75427 11.4999 7.62833 11.4999C8.08896 11.4999 8.46167 11.1268 8.46167 10.6666V9.79167C8.46167 9.44698 8.7351 9.16667 9.07042 9.16667C9.40573 9.16667 9.67917 9.44698 9.67917 9.79167C9.67917 10.0525 9.80125 10.2982 10.0087 10.4557L10.4059 10.7565L9.9199 11.2476Z" fill="#00A9DD"/>
<path d="M31 10L31 23L19 23L19 10L31 10Z" fill="#74C6FF"/>
<path d="M27.5 14.1667V12.5H25C24.5394 12.5 24.1667 12.8731 24.1667 13.3333V15.8333H22.5V17.5H24.1667V20.8333H25.8333V17.5H27.5V15.8333H25.8333V14.1667H27.5Z" fill="white"/>
<path d="M30 9.16663H20C18.6215 9.16663 17.5 10.2881 17.5 11.6666V21.6666C17.5 23.0452 18.6215 24.1666 20 24.1666H30C31.3785 24.1666 32.5 23.0452 32.5 21.6666V11.6666C32.5 10.2881 31.3785 9.16663 30 9.16663ZM30.8333 21.6666C30.8333 22.126 30.4598 22.5 30 22.5H20C19.5402 22.5 19.1667 22.126 19.1667 21.6666V11.6666C19.1667 11.2073 19.5402 10.8333 20 10.8333H30C30.4598 10.8333 30.8333 11.2073 30.8333 11.6666V21.6666Z" fill="#00A9DD"/>
<path d="M12.5 4.16663H2.5C1.12146 4.16663 0 5.28808 0 6.66663V16.6666C0 18.0452 1.12146 19.1666 2.5 19.1666H12.5C13.8785 19.1666 15 18.0452 15 16.6666V6.66663C15 5.28808 13.8785 4.16663 12.5 4.16663ZM13.3333 16.6666C13.3333 17.126 12.9598 17.5 12.5 17.5H2.5C2.04021 17.5 1.66667 17.126 1.66667 16.6666V6.66663C1.66667 6.20725 2.04021 5.83329 2.5 5.83329H12.5C12.9598 5.83329 13.3333 6.20725 13.3333 6.66663V16.6666Z" fill="#00A9DD"/>
<path d="M47.5 0H37.5C36.1215 0 35 1.12146 35 2.5V12.5C35 13.8785 36.1215 15 37.5 15H47.5C48.8785 15 50 13.8785 50 12.5V2.5C50 1.12146 48.8785 0 47.5 0ZM48.3333 12.5C48.3333 12.9594 47.9598 13.3333 47.5 13.3333H37.5C37.0402 13.3333 36.6667 12.9594 36.6667 12.5V8.33333H38.4176C38.8048 10.2327 40.488 11.6667 42.5 11.6667C44.512 11.6667 46.1952 10.2327 46.5824 8.33333H48.3333V12.5ZM40 7.5C40 6.12146 41.1215 5 42.5 5C43.8785 5 45 6.12146 45 7.5C45 8.87854 43.8785 10 42.5 10C41.1215 10 40 8.87854 40 7.5ZM48.3333 6.66667H46.5824C46.1952 4.76729 44.512 3.33333 42.5 3.33333C40.488 3.33333 38.8048 4.76729 38.4176 6.66667H36.6667V2.5C36.6667 2.04063 37.0402 1.66667 37.5 1.66667H47.5C47.9598 1.66667 48.3333 2.04063 48.3333 2.5V6.66667Z" fill="#00A9DD"/>
<path d="M25.8332 34.1666H24.1665V35.8333H25.8332V34.1666Z" fill="#00A9DD"/>
</svg>
