<svg width="50" height="50" viewBox="0 0 50 50" fill="none" xmlns="http://www.w3.org/2000/svg">
<path d="M45.3125 1.5625H4.6875C3.85898 1.56343 3.06467 1.89297 2.47882 2.47882C1.89297 3.06467 1.56343 3.85898 1.5625 4.6875V45.3125C1.56343 46.141 1.89297 46.9353 2.47882 47.5212C3.06467 48.107 3.85898 48.4366 4.6875 48.4375H45.3125C46.141 48.4366 46.9353 48.107 47.5212 47.5212C48.107 46.9353 48.4366 46.141 48.4375 45.3125V4.6875C48.4366 3.85898 48.107 3.06467 47.5212 2.47882C46.9353 1.89297 46.141 1.56343 45.3125 1.5625ZM4.6875 3.125H45.3125C45.7267 3.12549 46.1239 3.29027 46.4168 3.58319C46.7097 3.87611 46.8745 4.27325 46.875 4.6875V7.8125H3.125V4.6875C3.12549 4.27325 3.29027 3.87611 3.58319 3.58319C3.87611 3.29027 4.27325 3.12549 4.6875 3.125ZM45.3125 46.875H4.6875C4.27325 46.8745 3.87611 46.7097 3.58319 46.4168C3.29027 46.1239 3.12549 45.7267 3.125 45.3125V9.375H46.875V45.3125C46.8745 45.7267 46.7097 46.1239 46.4168 46.4168C46.1239 46.7097 45.7267 46.8745 45.3125 46.875Z" fill="#00A9DD"/>
<path d="M4.6875 4.6875H6.25V6.25H4.6875V4.6875Z" fill="#00A9DD"/>
<path d="M7.8125 4.6875H9.375V6.25H7.8125V4.6875Z" fill="#00A9DD"/>
<path d="M10.9375 4.6875H12.5V6.25H10.9375V4.6875Z" fill="#00A9DD"/>
<path d="M44 13L44 23L33.4783 23L33 13L44 13Z" fill="#74C6FF"/>
<path d="M43.75 11.7188H32.8125C32.6053 11.7188 32.4066 11.8011 32.2601 11.9476C32.1136 12.0941 32.0312 12.2928 32.0312 12.5V23.4375C32.0312 23.6447 32.1136 23.8434 32.2601 23.9899C32.4066 24.1364 32.6053 24.2188 32.8125 24.2188H43.75C43.9572 24.2188 44.1559 24.1364 44.3024 23.9899C44.4489 23.8434 44.5312 23.6447 44.5312 23.4375V12.5C44.5312 12.2928 44.4489 12.0941 44.3024 11.9476C44.1559 11.8011 43.9572 11.7188 43.75 11.7188ZM36.7188 13.2812H39.8438V15.625H36.7188V13.2812ZM42.9688 22.6562H33.5938V13.2812H35.1562V16.4062C35.1562 16.6135 35.2386 16.8122 35.3851 16.9587C35.5316 17.1052 35.7303 17.1875 35.9375 17.1875H40.625C40.8322 17.1875 41.0309 17.1052 41.1774 16.9587C41.3239 16.8122 41.4062 16.6135 41.4062 16.4062V13.2812H42.9688V22.6562Z" fill="#00A9DD"/>
<path d="M39.8438 19.5312H41.4062V21.0938H39.8438V19.5312Z" fill="#00A9DD"/>
<path d="M18.75 22.6563C18.8526 22.6564 18.9543 22.6363 19.0491 22.597C19.1439 22.5577 19.23 22.5001 19.3024 22.4274C19.4395 22.2905 22.6562 19.0344 22.6562 15.625C22.6562 14.589 22.2447 13.5954 21.5121 12.8629C20.7796 12.1303 19.786 11.7188 18.75 11.7188C17.714 11.7188 16.7204 12.1303 15.9879 12.8629C15.2553 13.5954 14.8438 14.589 14.8438 15.625C14.8438 19.0344 18.0605 22.2905 18.1976 22.4274C18.27 22.5001 18.3561 22.5577 18.4509 22.597C18.5457 22.6363 18.6474 22.6564 18.75 22.6563ZM18.75 13.2813C19.3714 13.282 19.9671 13.5291 20.4065 13.9685C20.8459 14.4079 21.093 15.0036 21.0938 15.625C21.0938 17.6222 19.5905 19.699 18.75 20.7041C17.9093 19.6987 16.4062 17.622 16.4062 15.625C16.407 15.0036 16.6541 14.4079 17.0935 13.9685C17.5329 13.5291 18.1286 13.282 18.75 13.2813Z" fill="#00A9DD"/>
<path d="M18.75 25.7812C21.8164 25.7812 24.2188 24.0654 24.2188 21.8749C24.2188 21.1348 23.9355 20.4174 23.4005 19.8004L22.2202 20.8244C22.5098 21.1578 22.6562 21.5113 22.6562 21.8749C22.6562 23.1454 20.8675 24.2187 18.75 24.2187C16.6325 24.2187 14.8438 23.1454 14.8438 21.8749C14.8438 21.5113 14.9902 21.1578 15.2798 20.8244L14.0995 19.8004C13.5645 20.4174 13.2812 21.1348 13.2812 21.8749C13.2812 24.0654 15.6836 25.7812 18.75 25.7812Z" fill="#00A9DD"/>
<path d="M32.0312 38.2813C32.1339 38.2814 32.2355 38.2613 32.3303 38.222C32.4251 38.1827 32.5112 38.1251 32.5837 38.0524C32.7207 37.9155 35.9375 34.6594 35.9375 31.25C35.9375 30.214 35.5259 29.2204 34.7934 28.4879C34.0608 27.7553 33.0673 27.3438 32.0312 27.3438C30.9952 27.3438 30.0017 27.7553 29.2691 28.4879C28.5366 29.2204 28.125 30.214 28.125 31.25C28.125 34.6594 31.3418 37.9155 31.4788 38.0524C31.5513 38.1251 31.6374 38.1827 31.7322 38.222C31.827 38.2613 31.9286 38.2814 32.0312 38.2813ZM32.0312 28.9063C32.6526 28.907 33.2484 29.1541 33.6877 29.5935C34.1271 30.0329 34.3743 30.6286 34.375 31.25C34.375 33.2472 32.8718 35.324 32.0312 36.3291C31.1905 35.3232 29.6875 33.247 29.6875 31.25C29.6882 30.6286 29.9354 30.0329 30.3748 29.5935C30.8141 29.1541 31.4099 28.907 32.0312 28.9063Z" fill="#00A9DD"/>
<path d="M32.0312 41.4063C35.0977 41.4063 37.5 39.6905 37.5 37.5C37.5 36.7599 37.2168 36.0425 36.6817 35.4255L35.5015 36.4496C35.791 36.783 35.9375 37.1364 35.9375 37.5C35.9375 38.7706 34.1487 39.8438 32.0312 39.8438C29.9138 39.8438 28.125 38.7706 28.125 37.5C28.125 37.1364 28.2715 36.783 28.561 36.4496L27.3808 35.4255C26.8457 36.0425 26.5625 36.7599 26.5625 37.5C26.5625 39.6905 28.9648 41.4063 32.0312 41.4063Z" fill="#00A9DD"/>
<path d="M24.2188 15.625H27.3438V17.1875H24.2188V15.625Z" fill="#00A9DD"/>
<path d="M28.9062 15.625H30.4688V17.1875H28.9062V15.625Z" fill="#00A9DD"/>
<path d="M19.5312 36.7188H20.3125C20.4312 36.7187 20.5484 36.6917 20.6551 36.6396C20.7618 36.5876 20.8552 36.5119 20.9283 36.4183C21.0013 36.3247 21.0521 36.2157 21.0767 36.0996C21.1014 35.9834 21.0992 35.8632 21.0704 35.748L20.2892 32.623C20.2469 32.454 20.1494 32.304 20.012 32.1967C19.8747 32.0895 19.7055 32.0313 19.5312 32.0312H7.03125C6.85702 32.0313 6.68779 32.0895 6.55046 32.1967C6.41313 32.304 6.31559 32.454 6.27334 32.623L5.49209 35.748C5.4633 35.8632 5.46114 35.9834 5.48577 36.0996C5.5104 36.2157 5.56117 36.3247 5.63424 36.4183C5.7073 36.5119 5.80073 36.5876 5.90742 36.6396C6.01412 36.6917 6.13128 36.7187 6.25 36.7188H7.03125V42.9688H5.46875V44.5312H21.0938V42.9688H19.5312V36.7188ZM7.64121 33.5938H18.9213L19.3119 35.1562H7.25059L7.64121 33.5938ZM8.59375 36.7188H17.9688V42.9688H15.625V41.4062C15.625 40.7846 15.3781 40.1885 14.9385 39.749C14.499 39.3094 13.9029 39.0625 13.2812 39.0625C12.6596 39.0625 12.0635 39.3094 11.624 39.749C11.1844 40.1885 10.9375 40.7846 10.9375 41.4062V42.9688H8.59375V36.7188ZM14.0625 42.9688H12.5V41.4062C12.5 41.199 12.5823 41.0003 12.7288 40.8538C12.8753 40.7073 13.074 40.625 13.2812 40.625C13.4885 40.625 13.6872 40.7073 13.8337 40.8538C13.9802 41.0003 14.0625 41.199 14.0625 41.4062V42.9688Z" fill="#00A9DD"/>
<path d="M11.9496 29.1444L27.3109 29.7845L27.376 28.2233L12.0147 27.5833C10.6558 27.5262 9.37334 26.9389 8.4423 25.9475C7.51125 24.956 7.0057 23.6392 7.03402 22.2794C7.06234 20.9196 7.62228 19.625 8.59379 18.6732C9.56531 17.7213 10.8711 17.188 12.2312 17.1875H13.2811V15.625H12.2312C10.4624 15.6256 8.76418 16.3191 7.5007 17.557C6.23721 18.7949 5.509 20.4785 5.47217 22.2469C5.43534 24.0153 6.09284 25.7278 7.30369 27.0172C8.51454 28.3065 10.1824 29.0702 11.9496 29.1444Z" fill="#00A9DD"/>
<path d="M36.9043 28.6204L36.7519 28.614L36.6864 30.1751L36.8391 30.1816C38.5101 30.2526 40.0869 30.9752 41.2315 32.1947C42.3762 33.4142 42.9976 35.0336 42.9628 36.7057C42.9279 38.3779 42.2394 39.9699 41.0449 41.1406C39.8504 42.3113 38.2448 42.9676 36.5723 42.9688H25.7812V44.5313H36.5723C38.6539 44.5307 40.6525 43.7145 42.1395 42.2577C43.6266 40.801 44.4837 38.8196 44.5271 36.7384C44.5705 34.6571 43.7968 32.6417 42.3719 31.1242C40.9469 29.6067 38.9841 28.7078 36.9043 28.6204Z" fill="#00A9DD"/>
<path d="M22.6562 42.9688H24.2188V44.5312H22.6562V42.9688Z" fill="#00A9DD"/>
</svg>
