<svg width="50" height="50" viewBox="0 0 50 50" fill="none" xmlns="http://www.w3.org/2000/svg"><path d="M30 10v5L4 15.5 3.41903 10H30z" fill="#74c6ff"/><path d="M45.2031 32.4141 42.8594 28.5078C42.7996 28.4064 42.7166 28.3207 42.6172 28.2578L40.625 26.9219V22.6562C40.6243 22.3834 40.5517 22.1155 40.4146 21.8796 40.2774 21.6437 40.0805 21.4481 39.8438 21.3125V3.90625C39.8419 3.28522 39.5944 2.69015 39.1552 2.25102 38.7161 1.81188 38.121 1.56435 37.5 1.5625H18.75C18.129 1.56435 17.5339 1.81188 17.0948 2.25102 16.6556 2.69015 16.4081 3.28522 16.4062 3.90625v4.6875H4.6875C4.27348 8.59499 3.87677 8.76 3.58401 9.05276 3.29125 9.34552 3.12624 9.74223 3.125 10.1562v4.6876C3.12624 15.2578 3.29125 15.6545 3.58401 15.9472 3.87677 16.24 4.27348 16.405 4.6875 16.4062H16.4062v21.875C16.4081 38.9023 16.6556 39.4973 17.0948 39.9365 17.5339 40.3756 18.129 40.6231 18.75 40.625H35.1328L35.1562 40.7188V43.75H34.375C34.1678 43.75 33.9691 43.8323 33.8226 43.9788 33.6761 44.1253 33.5938 44.3241 33.5938 44.5312v3.125C33.5938 47.8634 33.6761 48.0622 33.8226 48.2087 33.9691 48.3552 34.1678 48.4375 34.375 48.4375H43.75C43.9572 48.4375 44.1559 48.3552 44.3024 48.2087 44.4489 48.0622 44.5312 47.8634 44.5312 47.6562v-3.125C44.5312 44.3241 44.4489 44.1253 44.3024 43.9788 44.1559 43.8323 43.9572 43.75 43.75 43.75H42.9688V42.4453L45.1562 39.5312C45.2585 39.3965 45.3134 39.2317 45.3125 39.0625v-6.25C45.3125 32.6723 45.2747 32.5347 45.2031 32.4141zM11.7188 14.8438H4.6875V10.1562h7.0313v4.6876zM13.2812 14.8438V10.1562H27.3438C27.9654 10.1562 28.5615 10.4032 29.001 10.8427 29.4406 11.2823 29.6875 11.8784 29.6875 12.5 29.6875 13.1216 29.4406 13.7177 29.001 14.1573 28.5615 14.5968 27.9654 14.8438 27.3438 14.8438H13.2812zM27.3438 8.59375H25.5391C26.2453 8.12527 27.0654 7.85703 27.912 7.81758 28.7586 7.77813 29.6 7.96894 30.3468 8.36972 31.0936 8.77049 31.7177 9.36622 32.1528 10.0935 32.5879 10.8208 32.8177 11.6525 32.8177 12.5 32.8177 13.3475 32.5879 14.1792 32.1528 14.9065 31.7177 15.6338 31.0936 16.2295 30.3468 16.6303 29.6 17.0311 28.7586 17.2219 27.912 17.1824 27.0654 17.143 26.2453 16.8747 25.5391 16.4062H27.3438C28.3798 16.4062 29.3733 15.9947 30.1059 15.2621 30.8384 14.5296 31.25 13.536 31.25 12.5 31.25 11.464 30.8384 10.4704 30.1059 9.73786 29.3733 9.0053 28.3798 8.59375 27.3438 8.59375zM18.75 39.0625C18.5428 39.0625 18.3441 38.9802 18.1976 38.8337 18.0511 38.6872 17.9688 38.4884 17.9688 38.2812V16.4062H23.2656C24.0749 17.4171 25.1782 18.1516 26.423 18.5082 27.6678 18.8649 28.9927 18.8261 30.2145 18.3973 31.4363 17.9684 32.4947 17.1707 33.2435 16.1142 33.9923 15.0578 34.3945 13.7949 34.3945 12.5 34.3945 11.2051 33.9923 9.94219 33.2435 8.88577 32.4947 7.82935 31.4363 7.03158 30.2145 6.60273 28.9927 6.17387 27.6678 6.1351 26.423 6.49176 25.1782 6.84843 24.0749 7.58293 23.2656 8.59375H17.9688V3.90625C17.9688 3.69905 18.0511 3.50034 18.1976 3.35382 18.3441 3.20731 18.5428 3.125 18.75 3.125H37.5C37.7072 3.125 37.9059 3.20731 38.0524 3.35382 38.1989 3.50034 38.2812 3.69905 38.2812 3.90625V21.0938H31.8906C31.7031 20.5771 31.34 20.1427 30.8647 19.8666 30.3895 19.5905 29.8323 19.4902 29.2905 19.5833 28.7488 19.6764 28.257 19.9569 27.9012 20.3758 27.5453 20.7947 27.348 21.3254 27.3438 21.875V35.9375C27.348 36.4871 27.5453 37.0178 27.9012 37.4367 28.257 37.8556 28.7488 38.1361 29.2905 38.2292 29.8323 38.3223 30.3895 38.222 30.8647 37.9459 31.34 37.6698 31.7031 37.2354 31.8906 36.7188H34L34.4141 37.7422 34.7422 39.0625H18.75zM39.0625 22.6562V34.0547L37.4922 32.4766C37.0716 32.066 36.5228 31.8122 35.9375 31.7578V22.6562h3.125zm-4.6875.0v9.4844L34.3281 32.1641C34.0318 32.3675 33.7816 32.631 33.5938 32.9375V22.6562H34.375zM32.0312 22.6562v12.5H31.25v-12.5H32.0312zM30.3047 36.3906C30.2357 36.4908 30.1436 36.5729 30.0361 36.63 29.9287 36.6871 29.8091 36.7176 29.6875 36.7188 29.4803 36.7188 29.2816 36.6364 29.1351 36.4899 28.9886 36.3434 28.9062 36.1447 28.9062 35.9375V21.875C28.9062 21.6678 28.9886 21.4691 29.1351 21.3226 29.2816 21.1761 29.4803 21.0938 29.6875 21.0938 29.8091 21.0949 29.9287 21.1254 30.0361 21.1825 30.1436 21.2396 30.2357 21.3217 30.3047 21.4219 30.1126 21.5652 29.9567 21.7515 29.8496 21.9658 29.7424 22.1801 29.6869 22.4166 29.6875 22.6562v12.5C29.6869 35.3959 29.7424 35.6324 29.8496 35.8467 29.9567 36.061 30.1126 36.2473 30.3047 36.3906zM42.9688 46.875H35.1562V45.3125H42.9688V46.875zM43.75 38.8047 41.5625 41.7188C41.4603 41.8535 41.4053 42.0183 41.4062 42.1875V43.75H36.7188V40.625C36.7187 40.5618 36.7108 40.4988 36.6953 40.4375L35.9141 37.3125C35.9083 37.2774 35.8978 37.2432 35.8828 37.2109L34.8359 34.6016C34.7575 34.3997 34.7507 34.1769 34.8167 33.9706 34.8827 33.7643 35.0175 33.5869 35.1985 33.468 35.3796 33.3491 35.596 33.296 35.8115 33.3174 36.0271 33.3389 36.2287 33.4337 36.3828 33.5859l2.125 2.125C38.6568 35.8548 38.8554 35.936 39.0625 35.9375H41.4062V34.375H40.625V28.8047L41.6094 29.4609 43.75 33.0312V38.8047z" fill="#00a9dd"/><path d="M20.3125 34.375H18.75V37.5C18.75 37.7072 18.8323 37.9059 18.9788 38.0524 19.1253 38.1989 19.324 38.2812 19.5312 38.2812h3.125V36.7188H20.3125V34.375z" fill="#00a9dd"/><path d="M20.3125 31.25H18.75v1.5625h1.5625V31.25z" fill="#00a9dd"/></svg>