<svg width="50" height="50" viewBox="0 0 50 50" fill="none" xmlns="http://www.w3.org/2000/svg"><path d="M13.2812 43.75H11.7188v1.5625H13.2812V43.75z" fill="#00a9dd"/><path d="M16 23V48H1V23H16z" fill="#74c6ff"/><path d="M29.6875 34.375H16.4062V22.6562C16.4062 22.449 16.3239 22.2503 16.1774 22.1038 16.0309 21.9573 15.8322 21.875 15.625 21.875H1.5625C1.3553 21.875 1.15659 21.9573 1.01007 22.1038.86356 22.2503.78125 22.449.78125 22.6562v25C.78125 47.8635.86356 48.0622 1.01007 48.2087 1.15659 48.3552 1.3553 48.4375 1.5625 48.4375h28.125C29.8947 48.4375 30.0934 48.3552 30.2399 48.2087 30.3864 48.0622 30.4688 47.8635 30.4688 47.6562v-12.5C30.4688 34.949 30.3864 34.7503 30.2399 34.6038 30.0934 34.4573 29.8947 34.375 29.6875 34.375zM21.0938 35.9375h3.125v3.125h-3.125v-3.125zM7.03125 23.4375H10.1562v3.125H7.03125v-3.125zm-4.6875.0h3.125V27.3438C5.46875 27.551 5.55106 27.7497 5.69757 27.8962 5.84409 28.0427 6.0428 28.125 6.25 28.125h4.6875C11.1447 28.125 11.3434 28.0427 11.4899 27.8962 11.6364 27.7497 11.7188 27.551 11.7188 27.3438V23.4375h3.125V34.375H2.34375V23.4375zm4.6875 12.5H10.1562v3.125H7.03125v-3.125zm-4.6875.0h3.125V39.8438C5.46875 40.051 5.55106 40.2497 5.69757 40.3962 5.84409 40.5427 6.0428 40.625 6.25 40.625h4.6875C11.1447 40.625 11.3434 40.5427 11.4899 40.3962 11.6364 40.2497 11.7188 40.051 11.7188 39.8438V35.9375h3.125V46.875H2.34375V35.9375zM28.9062 46.875h-12.5V35.9375h3.125V39.8438C19.5312 40.051 19.6136 40.2497 19.7601 40.3962 19.9066 40.5427 20.1053 40.625 20.3125 40.625H25C25.2072 40.625 25.4059 40.5427 25.5524 40.3962 25.6989 40.2497 25.7812 40.051 25.7812 39.8438V35.9375h3.125V46.875z" fill="#00a9dd"/><path d="M27.3438 43.75H25.7812v1.5625H27.3438V43.75z" fill="#00a9dd"/><path d="M13.2812 31.25H11.7188v1.5625H13.2812V31.25z" fill="#00a9dd"/><path d="M46.6918 10.9157C46.7518 10.9302 46.8134 10.9376 46.8751 10.9375 47.012 10.9374 47.1465 10.9014 47.2652 10.8332 47.3838 10.7649 47.4826 10.6668 47.5515 10.5485 47.6224 10.4236 47.6586 10.2819 47.6564 10.1383V7.03128C47.6563 6.85597 47.5974 6.68576 47.4889 6.54802 47.3805 6.41029 47.2288 6.31303 47.0584 6.2719L24.4022.803151C24.2817.77395 24.156.77395 24.0356.803151L1.37931 6.2719C1.20889 6.31303 1.05726 6.41029.948807 6.54802.840351 6.68576.781373 6.85597.781358 7.03128V10.1341C.778688 10.2977.825454 10.4583.915538 10.5949 1.00493 10.7263 1.13225 10.8274 1.28053 10.8847 1.42882 10.942 1.59105 10.9528 1.74562 10.9157L3.12511 10.5827v9.7298H4.68761V10.2056L24.2189 5.49114 43.7501 10.2056V46.875H39.0626V16.4063C39.0626 16.1991 38.9803 16.0004 38.8338 15.8538 38.6873 15.7073 38.4886 15.625 38.2814 15.625H10.1564C9.94916 15.625 9.75044 15.7073 9.60393 15.8538 9.45742 16.0004 9.37511 16.1991 9.37511 16.4063v3.125C9.37511 19.7385 9.45742 19.9372 9.60393 20.0837 9.75044 20.2302 9.94916 20.3125 10.1564 20.3125H37.5001V21.875H17.9689v1.5625H37.5001V25H17.9689v1.5625H37.5001V28.125H17.9689v1.5625H37.5001V46.875H32.0314v1.5625h15.625V46.875H45.3126V10.5827L46.6918 10.9157zM10.9376 18.75V17.1875H37.5001V18.75H10.9376zM24.2189 3.90628C24.1571 3.90625 24.0956 3.91359 24.0356 3.92815L2.34386 9.16399V7.64651L24.2189 2.36624 46.0939 7.64651V9.16409L24.4022 3.92815C24.3421 3.91359 24.2806 3.90625 24.2189 3.90628z" fill="#00a9dd"/><path d="M25.7812 13.2812C26.4029 13.2812 26.999 13.0343 27.4385 12.5948 27.8781 12.1552 28.125 11.5591 28.125 10.9375 28.125 10.3159 27.8781 9.71976 27.4385 9.28022 26.999 8.84068 26.4029 8.59375 25.7812 8.59375h-3.125C22.0346 8.59375 21.4385 8.84068 20.999 9.28022 20.5594 9.71976 20.3125 10.3159 20.3125 10.9375 20.3125 11.5591 20.5594 12.1552 20.999 12.5948 21.4385 13.0343 22.0346 13.2812 22.6562 13.2812h3.125zM21.875 10.9375C21.8752 10.7304 21.9576 10.5318 22.1041 10.3853 22.2505 10.2389 22.4491 10.1565 22.6562 10.1562h3.125C25.9885 10.1562 26.1872 10.2386 26.3337 10.3851 26.4802 10.5316 26.5625 10.7303 26.5625 10.9375 26.5625 11.1447 26.4802 11.3434 26.3337 11.4899 26.1872 11.6364 25.9885 11.7188 25.7812 11.7188h-3.125C22.4491 11.7185 22.2505 11.6361 22.1041 11.4897 21.9576 11.3432 21.8752 11.1446 21.875 10.9375z" fill="#00a9dd"/></svg>