<svg width="40" height="40" viewBox="0 0 40 40" fill="none" xmlns="http://www.w3.org/2000/svg">
<g clip-path="url(#clip0)">
<path d="M35.8333 30H30.8333C30.3733 30 30 29.6267 30 29.1667C30 28.7067 30.3733 28.3333 30.8333 28.3333H35.8333C37.2117 28.3333 38.3333 27.2117 38.3333 25.8333V14.1667C38.3333 12.7883 37.2117 11.6667 35.8333 11.6667H4.16667C2.78833 11.6667 1.66667 12.7883 1.66667 14.1667V25.8333C1.66667 27.2117 2.78833 28.3333 4.16667 28.3333H9.16667C9.62667 28.3333 10 28.7067 10 29.1667C10 29.6267 9.62667 30 9.16667 30H4.16667C1.86833 30 0 28.13 0 25.8333V14.1667C0 11.87 1.86833 10 4.16667 10H35.8333C38.1317 10 40 11.87 40 14.1667V25.8333C40 28.13 38.1317 30 35.8333 30Z" fill="#00A9DD"/>
<path d="M30 1L30.5 6L9.5 6L10 1L30 1Z" fill="#74C6FF"/>
<path d="M24.1668 35H14.1668C13.7068 35 13.3335 34.6266 13.3335 34.1666C13.3335 33.7066 13.7068 33.3333 14.1668 33.3333H24.1668C24.6268 33.3333 25.0002 33.7066 25.0002 34.1666C25.0002 34.6266 24.6268 35 24.1668 35Z" fill="#00A9DD"/>
<path d="M24.1668 31.6667H14.1668C13.7068 31.6667 13.3335 31.2933 13.3335 30.8333C13.3335 30.3733 13.7068 30 14.1668 30H24.1668C24.6268 30 25.0002 30.3733 25.0002 30.8333C25.0002 31.2933 24.6268 31.6667 24.1668 31.6667Z" fill="#00A9DD"/>
<path d="M17.5002 28.3334H14.1668C13.7068 28.3334 13.3335 27.9601 13.3335 27.5001C13.3335 27.0401 13.7068 26.6667 14.1668 26.6667H17.5002C17.9602 26.6667 18.3335 27.0401 18.3335 27.5001C18.3335 27.9601 17.9602 28.3334 17.5002 28.3334Z" fill="#00A9DD"/>
<path d="M30.8335 11.6667C30.3735 11.6667 30.0002 11.2933 30.0002 10.8333V4.16667C30.0002 2.78833 28.8785 1.66667 27.5002 1.66667H12.5002C11.1218 1.66667 10.0002 2.78833 10.0002 4.16667V10.8333C10.0002 11.2933 9.62683 11.6667 9.16683 11.6667C8.70683 11.6667 8.3335 11.2933 8.3335 10.8333V4.16667C8.3335 1.87 10.2018 0 12.5002 0H27.5002C29.7985 0 31.6668 1.87 31.6668 4.16667V10.8333C31.6668 11.2933 31.2935 11.6667 30.8335 11.6667Z" fill="#00A9DD"/>
<path d="M27.5002 40.0001H12.5002C10.2018 40.0001 8.3335 38.1301 8.3335 35.8334V22.5001C8.3335 22.0401 8.70683 21.6667 9.16683 21.6667H30.8335C31.2935 21.6667 31.6668 22.0401 31.6668 22.5001V35.8334C31.6668 38.1301 29.7985 40.0001 27.5002 40.0001ZM10.0002 23.3334V35.8334C10.0002 37.2117 11.1218 38.3334 12.5002 38.3334H27.5002C28.8785 38.3334 30.0002 37.2117 30.0002 35.8334V23.3334H10.0002Z" fill="#00A9DD"/>
</g>
<defs>
<clipPath id="clip0">
<rect width="40" height="40" fill="white"/>
</clipPath>
</defs>
</svg>
