<svg width="50" height="50" viewBox="0 0 50 50" fill="none" xmlns="http://www.w3.org/2000/svg">
<g clip-path="url(#clip0)">
<path d="M42 2L43 8L0.869583 8L1.5 2L42 2Z" fill="#74C6FF"/>
<path d="M4.03218 44.3378H25V42.7246H4.03218C2.69607 42.7246 1.61283 41.6413 1.61283 40.3052V4.82136C1.61283 3.48485 2.69607 2.40201 4.03218 2.40201H39.5161C40.8528 2.40201 41.9354 3.48485 41.9354 4.82136V23.3696H43.5487V4.82136C43.546 2.59546 41.7422 0.791812 39.5161 0.789185H4.03218C1.80668 0.791812 0.00282988 2.59546 0 4.82136V40.3052C0.00282988 42.5311 1.80668 44.3348 4.03218 44.3378Z" fill="#00A9DD"/>
<path d="M3.22607 4.01526H4.8387V5.62788H3.22607V4.01526Z" fill="#00A9DD"/>
<path d="M6.45166 4.01526H8.06491V5.62788H6.45166V4.01526Z" fill="#00A9DD"/>
<path d="M9.67725 4.01526H11.2903V5.62788H9.67725V4.01526Z" fill="#00A9DD"/>
<path d="M3.22607 7.24072H40.3226V8.85395H3.22607V7.24072Z" fill="#00A9DD"/>
<path d="M11.5266 10.7029L9.47821 12.7513C7.74672 11.605 5.42804 11.9567 4.11396 13.5649C2.80009 15.1729 2.91794 17.5152 4.38624 18.9833C5.85434 20.452 8.19688 20.5699 9.80506 19.2558C11.413 17.9419 11.765 15.6228 10.6184 13.8917L12.6667 11.8433L11.5266 10.7029ZM7.25776 18.5309C5.92185 18.5309 4.83862 17.4479 4.83862 16.1118C4.83862 14.7755 5.92185 13.6926 7.25776 13.6926C7.61756 13.6939 7.9715 13.7763 8.2943 13.9342L6.68794 15.5408L7.82798 16.6812L9.43556 15.0756C9.59342 15.3983 9.6761 15.7522 9.67731 16.1118C9.67731 17.4479 8.59447 18.5309 7.25776 18.5309Z" fill="#00A9DD"/>
<path d="M13.71 13.6926H27.4193V15.3053H13.71V13.6926Z" fill="#00A9DD"/>
<path d="M13.71 16.9183H19.355V18.5309H13.71V16.9183Z" fill="#00A9DD"/>
<path d="M20.9678 16.9183H32.2578V18.5309H20.9678V16.9183Z" fill="#00A9DD"/>
<path d="M29.0322 13.6926H37.0968V15.3053H29.0322V13.6926Z" fill="#00A9DD"/>
<path d="M11.5266 20.3802L9.47821 22.4287C7.74672 21.2824 5.42804 21.6341 4.11396 23.2423C2.80009 24.8505 2.91794 27.1926 4.38624 28.6611C5.85434 30.1294 8.19688 30.2472 9.80506 28.9332C11.413 27.6191 11.765 25.3008 10.6184 23.5691L12.6667 21.5207L11.5266 20.3802ZM7.25776 28.2085C5.92185 28.2085 4.83862 27.1253 4.83862 25.7892C4.83862 24.4529 5.92185 23.3696 7.25776 23.3696C7.61756 23.371 7.9715 23.4537 8.2943 23.6116L6.68794 25.2185L7.82798 26.3586L9.43556 24.7528C9.59342 25.0756 9.6761 25.4296 9.67731 25.7892C9.67731 27.1253 8.59447 28.2085 7.25776 28.2085Z" fill="#00A9DD"/>
<path d="M13.71 23.3696H27.4193V24.9826H13.71V23.3696Z" fill="#00A9DD"/>
<path d="M13.71 26.5957H19.355V28.2086H13.71V26.5957Z" fill="#00A9DD"/>
<path d="M20.9678 26.5957H27.4191V28.2086H20.9678V26.5957Z" fill="#00A9DD"/>
<path d="M29.0322 23.3696H32.2579V24.9826H29.0322V23.3696Z" fill="#00A9DD"/>
<path d="M11.5266 30.0576L9.47821 32.1061C7.74672 30.9597 5.42804 31.3115 4.11396 32.9197C2.80009 34.5278 2.91794 36.87 4.38624 38.3385C5.85434 39.807 8.19688 39.9244 9.80506 38.6106C11.413 37.2965 11.765 34.978 10.6184 33.2463L12.6667 31.1981L11.5266 30.0576ZM7.25776 37.8859C5.92185 37.8859 4.83862 36.8027 4.83862 35.4666C4.83862 34.1302 5.92185 33.0472 7.25776 33.0472C7.61756 33.0484 7.9715 33.1309 8.2943 33.289L6.68794 34.8959L7.82798 36.036L9.43556 34.4302C9.59342 34.753 9.6761 35.1072 9.67731 35.4666C9.67731 36.8027 8.59447 37.8859 7.25776 37.8859Z" fill="#00A9DD"/>
<path d="M13.71 33.0472H24.1937V34.6604H13.71V33.0472Z" fill="#00A9DD"/>
<path d="M13.71 36.2731H19.355V37.8859H13.71V36.2731Z" fill="#00A9DD"/>
<path d="M20.9678 36.2731H24.1934V37.8859H20.9678V36.2731Z" fill="#00A9DD"/>
<path d="M37.9036 49.1766C44.5847 49.1766 50.0001 43.7602 50.0001 37.0796C50.0001 30.3985 44.5847 24.9827 37.9036 24.9827C31.2224 24.9827 25.8066 30.3985 25.8066 37.0796C25.8145 43.7571 31.2257 49.1685 37.9036 49.1766ZM37.9036 26.5957C43.6933 26.5957 48.3875 31.2895 48.3875 37.0796C48.3875 42.8698 43.6933 47.5633 37.9036 47.5633C32.1132 47.5633 27.4193 42.8698 27.4193 37.0796C27.4261 31.2923 32.1159 26.6022 37.9036 26.5957Z" fill="#00A9DD"/>
<path d="M32.9842 37.5253L31.5405 38.2461L33.1536 41.472C33.2692 41.704 33.4899 41.8664 33.746 41.9078C33.7877 41.9143 33.8293 41.9177 33.8711 41.9183C34.0848 41.9183 34.29 41.8332 34.4416 41.682L44.1186 32.0046L42.9785 30.8641L34.0919 39.7504L32.9842 37.5253Z" fill="#00A9DD"/>
</g>
<defs>
<clipPath id="clip0">
<rect width="50" height="50" fill="white"/>
</clipPath>
</defs>
</svg>
