<svg width="50" height="50" viewBox="0 0 50 50" fill="none" xmlns="http://www.w3.org/2000/svg">
<g clip-path="url(#clip0)">
<path d="M48.7932 34.1768C47.8901 33.6561 46.7923 33.7937 46.0358 34.4287L40.7069 31.2061C40.9902 30.5341 41.1471 29.7976 41.1471 29.0242C41.1471 26.2032 39.0634 23.8595 36.3181 23.4546C36.3181 23.4329 36.3181 23.412 36.3181 23.3902C36.3181 22.5105 36.1708 21.6655 35.9092 20.8719L46.0108 15.5422C46.4535 15.9261 47.0121 16.1458 47.5899 16.1458C47.9996 16.1458 48.4141 16.042 48.7932 15.8231C49.9465 15.1575 50.3425 13.6773 49.6769 12.524C49.0105 11.3715 47.5304 10.9747 46.3786 11.6403C45.4796 12.1594 45.049 13.1735 45.2148 14.1417L35.25 19.399C33.8609 16.9796 31.2548 15.3418 28.2696 15.3418C27.4366 15.3418 26.6261 15.4794 25.855 15.7225V4.73067C26.7895 4.39746 27.4647 3.51213 27.4647 2.46422C27.4647 1.13301 26.3814 0.0496826 25.0502 0.0496826C23.719 0.0496826 22.6357 1.13301 22.6357 2.46422C22.6357 3.51213 23.3109 4.39746 24.2453 4.73067V16.4323C23.3866 16.9305 22.6131 17.5792 21.9797 18.3752C21.1885 17.9688 20.3161 17.7563 19.4163 17.7563C17.6472 17.7563 16.0681 18.5773 15.0347 19.8562L4.78174 14.157C4.95478 13.184 4.525 12.1626 3.62115 11.6411C2.46781 10.9755 0.988499 11.3715 0.322891 12.5248C-0.342718 13.6782 0.0540716 15.1575 1.20661 15.8231C1.5857 16.042 2.00019 16.1458 2.40986 16.1458C2.9821 16.1458 3.53664 15.9293 3.9777 15.5518L14.2113 21.2405C13.9361 21.9029 13.7823 22.6289 13.7823 23.3902C13.7823 23.4096 13.7823 23.4281 13.7823 23.4474C11.0555 23.8385 8.95326 26.1903 8.95326 29.0242C8.95326 29.7952 9.1094 30.53 9.3911 31.2005L3.96804 34.4319C3.21229 33.7937 2.11206 33.6544 1.20742 34.1776C0.0540717 34.8432 -0.341913 36.3233 0.323695 37.4759C0.770385 38.2485 1.58328 38.6823 2.41791 38.6823C2.82757 38.6823 3.24207 38.5785 3.62115 38.3596C4.53143 37.834 4.96042 36.8022 4.77691 35.8235L10.2209 32.58C11.2551 33.8468 12.8278 34.6581 14.5872 34.6581H24.2453V45.2692C23.3109 45.6024 22.6357 46.4877 22.6357 47.5356C22.6357 48.8669 23.719 49.9502 25.0502 49.9502C26.3814 49.9502 27.4647 48.8669 27.4647 47.5356C27.4647 46.4877 26.7895 45.6024 25.855 45.2692V34.6581H35.5132C37.271 34.6581 38.8412 33.8484 39.8755 32.584L45.2237 35.8187C45.0386 36.799 45.4667 37.8332 46.3786 38.3596C46.7577 38.5785 47.1722 38.6823 47.5819 38.6823C48.4173 38.6823 49.2302 38.2493 49.6777 37.4759C50.3425 36.3217 49.9457 34.8424 48.7932 34.1768ZM47.1835 13.0351C47.3098 12.9618 47.4475 12.9272 47.5843 12.9272C47.8628 12.9272 48.134 13.0713 48.2829 13.3297C48.505 13.7144 48.3722 14.2069 47.9883 14.4291C47.6036 14.6496 47.111 14.5192 46.8889 14.1345C46.6668 13.7498 46.7988 13.2572 47.1835 13.0351ZM3.11168 14.1345C2.88874 14.5192 2.39457 14.6504 2.01146 14.4291C1.62755 14.2069 1.49555 13.7144 1.71769 13.3297C1.86578 13.0721 2.13702 12.9272 2.41549 12.9272C2.55232 12.9272 2.68994 12.9618 2.81711 13.0351C3.20102 13.2572 3.33382 13.7498 3.11168 14.1345ZM2.81631 36.9648C2.43159 37.1861 1.93902 37.0541 1.71769 36.6702C1.49555 36.2855 1.62755 35.7929 2.01226 35.5708C2.13862 35.4975 2.27625 35.4629 2.41308 35.4629C2.69155 35.4629 2.96279 35.607 3.11168 35.8654C3.33382 36.2501 3.20102 36.7426 2.81631 36.9648ZM25.0502 1.65938C25.4937 1.65938 25.855 2.02075 25.855 2.46422C25.855 2.90769 25.4937 3.26907 25.0502 3.26907C24.6067 3.26907 24.2453 2.90769 24.2453 2.46422C24.2453 2.02075 24.6067 1.65938 25.0502 1.65938ZM25.0502 48.3405C24.6067 48.3405 24.2453 47.9791 24.2453 47.5356C24.2453 47.0922 24.6067 46.7308 25.0502 46.7308C25.4937 46.7308 25.855 47.0922 25.855 47.5356C25.855 47.9791 25.4937 48.3405 25.0502 48.3405ZM35.5132 33.0484H14.5872C12.3682 33.0484 10.563 31.2431 10.563 29.0242C10.563 26.8052 12.3682 24.9999 14.5638 24.9991L15.6166 25.0184L15.454 24.0631C15.4122 23.82 15.392 23.5995 15.392 23.3902C15.392 21.1713 17.1973 19.366 19.4163 19.366C20.2493 19.366 21.0501 19.6211 21.7334 20.104L22.4167 20.587L22.8731 19.8859C24.0683 18.0485 26.086 16.9515 28.2696 16.9515C31.8198 16.9515 34.7084 19.8401 34.7084 23.3902C34.7084 23.6333 34.6915 23.8723 34.6657 24.109L34.6142 24.9999H35.5132C37.7322 24.9999 39.5374 26.8052 39.5374 29.0242C39.5374 31.2431 37.7322 33.0484 35.5132 33.0484ZM48.283 36.6702C48.0601 37.0549 47.5667 37.1861 47.1828 36.9648C46.7981 36.7435 46.6661 36.2501 46.8882 35.8654C47.0371 35.6078 47.3075 35.4629 47.586 35.4629C47.7228 35.4629 47.8605 35.4975 47.9876 35.5708C48.3723 35.7929 48.505 36.2855 48.283 36.6702Z" fill="#00A9DD"/>
<path d="M28.2695 18.5612V20.1709C30.045 20.1709 31.4889 21.6147 31.4889 23.3902H33.0986C33.0986 20.727 30.9328 18.5612 28.2695 18.5612Z" fill="#00A9DD"/>
<path d="M35.5132 26.6096V28.2193C35.9567 28.2193 36.318 28.5807 36.318 29.0242C36.318 29.4676 35.9567 29.829 35.5132 29.829V31.4387C36.8444 31.4387 37.9277 30.3554 37.9277 29.0242C37.9277 27.6929 36.8444 26.6096 35.5132 26.6096Z" fill="#00A9DD"/>
<path d="M33.9032 29.829H32.2935V31.4387H33.9032V29.829Z" fill="#00A9DD"/>
<path d="M25.8549 29.829H18.6113V31.4387H25.8549V29.829Z" fill="#00A9DD"/>
<path d="M17.0013 29.829H15.3916V31.4387H17.0013V29.829Z" fill="#00A9DD"/>
</g>
<defs>
<clipPath id="clip0">
<rect width="50" height="50" fill="white"/>
</clipPath>
</defs>
</svg>
