<svg width="40" height="40" viewBox="0 0 40 40" fill="none" xmlns="http://www.w3.org/2000/svg">
<g clip-path="url(#clip0)">
<path d="M20.0002 35.8332C28.7446 35.8332 35.8334 28.7444 35.8334 20C35.8334 11.2556 28.7446 4.16679 20.0002 4.16679C11.2558 4.16679 4.16699 11.2556 4.16699 20C4.16699 28.7444 11.2558 35.8332 20.0002 35.8332Z" fill="#FAF7F5"/>
<path d="M32.0263 20L24.1776 15.0086V17.6191H15.8234V15.0086L7.97461 20L15.8234 24.9914V22.3809H24.1776V24.9914L32.0263 20Z" fill="#74C6FF"/>
<path d="M36.2046 0.0643768H3.79539C1.70258 0.0643768 0 1.76695 0 3.85969V36.1402C0 38.233 1.70258 39.9355 3.79539 39.9355H36.2047C38.2975 39.9355 40.0001 38.233 40.0001 36.1402V23.5316C40.0001 23.1002 39.6503 22.7504 39.2188 22.7504C38.7873 22.7504 38.4376 23.1002 38.4376 23.5316V36.1402C38.4376 37.3714 37.4359 38.373 36.2047 38.373H3.79539C2.56422 38.373 1.5625 37.3714 1.5625 36.1402V3.85969C1.5625 2.62852 2.56414 1.62688 3.79539 1.62688H36.2047C37.4359 1.62688 38.4376 2.62852 38.4376 3.85969V16.4683C38.4376 16.8997 38.7873 17.2495 39.2188 17.2495C39.6503 17.2495 40.0001 16.8997 40.0001 16.4683V3.85969C40 1.76695 38.2974 0.0643768 36.2046 0.0643768Z" fill="#00A9DD"/>
<path d="M39.8678 19.5805C39.6844 19.3005 39.3246 19.1717 39.0043 19.2637C38.6941 19.3527 38.468 19.629 38.4402 19.9504C38.4123 20.2746 38.6006 20.5922 38.8965 20.7258C39.1901 20.8584 39.5428 20.7939 39.7709 20.5664C40.0292 20.3087 40.0751 19.8833 39.8678 19.5805Z" fill="#00A9DD"/>
<path d="M20.0002 3.38556C10.8389 3.38556 3.38574 10.8388 3.38574 20C3.38574 29.1613 10.8389 36.6145 20.0002 36.6145C29.1615 36.6145 36.6147 29.1613 36.6147 20C36.6147 10.8388 29.1615 3.38556 20.0002 3.38556ZM20.0002 35.052C11.7005 35.052 4.94824 28.2997 4.94824 20C4.94824 11.7003 11.7005 4.94806 20.0002 4.94806C28.2999 4.94806 35.0522 11.7003 35.0522 20C35.0522 28.2997 28.2999 35.052 20.0002 35.052Z" fill="#00A9DD"/>
<path d="M23.8007 14.3238C23.5508 14.4611 23.3955 14.7235 23.3955 15.0087V16.8379H16.6037V15.0086C16.6037 14.7235 16.4484 14.461 16.1985 14.3238C15.9486 14.1866 15.6438 14.1964 15.4032 14.3493L7.55441 19.3407C7.32894 19.4841 7.19238 19.7328 7.19238 19.9999C7.19238 20.267 7.32894 20.5158 7.55441 20.6591L15.4032 25.6505C15.6437 25.8034 15.9485 25.8132 16.1985 25.6761C16.4484 25.5388 16.6037 25.2764 16.6037 24.9912V23.162H23.3955V24.9912C23.3955 25.2763 23.5508 25.5388 23.8007 25.6761C23.9181 25.7405 24.0475 25.7725 24.1768 25.7725C24.3227 25.7725 24.4684 25.7316 24.5961 25.6505L32.4448 20.6591C32.6703 20.5156 32.8068 20.267 32.8068 19.9998C32.8068 19.7327 32.6703 19.484 32.4448 19.3406L24.5961 14.3492C24.3554 14.1966 24.0507 14.1867 23.8007 14.3238ZM24.958 17.6191V16.4313L30.5696 20L24.958 23.5687V22.3809C24.958 21.9495 24.6082 21.5997 24.1768 21.5997H15.8225C15.3911 21.5997 15.0413 21.9495 15.0413 22.3809V23.5687L9.42965 20L15.0413 16.4313V17.6191C15.0413 18.0505 15.3911 18.4003 15.8225 18.4003H24.1768C24.6082 18.4003 24.958 18.0505 24.958 17.6191Z" fill="#00A9DD"/>
</g>
<defs>
<clipPath id="clip0">
<rect width="40" height="40" fill="white"/>
</clipPath>
</defs>
</svg>
