<svg width="42" height="42" viewBox="0 0 42 42" fill="none" xmlns="http://www.w3.org/2000/svg"><path d="M40.8979 32.3993 32.3969 26.7301C31.3181 26.0165 29.8721 26.2513 29.0745 27.2697L26.5983 30.4535C26.28 30.8731 25.7016 30.9949 25.2412 30.7391L24.7701 30.4794C23.2087 29.6283 21.2658 28.5687 17.3513 24.6528 13.4367 20.7369 12.375 18.7925 11.5239 17.2339L11.2656 16.7629C11.0064 16.3026 11.1258 15.7217 11.5456 15.4009L14.7272 12.9254C15.7453 12.1278 15.9804 10.6821 15.2676 9.60296L9.59842 1.10201C8.86788.00312158 7.40219-.326759 6.27123.353097L2.71645 2.48846C1.59951 3.14511.780057 4.20857.429918 5.456-.850154 10.1201.112831 18.1696 11.9705 30.0287 21.403 39.4604 28.4251 41.9969 33.2516 41.9969 34.3624 42.0016 35.4688 41.8571 36.5411 41.5672 37.7888 41.2175 38.8524 40.3979 39.5086 39.2807L41.6461 35.728C42.327 34.5968 41.9973 33.1302 40.8979 32.3993zM40.4401 35.0098 38.3076 38.5646C37.8364 39.371 37.0714 39.964 36.1728 40.2192 31.8671 41.4013 24.3446 40.4222 12.9608 29.0384 1.57695 17.6545.597893 10.1327 1.78003 5.82631 2.03561 4.92673 2.62926 4.16075 3.43666 3.68881L6.99144 1.55623C7.48216 1.26097 8.1183 1.40409 8.43531 1.88095L11.5149 6.50445 14.0996 10.3812C14.4092 10.8492 14.3075 11.4766 13.8659 11.823L10.6834 14.2985C9.71497 15.039 9.4384 16.379 10.0347 17.4424L10.2874 17.9016C11.1819 19.5421 12.294 21.583 16.3541 25.6424 20.4142 29.7018 22.4544 30.814 24.0942 31.7084L24.554 31.9618C25.6174 32.558 26.9574 32.2815 27.698 31.313L30.1735 28.1306C30.5199 27.6892 31.147 27.5876 31.6153 27.8968L40.1155 33.566C40.5927 33.8827 40.7358 34.5192 40.4401 35.0098z" fill="#00a9dd"/><path d="M23.7995 7.00176C30.3677 7.00906 35.6904 12.3318 35.6977 18.9 35.6977 19.2866 36.0111 19.5999 36.3976 19.5999 36.7842 19.5999 37.0975 19.2866 37.0975 18.9 37.0894 11.5591 31.1404 5.61006 23.7995 5.60202 23.4129 5.60202 23.0996 5.91533 23.0996 6.30189 23.0996 6.68845 23.4129 7.00176 23.7995 7.00176z" fill="#00a9dd"/><path d="M23.7995 11.2012C28.0494 11.2062 31.4934 14.6502 31.4984 18.9001 31.4984 19.2866 31.8118 19.5999 32.1982 19.5999 32.5848 19.5999 32.8981 19.2866 32.8981 18.9001 32.8923 13.8774 28.8221 9.80719 23.7995 9.80145 23.4129 9.80145 23.0996 10.1148 23.0996 10.5013 23.0996 10.8879 23.4129 11.2012 23.7995 11.2012z" fill="#00a9dd"/><path d="M23.7995 15.4006C25.7312 15.4029 27.2966 16.9683 27.299 18.9001 27.299 19.2867 27.6124 19.6 27.9989 19.6 28.3853 19.6 28.6987 19.2867 28.6987 18.9001 28.6956 16.1956 26.504 14.0039 23.7995 14.0009 23.4129 14.0009 23.0996 14.3142 23.0996 14.7007 23.0996 15.0873 23.4129 15.4006 23.7995 15.4006z" fill="#00a9dd"/></svg>