<svg width="108" height="108" viewBox="0 0 108 108" fill="none" xmlns="http://www.w3.org/2000/svg"><path d="M81.0769 104.154h3.84615v3.84615H81.0769z" fill="#fff" fill-opacity=".5"/><path d="M92.6155 104.154h3.84615v3.84615H92.6155z" fill="#fff" fill-opacity=".5"/><path d="M104.154 104.154h3.84615v3.84615H104.154z" fill="#fff" fill-opacity=".5"/><path d="M58 104.154h3.84615v3.84615H58z" fill="#fff" fill-opacity=".5"/><path d="M69.5386 104.154h3.84615v3.84615H69.5386z" fill="#fff" fill-opacity=".5"/><path d="M81.0769 92.6152h3.84615v3.84615H81.0769z" fill="#fff" fill-opacity=".5"/><path d="M92.6155 92.6152h3.84615v3.84615H92.6155z" fill="#fff" fill-opacity=".5"/><path d="M104.154 92.6152h3.84615v3.84615H104.154z" fill="#fff" fill-opacity=".5"/><path d="M58 92.6152h3.84615v3.84615H58z" fill="#fff" fill-opacity=".5"/><path d="M69.5386 92.6152h3.84615v3.84615H69.5386z" fill="#fff" fill-opacity=".5"/><path d="M81.0769 81.0771h3.84615v3.84615H81.0769z" fill="#fff" fill-opacity=".5"/><path d="M92.6155 81.0771h3.84615v3.84615H92.6155z" fill="#fff" fill-opacity=".5"/><path d="M104.154 81.0771h3.84615v3.84615H104.154z" fill="#fff" fill-opacity=".5"/><path d="M58 81.0771h3.84615v3.84615H58z" fill="#fff" fill-opacity=".5"/><path d="M69.5386 81.0771h3.84615v3.84615H69.5386z" fill="#fff" fill-opacity=".5"/><path d="M81.0769 69.5386h3.84615v3.84615H81.0769z" fill="#fff" fill-opacity=".5"/><path d="M92.6155 69.5386h3.84615v3.84615H92.6155z" fill="#fff" fill-opacity=".5"/><path d="M104.154 69.5386h3.84615v3.84615H104.154z" fill="#fff" fill-opacity=".5"/><path d="M58 69.5386h3.84615v3.84615H58z" fill="#fff" fill-opacity=".5"/><path d="M69.5386 69.5386h3.84615v3.84615H69.5386z" fill="#fff" fill-opacity=".5"/><path d="M81.0769 58h3.84615v3.84615H81.0769z" fill="#fff" fill-opacity=".5"/><path d="M92.6155 58h3.84615v3.84615H92.6155z" fill="#fff" fill-opacity=".5"/><path d="M104.154 58h3.84615v3.84615H104.154z" fill="#fff" fill-opacity=".5"/><path d="M58 58h3.84615v3.84615H58z" fill="#fff" fill-opacity=".5"/><path d="M69.5386 58h3.84615v3.84615H69.5386z" fill="#fff" fill-opacity=".5"/><path d="M23.0769 104.154h3.84615v3.84615H23.0769z" fill="#fff" fill-opacity=".5"/><path d="M34.6155 104.154h3.84615v3.84615H34.6155z" fill="#fff" fill-opacity=".5"/><path d="M46.1538 104.154h3.84615v3.84615H46.1538z" fill="#fff" fill-opacity=".5"/><path d="M0 104.154h3.84615v3.84615H0z" fill="#fff" fill-opacity=".5"/><path d="M11.5386 104.154h3.84615v3.84615H11.5386z" fill="#fff" fill-opacity=".5"/><path d="M23.0769 92.6152h3.84615v3.84615H23.0769z" fill="#fff" fill-opacity=".5"/><path d="M34.6155 92.6152h3.84615v3.84615H34.6155z" fill="#fff" fill-opacity=".5"/><path d="M46.1538 92.6152h3.84615v3.84615H46.1538z" fill="#fff" fill-opacity=".5"/><path d="M0 92.6152h3.84615v3.84615H0z" fill="#fff" fill-opacity=".5"/><path d="M11.5386 92.6152h3.84615v3.84615H11.5386z" fill="#fff" fill-opacity=".5"/><path d="M23.0769 81.0771h3.84615v3.84615H23.0769z" fill="#fff" fill-opacity=".5"/><path d="M34.6155 81.0771h3.84615v3.84615H34.6155z" fill="#fff" fill-opacity=".5"/><path d="M46.1538 81.0771h3.84615v3.84615H46.1538z" fill="#fff" fill-opacity=".5"/><path d="M0 81.0771h3.84615v3.84615H0z" fill="#fff" fill-opacity=".5"/><path d="M11.5386 81.0771h3.84615v3.84615H11.5386z" fill="#fff" fill-opacity=".5"/><path d="M23.0769 69.5386h3.84615v3.84615H23.0769z" fill="#fff" fill-opacity=".5"/><path d="M34.6155 69.5386h3.84615v3.84615H34.6155z" fill="#fff" fill-opacity=".5"/><path d="M46.1538 69.5386h3.84615v3.84615H46.1538z" fill="#fff" fill-opacity=".5"/><path d="M0 69.5386h3.84615v3.84615H0z" fill="#fff" fill-opacity=".5"/><path d="M11.5386 69.5386h3.84615v3.84615H11.5386z" fill="#fff" fill-opacity=".5"/><path d="M23.0769 58h3.84615v3.84615H23.0769z" fill="#fff" fill-opacity=".5"/><path d="M34.6155 58h3.84615v3.84615H34.6155z" fill="#fff" fill-opacity=".5"/><path d="M46.1538 58h3.84615v3.84615H46.1538z" fill="#fff" fill-opacity=".5"/><path d="M0 58h3.84615v3.84615H0z" fill="#fff" fill-opacity=".5"/><path d="M11.5386 58h3.84615v3.84615H11.5386z" fill="#fff" fill-opacity=".5"/><path d="M81.0769 46.1538h3.84615v3.84615H81.0769z" fill="#fff" fill-opacity=".5"/><path d="M92.6155 46.1538h3.84615v3.84615H92.6155z" fill="#fff" fill-opacity=".5"/><path d="M104.154 46.1538h3.84615v3.84615H104.154z" fill="#fff" fill-opacity=".5"/><path d="M58 46.1538h3.84615v3.84615H58z" fill="#fff" fill-opacity=".5"/><path d="M69.5386 46.1538h3.84615v3.84615H69.5386z" fill="#fff" fill-opacity=".5"/><path d="M81.0769 34.6152h3.84615v3.84615H81.0769z" fill="#fff" fill-opacity=".5"/><path d="M92.6155 34.6152h3.84615v3.84615H92.6155z" fill="#fff" fill-opacity=".5"/><path d="M104.154 34.6152h3.84615v3.84615H104.154z" fill="#fff" fill-opacity=".5"/><path d="M58 34.6152h3.84615v3.84615H58z" fill="#fff" fill-opacity=".5"/><path d="M69.5386 34.6152h3.84615v3.84615H69.5386z" fill="#fff" fill-opacity=".5"/><path d="M81.0769 23.0771h3.84615v3.84615H81.0769z" fill="#fff" fill-opacity=".5"/><path d="M92.6155 23.0771h3.84615v3.84615H92.6155z" fill="#fff" fill-opacity=".5"/><path d="M104.154 23.0771h3.84615v3.84615H104.154z" fill="#fff" fill-opacity=".5"/><path d="M58 23.0771h3.84615v3.84615H58z" fill="#fff" fill-opacity=".5"/><path d="M69.5386 23.0771h3.84615v3.84615H69.5386z" fill="#fff" fill-opacity=".5"/><path d="M81.0769 11.5386h3.84615v3.84615H81.0769z" fill="#fff" fill-opacity=".5"/><path d="M92.6155 11.5386h3.84615v3.84615H92.6155z" fill="#fff" fill-opacity=".5"/><path d="M104.154 11.5386h3.84615v3.84615H104.154z" fill="#fff" fill-opacity=".5"/><path d="M58 11.5386h3.84615v3.84615H58z" fill="#fff" fill-opacity=".5"/><path d="M69.5386 11.5386h3.84615v3.84615H69.5386z" fill="#fff" fill-opacity=".5"/><path d="M81.0769.0h3.84615v3.84615H81.0769z" fill="#fff" fill-opacity=".5"/><path d="M92.6155.0h3.84615v3.84615H92.6155z" fill="#fff" fill-opacity=".5"/><path d="M104.154.0h3.84615v3.84615H104.154z" fill="#fff" fill-opacity=".5"/><path d="M58 0h3.84615v3.84615H58z" fill="#fff" fill-opacity=".5"/><path d="M69.5386.0h3.84615v3.84615H69.5386z" fill="#fff" fill-opacity=".5"/><path d="M23.0769 46.1538h3.84615v3.84615H23.0769z" fill="#fff" fill-opacity=".5"/><path d="M34.6155 46.1538h3.84615v3.84615H34.6155z" fill="#fff" fill-opacity=".5"/><path d="M46.1538 46.1538h3.84615v3.84615H46.1538z" fill="#fff" fill-opacity=".5"/><path d="M0 46.1538h3.84615v3.84615H0z" fill="#fff" fill-opacity=".5"/><path d="M11.5386 46.1538h3.84615v3.84615H11.5386z" fill="#fff" fill-opacity=".5"/><path d="M23.0769 34.6154h3.84615v3.84615H23.0769z" fill="#fff" fill-opacity=".5"/><path d="M34.6155 34.6154h3.84615v3.84615H34.6155z" fill="#fff" fill-opacity=".5"/><path d="M46.1538 34.6154h3.84615v3.84615H46.1538z" fill="#fff" fill-opacity=".5"/><path d="M0 34.6154h3.84615v3.84615H0z" fill="#fff" fill-opacity=".5"/><path d="M11.5386 34.6154h3.84615v3.84615H11.5386z" fill="#fff" fill-opacity=".5"/><path d="M23.0769 23.0769h3.84615v3.84615H23.0769z" fill="#fff" fill-opacity=".5"/><path d="M34.6155 23.0769h3.84615v3.84615H34.6155z" fill="#fff" fill-opacity=".5"/><path d="M46.1538 23.0769h3.84615v3.84615H46.1538z" fill="#fff" fill-opacity=".5"/><path d="M0 23.0769h3.84615v3.84615H0z" fill="#fff" fill-opacity=".5"/><path d="M11.5386 23.0769h3.84615v3.84615H11.5386z" fill="#fff" fill-opacity=".5"/><path d="M23.0769 11.5385h3.84615v3.84615H23.0769z" fill="#fff" fill-opacity=".5"/><path d="M34.6155 11.5385h3.84615v3.84615H34.6155z" fill="#fff" fill-opacity=".5"/><path d="M46.1538 11.5385h3.84615v3.84615H46.1538z" fill="#fff" fill-opacity=".5"/><path d="M0 11.5385h3.84615v3.84615H0z" fill="#fff" fill-opacity=".5"/><path d="M11.5386 11.5385h3.84615v3.84615H11.5386z" fill="#fff" fill-opacity=".5"/><path d="M23.0769.0h3.84615v3.84615H23.0769z" fill="#fff" fill-opacity=".5"/><path d="M34.6154.0h3.84615v3.84615H34.6154z" fill="#fff" fill-opacity=".5"/><path d="M46.1538.0h3.84615v3.84615H46.1538z" fill="#fff" fill-opacity=".5"/><path d="M0 0h3.84615v3.84615H0z" fill="#fff" fill-opacity=".5"/><path d="M11.5385.0h3.84615v3.84615H11.5385z" fill="#fff" fill-opacity=".5"/></svg>