<svg width="108" height="108" viewBox="0 0 108 108" fill="none" xmlns="http://www.w3.org/2000/svg">
<rect x="81.0769" y="104.154" width="3.84615" height="3.84615" fill="white" fill-opacity="0.5"/>
<rect x="92.6155" y="104.154" width="3.84615" height="3.84615" fill="white" fill-opacity="0.5"/>
<rect x="104.154" y="104.154" width="3.84615" height="3.84615" fill="white" fill-opacity="0.5"/>
<rect x="58" y="104.154" width="3.84615" height="3.84615" fill="white" fill-opacity="0.5"/>
<rect x="69.5386" y="104.154" width="3.84615" height="3.84615" fill="white" fill-opacity="0.5"/>
<rect x="81.0769" y="92.6152" width="3.84615" height="3.84615" fill="white" fill-opacity="0.5"/>
<rect x="92.6155" y="92.6152" width="3.84615" height="3.84615" fill="white" fill-opacity="0.5"/>
<rect x="104.154" y="92.6152" width="3.84615" height="3.84615" fill="white" fill-opacity="0.5"/>
<rect x="58" y="92.6152" width="3.84615" height="3.84615" fill="white" fill-opacity="0.5"/>
<rect x="69.5386" y="92.6152" width="3.84615" height="3.84615" fill="white" fill-opacity="0.5"/>
<rect x="81.0769" y="81.0771" width="3.84615" height="3.84615" fill="white" fill-opacity="0.5"/>
<rect x="92.6155" y="81.0771" width="3.84615" height="3.84615" fill="white" fill-opacity="0.5"/>
<rect x="104.154" y="81.0771" width="3.84615" height="3.84615" fill="white" fill-opacity="0.5"/>
<rect x="58" y="81.0771" width="3.84615" height="3.84615" fill="white" fill-opacity="0.5"/>
<rect x="69.5386" y="81.0771" width="3.84615" height="3.84615" fill="white" fill-opacity="0.5"/>
<rect x="81.0769" y="69.5386" width="3.84615" height="3.84615" fill="white" fill-opacity="0.5"/>
<rect x="92.6155" y="69.5386" width="3.84615" height="3.84615" fill="white" fill-opacity="0.5"/>
<rect x="104.154" y="69.5386" width="3.84615" height="3.84615" fill="white" fill-opacity="0.5"/>
<rect x="58" y="69.5386" width="3.84615" height="3.84615" fill="white" fill-opacity="0.5"/>
<rect x="69.5386" y="69.5386" width="3.84615" height="3.84615" fill="white" fill-opacity="0.5"/>
<rect x="81.0769" y="58" width="3.84615" height="3.84615" fill="white" fill-opacity="0.5"/>
<rect x="92.6155" y="58" width="3.84615" height="3.84615" fill="white" fill-opacity="0.5"/>
<rect x="104.154" y="58" width="3.84615" height="3.84615" fill="white" fill-opacity="0.5"/>
<rect x="58" y="58" width="3.84615" height="3.84615" fill="white" fill-opacity="0.5"/>
<rect x="69.5386" y="58" width="3.84615" height="3.84615" fill="white" fill-opacity="0.5"/>
<rect x="23.0769" y="104.154" width="3.84615" height="3.84615" fill="white" fill-opacity="0.5"/>
<rect x="34.6155" y="104.154" width="3.84615" height="3.84615" fill="white" fill-opacity="0.5"/>
<rect x="46.1538" y="104.154" width="3.84615" height="3.84615" fill="white" fill-opacity="0.5"/>
<rect y="104.154" width="3.84615" height="3.84615" fill="white" fill-opacity="0.5"/>
<rect x="11.5386" y="104.154" width="3.84615" height="3.84615" fill="white" fill-opacity="0.5"/>
<rect x="23.0769" y="92.6152" width="3.84615" height="3.84615" fill="white" fill-opacity="0.5"/>
<rect x="34.6155" y="92.6152" width="3.84615" height="3.84615" fill="white" fill-opacity="0.5"/>
<rect x="46.1538" y="92.6152" width="3.84615" height="3.84615" fill="white" fill-opacity="0.5"/>
<rect y="92.6152" width="3.84615" height="3.84615" fill="white" fill-opacity="0.5"/>
<rect x="11.5386" y="92.6152" width="3.84615" height="3.84615" fill="white" fill-opacity="0.5"/>
<rect x="23.0769" y="81.0771" width="3.84615" height="3.84615" fill="white" fill-opacity="0.5"/>
<rect x="34.6155" y="81.0771" width="3.84615" height="3.84615" fill="white" fill-opacity="0.5"/>
<rect x="46.1538" y="81.0771" width="3.84615" height="3.84615" fill="white" fill-opacity="0.5"/>
<rect y="81.0771" width="3.84615" height="3.84615" fill="white" fill-opacity="0.5"/>
<rect x="11.5386" y="81.0771" width="3.84615" height="3.84615" fill="white" fill-opacity="0.5"/>
<rect x="23.0769" y="69.5386" width="3.84615" height="3.84615" fill="white" fill-opacity="0.5"/>
<rect x="34.6155" y="69.5386" width="3.84615" height="3.84615" fill="white" fill-opacity="0.5"/>
<rect x="46.1538" y="69.5386" width="3.84615" height="3.84615" fill="white" fill-opacity="0.5"/>
<rect y="69.5386" width="3.84615" height="3.84615" fill="white" fill-opacity="0.5"/>
<rect x="11.5386" y="69.5386" width="3.84615" height="3.84615" fill="white" fill-opacity="0.5"/>
<rect x="23.0769" y="58" width="3.84615" height="3.84615" fill="white" fill-opacity="0.5"/>
<rect x="34.6155" y="58" width="3.84615" height="3.84615" fill="white" fill-opacity="0.5"/>
<rect x="46.1538" y="58" width="3.84615" height="3.84615" fill="white" fill-opacity="0.5"/>
<rect y="58" width="3.84615" height="3.84615" fill="white" fill-opacity="0.5"/>
<rect x="11.5386" y="58" width="3.84615" height="3.84615" fill="white" fill-opacity="0.5"/>
<rect x="81.0769" y="46.1538" width="3.84615" height="3.84615" fill="white" fill-opacity="0.5"/>
<rect x="92.6155" y="46.1538" width="3.84615" height="3.84615" fill="white" fill-opacity="0.5"/>
<rect x="104.154" y="46.1538" width="3.84615" height="3.84615" fill="white" fill-opacity="0.5"/>
<rect x="58" y="46.1538" width="3.84615" height="3.84615" fill="white" fill-opacity="0.5"/>
<rect x="69.5386" y="46.1538" width="3.84615" height="3.84615" fill="white" fill-opacity="0.5"/>
<rect x="81.0769" y="34.6152" width="3.84615" height="3.84615" fill="white" fill-opacity="0.5"/>
<rect x="92.6155" y="34.6152" width="3.84615" height="3.84615" fill="white" fill-opacity="0.5"/>
<rect x="104.154" y="34.6152" width="3.84615" height="3.84615" fill="white" fill-opacity="0.5"/>
<rect x="58" y="34.6152" width="3.84615" height="3.84615" fill="white" fill-opacity="0.5"/>
<rect x="69.5386" y="34.6152" width="3.84615" height="3.84615" fill="white" fill-opacity="0.5"/>
<rect x="81.0769" y="23.0771" width="3.84615" height="3.84615" fill="white" fill-opacity="0.5"/>
<rect x="92.6155" y="23.0771" width="3.84615" height="3.84615" fill="white" fill-opacity="0.5"/>
<rect x="104.154" y="23.0771" width="3.84615" height="3.84615" fill="white" fill-opacity="0.5"/>
<rect x="58" y="23.0771" width="3.84615" height="3.84615" fill="white" fill-opacity="0.5"/>
<rect x="69.5386" y="23.0771" width="3.84615" height="3.84615" fill="white" fill-opacity="0.5"/>
<rect x="81.0769" y="11.5386" width="3.84615" height="3.84615" fill="white" fill-opacity="0.5"/>
<rect x="92.6155" y="11.5386" width="3.84615" height="3.84615" fill="white" fill-opacity="0.5"/>
<rect x="104.154" y="11.5386" width="3.84615" height="3.84615" fill="white" fill-opacity="0.5"/>
<rect x="58" y="11.5386" width="3.84615" height="3.84615" fill="white" fill-opacity="0.5"/>
<rect x="69.5386" y="11.5386" width="3.84615" height="3.84615" fill="white" fill-opacity="0.5"/>
<rect x="81.0769" width="3.84615" height="3.84615" fill="white" fill-opacity="0.5"/>
<rect x="92.6155" width="3.84615" height="3.84615" fill="white" fill-opacity="0.5"/>
<rect x="104.154" width="3.84615" height="3.84615" fill="white" fill-opacity="0.5"/>
<rect x="58" width="3.84615" height="3.84615" fill="white" fill-opacity="0.5"/>
<rect x="69.5386" width="3.84615" height="3.84615" fill="white" fill-opacity="0.5"/>
<rect x="23.0769" y="46.1538" width="3.84615" height="3.84615" fill="white" fill-opacity="0.5"/>
<rect x="34.6155" y="46.1538" width="3.84615" height="3.84615" fill="white" fill-opacity="0.5"/>
<rect x="46.1538" y="46.1538" width="3.84615" height="3.84615" fill="white" fill-opacity="0.5"/>
<rect y="46.1538" width="3.84615" height="3.84615" fill="white" fill-opacity="0.5"/>
<rect x="11.5386" y="46.1538" width="3.84615" height="3.84615" fill="white" fill-opacity="0.5"/>
<rect x="23.0769" y="34.6154" width="3.84615" height="3.84615" fill="white" fill-opacity="0.5"/>
<rect x="34.6155" y="34.6154" width="3.84615" height="3.84615" fill="white" fill-opacity="0.5"/>
<rect x="46.1538" y="34.6154" width="3.84615" height="3.84615" fill="white" fill-opacity="0.5"/>
<rect y="34.6154" width="3.84615" height="3.84615" fill="white" fill-opacity="0.5"/>
<rect x="11.5386" y="34.6154" width="3.84615" height="3.84615" fill="white" fill-opacity="0.5"/>
<rect x="23.0769" y="23.0769" width="3.84615" height="3.84615" fill="white" fill-opacity="0.5"/>
<rect x="34.6155" y="23.0769" width="3.84615" height="3.84615" fill="white" fill-opacity="0.5"/>
<rect x="46.1538" y="23.0769" width="3.84615" height="3.84615" fill="white" fill-opacity="0.5"/>
<rect y="23.0769" width="3.84615" height="3.84615" fill="white" fill-opacity="0.5"/>
<rect x="11.5386" y="23.0769" width="3.84615" height="3.84615" fill="white" fill-opacity="0.5"/>
<rect x="23.0769" y="11.5385" width="3.84615" height="3.84615" fill="white" fill-opacity="0.5"/>
<rect x="34.6155" y="11.5385" width="3.84615" height="3.84615" fill="white" fill-opacity="0.5"/>
<rect x="46.1538" y="11.5385" width="3.84615" height="3.84615" fill="white" fill-opacity="0.5"/>
<rect y="11.5385" width="3.84615" height="3.84615" fill="white" fill-opacity="0.5"/>
<rect x="11.5386" y="11.5385" width="3.84615" height="3.84615" fill="white" fill-opacity="0.5"/>
<rect x="23.0769" width="3.84615" height="3.84615" fill="white" fill-opacity="0.5"/>
<rect x="34.6154" width="3.84615" height="3.84615" fill="white" fill-opacity="0.5"/>
<rect x="46.1538" width="3.84615" height="3.84615" fill="white" fill-opacity="0.5"/>
<rect width="3.84615" height="3.84615" fill="white" fill-opacity="0.5"/>
<rect x="11.5385" width="3.84615" height="3.84615" fill="white" fill-opacity="0.5"/>
</svg>
