<svg width="80" height="80" viewBox="0 0 80 80" fill="none" xmlns="http://www.w3.org/2000/svg">
<circle cx="40" cy="40" r="40" fill="#F1F9FF"/>
<path d="M40.1486 39.4163C42.2665 39.4163 44.1005 38.6567 45.5989 37.158C47.0974 35.6595 47.857 33.8261 47.857 31.7079C47.857 29.5905 47.0974 27.7568 45.5987 26.2578C44.1 24.7596 42.2663 24 40.1486 24C38.0304 24 36.197 24.7596 34.6985 26.2581C33.2 27.7565 32.4402 29.5902 32.4402 31.7079C32.4402 33.8261 33.2 35.6598 34.6987 37.1582C36.1975 38.6565 38.0312 39.4163 40.1486 39.4163Z" fill="#0F91E3"/>
<path d="M53.6361 48.6092C53.5929 47.9856 53.5055 47.3053 53.3768 46.587C53.2469 45.8633 53.0796 45.1791 52.8794 44.5538C52.6726 43.9075 52.3913 43.2692 52.0436 42.6576C51.6828 42.0228 51.2589 41.47 50.7832 41.0151C50.2859 40.5392 49.6769 40.1566 48.9727 39.8775C48.271 39.5999 47.4933 39.4592 46.6614 39.4592C46.3347 39.4592 46.0188 39.5933 45.4086 39.9905C45.0331 40.2354 44.5938 40.5187 44.1035 40.8319C43.6843 41.0991 43.1163 41.3493 42.4149 41.5759C41.7304 41.7974 41.0355 41.9097 40.3497 41.9097C39.6638 41.9097 38.9691 41.7974 38.284 41.5759C37.5832 41.3496 37.0153 41.0993 36.5966 40.8322C36.1109 40.5219 35.6714 40.2386 35.2903 39.9903C34.6808 39.593 34.3646 39.459 34.0379 39.459C33.2058 39.459 32.4284 39.5999 31.7269 39.8777C31.0232 40.1563 30.414 40.5389 29.9161 41.0153C29.4407 41.4704 29.0166 42.023 28.6562 42.6576C28.3087 43.2692 28.0275 43.9072 27.8204 44.554C27.6204 45.1794 27.4532 45.8633 27.3233 46.587C27.1946 47.3044 27.1072 47.9849 27.064 48.6099C27.0215 49.2223 27 49.8579 27 50.4998C27 52.1704 27.5311 53.5228 28.5783 54.5203C29.6126 55.5045 30.9812 56.0038 32.6454 56.0038H48.0554C49.7196 56.0038 51.0877 55.5048 52.1223 54.5203C53.1697 53.5236 53.7008 52.1709 53.7008 50.4996C53.7006 49.8547 53.6788 49.2186 53.6361 48.6092Z" fill="#0F91E3"/>
</svg>
