<svg width="1920" height="1274" viewBox="0 0 1920 1274" fill="none" xmlns="http://www.w3.org/2000/svg">
<mask id="mask0" mask-type="alpha" maskUnits="userSpaceOnUse" x="0" y="0" width="1920" height="1275">
<rect x="1920" y="1274" width="1920" height="1274" transform="rotate(180 1920 1274)" fill="#C4C4C4"/>
</mask>
<g mask="url(#mask0)">
<ellipse cx="910" cy="1469" rx="1572" ry="501" transform="rotate(180 910 1469)" fill="url(#paint0_linear)"/>
<path d="M1116 103.5C1301.74 -2.41232 1679.5 20.9998 1938 103.5V2207.94C1041.89 2204.72 -757.161 2200.2 -784.451 2207.94C-818.565 2217.61 -1030.17 1040.36 -331.813 1040.36C31.506 1040.36 442.686 969.826 709.489 763.355C937.381 586.996 883.825 235.891 1116 103.5Z" fill="url(#paint1_linear)"/>
</g>
<defs>
<linearGradient id="paint0_linear" x1="-662" y1="968" x2="-465.445" y2="2380.23" gradientUnits="userSpaceOnUse">
<stop stop-color="#80D3FD"/>
<stop offset="1" stop-color="#1393E4"/>
</linearGradient>
<linearGradient id="paint1_linear" x1="-441.5" y1="-290" x2="137.677" y2="1644.34" gradientUnits="userSpaceOnUse">
<stop stop-color="#80D3FD"/>
<stop offset="1" stop-color="#1393E4"/>
</linearGradient>
</defs>
</svg>
