<svg xmlns="http://www.w3.org/2000/svg" xmlns:xlink="http://www.w3.org/1999/xlink" width="565" height="522" fill="none" xmlns:v="https://vecta.io/nano"><style>.B{fill:#e0e0e0}.C{fill:#fafafa}.D{fill:#f5f5f5}.E{fill:#fff}.F{fill:#455a64}.G{fill:#e6e6e6}.H{fill:#ebebeb}.I{fill:#f0f0f0}.J{fill:#0076bd}.K{stroke-miterlimit:10}.L{stroke-linecap:round}</style><g filter="url(#A)"><path d="M465.176 306.498l-48.493-27.995V174.66l48.493 27.995v103.842z" class="B"/><path d="M465.177 202.655l69.02-39.992v103.842l-69.02 39.992V202.655z" class="H"/><path d="M534.197 162.663l-69.02 39.992-48.494-27.994 69.16-39.993 48.355 27.995z" class="D"/><path d="M472.065 206.655l55.244-31.994 1.24.7v38.475l-55.244 31.994-1.24-.7v-38.475z" class="G"/><path d="M494.934 201.276l9.368-5.38c1.24-.69 2.204-.413 2.204.7s-.964 2.62-2.204 3.3l-9.368 5.378c-1.24.69-2.205.414-2.205-.7s.965-2.482 2.205-3.31z" class="G"/><path d="M470.825 255.335l55.244-31.994v38.475l1.24.7-55.244 31.994-1.378-.7.138-38.475z" class="B"/><path d="M472.065 256.024l55.244-31.994v38.476L472.065 294.5v-38.475z" class="D"/><path d="M493.694 249.956l9.368-5.378c1.24-.69 2.204-.414 2.204.7s-.964 2.62-2.204 3.31l-9.368 5.38c-1.24.69-2.204.413-2.204-.7s.964-2.482 2.204-3.3z" class="G"/><path d="M472.065 206.655l55.244-31.994v38.475l-55.244 31.994v-38.475z" class="B"/><path d="M555 193.69l-30.31-17.514v33.925L555 227.478V193.69z" class="G"/><path d="M492.73 250.508v-47.852l11.848-6.896 2.067 2.896 34.58-19.996v43.854l-48.494 27.994z" class="H"/><path d="M492.73 250.507l3.445-41.923 48.493-27.994-3.444 41.923-48.494 27.994z" class="C"/><path d="M499.618 225.547l-26.314-15.17v33.925l26.314 15.17v-33.924z" class="G"/><path d="M499.618 222.514 555 190.658v38.475l-55.382 31.994v-38.613z" class="D"/><path d="M521.385 216.584l9.368-5.378c1.24-.7 2.204-.414 2.204.69s-.964 2.62-2.204 3.3l-9.368 5.378c-1.24.7-2.204.414-2.204-.7s.964-2.62 2.204-3.31z" class="G"/><path d="M499.618 222.513l-1.79-.965v38.475l1.79 1.103v-38.613z" class="B"/><path d="M497.827 221.548l55.382-31.994 1.79 1.103-55.382 31.856-1.79-.965z" class="I"/><use xlink:href="#V" fill="#27debf"/><use xlink:href="#V" fill="url(#B)"/><path d="M476.474 271.194c-10.333 2.345-39.952 23.168-42.708 52.956" stroke="#fff" stroke-width="1.026" class="K L"/><path d="M435.695 346.5c.413-8.274 7.577-14.204 16.807-19.72 11.022-6.48 20.527-9.377 23.834-15.72s-2.618-13.515-14.052-9.79c-9.644 3.172-28.242 19.72-28.38 31.58l1.79 13.652z" fill="url(#C)"/><path d="M469.172 306.36c-15.154 3.447-32.237 17.376-34.58 31.856" stroke="#fff" class="K L"/><path d="M10 220.86v239.678L255.084 318.9V101.02L72.82 206.38l-6.2-18.203L10 220.86z" class="J"/><path d="M10 460.538l12.674-217.89L267.62 101.02 255.084 318.9 10 460.538z" class="E"/><path d="M10 460.538l18.874-214.166 245.084-141.628L255.084 318.9 10 460.538z" class="J"/><use xlink:href="#W" fill="url(#D)"/><use xlink:href="#W" fill="url(#D)" opacity=".1"/><path d="M164.575 423.44c-1.378-.827-2.48-2.896-2.48-4.55V119.775c0-1.792 1.24-3.86 2.756-4.688L352.35 6.694c1.516-.828 3.857-.966 5.235-.138s2.48 2.896 2.48 4.55v298.978c0 1.792-1.24 3.86-2.755 4.688L169.8 423.165c-1.515.966-3.857 1.104-5.235.276z" class="H"/><path d="M167.053 125.567l76.184-49.92-5.097-2.896-73.43 42.475c-1.516.827-2.756 3.033-2.756 4.688v2.758l5.098 2.896z" class="H"/><path d="M192.4 134.255l-29.62-17.1c-.55.827-.827 1.793-.827 2.62v298.977c0 1.793 1.102 3.723 2.48 4.55s3.72.827 5.235-.138l22.73-13.1v-275.81z" class="B"/><path d="M169.807 423.303l187.5-108.393c1.515-.827 2.755-3.034 2.755-4.69V11.245c0-1.793-1.24-2.483-2.755-1.517l-187.5 108.392c-1.515.827-2.755 3.033-2.755 4.688v298.977c0 1.655 1.24 2.345 2.755 1.517z" class="G"/><path d="M182.62 191.76l45.05-26.064c3.03-1.792 5.373-.55 5.373 2.758s-2.48 7.31-5.373 8.964l-45.05 26.064c-3.03 1.793-5.373.552-5.373-2.758s2.342-7.17 5.373-8.964z" class="D"/><path d="M179.314 239.338l5.786-3.3c1.24-.7 2.204-.138 2.204 1.24v6.757c0 1.38-.964 3.034-2.204 3.724l-5.786 3.31c-1.24.7-2.205.138-2.205-1.24v-6.757c.138-1.24 1.102-2.896 2.205-3.723z" class="C"/><path d="M195.156 233.27l35.268-20.4c1.516-.827 2.756-.276 2.756 1.38s-1.24 3.586-2.756 4.55l-35.268 20.4c-1.515.827-2.755.276-2.755-1.38s1.24-3.724 2.755-4.55z" class="D"/><path d="M179.314 262.922l5.786-3.3c1.24-.7 2.204-.138 2.204 1.24v6.757c0 1.38-.964 3.034-2.204 3.724l-5.786 3.31c-1.24.7-2.205.138-2.205-1.24v-6.757c.138-1.38 1.102-3.034 2.205-3.723z" class="C"/><path d="M195.156 256.716l35.268-20.4c1.516-.827 2.756-.276 2.756 1.38s-1.24 3.585-2.756 4.55l-35.268 20.4c-1.515.827-2.755.275-2.755-1.38s1.24-3.724 2.755-4.55z" class="D"/><path d="M179.314 286.364l5.786-3.31c1.24-.7 2.204-.138 2.204 1.24v6.757c0 1.38-.964 3.034-2.204 3.724l-5.786 3.31c-1.24.7-2.205.138-2.205-1.24v-6.757c.138-1.38 1.102-3.034 2.205-3.724z" class="C"/><path d="M195.156 280.158l35.268-20.4c1.516-.827 2.756-.275 2.756 1.38s-1.24 3.586-2.756 4.55l-35.268 20.4c-1.515.827-2.755.276-2.755-1.38s1.24-3.723 2.755-4.55z" class="D"/><path d="M179.314 309.947l5.786-3.3c1.24-.69 2.204-.138 2.204 1.24v6.758c0 1.38-.964 3.034-2.204 3.723l-5.786 3.3c-1.24.69-2.205.138-2.205-1.24v-6.758c.138-1.38 1.102-3.034 2.205-3.723z" class="C"/><path d="M195.157 303.74l35.268-20.4c1.515-.827 2.755-.275 2.755 1.38s-1.24 3.586-2.755 4.55l-35.268 20.4c-1.516.828-2.756.276-2.756-1.38s1.24-3.723 2.756-4.55zm-15.292 55.3 25.073-14.48c1.515-.828 2.755-.276 2.755 1.38s-1.24 3.585-2.755 4.55l-25.073 14.48c-1.516.827-2.756.276-2.756-1.38.138-1.655 1.378-3.724 2.756-4.55z" class="D"/><path d="M179.865 370.762l50.422-29.098c1.515-.828 2.755-.276 2.755 1.38s-1.24 3.585-2.755 4.55l-50.422 28.96c-1.516.827-2.756.275-2.756-1.38.138-1.517 1.378-3.586 2.756-4.413z" class="I"/><path d="M179.865 370.76l35.268-20.4c1.515-.828 2.755-.276 2.755 1.38s-1.24 3.585-2.755 4.55l-35.268 20.272c-1.516.827-2.756.276-2.756-1.38.138-1.517 1.378-3.586 2.756-4.413z" class="C"/><path d="M179.865 382.484l25.073-14.48c1.515-.828 2.755-.276 2.755 1.38s-1.24 3.585-2.755 4.55l-25.073 14.48c-1.516.827-2.756.275-2.756-1.38.138-1.655 1.378-3.724 2.756-4.55zm0-46.888 25.073-14.48c1.515-.827 2.755-.276 2.755 1.38s-1.24 3.586-2.755 4.55l-25.073 14.48c-1.516.827-2.756.276-2.756-1.38.138-1.793 1.378-3.724 2.756-4.55z" class="D"/><path d="M179.865 347.318l50.422-29.098c1.515-.827 2.755-.276 2.755 1.38s-1.24 3.586-2.755 4.55l-50.422 28.96c-1.516.827-2.756.276-2.756-1.38.138-1.517 1.378-3.586 2.756-4.413z" class="I"/><path d="M179.865 347.318l17.91-10.343c1.516-.827 2.755-.275 2.755 1.38s-1.24 3.586-2.755 4.55l-17.91 10.343c-1.516.828-2.756.276-2.756-1.38.138-1.655 1.378-3.723 2.756-4.55z" class="C"/><path d="M179.865 394.205l50.422-29.098c1.515-.828 2.755-.276 2.755 1.38s-1.24 3.585-2.755 4.55l-50.422 29.097c-1.516.828-2.756.276-2.756-1.38.138-1.654 1.378-3.723 2.756-4.55z" class="I"/><path d="M179.865 394.206l45.324-26.202c1.516-.828 2.756-.276 2.756 1.38s-1.24 3.585-2.756 4.55l-45.324 26.2c-1.516.828-2.756.276-2.756-1.38.138-1.654 1.378-3.723 2.756-4.55z" class="C"/><path d="M357.306 9.728l-114.07 65.918V380.83l114.07-65.92c1.516-.827 2.756-3.034 2.756-4.69V11.245c0-1.793-1.24-2.483-2.756-1.517z" class="D"/><path d="M243.237 87.368v23.444l-10.195 11.722h10.195v23.582l106.63-61.644V25.725l-106.63 61.643z" class="H"/><path d="M257.15 88.195l43.258-24.96c2.067-1.242 3.858-.276 3.858 2.206s-1.654 5.378-3.858 6.62L257.15 97.02c-2.067 1.24-3.858.276-3.858-2.207.138-2.482 1.79-5.378 3.858-6.62zm-2.48 18.892 83.624-48.266c.688-.414 1.377-.138 1.377.7s-.55 1.792-1.377 2.206l-83.624 48.266c-.69.414-1.378.138-1.378-.69.138-.7.69-1.793 1.378-2.207zm0 8.827 83.624-48.266c.688-.414 1.377-.138 1.377.7s-.55 1.792-1.377 2.206L254.67 118.8c-.69.414-1.378.138-1.378-.69s.69-1.793 1.378-2.207zm0 8.826 83.624-48.267c.688-.413 1.377-.138 1.377.7s-.55 1.793-1.377 2.206l-83.624 48.267c-.69.414-1.378.138-1.378-.7.138-.827.69-1.792 1.378-2.206z" class="C"/><path d="M257.84 149.288l5.786-3.3c1.24-.69 2.204-.137 2.204 1.242v6.757c0 1.38-.964 3.034-2.204 3.723l-5.786 3.3c-1.24.7-2.205.138-2.205-1.24v-6.62c.138-1.38 1.103-3.172 2.205-3.862z" class="E"/><path d="M273.683 143.22l35.268-20.4c1.515-.827 2.755-.275 2.755 1.38s-1.24 3.586-2.755 4.55l-35.268 20.272c-1.516.828-2.756.276-2.756-1.38s1.24-3.585 2.756-4.413zm-16.67 27.166 88.72-51.3c.69-.414 1.378-.138 1.378.7s-.55 1.792-1.378 2.206l-88.72 51.3c-.69.413-1.378.137-1.378-.7.138-.827.69-1.793 1.378-2.206zm-.001 8.825 88.72-51.3c.69-.414 1.377-.138 1.377.69s-.55 1.793-1.377 2.207l-88.72 51.3c-.69.414-1.378.138-1.378-.69.138-.828.69-1.793 1.378-2.207zm0 8.826 88.72-51.3c.69-.414 1.377-.138 1.377.69s-.55 1.793-1.377 2.207l-88.72 51.3c-.69.414-1.378.138-1.378-.69.138-.828.69-1.793 1.378-2.207zm0 8.827 88.72-51.3c.69-.414 1.377-.138 1.377.69s-.55 1.793-1.377 2.207l-88.72 51.3c-.69.414-1.378.138-1.378-.69.138-.828.69-1.793 1.378-2.207z" class="B"/><path d="M257.84 213.964l5.787-3.31c1.24-.7 2.204-.138 2.204 1.24v6.757c0 1.38-.964 3.034-2.204 3.724l-5.787 3.31c-1.24.7-2.204.138-2.204-1.24v-6.757c.138-1.38 1.102-3.034 2.204-3.724z" class="E"/><path d="M273.683 207.758l35.268-20.4c1.515-.827 2.755-.275 2.755 1.38s-1.24 3.586-2.755 4.55l-35.268 20.4c-1.516.828-2.756.276-2.756-1.38s1.24-3.723 2.756-4.55zm-16.67 27.168 88.72-51.3c.69-.414 1.377-.138 1.377.69s-.55 1.793-1.377 2.207l-88.72 51.3c-.69.414-1.378.138-1.378-.69.138-.7.69-1.793 1.378-2.207zm-.001 8.826 88.72-51.3c.69-.413 1.377-.138 1.377.7s-.55 1.793-1.377 2.206l-88.72 51.3c-.69.413-1.378.138-1.378-.7.138-.827.69-1.793 1.378-2.206zm0 8.825 88.72-51.3c.69-.413 1.377-.137 1.377.7s-.55 1.793-1.377 2.207l-88.72 51.3c-.69.414-1.378.138-1.378-.7.138-.827.69-1.792 1.378-2.206zm0 8.826 88.72-51.3c.69-.414 1.377-.138 1.377.69s-.55 1.793-1.377 2.207l-88.72 51.3c-.69.414-1.378.138-1.378-.69.138-.828.69-1.793 1.378-2.207z" class="B"/><use xlink:href="#X" class="E"/><path d="M257.013 297.12l23.97-13.928c.69-.414 1.378-.138 1.378.7s-.55 1.792-1.378 2.206l-23.97 13.928c-.69.414-1.378.138-1.378-.69.138-.828.69-1.793 1.378-2.207z" class="B"/><path d="M298.48 255.612l5.787-3.3c1.24-.69 2.204-.138 2.204 1.24v6.758c0 1.38-.965 3.034-2.204 3.723l-5.787 3.3c-1.24.69-2.204.138-2.204-1.24v-6.758c.138-1.38 1.102-3.034 2.204-3.723z" class="E"/><path d="M289.388 278.366l23.97-13.928c.69-.414 1.378-.138 1.378.7s-.55 1.792-1.378 2.206l-23.97 14.066c-.69.414-1.378.138-1.378-.69s.69-1.793 1.378-2.345z" class="B"/><use xlink:href="#Y" class="E"/><path d="M321.762 259.75l23.972-13.93c.688-.413 1.377-.137 1.377.7s-.55 1.793-1.377 2.206l-23.972 13.93c-.688.414-1.377.138-1.377-.7s.55-1.792 1.377-2.206zm-64.75 43.163 23.97-13.928c.69-.414 1.377-.138 1.377.7s-.55 1.792-1.377 2.206l-23.97 13.928c-.69.414-1.378.138-1.378-.69s.69-1.793 1.378-2.207zm32.375-18.755 23.97-13.928c.69-.414 1.378-.138 1.378.7s-.55 1.792-1.378 2.206l-23.97 13.928c-.69.414-1.378.138-1.378-.69s.69-1.793 1.378-2.207zm32.374-18.754 23.972-13.928c.688-.414 1.377-.138 1.377.69s-.55 1.793-1.377 2.207L321.762 268.3c-.688.414-1.377.138-1.377-.69.0-.7.55-1.655 1.377-2.207zm-64.75 43.164 23.97-13.928c.69-.414 1.377-.138 1.377.69s-.55 1.793-1.377 2.207l-23.97 13.928c-.69.414-1.378.138-1.378-.69s.69-1.793 1.378-2.207zm32.375-18.618 23.97-13.928c.69-.414 1.378-.138 1.378.7s-.55 1.792-1.378 2.206l-23.97 13.928c-.69.414-1.378.138-1.378-.69s.69-1.793 1.378-2.207zm32.374-18.755 23.972-13.928c.688-.414 1.377-.138 1.377.69s-.55 1.793-1.377 2.207L321.762 274.1c-.688.414-1.377.138-1.377-.69s.55-1.793 1.377-2.207z" class="B"/><path d="M266.243 322.496l5.786-3.3c1.24-.69 2.204-.137 2.204 1.242v6.757c0 1.38-.964 3.034-2.204 3.723l-5.786 3.3c-1.24.7-2.204.138-2.204-1.24v-6.757c0-1.38.964-3.034 2.204-3.724z" class="E"/><path d="M257.013 345.39l23.97-13.928c.69-.414 1.377-.138 1.377.69s-.55 1.793-1.377 2.207l-23.97 13.928c-.69.414-1.378.138-1.378-.7.138-.827.69-1.792 1.378-2.206z" class="B"/><path d="M298.48 303.74l5.787-3.31c1.24-.7 2.204-.138 2.204 1.24v6.757c0 1.38-.965 3.034-2.204 3.724l-5.787 3.31c-1.24.7-2.204.138-2.204-1.24v-6.757c.138-1.38 1.102-3.034 2.204-3.724z" class="E"/><path d="M289.388 326.633l23.97-13.93c.69-.413 1.378-.138 1.378.7s-.55 1.792-1.378 2.206l-23.97 13.93c-.69.413-1.378.137-1.378-.7s.69-1.793 1.378-2.206z" class="B"/><path d="M330.855 285.124l5.786-3.3c1.24-.69 2.205-.137 2.205 1.242v6.757c0 1.38-.965 3.034-2.205 3.723l-5.786 3.3c-1.24.7-2.204.138-2.204-1.24v-6.757c0-1.38.964-3.034 2.204-3.724z" class="E"/><path d="M321.763 307.88l23.97-13.93c.69-.413 1.378-.138 1.378.7s-.552 1.793-1.378 2.206l-23.97 13.93c-.69.413-1.378.138-1.378-.7.0-.69.55-1.655 1.378-2.206zm-64.75 43.163 23.97-13.928c.69-.414 1.378-.138 1.378.69s-.55 1.793-1.378 2.207l-23.97 13.928c-.69.414-1.378.138-1.378-.69.138-.7.69-1.793 1.378-2.207zm32.375-18.617 23.97-13.928c.69-.414 1.378-.138 1.378.69s-.55 1.793-1.378 2.207l-23.97 13.928c-.69.414-1.378.138-1.378-.69s.69-1.793 1.378-2.207zm32.375-18.754 23.97-13.93c.69-.413 1.378-.138 1.378.7s-.552 1.793-1.378 2.206l-23.97 13.93c-.69.413-1.378.138-1.378-.7s.55-1.793 1.378-2.206zm-64.75 43.164 23.97-13.93c.69-.413 1.378-.138 1.378.7s-.55 1.793-1.378 2.206l-23.97 13.93c-.69.413-1.378.138-1.378-.7s.69-1.793 1.378-2.206zm32.375-18.756 23.97-13.928c.69-.414 1.378-.138 1.378.7s-.55 1.792-1.378 2.206l-23.97 13.928c-.69.414-1.378.138-1.378-.69s.69-1.793 1.378-2.207zm32.375-18.617 23.97-13.93c.69-.413 1.378-.138 1.378.7s-.552 1.793-1.378 2.206l-23.97 13.93c-.69.413-1.378.138-1.378-.7s.55-1.793 1.378-2.206z" class="B"/><use xlink:href="#Z" class="C"/><path d="M202.596 123.638c4.546-2.62 8.266-.552 8.266 4.826.0 5.24-3.72 11.722-8.266 14.342s-8.266.552-8.266-4.826c0-5.24 3.72-11.584 8.266-14.342zm16.118 28.132c0-8.688-6.06-12.136-13.5-7.86l-4.684 2.758c-7.44 4.275-13.5 14.893-13.5 23.58v2.345c4.27 1.38 9.782.69 15.706-2.758 6.06-3.586 11.7-9.24 16.118-15.997v-2.07h-.138z" class="B"/><path d="M187.58 211.62l35.268-20.4c1.516-.828 2.756-.276 2.756 1.38s-1.24 3.585-2.756 4.55l-35.268 20.41c-1.515.828-2.755.276-2.755-1.38s1.24-3.723 2.755-4.55z" class="D"/><path d="M75.577 507.15l44.773-194.032L365.297 171.49 320.523 365.52 75.577 507.15z" fill="url(#E)"/><path opacity=".1" d="M198.6 435.992V267.748l166.145-95.43-44.223 193.205-121.922 70.47z" fill="#000"/><path d="M240.895 460.4 198.6 435.99l78.664-45.095-36.37 69.504z" class="B"/><path d="M240.897 460.4c-1.378-.828-2.48-2.896-2.48-4.55V156.87c0-1.793 1.24-3.86 2.755-4.69L428.67 43.8c1.515-.828 3.857-.966 5.235-.138s2.48 2.896 2.48 4.55V347.18c0 1.793-1.24 3.862-2.755 4.69L246.132 460.26c-1.516.827-3.858.965-5.235.138z" class="H"/><path d="M243.374 162.525l76.185-49.92-5.098-2.896-73.43 42.475c-1.515.827-2.755 3.033-2.755 4.688v2.758l5.097 2.896z" fill="#007bc5"/><path d="M268.862 171.35l-29.62-17.1c-.55.828-.826 1.793-.826 2.62v298.977c0 1.792 1.102 3.723 2.48 4.55s3.72.828 5.235-.138l22.732-13.1V171.35z" fill="#007bc5"/><path d="M246.13 460.26l187.5-108.393c1.515-.827 2.755-3.034 2.755-4.688V48.203c0-1.793-1.24-2.483-2.755-1.517L246.13 155.08c-1.515.827-2.755 3.033-2.755 4.688v298.977c0 1.655 1.24 2.345 2.755 1.517z" class="J"/><path d="M258.942 228.858l45.05-26.064c3.03-1.793 5.373-.552 5.373 2.758s-2.48 7.31-5.373 8.964l-45.05 26.064c-3.03 1.793-5.373.55-5.373-2.758s2.48-7.31 5.373-8.964z" class="B"/><use xlink:href="#X" x="-10.47" y="2.205" fill="url(#F)"/><path d="M271.48 270.228l35.268-20.41c1.515-.828 2.755-.276 2.755 1.38s-1.24 3.585-2.755 4.55l-35.268 20.4c-1.515.828-2.755.276-2.755-1.38.137-1.655 1.24-3.723 2.755-4.55z" class="B"/><use xlink:href="#Y" x="-75.082" y="63.023" fill="url(#G)"/><path d="M271.48 293.672l35.268-20.4c1.515-.827 2.755-.275 2.755 1.38s-1.24 3.585-2.755 4.55l-35.268 20.4c-1.515.828-2.755.276-2.755-1.38.137-1.655 1.24-3.723 2.755-4.55z" class="B"/><use xlink:href="#a" fill="url(#H)"/><path d="M271.48 317.117l35.268-20.4c1.515-.827 2.755-.276 2.755 1.38s-1.24 3.586-2.755 4.55l-35.268 20.4c-1.515.827-2.755.276-2.755-1.38.137-1.655 1.24-3.586 2.755-4.55z" class="B"/><path d="M255.773 346.904l5.786-3.3c1.24-.69 2.204-.138 2.204 1.24v6.758c0 1.38-.964 3.034-2.204 3.723l-5.786 3.3c-1.24.69-2.204.138-2.204-1.24v-6.758c0-1.38.964-3.034 2.204-3.723z" fill="url(#I)"/><path d="M271.48 340.698l35.268-20.4c1.515-.827 2.755-.275 2.755 1.38s-1.24 3.586-2.755 4.55l-35.268 20.4c-1.515.827-2.755.276-2.755-1.38.137-1.655 1.24-3.723 2.755-4.55zm-15.155 55.3 25.073-14.48c1.516-.828 2.756-.276 2.756 1.38s-1.24 3.585-2.756 4.55l-25.073 14.48c-1.515.827-2.755.275-2.755-1.38s1.24-3.724 2.755-4.55z" class="B"/><path d="M256.324 407.72l50.422-29.098c1.516-.828 2.756-.276 2.756 1.38s-1.24 3.585-2.756 4.55l-50.422 29.098c-1.515.827-2.755.275-2.755-1.38s1.24-3.724 2.755-4.55z" class="C"/><path d="M256.324 407.72l35.268-20.4c1.515-.827 2.755-.275 2.755 1.38s-1.24 3.586-2.755 4.55l-35.268 20.4c-1.515.828-2.755.276-2.755-1.38s1.24-3.723 2.755-4.55z" fill="url(#J)"/><path d="M256.324 419.44l25.073-14.48c1.516-.827 2.756-.276 2.756 1.38s-1.24 3.586-2.756 4.55l-25.073 14.48c-1.515.827-2.755.276-2.755-1.38s1.24-3.723 2.755-4.55zm0-46.887 25.073-14.48c1.516-.827 2.756-.276 2.756 1.38s-1.24 3.586-2.756 4.55l-25.073 14.48c-1.515.827-2.755.276-2.755-1.38s1.24-3.724 2.755-4.55z" class="B"/><path d="M256.324 384.275l50.422-29.097c1.516-.828 2.756-.276 2.756 1.38s-1.24 3.585-2.756 4.55l-50.422 29.098c-1.515.828-2.755.276-2.755-1.38s1.24-3.723 2.755-4.55z" class="C"/><path d="M256.324 384.276l17.9-10.343c1.515-.827 2.755-.275 2.755 1.38s-1.24 3.586-2.755 4.55l-17.9 10.343c-1.515.828-2.755.276-2.755-1.38s1.24-3.723 2.755-4.55z" fill="url(#K)"/><path d="M256.324 431.164l50.422-29.098c1.516-.828 2.756-.276 2.756 1.38s-1.24 3.585-2.756 4.55l-50.422 29.097c-1.515.828-2.755.276-2.755-1.38s1.24-3.723 2.755-4.55z" class="C"/><path d="M256.324 431.163l45.325-26.202c1.515-.827 2.755-.276 2.755 1.38s-1.24 3.586-2.755 4.55l-45.325 26.202c-1.515.827-2.755.276-2.755-1.38s1.24-3.724 2.755-4.55z" fill="url(#L)"/><path d="M433.628 46.685l-114.07 65.92v305.182l114.07-65.918c1.515-.827 2.755-3.034 2.755-4.69V48.203c0-1.655-1.24-2.483-2.755-1.518z" class="C"/><path d="M319.56 124.325v23.444l-10.195 11.722h10.195v23.582l106.63-61.644V62.682l-106.63 61.643z" fill="url(#M)"/><path d="M333.473 125.154l43.258-24.96c2.067-1.24 3.858-.276 3.858 2.206s-1.653 5.38-3.858 6.62l-43.258 24.96c-2.066 1.242-3.857.276-3.857-2.206.137-2.482 1.79-5.378 3.857-6.62zm-2.342 18.892 83.623-48.267c.69-.413 1.378-.138 1.378.7s-.55 1.793-1.378 2.206l-83.623 48.267c-.69.414-1.378.138-1.378-.7.0-.69.55-1.792 1.378-2.206zm0 8.826 83.623-48.266c.69-.414 1.378-.138 1.378.69s-.55 1.793-1.378 2.207l-83.623 48.266c-.69.414-1.378.138-1.378-.69s.55-1.793 1.378-2.207zm0 8.826 83.623-48.266c.69-.414 1.378-.138 1.378.69s-.55 1.793-1.378 2.207l-83.623 48.266c-.69.414-1.378.138-1.378-.69s.55-1.793 1.378-2.207z" class="C"/><path d="M334.3 186.383l5.786-3.3c1.24-.69 2.205-.138 2.205 1.24v6.758c0 1.38-.965 3.034-2.205 3.723l-5.786 3.3c-1.24.69-2.204.138-2.204-1.24v-6.758c0-1.38.964-3.034 2.204-3.723z" fill="url(#N)"/><path d="M350.005 180.177l35.267-20.4c1.516-.828 2.756-.276 2.756 1.38s-1.24 3.585-2.756 4.55l-35.267 20.4c-1.516.827-2.756.275-2.756-1.38s1.24-3.724 2.756-4.55zm-16.53 27.167 88.72-51.3c.69-.414 1.378-.138 1.378.69s-.55 1.793-1.378 2.207l-88.72 51.3c-.69.414-1.378.138-1.378-.69s.55-1.793 1.378-2.207zm-.001 8.826 88.72-51.3c.688-.414 1.377-.138 1.377.69s-.55 1.793-1.377 2.207l-88.72 51.3c-.69.414-1.378.138-1.378-.69s.55-1.793 1.378-2.207zm0 8.825 88.72-51.3c.688-.414 1.377-.138 1.377.69s-.55 1.793-1.377 2.207l-88.72 51.3c-.69.414-1.378.138-1.378-.69s.55-1.793 1.378-2.207zm0 8.827 88.72-51.3c.688-.414 1.377-.138 1.377.69s-.55 1.793-1.377 2.207l-88.72 51.3c-.69.414-1.378.138-1.378-.69s.55-1.793 1.378-2.207z" class="F"/><use xlink:href="#a" x="78.527" y="-72.4" fill="url(#O)"/><path d="M350.005 244.718l35.267-20.4c1.516-.828 2.756-.276 2.756 1.38s-1.24 3.585-2.756 4.55l-35.267 20.4c-1.516.827-2.756.275-2.756-1.38s1.24-3.724 2.756-4.55zm-16.53 27.166 88.72-51.3c.69-.414 1.378-.138 1.378.69s-.55 1.793-1.378 2.207l-88.72 51.3c-.69.414-1.378.138-1.378-.69.0-.7.55-1.793 1.378-2.207zm-.001 8.826 88.72-51.3c.688-.414 1.377-.138 1.377.69s-.55 1.793-1.377 2.207l-88.72 51.3c-.69.414-1.378.138-1.378-.69.0-.7.55-1.793 1.378-2.207zm0 8.826 88.72-51.3c.688-.414 1.377-.138 1.377.69s-.55 1.793-1.377 2.207l-88.72 51.3c-.69.414-1.378.138-1.378-.69s.55-1.793 1.378-2.207zm0 8.826 88.72-51.3c.688-.414 1.377-.138 1.377.69s-.55 1.793-1.377 2.207l-88.72 51.3c-.69.414-1.378.138-1.378-.69s.55-1.793 1.378-2.207z" class="F"/><path d="M342.565 311.188l5.786-3.3c1.24-.7 2.205-.138 2.205 1.24v6.757c0 1.38-.965 3.034-2.205 3.724l-5.786 3.31c-1.24.7-2.204.138-2.204-1.24v-6.757c0-1.24.964-3.034 2.204-3.723z" fill="url(#P)"/><path d="M333.473 334.08l24.11-13.928c.688-.414 1.377-.138 1.377.7s-.55 1.792-1.377 2.206l-24.11 13.928c-.69.414-1.378.138-1.378-.69s.55-1.793 1.378-2.207z" class="F"/><path d="M374.802 292.57l5.786-3.31c1.24-.7 2.204-.138 2.204 1.24v6.757c0 1.38-.964 3.034-2.204 3.724l-5.786 3.31c-1.24.7-2.204.138-2.204-1.24v-6.757c.137-1.38 1.102-3.034 2.204-3.724z" fill="url(#Q)"/><path d="M365.71 315.463l24.11-13.928c.69-.414 1.378-.138 1.378.69s-.55 1.793-1.378 2.207l-24.11 13.928c-.69.414-1.377.138-1.377-.69.137-.828.688-1.793 1.377-2.207z" class="F"/><path d="M407.177 273.815l5.787-3.3c1.24-.7 2.204-.138 2.204 1.24v6.757c0 1.38-.965 3.034-2.204 3.724l-5.787 3.31c-1.24.7-2.204.138-2.204-1.24v-6.757c0-1.38 1.102-3.034 2.204-3.723z" fill="url(#R)"/><path d="M398.084 296.707l24.11-13.928c.69-.414 1.378-.138 1.378.69s-.55 1.793-1.378 2.207l-24.11 13.928c-.688.414-1.377.138-1.377-.69s.69-1.793 1.377-2.207zm-64.61 43.164 24.11-13.928c.69-.414 1.378-.138 1.378.69s-.55 1.793-1.378 2.207l-24.11 13.928c-.69.414-1.378.138-1.378-.7s.552-1.792 1.378-2.206zm32.237-18.756 24.11-13.928c.688-.414 1.377-.138 1.377.7s-.55 1.792-1.377 2.206L365.7 324.01c-.69.414-1.378.138-1.378-.69.138-.7.69-1.793 1.378-2.207zm32.374-18.616 24.11-13.93c.69-.413 1.378-.137 1.378.7s-.55 1.793-1.378 2.206l-24.11 13.93c-.688.414-1.377.138-1.377-.7s.69-1.793 1.377-2.206zm-64.61 43.026 24.11-13.928c.69-.414 1.378-.138 1.378.69s-.55 1.793-1.378 2.207l-24.11 13.928c-.69.414-1.378.138-1.378-.69.0-.7.552-1.793 1.378-2.207zm32.237-18.617 24.11-13.928c.688-.414 1.377-.138 1.377.69s-.55 1.793-1.377 2.207l-24.11 13.928c-.69.414-1.378.138-1.378-.7.138-.827.69-1.792 1.378-2.206zm32.374-18.755 24.11-13.93c.69-.413 1.378-.138 1.378.7s-.55 1.793-1.378 2.206l-24.11 13.93c-.688.413-1.377.138-1.377-.7s.69-1.793 1.377-2.206z" class="F"/><path d="M342.566 359.454l5.786-3.3c1.24-.7 2.204-.138 2.204 1.24v6.757c0 1.38-.964 3.034-2.204 3.724l-5.786 3.3c-1.24.69-2.205.138-2.205-1.242v-6.757c0-1.38.965-3.034 2.205-3.723z" fill="url(#S)"/><path d="M333.473 382.345l24.11-13.928c.688-.414 1.377-.138 1.377.69s-.55 1.793-1.377 2.207l-24.11 13.928c-.69.414-1.378.138-1.378-.7s.55-1.792 1.378-2.206z" class="F"/><path d="M374.802 340.7l5.786-3.3c1.24-.69 2.204-.138 2.204 1.24v6.758c0 1.38-.964 3.033-2.204 3.723l-5.786 3.3c-1.24.69-2.204.138-2.204-1.24v-6.758c.137-1.38 1.102-3.034 2.204-3.723z" fill="url(#T)"/><path d="M365.7 363.59l24.11-13.928c.688-.414 1.377-.138 1.377.69s-.55 1.793-1.377 2.207l-24.11 13.928c-.69.414-1.378.138-1.378-.69.138-.7.69-1.793 1.378-2.207z" class="F"/><path d="M407.177 322.082l5.786-3.3c1.24-.7 2.205-.138 2.205 1.24v6.757c0 1.38-.965 3.034-2.205 3.724l-5.786 3.3c-1.24.69-2.204.137-2.204-1.242v-6.757c0-1.38 1.102-3.034 2.204-3.723z" fill="url(#U)"/><path d="M398.084 344.974l24.11-13.928c.69-.414 1.378-.138 1.378.69s-.55 1.793-1.378 2.207l-24.11 13.928c-.688.414-1.377.138-1.377-.7s.69-1.792 1.377-2.206zM333.473 388l24.11-13.93c.688-.413 1.377-.137 1.377.7s-.55 1.793-1.377 2.206l-24.11 13.93c-.69.413-1.378.138-1.378-.7.0-.69.55-1.793 1.378-2.206zm32.237-18.617 24.11-13.93c.69-.413 1.378-.138 1.378.7s-.55 1.792-1.378 2.206l-24.11 13.93c-.69.413-1.377.137-1.377-.7.137-.827.688-1.793 1.377-2.206zm32.374-18.755 24.11-13.928c.69-.414 1.378-.138 1.378.69s-.55 1.793-1.378 2.207l-24.11 13.928c-.688.414-1.377.138-1.377-.69.0-.7.69-1.793 1.377-2.207zm-64.61 43.163 24.11-13.928c.688-.414 1.377-.138 1.377.69s-.55 1.793-1.377 2.207l-24.11 13.928c-.69.414-1.378.138-1.378-.69s.55-1.793 1.378-2.207zm32.237-18.755 24.11-13.928c.69-.414 1.378-.138 1.378.7s-.55 1.792-1.378 2.206l-24.11 13.928c-.69.414-1.377.138-1.377-.69.137-.7.688-1.793 1.377-2.207zm32.374-18.616 24.11-13.93c.69-.413 1.378-.138 1.378.7s-.55 1.793-1.378 2.206l-24.11 13.93c-.688.413-1.377.138-1.377-.7s.69-1.793 1.377-2.206z" class="F"/><use xlink:href="#Z" x="76.322" y="36.957" class="B"/><path d="M278.918 160.732c4.546-2.62 8.265-.55 8.265 4.827.0 5.24-3.72 11.722-8.265 14.342s-8.266.552-8.266-4.827 3.72-11.72 8.266-14.342zm16.118 27.995c0-8.688-6.06-12.135-13.5-7.86l-4.684 2.758c-7.44 4.275-13.5 14.893-13.5 23.58v2.345c4.27 1.38 9.782.69 15.706-2.758 6.06-3.586 11.7-9.24 16.118-15.997v-2.07h-.138z" class="C"/><path d="M263.9 248.578l35.268-20.4c1.515-.828 2.755-.276 2.755 1.38s-1.24 3.585-2.755 4.55l-35.268 20.4c-1.515.827-2.755.275-2.755-1.38s1.24-3.723 2.755-4.55z" class="B"/></g><defs><filter id="A" x="0" y="0" width="565" height="521.149" filterUnits="userSpaceOnUse" color-interpolation-filters="sRGB"><feFlood flood-opacity="0" result="A"/><feColorMatrix in="SourceAlpha" values="0 0 0 0 0 0 0 0 0 0 0 0 0 0 0 0 0 0 127 0"/><feOffset dy="4"/><feGaussianBlur stdDeviation="5"/><feColorMatrix values="0 0 0 0 0 0 0 0 0 0 0 0 0 0 0 0 0 0 0.2 0"/><feBlend in2="A"/><feBlend in="SourceGraphic"/></filter><linearGradient id="B" x1="466.16" y1="311.242" x2="436.67" y2="271.575" xlink:href="#b"><stop stop-color="#0081f1"/><stop offset="1" stop-color="#00b2f1"/></linearGradient><linearGradient id="C" x1="461.393" y1="331.396" x2="442.217" y2="300.537" xlink:href="#b"><stop stop-color="#0081f1"/><stop offset="1" stop-color="#00b2f1"/></linearGradient><linearGradient id="D" x1="230.93" y1="389.83" x2="66.725" y2="197.693" xlink:href="#b"><stop stop-color="#0081f1"/><stop offset="1" stop-color="#00b2f1"/></linearGradient><linearGradient id="E" x1="259.327" y1="397.615" x2="115.417" y2="184.288" xlink:href="#b"><stop stop-color="#0081f1"/><stop offset="1" stop-color="#00b2f1"/></linearGradient><linearGradient id="F" x1="270.505" y1="281.149" x2="263.326" y2="273.106" xlink:href="#b"><stop stop-color="#0081f1"/><stop offset="1" stop-color="#00b2f1"/></linearGradient><linearGradient id="G" x1="335.117" y1="243.775" x2="327.938" y2="235.732" xlink:href="#b"><stop stop-color="#0081f1"/><stop offset="1" stop-color="#00b2f1"/></linearGradient><linearGradient id="H" x1="260.035" y1="330.243" x2="252.856" y2="322.2" xlink:href="#b"><stop stop-color="#0081f1"/><stop offset="1" stop-color="#00b2f1"/></linearGradient><linearGradient id="I" x1="260.035" y1="353.824" x2="252.856" y2="345.78" xlink:href="#b"><stop stop-color="#0081f1"/><stop offset="1" stop-color="#00b2f1"/></linearGradient><linearGradient id="J" x1="279.432" y1="405.187" x2="270.997" y2="383.389" xlink:href="#b"><stop stop-color="#0081f1"/><stop offset="1" stop-color="#00b2f1"/></linearGradient><linearGradient id="K" x1="268.423" y1="385.028" x2="262.767" y2="371.672" xlink:href="#b"><stop stop-color="#0081f1"/><stop offset="1" stop-color="#00b2f1"/></linearGradient><linearGradient id="L" x1="285.81" y1="426.74" x2="275.775" y2="400.103" xlink:href="#b"><stop stop-color="#0081f1"/><stop offset="1" stop-color="#00b2f1"/></linearGradient><linearGradient id="M" x1="383.458" y1="143.786" x2="334.339" y2="61.926" xlink:href="#b"><stop stop-color="#0081f1"/><stop offset="1" stop-color="#00b2f1"/></linearGradient><linearGradient id="N" x1="338.561" y1="193.303" x2="331.382" y2="185.259" xlink:href="#b"><stop stop-color="#0081f1"/><stop offset="1" stop-color="#00b2f1"/></linearGradient><linearGradient id="O" x1="260.034" y1="330.243" x2="252.855" y2="322.2" xlink:href="#b"><stop stop-color="#0081f1"/><stop offset="1" stop-color="#00b2f1"/></linearGradient><linearGradient id="P" x1="346.827" y1="318.107" x2="339.649" y2="310.064" xlink:href="#b"><stop stop-color="#0081f1"/><stop offset="1" stop-color="#00b2f1"/></linearGradient><linearGradient id="Q" x1="379.063" y1="299.49" x2="371.885" y2="291.447" xlink:href="#b"><stop stop-color="#0081f1"/><stop offset="1" stop-color="#00b2f1"/></linearGradient><linearGradient id="R" x1="411.439" y1="280.734" x2="404.261" y2="272.691" xlink:href="#b"><stop stop-color="#0081f1"/><stop offset="1" stop-color="#00b2f1"/></linearGradient><linearGradient id="S" x1="346.827" y1="366.374" x2="339.649" y2="358.33" xlink:href="#b"><stop stop-color="#0081f1"/><stop offset="1" stop-color="#00b2f1"/></linearGradient><linearGradient id="T" x1="379.063" y1="347.619" x2="371.885" y2="339.575" xlink:href="#b"><stop stop-color="#0081f1"/><stop offset="1" stop-color="#00b2f1"/></linearGradient><linearGradient id="U" x1="411.439" y1="329.001" x2="404.26" y2="320.958" xlink:href="#b"><stop stop-color="#0081f1"/><stop offset="1" stop-color="#00b2f1"/></linearGradient><path id="V" d="M433.077 314.9c.276-7.998 6.613-24.685 15.292-34.752s22.318-16.273 31.41-12.825c8.404 3.3 7.026 14.48-3.582 21.65-10.746 7.033-26.727 15.86-31.824 28.546l-10.195 15.445-1.102-18.065z"/><path id="W" d="M75.577 267.47V507.15L320.523 365.52V147.63L138.398 252.99l-6.338-18.203-56.483 32.683z"/><path id="X" d="M266.243 274.23l5.786-3.3c1.24-.7 2.205-.138 2.205 1.24v6.757c0 1.38-.965 3.034-2.205 3.724l-5.786 3.3c-1.24.69-2.204.137-2.204-1.242v-6.757c0-1.38.964-3.034 2.204-3.723z"/><path id="Y" d="M330.855 236.857l5.786-3.3c1.24-.7 2.204-.138 2.204 1.24v6.757c0 1.38-.964 3.034-2.204 3.724l-5.786 3.31c-1.24.7-2.204.138-2.204-1.24v-6.757c0-1.38.964-3.034 2.204-3.723z"/><path id="Z" d="M202.596 110.95c14.052-8.136 25.487-1.517 25.487 14.756s-11.435 35.993-25.487 44.13-25.487 1.517-25.487-14.756 11.435-35.993 25.487-44.13z"/><path id="a" d="M255.773 323.323l5.786-3.31c1.24-.7 2.205-.138 2.205 1.24v6.757c0 1.38-.965 3.034-2.205 3.724l-5.786 3.31c-1.24.7-2.204.138-2.204-1.24v-6.757c0-1.38.964-3.034 2.204-3.724z"/><linearGradient id="b" gradientUnits="userSpaceOnUse"/></defs></svg>