<svg width="565" height="522" viewBox="0 0 565 522" fill="none" xmlns="http://www.w3.org/2000/svg">
<g filter="url(#filter0_d)">
<path d="M465.176 306.498L416.683 278.503V174.661L465.176 202.656V306.498Z" fill="#E0E0E0"/>
<path d="M465.177 202.655L534.197 162.663V266.505L465.177 306.497V202.655Z" fill="#EBEBEB"/>
<path d="M534.197 162.663L465.177 202.655L416.683 174.661L485.842 134.668L534.197 162.663Z" fill="#F5F5F5"/>
<path d="M472.065 206.655L527.309 174.661L528.549 175.351V213.826L473.305 245.82L472.065 245.13V206.655Z" fill="#E6E6E6"/>
<path d="M494.934 201.276L504.302 195.897C505.542 195.208 506.506 195.484 506.506 196.587C506.506 197.69 505.542 199.207 504.302 199.897L494.934 205.275C493.694 205.964 492.729 205.689 492.729 204.585C492.729 203.482 493.694 202.103 494.934 201.276Z" fill="#E6E6E6"/>
<path d="M470.825 255.335L526.069 223.341V261.816L527.309 262.506L472.065 294.5L470.687 293.81L470.825 255.335Z" fill="#E0E0E0"/>
<path d="M472.065 256.024L527.309 224.03V262.506L472.065 294.499V256.024Z" fill="#F5F5F5"/>
<path d="M493.694 249.956L503.062 244.578C504.302 243.889 505.266 244.164 505.266 245.268C505.266 246.371 504.302 247.888 503.062 248.577L493.694 253.956C492.454 254.645 491.49 254.369 491.49 253.266C491.49 252.163 492.454 250.784 493.694 249.956Z" fill="#E6E6E6"/>
<path d="M472.065 206.655L527.309 174.661V213.136L472.065 245.13V206.655Z" fill="#E0E0E0"/>
<path d="M555 193.691L524.691 176.177V210.102L555 227.478V193.691Z" fill="#E6E6E6"/>
<path d="M492.729 250.508V202.656L504.577 195.76L506.644 198.656L541.223 178.66V222.514L492.729 250.508Z" fill="#EBEBEB"/>
<path d="M492.729 250.507L496.174 208.584L544.667 180.59L541.223 222.513L492.729 250.507Z" fill="#FAFAFA"/>
<path d="M499.618 225.547L473.304 210.377V244.302L499.618 259.471V225.547Z" fill="#E6E6E6"/>
<path d="M499.618 222.514L555 190.658V229.133L499.618 261.127V222.514Z" fill="#F5F5F5"/>
<path d="M521.385 216.584L530.753 211.206C531.993 210.516 532.957 210.792 532.957 211.895C532.957 212.998 531.993 214.515 530.753 215.205L521.385 220.583C520.145 221.273 519.181 220.997 519.181 219.893C519.181 218.79 520.145 217.273 521.385 216.584Z" fill="#E6E6E6"/>
<path d="M499.618 222.513L497.827 221.548V260.023L499.618 261.126V222.513Z" fill="#E0E0E0"/>
<path d="M497.827 221.548L553.209 189.554L555 190.657L499.618 222.513L497.827 221.548Z" fill="#F0F0F0"/>
<path d="M433.077 314.91C433.353 306.912 439.69 290.225 448.369 280.158C457.049 270.091 470.687 263.885 479.78 267.333C488.184 270.643 486.806 281.813 476.198 288.984C465.452 296.017 449.471 304.843 444.374 317.53L434.179 332.975L433.077 314.91Z" fill="#27DEBF"/>
<path d="M433.077 314.91C433.353 306.912 439.69 290.225 448.369 280.158C457.049 270.091 470.687 263.885 479.78 267.333C488.184 270.643 486.806 281.813 476.198 288.984C465.452 296.017 449.471 304.843 444.374 317.53L434.179 332.975L433.077 314.91Z" fill="url(#paint0_linear)"/>
<path d="M476.474 271.194C466.141 273.539 436.522 294.362 433.766 324.15" stroke="white" stroke-width="1.0259" stroke-miterlimit="10" stroke-linecap="round"/>
<path d="M435.695 346.49C436.108 338.216 443.272 332.286 452.502 326.77C463.524 320.289 473.029 317.393 476.336 311.049C479.642 304.705 473.718 297.534 462.284 301.258C452.64 304.43 434.042 320.978 433.904 332.838L435.695 346.49Z" fill="url(#paint1_linear)"/>
<path d="M469.172 306.36C454.018 309.807 436.935 323.736 434.593 338.216" stroke="white" stroke-miterlimit="10" stroke-linecap="round"/>
<path d="M10 220.86V460.538L255.084 318.91V101.021L72.821 206.38L66.6215 188.177L10 220.86Z" fill="#0076BD"/>
<path d="M10 460.538L22.6744 242.649L267.621 101.021L255.084 318.91L10 460.538Z" fill="white"/>
<path d="M10 460.538L28.8738 246.372L273.958 104.744L255.084 318.91L10 460.538Z" fill="#0076BD"/>
<path d="M75.5767 267.471V507.149L320.523 365.521V147.632L138.398 252.991L132.06 234.788L75.5767 267.471Z" fill="url(#paint2_linear)"/>
<g opacity="0.1">
<path d="M75.5767 267.471V507.149L320.523 365.521V147.632L138.398 252.991L132.06 234.788L75.5767 267.471Z" fill="url(#paint3_linear)"/>
</g>
<path d="M164.575 423.441C163.197 422.614 162.095 420.545 162.095 418.89V119.775C162.095 117.983 163.335 115.914 164.851 115.087L352.349 6.69381C353.865 5.86638 356.206 5.72848 357.584 6.55591C358.962 7.38334 360.064 9.4519 360.064 11.1068V310.084C360.064 311.876 358.824 313.945 357.309 314.772L169.81 423.165C168.295 424.131 165.953 424.269 164.575 423.441Z" fill="#EBEBEB"/>
<path d="M167.053 125.567L243.237 75.646L238.14 72.75L164.711 115.225C163.195 116.052 161.955 118.258 161.955 119.913V122.671L167.053 125.567Z" fill="#EBEBEB"/>
<path d="M192.401 134.255L162.782 117.155C162.231 117.982 161.955 118.948 161.955 119.775V418.752C161.955 420.545 163.057 422.475 164.435 423.303C165.813 424.13 168.155 424.13 169.67 423.165L192.401 410.064V134.255Z" fill="#E0E0E0"/>
<path d="M169.807 423.303L357.306 314.91C358.821 314.083 360.061 311.876 360.061 310.221V11.2446C360.061 9.45184 358.821 8.76232 357.306 9.72765L169.807 118.121C168.292 118.948 167.052 121.154 167.052 122.809V421.786C167.052 423.441 168.292 424.131 169.807 423.303Z" fill="#E6E6E6"/>
<path d="M182.62 191.761L227.669 165.697C230.7 163.905 233.042 165.146 233.042 168.455C233.042 171.765 230.562 175.764 227.669 177.419L182.62 203.483C179.589 205.276 177.247 204.035 177.247 200.725C177.247 197.415 179.589 193.554 182.62 191.761Z" fill="#F5F5F5"/>
<path d="M179.314 239.338L185.1 236.028C186.34 235.338 187.304 235.89 187.304 237.269V244.026C187.304 245.405 186.34 247.06 185.1 247.75L179.314 251.059C178.074 251.749 177.109 251.197 177.109 249.818V243.061C177.247 241.82 178.211 240.165 179.314 239.338Z" fill="#FAFAFA"/>
<path d="M195.156 233.27L230.424 212.86C231.94 212.033 233.18 212.584 233.18 214.239C233.18 215.894 231.94 217.825 230.424 218.79L195.156 239.2C193.641 240.027 192.401 239.476 192.401 237.821C192.401 236.166 193.641 234.097 195.156 233.27Z" fill="#F5F5F5"/>
<path d="M179.314 262.922L185.1 259.612C186.34 258.922 187.304 259.474 187.304 260.853V267.61C187.304 268.989 186.34 270.644 185.1 271.334L179.314 274.643C178.074 275.333 177.109 274.781 177.109 273.402V266.645C177.247 265.266 178.211 263.611 179.314 262.922Z" fill="#FAFAFA"/>
<path d="M195.156 256.716L230.424 236.306C231.94 235.479 233.18 236.03 233.18 237.685C233.18 239.34 231.94 241.27 230.424 242.236L195.156 262.646C193.641 263.473 192.401 262.921 192.401 261.267C192.401 259.612 193.641 257.543 195.156 256.716Z" fill="#F5F5F5"/>
<path d="M179.314 286.364L185.1 283.055C186.34 282.365 187.304 282.917 187.304 284.296V291.053C187.304 292.432 186.34 294.087 185.1 294.777L179.314 298.086C178.074 298.776 177.109 298.224 177.109 296.845V290.088C177.247 288.709 178.211 287.054 179.314 286.364Z" fill="#FAFAFA"/>
<path d="M195.156 280.158L230.424 259.748C231.94 258.921 233.18 259.473 233.18 261.127C233.18 262.782 231.94 264.713 230.424 265.678L195.156 286.088C193.641 286.915 192.401 286.364 192.401 284.709C192.401 283.054 193.641 280.986 195.156 280.158Z" fill="#F5F5F5"/>
<path d="M179.314 309.947L185.1 306.637C186.34 305.948 187.304 306.499 187.304 307.878V314.636C187.304 316.015 186.34 317.67 185.1 318.359L179.314 321.669C178.074 322.358 177.109 321.807 177.109 320.428V313.67C177.247 312.291 178.211 310.636 179.314 309.947Z" fill="#FAFAFA"/>
<path d="M195.157 303.74L230.425 283.33C231.94 282.503 233.18 283.055 233.18 284.709C233.18 286.364 231.94 288.295 230.425 289.26L195.157 309.67C193.641 310.498 192.401 309.946 192.401 308.291C192.401 306.636 193.641 304.568 195.157 303.74Z" fill="#F5F5F5"/>
<path d="M179.865 359.04L204.938 344.56C206.453 343.732 207.693 344.284 207.693 345.939C207.693 347.594 206.453 349.524 204.938 350.49L179.865 364.97C178.349 365.797 177.109 365.246 177.109 363.591C177.247 361.936 178.487 359.867 179.865 359.04Z" fill="#F5F5F5"/>
<path d="M179.865 370.762L230.287 341.664C231.802 340.836 233.042 341.388 233.042 343.043C233.042 344.698 231.802 346.628 230.287 347.594L179.865 376.554C178.349 377.381 177.109 376.829 177.109 375.175C177.247 373.658 178.487 371.589 179.865 370.762Z" fill="#F0F0F0"/>
<path d="M179.865 370.761L215.133 350.351C216.648 349.523 217.888 350.075 217.888 351.73C217.888 353.385 216.648 355.315 215.133 356.281L179.865 376.553C178.349 377.38 177.109 376.829 177.109 375.174C177.247 373.657 178.487 371.588 179.865 370.761Z" fill="#FAFAFA"/>
<path d="M179.865 382.484L204.938 368.004C206.453 367.176 207.693 367.728 207.693 369.383C207.693 371.038 206.453 372.968 204.938 373.934L179.865 388.414C178.349 389.241 177.109 388.689 177.109 387.035C177.247 385.38 178.487 383.311 179.865 382.484Z" fill="#F5F5F5"/>
<path d="M179.865 335.596L204.938 321.116C206.453 320.289 207.693 320.84 207.693 322.495C207.693 324.15 206.453 326.081 204.938 327.046L179.865 341.526C178.349 342.353 177.109 341.802 177.109 340.147C177.247 338.354 178.487 336.423 179.865 335.596Z" fill="#F5F5F5"/>
<path d="M179.865 347.318L230.287 318.22C231.802 317.393 233.042 317.944 233.042 319.599C233.042 321.254 231.802 323.185 230.287 324.15L179.865 353.11C178.349 353.937 177.109 353.386 177.109 351.731C177.247 350.214 178.487 348.145 179.865 347.318Z" fill="#F0F0F0"/>
<path d="M179.865 347.318L197.774 336.975C199.29 336.148 200.529 336.7 200.529 338.354C200.529 340.009 199.29 341.94 197.774 342.905L179.865 353.248C178.349 354.076 177.109 353.524 177.109 351.869C177.247 350.214 178.487 348.146 179.865 347.318Z" fill="#FAFAFA"/>
<path d="M179.865 394.205L230.287 365.107C231.802 364.279 233.042 364.831 233.042 366.486C233.042 368.141 231.802 370.071 230.287 371.037L179.865 400.134C178.349 400.962 177.109 400.41 177.109 398.755C177.247 397.101 178.487 395.032 179.865 394.205Z" fill="#F0F0F0"/>
<path d="M179.865 394.206L225.189 368.004C226.705 367.176 227.945 367.728 227.945 369.383C227.945 371.038 226.705 372.968 225.189 373.934L179.865 400.135C178.349 400.963 177.109 400.411 177.109 398.756C177.247 397.102 178.487 395.033 179.865 394.206Z" fill="#FAFAFA"/>
<path d="M357.306 9.72765L243.237 75.646V380.829L357.306 314.91C358.822 314.083 360.062 311.876 360.062 310.221V11.2446C360.062 9.45184 358.822 8.76232 357.306 9.72765Z" fill="#F5F5F5"/>
<path d="M243.237 87.3684V110.812L233.042 122.534H243.237V146.116L349.867 84.4724V25.7251L243.237 87.3684Z" fill="#EBEBEB"/>
<path d="M257.151 88.1951L300.409 63.2344C302.476 61.9933 304.267 62.9586 304.267 65.4409C304.267 67.9231 302.613 70.8191 300.409 72.0603L257.151 97.021C255.084 98.2621 253.293 97.2968 253.293 94.8145C253.431 92.3322 255.084 89.4362 257.151 88.1951Z" fill="#FAFAFA"/>
<path d="M254.671 107.087L338.295 58.8209C338.983 58.4072 339.672 58.683 339.672 59.5105C339.672 60.3379 339.121 61.3032 338.295 61.7169L254.671 109.983C253.982 110.397 253.293 110.121 253.293 109.294C253.431 108.604 253.982 107.501 254.671 107.087Z" fill="#FAFAFA"/>
<path d="M254.671 115.914L338.295 67.6476C338.983 67.2339 339.672 67.5097 339.672 68.3371C339.672 69.1645 339.121 70.1299 338.295 70.5436L254.671 118.81C253.982 119.224 253.293 118.948 253.293 118.121C253.293 117.293 253.982 116.328 254.671 115.914Z" fill="#FAFAFA"/>
<path d="M254.671 124.74L338.295 76.4733C338.983 76.0596 339.672 76.3354 339.672 77.1628C339.672 77.9902 339.121 78.9556 338.295 79.3693L254.671 127.636C253.982 128.05 253.293 127.774 253.293 126.946C253.431 126.119 253.982 125.154 254.671 124.74Z" fill="#FAFAFA"/>
<path d="M257.84 149.288L263.626 145.978C264.866 145.289 265.83 145.841 265.83 147.22V153.977C265.83 155.356 264.866 157.011 263.626 157.7L257.84 161.01C256.6 161.7 255.635 161.148 255.635 159.769V153.15C255.773 151.77 256.738 149.978 257.84 149.288Z" fill="white"/>
<path d="M273.683 143.22L308.951 122.81C310.466 121.983 311.706 122.535 311.706 124.189C311.706 125.844 310.466 127.775 308.951 128.74L273.683 149.012C272.167 149.84 270.927 149.288 270.927 147.633C270.927 145.978 272.167 144.048 273.683 143.22Z" fill="#E0E0E0"/>
<path d="M257.014 170.386L345.735 119.085C346.424 118.671 347.113 118.947 347.113 119.775C347.113 120.602 346.562 121.567 345.735 121.981L257.014 173.282C256.325 173.695 255.636 173.419 255.636 172.592C255.774 171.765 256.325 170.799 257.014 170.386Z" fill="#E0E0E0"/>
<path d="M257.013 179.211L345.734 127.911C346.423 127.497 347.111 127.773 347.111 128.6C347.111 129.428 346.56 130.393 345.734 130.807L257.013 182.107C256.324 182.521 255.635 182.245 255.635 181.418C255.773 180.59 256.324 179.625 257.013 179.211Z" fill="#E0E0E0"/>
<path d="M257.013 188.037L345.734 136.737C346.423 136.323 347.111 136.599 347.111 137.426C347.111 138.254 346.56 139.219 345.734 139.633L257.013 190.933C256.324 191.347 255.635 191.071 255.635 190.244C255.773 189.416 256.324 188.451 257.013 188.037Z" fill="#E0E0E0"/>
<path d="M257.013 196.864L345.734 145.564C346.423 145.15 347.111 145.426 347.111 146.253C347.111 147.081 346.56 148.046 345.734 148.46L257.013 199.76C256.324 200.174 255.635 199.898 255.635 199.071C255.773 198.243 256.324 197.278 257.013 196.864Z" fill="#E0E0E0"/>
<path d="M257.839 213.964L263.626 210.655C264.866 209.965 265.83 210.517 265.83 211.896V218.653C265.83 220.032 264.866 221.687 263.626 222.377L257.839 225.686C256.6 226.376 255.635 225.824 255.635 224.445V217.688C255.773 216.309 256.737 214.654 257.839 213.964Z" fill="white"/>
<path d="M273.683 207.758L308.951 187.348C310.466 186.521 311.706 187.073 311.706 188.727C311.706 190.382 310.466 192.313 308.951 193.278L273.683 213.688C272.167 214.516 270.927 213.964 270.927 212.309C270.927 210.654 272.167 208.586 273.683 207.758Z" fill="#E0E0E0"/>
<path d="M257.014 234.926L345.735 183.626C346.424 183.212 347.112 183.488 347.112 184.315C347.112 185.143 346.561 186.108 345.735 186.522L257.014 237.822C256.325 238.236 255.636 237.96 255.636 237.133C255.774 236.443 256.325 235.34 257.014 234.926Z" fill="#E0E0E0"/>
<path d="M257.013 243.752L345.734 192.451C346.423 192.038 347.111 192.313 347.111 193.141C347.111 193.968 346.56 194.934 345.734 195.347L257.013 246.648C256.324 247.061 255.635 246.786 255.635 245.958C255.773 245.131 256.324 244.165 257.013 243.752Z" fill="#E0E0E0"/>
<path d="M257.013 252.577L345.734 201.276C346.423 200.863 347.111 201.139 347.111 201.966C347.111 202.793 346.56 203.759 345.734 204.173L257.013 255.473C256.324 255.887 255.635 255.611 255.635 254.783C255.773 253.956 256.324 252.991 257.013 252.577Z" fill="#E0E0E0"/>
<path d="M257.013 261.403L345.734 210.103C346.423 209.689 347.111 209.965 347.111 210.792C347.111 211.62 346.56 212.585 345.734 212.999L257.013 264.299C256.324 264.713 255.635 264.437 255.635 263.61C255.773 262.782 256.324 261.817 257.013 261.403Z" fill="#E0E0E0"/>
<path d="M266.243 274.229L272.029 270.919C273.269 270.229 274.234 270.781 274.234 272.16V278.917C274.234 280.296 273.269 281.951 272.029 282.641L266.243 285.951C265.003 286.64 264.039 286.088 264.039 284.709V277.952C264.039 276.573 265.003 274.918 266.243 274.229Z" fill="white"/>
<path d="M257.013 297.121L280.984 283.193C281.673 282.779 282.362 283.055 282.362 283.883C282.362 284.71 281.811 285.675 280.984 286.089L257.013 300.017C256.324 300.431 255.635 300.155 255.635 299.328C255.773 298.5 256.324 297.535 257.013 297.121Z" fill="#E0E0E0"/>
<path d="M298.48 255.612L304.267 252.302C305.506 251.613 306.471 252.164 306.471 253.543V260.301C306.471 261.68 305.506 263.335 304.267 264.024L298.48 267.334C297.24 268.023 296.276 267.472 296.276 266.093V259.335C296.414 257.956 297.378 256.301 298.48 255.612Z" fill="white"/>
<path d="M289.388 278.366L313.359 264.438C314.048 264.024 314.737 264.3 314.737 265.128C314.737 265.955 314.186 266.92 313.359 267.334L289.388 281.4C288.699 281.814 288.01 281.538 288.01 280.711C288.01 279.883 288.699 278.918 289.388 278.366Z" fill="#E0E0E0"/>
<path d="M330.855 236.857L336.641 233.547C337.881 232.857 338.845 233.409 338.845 234.788V241.545C338.845 242.924 337.881 244.579 336.641 245.269L330.855 248.578C329.615 249.268 328.651 248.716 328.651 247.337V240.58C328.651 239.201 329.615 237.546 330.855 236.857Z" fill="white"/>
<path d="M321.762 259.749L345.734 245.82C346.422 245.407 347.111 245.683 347.111 246.51C347.111 247.337 346.56 248.303 345.734 248.716L321.762 262.645C321.074 263.059 320.385 262.783 320.385 261.955C320.385 261.128 320.936 260.163 321.762 259.749Z" fill="#E0E0E0"/>
<path d="M257.013 302.912L280.984 288.984C281.673 288.57 282.361 288.846 282.361 289.674C282.361 290.501 281.81 291.466 280.984 291.88L257.013 305.808C256.324 306.222 255.635 305.946 255.635 305.119C255.635 304.291 256.324 303.326 257.013 302.912Z" fill="#E0E0E0"/>
<path d="M289.388 284.157L313.359 270.229C314.048 269.815 314.737 270.091 314.737 270.919C314.737 271.746 314.186 272.711 313.359 273.125L289.388 287.053C288.699 287.467 288.01 287.191 288.01 286.364C288.01 285.537 288.699 284.571 289.388 284.157Z" fill="#E0E0E0"/>
<path d="M321.762 265.403L345.734 251.475C346.422 251.061 347.111 251.337 347.111 252.164C347.111 252.992 346.56 253.957 345.734 254.371L321.762 268.299C321.074 268.713 320.385 268.437 320.385 267.61C320.385 266.92 320.936 265.955 321.762 265.403Z" fill="#E0E0E0"/>
<path d="M257.013 308.567L280.984 294.639C281.673 294.225 282.361 294.501 282.361 295.328C282.361 296.156 281.81 297.121 280.984 297.535L257.013 311.463C256.324 311.877 255.635 311.601 255.635 310.774C255.635 309.946 256.324 308.981 257.013 308.567Z" fill="#E0E0E0"/>
<path d="M289.388 289.949L313.359 276.021C314.048 275.607 314.737 275.883 314.737 276.711C314.737 277.538 314.186 278.503 313.359 278.917L289.388 292.845C288.699 293.259 288.01 292.983 288.01 292.156C288.01 291.329 288.699 290.363 289.388 289.949Z" fill="#E0E0E0"/>
<path d="M321.762 271.194L345.734 257.266C346.422 256.852 347.111 257.128 347.111 257.955C347.111 258.783 346.56 259.748 345.734 260.162L321.762 274.09C321.074 274.504 320.385 274.228 320.385 273.401C320.385 272.573 320.936 271.608 321.762 271.194Z" fill="#E0E0E0"/>
<path d="M266.243 322.496L272.029 319.186C273.269 318.497 274.233 319.049 274.233 320.428V327.185C274.233 328.564 273.269 330.219 272.029 330.908L266.243 334.218C265.003 334.908 264.039 334.356 264.039 332.977V326.22C264.039 324.841 265.003 323.186 266.243 322.496Z" fill="white"/>
<path d="M257.013 345.389L280.984 331.461C281.673 331.047 282.361 331.323 282.361 332.15C282.361 332.978 281.81 333.943 280.984 334.357L257.013 348.285C256.324 348.699 255.635 348.423 255.635 347.595C255.773 346.768 256.324 345.803 257.013 345.389Z" fill="#E0E0E0"/>
<path d="M298.48 303.74L304.267 300.431C305.506 299.741 306.471 300.293 306.471 301.672V308.429C306.471 309.808 305.506 311.463 304.267 312.153L298.48 315.462C297.24 316.152 296.276 315.6 296.276 314.221V307.464C296.414 306.085 297.378 304.43 298.48 303.74Z" fill="white"/>
<path d="M289.388 326.633L313.359 312.704C314.048 312.291 314.737 312.566 314.737 313.394C314.737 314.221 314.186 315.186 313.359 315.6L289.388 329.529C288.699 329.942 288.01 329.666 288.01 328.839C288.01 328.012 288.699 327.046 289.388 326.633Z" fill="#E0E0E0"/>
<path d="M330.855 285.124L336.641 281.814C337.881 281.125 338.846 281.677 338.846 283.056V289.813C338.846 291.192 337.881 292.847 336.641 293.536L330.855 296.846C329.615 297.536 328.651 296.984 328.651 295.605V288.848C328.651 287.468 329.615 285.814 330.855 285.124Z" fill="white"/>
<path d="M321.763 307.879L345.734 293.95C346.423 293.537 347.112 293.812 347.112 294.64C347.112 295.467 346.56 296.433 345.734 296.846L321.763 310.775C321.074 311.188 320.385 310.913 320.385 310.085C320.385 309.396 320.936 308.43 321.763 307.879Z" fill="#E0E0E0"/>
<path d="M257.013 351.042L280.984 337.114C281.673 336.7 282.362 336.976 282.362 337.803C282.362 338.631 281.811 339.596 280.984 340.01L257.013 353.938C256.324 354.352 255.635 354.076 255.635 353.249C255.773 352.559 256.324 351.456 257.013 351.042Z" fill="#E0E0E0"/>
<path d="M289.388 332.425L313.359 318.497C314.048 318.083 314.737 318.359 314.737 319.186C314.737 320.014 314.186 320.979 313.359 321.393L289.388 335.321C288.699 335.735 288.01 335.459 288.01 334.632C288.01 333.804 288.699 332.839 289.388 332.425Z" fill="#E0E0E0"/>
<path d="M321.763 313.671L345.734 299.742C346.423 299.329 347.112 299.604 347.112 300.432C347.112 301.259 346.56 302.225 345.734 302.638L321.763 316.567C321.074 316.98 320.385 316.705 320.385 315.877C320.385 315.05 320.936 314.084 321.763 313.671Z" fill="#E0E0E0"/>
<path d="M257.013 356.835L280.984 342.906C281.673 342.493 282.362 342.768 282.362 343.596C282.362 344.423 281.811 345.389 280.984 345.802L257.013 359.731C256.324 360.144 255.635 359.869 255.635 359.041C255.635 358.214 256.324 357.248 257.013 356.835Z" fill="#E0E0E0"/>
<path d="M289.388 338.079L313.359 324.151C314.048 323.737 314.737 324.013 314.737 324.841C314.737 325.668 314.186 326.633 313.359 327.047L289.388 340.975C288.699 341.389 288.01 341.113 288.01 340.286C288.01 339.458 288.699 338.493 289.388 338.079Z" fill="#E0E0E0"/>
<path d="M321.763 319.462L345.734 305.533C346.423 305.12 347.112 305.395 347.112 306.223C347.112 307.05 346.56 308.016 345.734 308.429L321.763 322.358C321.074 322.771 320.385 322.496 320.385 321.668C320.385 320.841 320.936 319.875 321.763 319.462Z" fill="#E0E0E0"/>
<path d="M202.596 110.95C216.648 102.814 228.083 109.433 228.083 125.706C228.083 141.978 216.648 161.699 202.596 169.835C188.544 177.972 177.109 171.352 177.109 155.079C177.109 138.807 188.544 119.086 202.596 110.95Z" fill="#FAFAFA"/>
<path d="M202.596 123.638C207.142 121.017 210.862 123.086 210.862 128.464C210.862 133.705 207.142 140.186 202.596 142.806C198.049 145.426 194.33 143.358 194.33 137.98C194.33 132.739 198.049 126.396 202.596 123.638Z" fill="#E0E0E0"/>
<path d="M218.714 151.77C218.714 143.082 212.653 139.634 205.213 143.91L200.529 146.668C193.09 150.943 187.028 161.561 187.028 170.249V172.594C191.299 173.973 196.81 173.283 202.734 169.836C208.795 166.25 214.444 160.596 218.852 153.839V151.77H218.714Z" fill="#E0E0E0"/>
<path d="M187.579 211.621L222.847 191.211C224.363 190.383 225.603 190.935 225.603 192.59C225.603 194.245 224.363 196.175 222.847 197.141L187.579 217.55C186.064 218.378 184.824 217.826 184.824 216.171C184.824 214.517 186.064 212.448 187.579 211.621Z" fill="#F5F5F5"/>
<path d="M75.5767 507.149L120.35 313.117L365.297 171.489L320.523 365.521L75.5767 507.149Z" fill="url(#paint4_linear)"/>
<path opacity="0.1" d="M198.601 435.992V267.748L364.746 172.318L320.523 365.523L198.601 435.992Z" fill="black"/>
<path d="M240.895 460.4L198.601 435.991L277.265 390.896L240.895 460.4Z" fill="#E0E0E0"/>
<path d="M240.897 460.399C239.519 459.571 238.417 457.503 238.417 455.848V156.871C238.417 155.078 239.657 153.01 241.172 152.182L428.671 43.7895C430.186 42.9621 432.528 42.8242 433.906 43.6516C435.283 44.479 436.385 46.5476 436.385 48.2025V347.179C436.385 348.972 435.146 351.041 433.63 351.868L246.132 460.261C244.616 461.088 242.274 461.226 240.897 460.399Z" fill="#EBEBEB"/>
<path d="M243.374 162.525L319.559 112.604L314.461 109.708L241.032 152.183C239.517 153.01 238.277 155.216 238.277 156.871V159.629L243.374 162.525Z" fill="#007BC5"/>
<path d="M268.862 171.351L239.242 154.25C238.691 155.078 238.416 156.043 238.416 156.871V455.848C238.416 457.64 239.518 459.571 240.895 460.398C242.273 461.226 244.615 461.226 246.13 460.26L268.862 447.16V171.351Z" fill="#007BC5"/>
<path d="M246.129 460.261L433.628 351.868C435.143 351.041 436.383 348.834 436.383 347.18V48.2026C436.383 46.4099 435.143 45.7203 433.628 46.6857L246.129 155.079C244.614 155.906 243.374 158.112 243.374 159.767V458.744C243.374 460.399 244.614 461.089 246.129 460.261Z" fill="#0076BD"/>
<path d="M258.942 228.858L303.991 202.794C307.022 201.001 309.364 202.242 309.364 205.552C309.364 208.862 306.884 212.861 303.991 214.516L258.942 240.58C255.911 242.373 253.569 241.131 253.569 237.822C253.569 234.512 256.049 230.513 258.942 228.858Z" fill="#E0E0E0"/>
<path d="M255.773 276.435L261.559 273.125C262.799 272.435 263.764 272.987 263.764 274.366V281.123C263.764 282.502 262.799 284.157 261.559 284.847L255.773 288.157C254.533 288.846 253.569 288.294 253.569 286.915V280.158C253.569 278.779 254.533 277.124 255.773 276.435Z" fill="url(#paint5_linear)"/>
<path d="M271.479 270.228L306.747 249.819C308.262 248.991 309.502 249.543 309.502 251.198C309.502 252.853 308.262 254.783 306.747 255.748L271.479 276.158C269.964 276.986 268.724 276.434 268.724 274.779C268.861 273.124 269.964 271.056 271.479 270.228Z" fill="#E0E0E0"/>
<path d="M255.773 299.879L261.559 296.569C262.799 295.879 263.763 296.431 263.763 297.81V304.567C263.763 305.946 262.799 307.601 261.559 308.291L255.773 311.6C254.533 312.29 253.569 311.738 253.569 310.359V303.602C253.569 302.223 254.533 300.568 255.773 299.879Z" fill="url(#paint6_linear)"/>
<path d="M271.479 293.672L306.747 273.262C308.262 272.435 309.502 272.987 309.502 274.642C309.502 276.296 308.262 278.227 306.747 279.192L271.479 299.602C269.964 300.43 268.724 299.878 268.724 298.223C268.861 296.568 269.964 294.5 271.479 293.672Z" fill="#E0E0E0"/>
<path d="M255.773 323.323L261.559 320.014C262.799 319.324 263.764 319.876 263.764 321.255V328.012C263.764 329.391 262.799 331.046 261.559 331.736L255.773 335.045C254.533 335.735 253.569 335.183 253.569 333.804V327.047C253.569 325.668 254.533 324.013 255.773 323.323Z" fill="url(#paint7_linear)"/>
<path d="M271.479 317.117L306.747 296.707C308.262 295.88 309.502 296.431 309.502 298.086C309.502 299.741 308.262 301.672 306.747 302.637L271.479 323.047C269.964 323.874 268.724 323.323 268.724 321.668C268.861 320.013 269.964 318.082 271.479 317.117Z" fill="#E0E0E0"/>
<path d="M255.773 346.904L261.559 343.594C262.799 342.905 263.763 343.456 263.763 344.835V351.593C263.763 352.972 262.799 354.627 261.559 355.316L255.773 358.626C254.533 359.315 253.569 358.764 253.569 357.385V350.627C253.569 349.248 254.533 347.593 255.773 346.904Z" fill="url(#paint8_linear)"/>
<path d="M271.479 340.698L306.747 320.288C308.262 319.461 309.502 320.013 309.502 321.667C309.502 323.322 308.262 325.253 306.747 326.218L271.479 346.628C269.964 347.455 268.724 346.904 268.724 345.249C268.861 343.594 269.964 341.526 271.479 340.698Z" fill="#E0E0E0"/>
<path d="M256.324 395.998L281.397 381.518C282.913 380.69 284.153 381.242 284.153 382.897C284.153 384.552 282.913 386.482 281.397 387.448L256.324 401.928C254.809 402.755 253.569 402.203 253.569 400.549C253.569 398.894 254.809 396.825 256.324 395.998Z" fill="#E0E0E0"/>
<path d="M256.324 407.719L306.746 378.621C308.262 377.793 309.502 378.345 309.502 380C309.502 381.655 308.262 383.585 306.746 384.551L256.324 413.649C254.809 414.476 253.569 413.924 253.569 412.27C253.569 410.615 254.809 408.546 256.324 407.719Z" fill="#FAFAFA"/>
<path d="M256.324 407.72L291.592 387.31C293.107 386.483 294.347 387.035 294.347 388.689C294.347 390.344 293.107 392.275 291.592 393.24L256.324 413.65C254.809 414.478 253.569 413.926 253.569 412.271C253.569 410.616 254.809 408.548 256.324 407.72Z" fill="url(#paint9_linear)"/>
<path d="M256.324 419.441L281.397 404.961C282.913 404.134 284.153 404.685 284.153 406.34C284.153 407.995 282.913 409.926 281.397 410.891L256.324 425.371C254.809 426.198 253.569 425.647 253.569 423.992C253.569 422.337 254.809 420.269 256.324 419.441Z" fill="#E0E0E0"/>
<path d="M256.324 372.554L281.397 358.074C282.913 357.247 284.153 357.798 284.153 359.453C284.153 361.108 282.913 363.039 281.397 364.004L256.324 378.484C254.809 379.311 253.569 378.76 253.569 377.105C253.569 375.45 254.809 373.381 256.324 372.554Z" fill="#E0E0E0"/>
<path d="M256.324 384.275L306.746 355.178C308.262 354.35 309.502 354.902 309.502 356.557C309.502 358.211 308.262 360.142 306.746 361.107L256.324 390.205C254.809 391.033 253.569 390.481 253.569 388.826C253.569 387.171 254.809 385.103 256.324 384.275Z" fill="#FAFAFA"/>
<path d="M256.324 384.276L274.234 373.933C275.749 373.106 276.989 373.658 276.989 375.312C276.989 376.967 275.749 378.898 274.234 379.863L256.324 390.206C254.809 391.034 253.569 390.482 253.569 388.827C253.569 387.172 254.809 385.104 256.324 384.276Z" fill="url(#paint10_linear)"/>
<path d="M256.324 431.164L306.746 402.066C308.262 401.238 309.502 401.79 309.502 403.445C309.502 405.1 308.262 407.03 306.746 407.996L256.324 437.093C254.809 437.921 253.569 437.369 253.569 435.714C253.569 434.06 254.809 431.991 256.324 431.164Z" fill="#FAFAFA"/>
<path d="M256.324 431.163L301.649 404.961C303.164 404.134 304.404 404.685 304.404 406.34C304.404 407.995 303.164 409.926 301.649 410.891L256.324 437.093C254.809 437.92 253.569 437.369 253.569 435.714C253.569 434.059 254.809 431.99 256.324 431.163Z" fill="url(#paint11_linear)"/>
<path d="M433.628 46.6855L319.558 112.604V417.786L433.628 351.868C435.143 351.041 436.383 348.834 436.383 347.179V48.2025C436.383 46.5476 435.143 45.7202 433.628 46.6855Z" fill="#FAFAFA"/>
<path d="M319.559 124.325V147.769L309.364 159.491H319.559V183.073L426.189 121.429V62.6821L319.559 124.325Z" fill="url(#paint12_linear)"/>
<path d="M333.473 125.154L376.731 100.193C378.798 98.9517 380.589 99.9171 380.589 102.399C380.589 104.882 378.936 107.778 376.731 109.019L333.473 133.979C331.407 135.221 329.616 134.255 329.616 131.773C329.753 129.291 331.407 126.395 333.473 125.154Z" fill="#FAFAFA"/>
<path d="M331.131 144.046L414.754 95.7794C415.443 95.3657 416.132 95.6415 416.132 96.469C416.132 97.2964 415.581 98.2617 414.754 98.6754L331.131 146.942C330.442 147.356 329.753 147.08 329.753 146.252C329.753 145.563 330.304 144.46 331.131 144.046Z" fill="#FAFAFA"/>
<path d="M331.131 152.872L414.754 104.606C415.443 104.192 416.132 104.468 416.132 105.295C416.132 106.123 415.581 107.088 414.754 107.502L331.131 155.768C330.442 156.182 329.753 155.906 329.753 155.079C329.753 154.251 330.304 153.286 331.131 152.872Z" fill="#FAFAFA"/>
<path d="M331.131 161.698L414.754 113.432C415.443 113.018 416.132 113.294 416.132 114.121C416.132 114.949 415.581 115.914 414.754 116.328L331.131 164.594C330.442 165.008 329.753 164.732 329.753 163.905C329.753 163.077 330.304 162.112 331.131 161.698Z" fill="#FAFAFA"/>
<path d="M334.299 186.383L340.085 183.073C341.325 182.384 342.29 182.935 342.29 184.314V191.072C342.29 192.451 341.325 194.106 340.085 194.795L334.299 198.105C333.059 198.794 332.095 198.243 332.095 196.864V190.106C332.095 188.727 333.059 187.072 334.299 186.383Z" fill="url(#paint13_linear)"/>
<path d="M350.005 180.177L385.272 159.767C386.788 158.939 388.028 159.491 388.028 161.146C388.028 162.801 386.788 164.731 385.272 165.697L350.005 186.107C348.489 186.934 347.249 186.382 347.249 184.728C347.249 183.073 348.489 181.004 350.005 180.177Z" fill="#455A64"/>
<path d="M333.474 207.344L422.194 156.044C422.883 155.63 423.572 155.906 423.572 156.733C423.572 157.561 423.021 158.526 422.194 158.94L333.474 210.24C332.785 210.654 332.096 210.378 332.096 209.551C332.096 208.723 332.647 207.758 333.474 207.344Z" fill="#455A64"/>
<path d="M333.473 216.17L422.194 164.87C422.882 164.456 423.571 164.732 423.571 165.559C423.571 166.387 423.02 167.352 422.194 167.766L333.473 219.066C332.784 219.48 332.095 219.204 332.095 218.377C332.095 217.549 332.646 216.584 333.473 216.17Z" fill="#455A64"/>
<path d="M333.473 224.995L422.194 173.695C422.882 173.281 423.571 173.557 423.571 174.384C423.571 175.212 423.02 176.177 422.194 176.591L333.473 227.891C332.784 228.305 332.095 228.029 332.095 227.202C332.095 226.374 332.646 225.409 333.473 224.995Z" fill="#455A64"/>
<path d="M333.473 233.822L422.194 182.522C422.882 182.108 423.571 182.384 423.571 183.211C423.571 184.039 423.02 185.004 422.194 185.418L333.473 236.718C332.784 237.132 332.095 236.856 332.095 236.029C332.095 235.201 332.646 234.236 333.473 233.822Z" fill="#455A64"/>
<path d="M334.299 250.923L340.085 247.614C341.325 246.924 342.29 247.476 342.29 248.855V255.612C342.29 256.991 341.325 258.646 340.085 259.336L334.299 262.645C333.059 263.335 332.095 262.783 332.095 261.404V254.647C332.095 253.268 333.059 251.613 334.299 250.923Z" fill="url(#paint14_linear)"/>
<path d="M350.005 244.718L385.272 224.308C386.788 223.48 388.028 224.032 388.028 225.687C388.028 227.342 386.788 229.272 385.272 230.238L350.005 250.648C348.489 251.475 347.249 250.923 347.249 249.269C347.249 247.614 348.489 245.545 350.005 244.718Z" fill="#455A64"/>
<path d="M333.474 271.884L422.195 220.584C422.884 220.17 423.573 220.446 423.573 221.273C423.573 222.101 423.022 223.066 422.195 223.48L333.474 274.78C332.785 275.194 332.096 274.918 332.096 274.091C332.096 273.401 332.647 272.298 333.474 271.884Z" fill="#455A64"/>
<path d="M333.473 280.71L422.194 229.41C422.882 228.996 423.571 229.272 423.571 230.099C423.571 230.927 423.02 231.892 422.194 232.306L333.473 283.606C332.784 284.02 332.095 283.744 332.095 282.917C332.095 282.227 332.646 281.124 333.473 280.71Z" fill="#455A64"/>
<path d="M333.473 289.536L422.194 238.236C422.882 237.822 423.571 238.098 423.571 238.925C423.571 239.753 423.02 240.718 422.194 241.132L333.473 292.432C332.784 292.846 332.095 292.57 332.095 291.743C332.095 290.915 332.646 289.95 333.473 289.536Z" fill="#455A64"/>
<path d="M333.473 298.362L422.194 247.062C422.882 246.648 423.571 246.924 423.571 247.751C423.571 248.579 423.02 249.544 422.194 249.958L333.473 301.258C332.784 301.672 332.095 301.396 332.095 300.569C332.095 299.741 332.646 298.776 333.473 298.362Z" fill="#455A64"/>
<path d="M342.565 311.188L348.351 307.878C349.591 307.188 350.556 307.74 350.556 309.119V315.876C350.556 317.255 349.591 318.91 348.351 319.6L342.565 322.909C341.325 323.599 340.361 323.047 340.361 321.668V314.911C340.361 313.67 341.325 311.877 342.565 311.188Z" fill="url(#paint15_linear)"/>
<path d="M333.473 334.08L357.582 320.152C358.27 319.738 358.959 320.014 358.959 320.842C358.959 321.669 358.408 322.634 357.582 323.048L333.473 336.976C332.784 337.39 332.095 337.114 332.095 336.287C332.095 335.459 332.646 334.494 333.473 334.08Z" fill="#455A64"/>
<path d="M374.802 292.57L380.588 289.261C381.828 288.571 382.792 289.123 382.792 290.502V297.259C382.792 298.638 381.828 300.293 380.588 300.983L374.802 304.292C373.562 304.982 372.598 304.43 372.598 303.051V296.294C372.735 294.915 373.7 293.26 374.802 292.57Z" fill="url(#paint16_linear)"/>
<path d="M365.709 315.463L389.818 301.535C390.507 301.121 391.196 301.397 391.196 302.224C391.196 303.052 390.645 304.017 389.818 304.431L365.709 318.359C365.02 318.773 364.332 318.497 364.332 317.67C364.469 316.842 365.02 315.877 365.709 315.463Z" fill="#455A64"/>
<path d="M407.177 273.815L412.964 270.505C414.203 269.815 415.168 270.367 415.168 271.746V278.503C415.168 279.882 414.203 281.537 412.964 282.227L407.177 285.536C405.937 286.226 404.973 285.674 404.973 284.295V277.538C404.973 276.159 406.075 274.504 407.177 273.815Z" fill="url(#paint17_linear)"/>
<path d="M398.084 296.707L422.193 282.779C422.882 282.365 423.571 282.641 423.571 283.468C423.571 284.296 423.02 285.261 422.193 285.675L398.084 299.603C397.396 300.017 396.707 299.741 396.707 298.914C396.707 298.086 397.396 297.121 398.084 296.707Z" fill="#455A64"/>
<path d="M333.473 339.871L357.582 325.943C358.271 325.529 358.96 325.805 358.96 326.632C358.96 327.459 358.409 328.425 357.582 328.839L333.473 342.767C332.784 343.181 332.095 342.905 332.095 342.077C332.095 341.25 332.647 340.285 333.473 339.871Z" fill="#455A64"/>
<path d="M365.71 321.115L389.819 307.187C390.507 306.773 391.196 307.049 391.196 307.877C391.196 308.704 390.645 309.669 389.819 310.083L365.71 324.011C365.021 324.425 364.332 324.149 364.332 323.322C364.47 322.632 365.021 321.529 365.71 321.115Z" fill="#455A64"/>
<path d="M398.084 302.499L422.193 288.57C422.882 288.157 423.571 288.433 423.571 289.26C423.571 290.087 423.02 291.053 422.193 291.466L398.084 305.395C397.396 305.809 396.707 305.533 396.707 304.705C396.707 303.878 397.396 302.912 398.084 302.499Z" fill="#455A64"/>
<path d="M333.473 345.525L357.582 331.597C358.271 331.183 358.96 331.459 358.96 332.286C358.96 333.114 358.409 334.079 357.582 334.493L333.473 348.421C332.784 348.835 332.095 348.559 332.095 347.732C332.095 347.042 332.647 345.939 333.473 345.525Z" fill="#455A64"/>
<path d="M365.71 326.908L389.819 312.98C390.507 312.566 391.196 312.842 391.196 313.669C391.196 314.497 390.645 315.462 389.819 315.876L365.71 329.804C365.021 330.218 364.332 329.942 364.332 329.114C364.47 328.287 365.021 327.322 365.71 326.908Z" fill="#455A64"/>
<path d="M398.084 308.153L422.193 294.224C422.882 293.811 423.571 294.086 423.571 294.914C423.571 295.741 423.02 296.707 422.193 297.12L398.084 311.049C397.396 311.462 396.707 311.187 396.707 310.359C396.707 309.532 397.396 308.566 398.084 308.153Z" fill="#455A64"/>
<path d="M342.566 359.454L348.352 356.144C349.592 355.454 350.556 356.006 350.556 357.385V364.142C350.556 365.522 349.592 367.176 348.352 367.866L342.566 371.176C341.326 371.865 340.361 371.314 340.361 369.934V363.177C340.361 361.798 341.326 360.143 342.566 359.454Z" fill="url(#paint18_linear)"/>
<path d="M333.473 382.345L357.582 368.417C358.27 368.003 358.959 368.279 358.959 369.106C358.959 369.934 358.408 370.899 357.582 371.313L333.473 385.241C332.784 385.655 332.095 385.379 332.095 384.551C332.095 383.724 332.646 382.759 333.473 382.345Z" fill="#455A64"/>
<path d="M374.802 340.699L380.588 337.389C381.828 336.7 382.792 337.251 382.792 338.63V345.388C382.792 346.767 381.828 348.421 380.588 349.111L374.802 352.421C373.562 353.11 372.598 352.559 372.598 351.18V344.422C372.735 343.043 373.7 341.388 374.802 340.699Z" fill="url(#paint19_linear)"/>
<path d="M365.71 363.591L389.819 349.663C390.507 349.249 391.196 349.525 391.196 350.352C391.196 351.18 390.645 352.145 389.819 352.559L365.71 366.487C365.021 366.901 364.332 366.625 364.332 365.798C364.47 365.108 365.021 364.005 365.71 363.591Z" fill="#455A64"/>
<path d="M407.177 322.082L412.963 318.772C414.203 318.082 415.168 318.634 415.168 320.013V326.77C415.168 328.149 414.203 329.804 412.963 330.494L407.177 333.804C405.937 334.493 404.973 333.941 404.973 332.562V325.805C404.973 324.426 406.075 322.771 407.177 322.082Z" fill="url(#paint20_linear)"/>
<path d="M398.084 344.974L422.193 331.046C422.882 330.632 423.571 330.908 423.571 331.735C423.571 332.562 423.02 333.528 422.193 333.942L398.084 347.87C397.396 348.284 396.707 348.008 396.707 347.18C396.707 346.353 397.396 345.388 398.084 344.974Z" fill="#455A64"/>
<path d="M333.473 388L357.582 374.071C358.27 373.658 358.959 373.934 358.959 374.761C358.959 375.588 358.408 376.554 357.582 376.967L333.473 390.896C332.784 391.309 332.095 391.034 332.095 390.206C332.095 389.517 332.646 388.413 333.473 388Z" fill="#455A64"/>
<path d="M365.71 369.383L389.819 355.454C390.508 355.041 391.197 355.316 391.197 356.144C391.197 356.971 390.646 357.936 389.819 358.35L365.71 372.279C365.021 372.692 364.333 372.416 364.333 371.589C364.47 370.762 365.021 369.796 365.71 369.383Z" fill="#455A64"/>
<path d="M398.084 350.628L422.193 336.7C422.882 336.286 423.571 336.562 423.571 337.389C423.571 338.217 423.02 339.182 422.193 339.596L398.084 353.524C397.396 353.938 396.707 353.662 396.707 352.835C396.707 352.145 397.396 351.042 398.084 350.628Z" fill="#455A64"/>
<path d="M333.473 393.791L357.582 379.863C358.27 379.449 358.959 379.725 358.959 380.552C358.959 381.38 358.408 382.345 357.582 382.759L333.473 396.687C332.784 397.101 332.095 396.825 332.095 395.998C332.095 395.17 332.646 394.205 333.473 393.791Z" fill="#455A64"/>
<path d="M365.71 375.036L389.819 361.108C390.508 360.694 391.197 360.97 391.197 361.798C391.197 362.625 390.646 363.59 389.819 364.004L365.71 377.932C365.021 378.346 364.333 378.07 364.333 377.243C364.47 376.553 365.021 375.45 365.71 375.036Z" fill="#455A64"/>
<path d="M398.084 356.42L422.193 342.491C422.882 342.078 423.571 342.353 423.571 343.181C423.571 344.008 423.02 344.974 422.193 345.387L398.084 359.316C397.396 359.729 396.707 359.454 396.707 358.626C396.707 357.799 397.396 356.833 398.084 356.42Z" fill="#455A64"/>
<path d="M278.918 147.907C292.97 139.771 304.405 146.39 304.405 162.663C304.405 178.936 292.97 198.656 278.918 206.793C264.866 214.929 253.431 208.31 253.431 192.037C253.431 175.764 264.866 156.044 278.918 147.907Z" fill="#E0E0E0"/>
<path d="M278.918 160.732C283.464 158.112 287.183 160.181 287.183 165.559C287.183 170.799 283.464 177.281 278.918 179.901C274.371 182.521 270.652 180.453 270.652 175.074C270.652 169.696 274.371 163.353 278.918 160.732Z" fill="#FAFAFA"/>
<path d="M295.036 188.727C295.036 180.039 288.975 176.592 281.535 180.867L276.851 183.625C269.412 187.9 263.35 198.518 263.35 207.206V209.551C267.621 210.93 273.132 210.24 279.056 206.793C285.117 203.207 290.766 197.553 295.174 190.796V188.727H295.036Z" fill="#FAFAFA"/>
<path d="M263.901 248.578L299.169 228.168C300.684 227.34 301.924 227.892 301.924 229.547C301.924 231.202 300.684 233.132 299.169 234.098L263.901 254.508C262.386 255.335 261.146 254.783 261.146 253.128C261.146 251.474 262.386 249.405 263.901 248.578Z" fill="#E0E0E0"/>
</g>
<defs>
<filter id="filter0_d" x="0" y="0" width="565" height="521.149" filterUnits="userSpaceOnUse" color-interpolation-filters="sRGB">
<feFlood flood-opacity="0" result="BackgroundImageFix"/>
<feColorMatrix in="SourceAlpha" type="matrix" values="0 0 0 0 0 0 0 0 0 0 0 0 0 0 0 0 0 0 127 0"/>
<feOffset dy="4"/>
<feGaussianBlur stdDeviation="5"/>
<feColorMatrix type="matrix" values="0 0 0 0 0 0 0 0 0 0 0 0 0 0 0 0 0 0 0.2 0"/>
<feBlend mode="normal" in2="BackgroundImageFix" result="effect1_dropShadow"/>
<feBlend mode="normal" in="SourceGraphic" in2="effect1_dropShadow" result="shape"/>
</filter>
<linearGradient id="paint0_linear" x1="466.16" y1="311.242" x2="436.67" y2="271.575" gradientUnits="userSpaceOnUse">
<stop stop-color="#0081F1"/>
<stop offset="1" stop-color="#00B2F1"/>
</linearGradient>
<linearGradient id="paint1_linear" x1="461.393" y1="331.396" x2="442.217" y2="300.537" gradientUnits="userSpaceOnUse">
<stop stop-color="#0081F1"/>
<stop offset="1" stop-color="#00B2F1"/>
</linearGradient>
<linearGradient id="paint2_linear" x1="230.93" y1="389.83" x2="66.725" y2="197.693" gradientUnits="userSpaceOnUse">
<stop stop-color="#0081F1"/>
<stop offset="1" stop-color="#00B2F1"/>
</linearGradient>
<linearGradient id="paint3_linear" x1="230.93" y1="389.83" x2="66.725" y2="197.693" gradientUnits="userSpaceOnUse">
<stop stop-color="#0081F1"/>
<stop offset="1" stop-color="#00B2F1"/>
</linearGradient>
<linearGradient id="paint4_linear" x1="259.327" y1="397.615" x2="115.417" y2="184.288" gradientUnits="userSpaceOnUse">
<stop stop-color="#0081F1"/>
<stop offset="1" stop-color="#00B2F1"/>
</linearGradient>
<linearGradient id="paint5_linear" x1="260.035" y1="283.354" x2="252.856" y2="275.311" gradientUnits="userSpaceOnUse">
<stop stop-color="#0081F1"/>
<stop offset="1" stop-color="#00B2F1"/>
</linearGradient>
<linearGradient id="paint6_linear" x1="260.035" y1="306.798" x2="252.856" y2="298.755" gradientUnits="userSpaceOnUse">
<stop stop-color="#0081F1"/>
<stop offset="1" stop-color="#00B2F1"/>
</linearGradient>
<linearGradient id="paint7_linear" x1="260.035" y1="330.243" x2="252.856" y2="322.2" gradientUnits="userSpaceOnUse">
<stop stop-color="#0081F1"/>
<stop offset="1" stop-color="#00B2F1"/>
</linearGradient>
<linearGradient id="paint8_linear" x1="260.035" y1="353.824" x2="252.856" y2="345.78" gradientUnits="userSpaceOnUse">
<stop stop-color="#0081F1"/>
<stop offset="1" stop-color="#00B2F1"/>
</linearGradient>
<linearGradient id="paint9_linear" x1="279.432" y1="405.187" x2="270.997" y2="383.389" gradientUnits="userSpaceOnUse">
<stop stop-color="#0081F1"/>
<stop offset="1" stop-color="#00B2F1"/>
</linearGradient>
<linearGradient id="paint10_linear" x1="268.423" y1="385.028" x2="262.767" y2="371.672" gradientUnits="userSpaceOnUse">
<stop stop-color="#0081F1"/>
<stop offset="1" stop-color="#00B2F1"/>
</linearGradient>
<linearGradient id="paint11_linear" x1="285.81" y1="426.74" x2="275.775" y2="400.103" gradientUnits="userSpaceOnUse">
<stop stop-color="#0081F1"/>
<stop offset="1" stop-color="#00B2F1"/>
</linearGradient>
<linearGradient id="paint12_linear" x1="383.458" y1="143.786" x2="334.339" y2="61.9264" gradientUnits="userSpaceOnUse">
<stop stop-color="#0081F1"/>
<stop offset="1" stop-color="#00B2F1"/>
</linearGradient>
<linearGradient id="paint13_linear" x1="338.561" y1="193.303" x2="331.382" y2="185.259" gradientUnits="userSpaceOnUse">
<stop stop-color="#0081F1"/>
<stop offset="1" stop-color="#00B2F1"/>
</linearGradient>
<linearGradient id="paint14_linear" x1="338.561" y1="257.843" x2="331.382" y2="249.8" gradientUnits="userSpaceOnUse">
<stop stop-color="#0081F1"/>
<stop offset="1" stop-color="#00B2F1"/>
</linearGradient>
<linearGradient id="paint15_linear" x1="346.827" y1="318.107" x2="339.649" y2="310.064" gradientUnits="userSpaceOnUse">
<stop stop-color="#0081F1"/>
<stop offset="1" stop-color="#00B2F1"/>
</linearGradient>
<linearGradient id="paint16_linear" x1="379.063" y1="299.49" x2="371.885" y2="291.447" gradientUnits="userSpaceOnUse">
<stop stop-color="#0081F1"/>
<stop offset="1" stop-color="#00B2F1"/>
</linearGradient>
<linearGradient id="paint17_linear" x1="411.439" y1="280.734" x2="404.261" y2="272.691" gradientUnits="userSpaceOnUse">
<stop stop-color="#0081F1"/>
<stop offset="1" stop-color="#00B2F1"/>
</linearGradient>
<linearGradient id="paint18_linear" x1="346.827" y1="366.374" x2="339.649" y2="358.33" gradientUnits="userSpaceOnUse">
<stop stop-color="#0081F1"/>
<stop offset="1" stop-color="#00B2F1"/>
</linearGradient>
<linearGradient id="paint19_linear" x1="379.063" y1="347.619" x2="371.885" y2="339.575" gradientUnits="userSpaceOnUse">
<stop stop-color="#0081F1"/>
<stop offset="1" stop-color="#00B2F1"/>
</linearGradient>
<linearGradient id="paint20_linear" x1="411.439" y1="329.001" x2="404.26" y2="320.958" gradientUnits="userSpaceOnUse">
<stop stop-color="#0081F1"/>
<stop offset="1" stop-color="#00B2F1"/>
</linearGradient>
</defs>
</svg>
