<svg width="565" height="522" fill="none" xmlns="http://www.w3.org/2000/svg"><g filter="url(#filter0_d)"><path d="M465.176 306.498l-48.493-27.995V174.661l48.493 27.995v103.842z" fill="#E0E0E0"/><path d="M465.177 202.655l69.02-39.992v103.842l-69.02 39.992V202.655z" fill="#EBEBEB"/><path d="M534.197 162.663l-69.02 39.992-48.494-27.994 69.159-39.993 48.355 27.995z" fill="#F5F5F5"/><path d="M472.065 206.655l55.244-31.994 1.24.69v38.475l-55.244 31.994-1.24-.69v-38.475z" fill="#E6E6E6"/><path d="M494.934 201.276l9.368-5.379c1.24-.689 2.204-.413 2.204.69s-.964 2.62-2.204 3.31l-9.368 5.378c-1.24.689-2.205.414-2.205-.69 0-1.103.965-2.482 2.205-3.309z" fill="#E6E6E6"/><path d="M470.825 255.335l55.244-31.994v38.475l1.24.69-55.244 31.994-1.378-.69.138-38.475z" fill="#E0E0E0"/><path d="M472.065 256.024l55.244-31.994v38.476l-55.244 31.993v-38.475z" fill="#F5F5F5"/><path d="M493.694 249.956l9.368-5.378c1.24-.689 2.204-.414 2.204.69 0 1.103-.964 2.62-2.204 3.309l-9.368 5.379c-1.24.689-2.204.413-2.204-.69s.964-2.482 2.204-3.31z" fill="#E6E6E6"/><path d="M472.065 206.655l55.244-31.994v38.475l-55.244 31.994v-38.475z" fill="#E0E0E0"/><path d="M555 193.691l-30.309-17.514v33.925L555 227.478v-33.787z" fill="#E6E6E6"/><path d="M492.729 250.508v-47.852l11.848-6.896 2.067 2.896 34.579-19.996v43.854l-48.494 27.994z" fill="#EBEBEB"/><path d="M492.729 250.507l3.445-41.923 48.493-27.994-3.444 41.923-48.494 27.994z" fill="#FAFAFA"/><path d="M499.618 225.547l-26.314-15.17v33.925l26.314 15.169v-33.924z" fill="#E6E6E6"/><path d="M499.618 222.514L555 190.658v38.475l-55.382 31.994v-38.613z" fill="#F5F5F5"/><path d="M521.385 216.584l9.368-5.378c1.24-.69 2.204-.414 2.204.689s-.964 2.62-2.204 3.31l-9.368 5.378c-1.24.69-2.204.414-2.204-.69 0-1.103.964-2.62 2.204-3.309z" fill="#E6E6E6"/><path d="M499.618 222.513l-1.791-.965v38.475l1.791 1.103v-38.613z" fill="#E0E0E0"/><path d="M497.827 221.548l55.382-31.994 1.791 1.103-55.382 31.856-1.791-.965z" fill="#F0F0F0"/><path d="M433.077 314.91c.276-7.998 6.613-24.685 15.292-34.752 8.68-10.067 22.318-16.273 31.411-12.825 8.404 3.31 7.026 14.48-3.582 21.651-10.746 7.033-26.727 15.859-31.824 28.546l-10.195 15.445-1.102-18.065z" fill="#27DEBF"/><path d="M433.077 314.91c.276-7.998 6.613-24.685 15.292-34.752 8.68-10.067 22.318-16.273 31.411-12.825 8.404 3.31 7.026 14.48-3.582 21.651-10.746 7.033-26.727 15.859-31.824 28.546l-10.195 15.445-1.102-18.065z" fill="url(#paint0_linear)"/><path d="M476.474 271.194c-10.333 2.345-39.952 23.168-42.708 52.956" stroke="#fff" stroke-width="1.026" stroke-miterlimit="10" stroke-linecap="round"/><path d="M435.695 346.49c.413-8.274 7.577-14.204 16.807-19.72 11.022-6.481 20.527-9.377 23.834-15.721 3.306-6.344-2.618-13.515-14.052-9.791-9.644 3.172-28.242 19.72-28.38 31.58l1.791 13.652z" fill="url(#paint1_linear)"/><path d="M469.172 306.36c-15.154 3.447-32.237 17.376-34.579 31.856" stroke="#fff" stroke-miterlimit="10" stroke-linecap="round"/><path d="M10 220.86v239.678L255.084 318.91V101.021L72.821 206.38l-6.2-18.203L10 220.86z" fill="#0076BD"/><path d="M10 460.538l12.674-217.889 244.947-141.628-12.537 217.889L10 460.538z" fill="#fff"/><path d="M10 460.538l18.874-214.166 245.084-141.628-18.874 214.166L10 460.538z" fill="#0076BD"/><path d="M75.577 267.471v239.678l244.946-141.628V147.632L138.398 252.991l-6.338-18.203-56.483 32.683z" fill="url(#paint2_linear)"/><path d="M75.577 267.471v239.678l244.946-141.628V147.632L138.398 252.991l-6.338-18.203-56.483 32.683z" fill="url(#paint3_linear)" opacity=".1"/><path d="M164.575 423.441c-1.378-.827-2.48-2.896-2.48-4.551V119.775c0-1.792 1.24-3.861 2.756-4.688L352.349 6.694c1.516-.828 3.857-.966 5.235-.138 1.378.827 2.48 2.896 2.48 4.55v298.978c0 1.792-1.24 3.861-2.755 4.688L169.81 423.165c-1.515.966-3.857 1.104-5.235.276z" fill="#EBEBEB"/><path d="M167.053 125.567l76.184-49.921-5.097-2.896-73.429 42.475c-1.516.827-2.756 3.033-2.756 4.688v2.758l5.098 2.896z" fill="#EBEBEB"/><path d="M192.401 134.255l-29.619-17.1c-.551.827-.827 1.793-.827 2.62v298.977c0 1.793 1.102 3.723 2.48 4.551 1.378.827 3.72.827 5.235-.138l22.731-13.101V134.255z" fill="#E0E0E0"/><path d="M169.807 423.303L357.306 314.91c1.515-.827 2.755-3.034 2.755-4.689V11.245c0-1.793-1.24-2.483-2.755-1.517L169.807 118.12c-1.515.827-2.755 3.033-2.755 4.688v298.977c0 1.655 1.24 2.345 2.755 1.517z" fill="#E6E6E6"/><path d="M182.62 191.761l45.049-26.064c3.031-1.792 5.373-.551 5.373 2.758 0 3.31-2.48 7.309-5.373 8.964l-45.049 26.064c-3.031 1.793-5.373.552-5.373-2.758s2.342-7.171 5.373-8.964z" fill="#F5F5F5"/><path d="M179.314 239.338l5.786-3.31c1.24-.69 2.204-.138 2.204 1.241v6.757c0 1.379-.964 3.034-2.204 3.724l-5.786 3.309c-1.24.69-2.205.138-2.205-1.241v-6.757c.138-1.241 1.102-2.896 2.205-3.723z" fill="#FAFAFA"/><path d="M195.156 233.27l35.268-20.41c1.516-.827 2.756-.276 2.756 1.379s-1.24 3.586-2.756 4.551l-35.268 20.41c-1.515.827-2.755.276-2.755-1.379s1.24-3.724 2.755-4.551z" fill="#F5F5F5"/><path d="M179.314 262.922l5.786-3.31c1.24-.69 2.204-.138 2.204 1.241v6.757c0 1.379-.964 3.034-2.204 3.724l-5.786 3.309c-1.24.69-2.205.138-2.205-1.241v-6.757c.138-1.379 1.102-3.034 2.205-3.723z" fill="#FAFAFA"/><path d="M195.156 256.716l35.268-20.41c1.516-.827 2.756-.276 2.756 1.379s-1.24 3.585-2.756 4.551l-35.268 20.41c-1.515.827-2.755.275-2.755-1.379 0-1.655 1.24-3.724 2.755-4.551z" fill="#F5F5F5"/><path d="M179.314 286.364l5.786-3.309c1.24-.69 2.204-.138 2.204 1.241v6.757c0 1.379-.964 3.034-2.204 3.724l-5.786 3.309c-1.24.69-2.205.138-2.205-1.241v-6.757c.138-1.379 1.102-3.034 2.205-3.724z" fill="#FAFAFA"/><path d="M195.156 280.158l35.268-20.41c1.516-.827 2.756-.275 2.756 1.379 0 1.655-1.24 3.586-2.756 4.551l-35.268 20.41c-1.515.827-2.755.276-2.755-1.379s1.24-3.723 2.755-4.551z" fill="#F5F5F5"/><path d="M179.314 309.947l5.786-3.31c1.24-.689 2.204-.138 2.204 1.241v6.758c0 1.379-.964 3.034-2.204 3.723l-5.786 3.31c-1.24.689-2.205.138-2.205-1.241v-6.758c.138-1.379 1.102-3.034 2.205-3.723z" fill="#FAFAFA"/><path d="M195.157 303.74l35.268-20.41c1.515-.827 2.755-.275 2.755 1.379 0 1.655-1.24 3.586-2.755 4.551l-35.268 20.41c-1.516.828-2.756.276-2.756-1.379s1.24-3.723 2.756-4.551zM179.865 359.04l25.073-14.48c1.515-.828 2.755-.276 2.755 1.379s-1.24 3.585-2.755 4.551l-25.073 14.48c-1.516.827-2.756.276-2.756-1.379.138-1.655 1.378-3.724 2.756-4.551z" fill="#F5F5F5"/><path d="M179.865 370.762l50.422-29.098c1.515-.828 2.755-.276 2.755 1.379s-1.24 3.585-2.755 4.551l-50.422 28.96c-1.516.827-2.756.275-2.756-1.379.138-1.517 1.378-3.586 2.756-4.413z" fill="#F0F0F0"/><path d="M179.865 370.761l35.268-20.41c1.515-.828 2.755-.276 2.755 1.379s-1.24 3.585-2.755 4.551l-35.268 20.272c-1.516.827-2.756.276-2.756-1.379.138-1.517 1.378-3.586 2.756-4.413z" fill="#FAFAFA"/><path d="M179.865 382.484l25.073-14.48c1.515-.828 2.755-.276 2.755 1.379s-1.24 3.585-2.755 4.551l-25.073 14.48c-1.516.827-2.756.275-2.756-1.379.138-1.655 1.378-3.724 2.756-4.551zM179.865 335.596l25.073-14.48c1.515-.827 2.755-.276 2.755 1.379s-1.24 3.586-2.755 4.551l-25.073 14.48c-1.516.827-2.756.276-2.756-1.379.138-1.793 1.378-3.724 2.756-4.551z" fill="#F5F5F5"/><path d="M179.865 347.318l50.422-29.098c1.515-.827 2.755-.276 2.755 1.379s-1.24 3.586-2.755 4.551l-50.422 28.96c-1.516.827-2.756.276-2.756-1.379.138-1.517 1.378-3.586 2.756-4.413z" fill="#F0F0F0"/><path d="M179.865 347.318l17.909-10.343c1.516-.827 2.755-.275 2.755 1.379 0 1.655-1.239 3.586-2.755 4.551l-17.909 10.343c-1.516.828-2.756.276-2.756-1.379.138-1.655 1.378-3.723 2.756-4.551z" fill="#FAFAFA"/><path d="M179.865 394.205l50.422-29.098c1.515-.828 2.755-.276 2.755 1.379s-1.24 3.585-2.755 4.551l-50.422 29.097c-1.516.828-2.756.276-2.756-1.379.138-1.654 1.378-3.723 2.756-4.55z" fill="#F0F0F0"/><path d="M179.865 394.206l45.324-26.202c1.516-.828 2.756-.276 2.756 1.379s-1.24 3.585-2.756 4.551l-45.324 26.201c-1.516.828-2.756.276-2.756-1.379.138-1.654 1.378-3.723 2.756-4.55z" fill="#FAFAFA"/><path d="M357.306 9.728L243.237 75.646v305.183l114.069-65.919c1.516-.827 2.756-3.034 2.756-4.689V11.245c0-1.793-1.24-2.483-2.756-1.517z" fill="#F5F5F5"/><path d="M243.237 87.368v23.444l-10.195 11.722h10.195v23.582l106.63-61.644V25.725l-106.63 61.643z" fill="#EBEBEB"/><path d="M257.151 88.195l43.258-24.96c2.067-1.242 3.858-.276 3.858 2.206s-1.654 5.378-3.858 6.62l-43.258 24.96c-2.067 1.241-3.858.276-3.858-2.207.138-2.482 1.791-5.378 3.858-6.619zM254.671 107.087l83.624-48.266c.688-.414 1.377-.138 1.377.69 0 .827-.551 1.792-1.377 2.206l-83.624 48.266c-.689.414-1.378.138-1.378-.689.138-.69.689-1.793 1.378-2.207zM254.671 115.914l83.624-48.266c.688-.414 1.377-.138 1.377.69 0 .827-.551 1.792-1.377 2.206l-83.624 48.266c-.689.414-1.378.138-1.378-.689 0-.828.689-1.793 1.378-2.207zM254.671 124.74l83.624-48.267c.688-.413 1.377-.138 1.377.69 0 .827-.551 1.793-1.377 2.206l-83.624 48.267c-.689.414-1.378.138-1.378-.69.138-.827.689-1.792 1.378-2.206z" fill="#FAFAFA"/><path d="M257.84 149.288l5.786-3.31c1.24-.689 2.204-.137 2.204 1.242v6.757c0 1.379-.964 3.034-2.204 3.723l-5.786 3.31c-1.24.69-2.205.138-2.205-1.241v-6.619c.138-1.38 1.103-3.172 2.205-3.862z" fill="#fff"/><path d="M273.683 143.22l35.268-20.41c1.515-.827 2.755-.275 2.755 1.379 0 1.655-1.24 3.586-2.755 4.551l-35.268 20.272c-1.516.828-2.756.276-2.756-1.379s1.24-3.585 2.756-4.413zM257.014 170.386l88.721-51.301c.689-.414 1.378-.138 1.378.69 0 .827-.551 1.792-1.378 2.206l-88.721 51.301c-.689.413-1.378.137-1.378-.69.138-.827.689-1.793 1.378-2.206zM257.013 179.211l88.721-51.3c.689-.414 1.377-.138 1.377.689 0 .828-.551 1.793-1.377 2.207l-88.721 51.3c-.689.414-1.378.138-1.378-.689.138-.828.689-1.793 1.378-2.207zM257.013 188.037l88.721-51.3c.689-.414 1.377-.138 1.377.689 0 .828-.551 1.793-1.377 2.207l-88.721 51.3c-.689.414-1.378.138-1.378-.689.138-.828.689-1.793 1.378-2.207zM257.013 196.864l88.721-51.3c.689-.414 1.377-.138 1.377.689 0 .828-.551 1.793-1.377 2.207l-88.721 51.3c-.689.414-1.378.138-1.378-.689.138-.828.689-1.793 1.378-2.207z" fill="#E0E0E0"/><path d="M257.839 213.964l5.787-3.309c1.24-.69 2.204-.138 2.204 1.241v6.757c0 1.379-.964 3.034-2.204 3.724l-5.787 3.309c-1.239.69-2.204.138-2.204-1.241v-6.757c.138-1.379 1.102-3.034 2.204-3.724z" fill="#fff"/><path d="M273.683 207.758l35.268-20.41c1.515-.827 2.755-.275 2.755 1.379 0 1.655-1.24 3.586-2.755 4.551l-35.268 20.41c-1.516.828-2.756.276-2.756-1.379s1.24-3.723 2.756-4.551zM257.014 234.926l88.721-51.3c.689-.414 1.377-.138 1.377.689 0 .828-.551 1.793-1.377 2.207l-88.721 51.3c-.689.414-1.378.138-1.378-.689.138-.69.689-1.793 1.378-2.207zM257.013 243.752l88.721-51.301c.689-.413 1.377-.138 1.377.69 0 .827-.551 1.793-1.377 2.206l-88.721 51.301c-.689.413-1.378.138-1.378-.69.138-.827.689-1.793 1.378-2.206zM257.013 252.577l88.721-51.301c.689-.413 1.377-.137 1.377.69s-.551 1.793-1.377 2.207l-88.721 51.3c-.689.414-1.378.138-1.378-.69.138-.827.689-1.792 1.378-2.206zM257.013 261.403l88.721-51.3c.689-.414 1.377-.138 1.377.689 0 .828-.551 1.793-1.377 2.207l-88.721 51.3c-.689.414-1.378.138-1.378-.689.138-.828.689-1.793 1.378-2.207z" fill="#E0E0E0"/><path d="M266.243 274.229l5.786-3.31c1.24-.69 2.205-.138 2.205 1.241v6.757c0 1.379-.965 3.034-2.205 3.724l-5.786 3.31c-1.24.689-2.204.137-2.204-1.242v-6.757c0-1.379.964-3.034 2.204-3.723z" fill="#fff"/><path d="M257.013 297.121l23.971-13.928c.689-.414 1.378-.138 1.378.69 0 .827-.551 1.792-1.378 2.206l-23.971 13.928c-.689.414-1.378.138-1.378-.689.138-.828.689-1.793 1.378-2.207z" fill="#E0E0E0"/><path d="M298.48 255.612l5.787-3.31c1.239-.689 2.204-.138 2.204 1.241v6.758c0 1.379-.965 3.034-2.204 3.723l-5.787 3.31c-1.24.689-2.204.138-2.204-1.241v-6.758c.138-1.379 1.102-3.034 2.204-3.723z" fill="#fff"/><path d="M289.388 278.366l23.971-13.928c.689-.414 1.378-.138 1.378.69 0 .827-.551 1.792-1.378 2.206L289.388 281.4c-.689.414-1.378.138-1.378-.689 0-.828.689-1.793 1.378-2.345z" fill="#E0E0E0"/><path d="M330.855 236.857l5.786-3.31c1.24-.69 2.204-.138 2.204 1.241v6.757c0 1.379-.964 3.034-2.204 3.724l-5.786 3.309c-1.24.69-2.204.138-2.204-1.241v-6.757c0-1.379.964-3.034 2.204-3.723z" fill="#fff"/><path d="M321.762 259.749l23.972-13.929c.688-.413 1.377-.137 1.377.69s-.551 1.793-1.377 2.206l-23.972 13.929c-.688.414-1.377.138-1.377-.69 0-.827.551-1.792 1.377-2.206zM257.013 302.912l23.971-13.928c.689-.414 1.377-.138 1.377.69 0 .827-.551 1.792-1.377 2.206l-23.971 13.928c-.689.414-1.378.138-1.378-.689 0-.828.689-1.793 1.378-2.207zM289.388 284.157l23.971-13.928c.689-.414 1.378-.138 1.378.69 0 .827-.551 1.792-1.378 2.206l-23.971 13.928c-.689.414-1.378.138-1.378-.689s.689-1.793 1.378-2.207zM321.762 265.403l23.972-13.928c.688-.414 1.377-.138 1.377.689 0 .828-.551 1.793-1.377 2.207l-23.972 13.928c-.688.414-1.377.138-1.377-.689 0-.69.551-1.655 1.377-2.207zM257.013 308.567l23.971-13.928c.689-.414 1.377-.138 1.377.689 0 .828-.551 1.793-1.377 2.207l-23.971 13.928c-.689.414-1.378.138-1.378-.689 0-.828.689-1.793 1.378-2.207zM289.388 289.949l23.971-13.928c.689-.414 1.378-.138 1.378.69 0 .827-.551 1.792-1.378 2.206l-23.971 13.928c-.689.414-1.378.138-1.378-.689s.689-1.793 1.378-2.207zM321.762 271.194l23.972-13.928c.688-.414 1.377-.138 1.377.689 0 .828-.551 1.793-1.377 2.207l-23.972 13.928c-.688.414-1.377.138-1.377-.689 0-.828.551-1.793 1.377-2.207z" fill="#E0E0E0"/><path d="M266.243 322.496l5.786-3.31c1.24-.689 2.204-.137 2.204 1.242v6.757c0 1.379-.964 3.034-2.204 3.723l-5.786 3.31c-1.24.69-2.204.138-2.204-1.241v-6.757c0-1.379.964-3.034 2.204-3.724z" fill="#fff"/><path d="M257.013 345.389l23.971-13.928c.689-.414 1.377-.138 1.377.689 0 .828-.551 1.793-1.377 2.207l-23.971 13.928c-.689.414-1.378.138-1.378-.69.138-.827.689-1.792 1.378-2.206z" fill="#E0E0E0"/><path d="M298.48 303.74l5.787-3.309c1.239-.69 2.204-.138 2.204 1.241v6.757c0 1.379-.965 3.034-2.204 3.724l-5.787 3.309c-1.24.69-2.204.138-2.204-1.241v-6.757c.138-1.379 1.102-3.034 2.204-3.724z" fill="#fff"/><path d="M289.388 326.633l23.971-13.929c.689-.413 1.378-.138 1.378.69 0 .827-.551 1.792-1.378 2.206l-23.971 13.929c-.689.413-1.378.137-1.378-.69s.689-1.793 1.378-2.206z" fill="#E0E0E0"/><path d="M330.855 285.124l5.786-3.31c1.24-.689 2.205-.137 2.205 1.242v6.757c0 1.379-.965 3.034-2.205 3.723l-5.786 3.31c-1.24.69-2.204.138-2.204-1.241v-6.757c0-1.38.964-3.034 2.204-3.724z" fill="#fff"/><path d="M321.763 307.879l23.971-13.929c.689-.413 1.378-.138 1.378.69 0 .827-.552 1.793-1.378 2.206l-23.971 13.929c-.689.413-1.378.138-1.378-.69 0-.689.551-1.655 1.378-2.206zM257.013 351.042l23.971-13.928c.689-.414 1.378-.138 1.378.689 0 .828-.551 1.793-1.378 2.207l-23.971 13.928c-.689.414-1.378.138-1.378-.689.138-.69.689-1.793 1.378-2.207zM289.388 332.425l23.971-13.928c.689-.414 1.378-.138 1.378.689 0 .828-.551 1.793-1.378 2.207l-23.971 13.928c-.689.414-1.378.138-1.378-.689 0-.828.689-1.793 1.378-2.207zM321.763 313.671l23.971-13.929c.689-.413 1.378-.138 1.378.69 0 .827-.552 1.793-1.378 2.206l-23.971 13.929c-.689.413-1.378.138-1.378-.69 0-.827.551-1.793 1.378-2.206zM257.013 356.835l23.971-13.929c.689-.413 1.378-.138 1.378.69 0 .827-.551 1.793-1.378 2.206l-23.971 13.929c-.689.413-1.378.138-1.378-.69 0-.827.689-1.793 1.378-2.206zM289.388 338.079l23.971-13.928c.689-.414 1.378-.138 1.378.69 0 .827-.551 1.792-1.378 2.206l-23.971 13.928c-.689.414-1.378.138-1.378-.689 0-.828.689-1.793 1.378-2.207zM321.763 319.462l23.971-13.929c.689-.413 1.378-.138 1.378.69 0 .827-.552 1.793-1.378 2.206l-23.971 13.929c-.689.413-1.378.138-1.378-.69 0-.827.551-1.793 1.378-2.206z" fill="#E0E0E0"/><path d="M202.596 110.95c14.052-8.136 25.487-1.517 25.487 14.756 0 16.272-11.435 35.993-25.487 44.129-14.052 8.137-25.487 1.517-25.487-14.756 0-16.272 11.435-35.993 25.487-44.129z" fill="#FAFAFA"/><path d="M202.596 123.638c4.546-2.621 8.266-.552 8.266 4.826 0 5.241-3.72 11.722-8.266 14.342-4.547 2.62-8.266.552-8.266-4.826 0-5.241 3.719-11.584 8.266-14.342zM218.714 151.77c0-8.688-6.061-12.136-13.501-7.86l-4.684 2.758c-7.439 4.275-13.501 14.893-13.501 23.581v2.345c4.271 1.379 9.782.689 15.706-2.758 6.061-3.586 11.71-9.24 16.118-15.997v-2.069h-.138z" fill="#E0E0E0"/><path d="M187.579 211.621l35.268-20.41c1.516-.828 2.756-.276 2.756 1.379s-1.24 3.585-2.756 4.551l-35.268 20.409c-1.515.828-2.755.276-2.755-1.379 0-1.654 1.24-3.723 2.755-4.55z" fill="#F5F5F5"/><path d="M75.577 507.149l44.773-194.032 244.947-141.628-44.774 194.032L75.577 507.149z" fill="url(#paint4_linear)"/><path opacity=".1" d="M198.601 435.992V267.748l166.145-95.43-44.223 193.205-121.922 70.469z" fill="#000"/><path d="M240.895 460.4l-42.294-24.409 78.664-45.095-36.37 69.504z" fill="#E0E0E0"/><path d="M240.897 460.399c-1.378-.828-2.48-2.896-2.48-4.551V156.871c0-1.793 1.24-3.861 2.755-4.689L428.671 43.79c1.515-.828 3.857-.966 5.235-.138 1.377.827 2.479 2.896 2.479 4.55V347.18c0 1.793-1.239 3.862-2.755 4.689L246.132 460.261c-1.516.827-3.858.965-5.235.138z" fill="#EBEBEB"/><path d="M243.374 162.525l76.185-49.921-5.098-2.896-73.429 42.475c-1.515.827-2.755 3.033-2.755 4.688v2.758l5.097 2.896z" fill="#007BC5"/><path d="M268.862 171.351l-29.62-17.101c-.551.828-.826 1.793-.826 2.621v298.977c0 1.792 1.102 3.723 2.479 4.55 1.378.828 3.72.828 5.235-.138l22.732-13.1V171.351z" fill="#007BC5"/><path d="M246.129 460.261l187.499-108.393c1.515-.827 2.755-3.034 2.755-4.688V48.203c0-1.793-1.24-2.483-2.755-1.517L246.129 155.079c-1.515.827-2.755 3.033-2.755 4.688v298.977c0 1.655 1.24 2.345 2.755 1.517z" fill="#0076BD"/><path d="M258.942 228.858l45.049-26.064c3.031-1.793 5.373-.552 5.373 2.758s-2.48 7.309-5.373 8.964l-45.049 26.064c-3.031 1.793-5.373.551-5.373-2.758 0-3.31 2.48-7.309 5.373-8.964z" fill="#E0E0E0"/><path d="M255.773 276.435l5.786-3.31c1.24-.69 2.205-.138 2.205 1.241v6.757c0 1.379-.965 3.034-2.205 3.724l-5.786 3.31c-1.24.689-2.204.137-2.204-1.242v-6.757c0-1.379.964-3.034 2.204-3.723z" fill="url(#paint5_linear)"/><path d="M271.479 270.228l35.268-20.409c1.515-.828 2.755-.276 2.755 1.379s-1.24 3.585-2.755 4.55l-35.268 20.41c-1.515.828-2.755.276-2.755-1.379.137-1.655 1.24-3.723 2.755-4.551z" fill="#E0E0E0"/><path d="M255.773 299.879l5.786-3.31c1.24-.69 2.204-.138 2.204 1.241v6.757c0 1.379-.964 3.034-2.204 3.724l-5.786 3.309c-1.24.69-2.204.138-2.204-1.241v-6.757c0-1.379.964-3.034 2.204-3.723z" fill="url(#paint6_linear)"/><path d="M271.479 293.672l35.268-20.41c1.515-.827 2.755-.275 2.755 1.38 0 1.654-1.24 3.585-2.755 4.55l-35.268 20.41c-1.515.828-2.755.276-2.755-1.379.137-1.655 1.24-3.723 2.755-4.551z" fill="#E0E0E0"/><path d="M255.773 323.323l5.786-3.309c1.24-.69 2.205-.138 2.205 1.241v6.757c0 1.379-.965 3.034-2.205 3.724l-5.786 3.309c-1.24.69-2.204.138-2.204-1.241v-6.757c0-1.379.964-3.034 2.204-3.724z" fill="url(#paint7_linear)"/><path d="M271.479 317.117l35.268-20.41c1.515-.827 2.755-.276 2.755 1.379s-1.24 3.586-2.755 4.551l-35.268 20.41c-1.515.827-2.755.276-2.755-1.379.137-1.655 1.24-3.586 2.755-4.551z" fill="#E0E0E0"/><path d="M255.773 346.904l5.786-3.31c1.24-.689 2.204-.138 2.204 1.241v6.758c0 1.379-.964 3.034-2.204 3.723l-5.786 3.31c-1.24.689-2.204.138-2.204-1.241v-6.758c0-1.379.964-3.034 2.204-3.723z" fill="url(#paint8_linear)"/><path d="M271.479 340.698l35.268-20.41c1.515-.827 2.755-.275 2.755 1.379 0 1.655-1.24 3.586-2.755 4.551l-35.268 20.41c-1.515.827-2.755.276-2.755-1.379.137-1.655 1.24-3.723 2.755-4.551zM256.324 395.998l25.073-14.48c1.516-.828 2.756-.276 2.756 1.379s-1.24 3.585-2.756 4.551l-25.073 14.48c-1.515.827-2.755.275-2.755-1.379 0-1.655 1.24-3.724 2.755-4.551z" fill="#E0E0E0"/><path d="M256.324 407.719l50.422-29.098c1.516-.828 2.756-.276 2.756 1.379s-1.24 3.585-2.756 4.551l-50.422 29.098c-1.515.827-2.755.275-2.755-1.379 0-1.655 1.24-3.724 2.755-4.551z" fill="#FAFAFA"/><path d="M256.324 407.72l35.268-20.41c1.515-.827 2.755-.275 2.755 1.379 0 1.655-1.24 3.586-2.755 4.551l-35.268 20.41c-1.515.828-2.755.276-2.755-1.379s1.24-3.723 2.755-4.551z" fill="url(#paint9_linear)"/><path d="M256.324 419.441l25.073-14.48c1.516-.827 2.756-.276 2.756 1.379s-1.24 3.586-2.756 4.551l-25.073 14.48c-1.515.827-2.755.276-2.755-1.379s1.24-3.723 2.755-4.551zM256.324 372.554l25.073-14.48c1.516-.827 2.756-.276 2.756 1.379s-1.24 3.586-2.756 4.551l-25.073 14.48c-1.515.827-2.755.276-2.755-1.379s1.24-3.724 2.755-4.551z" fill="#E0E0E0"/><path d="M256.324 384.275l50.422-29.097c1.516-.828 2.756-.276 2.756 1.379 0 1.654-1.24 3.585-2.756 4.55l-50.422 29.098c-1.515.828-2.755.276-2.755-1.379s1.24-3.723 2.755-4.551z" fill="#FAFAFA"/><path d="M256.324 384.276l17.91-10.343c1.515-.827 2.755-.275 2.755 1.379 0 1.655-1.24 3.586-2.755 4.551l-17.91 10.343c-1.515.828-2.755.276-2.755-1.379s1.24-3.723 2.755-4.551z" fill="url(#paint10_linear)"/><path d="M256.324 431.164l50.422-29.098c1.516-.828 2.756-.276 2.756 1.379s-1.24 3.585-2.756 4.551l-50.422 29.097c-1.515.828-2.755.276-2.755-1.379 0-1.654 1.24-3.723 2.755-4.55z" fill="#FAFAFA"/><path d="M256.324 431.163l45.325-26.202c1.515-.827 2.755-.276 2.755 1.379s-1.24 3.586-2.755 4.551l-45.325 26.202c-1.515.827-2.755.276-2.755-1.379s1.24-3.724 2.755-4.551z" fill="url(#paint11_linear)"/><path d="M433.628 46.685l-114.07 65.919v305.182l114.07-65.918c1.515-.827 2.755-3.034 2.755-4.689V48.203c0-1.655-1.24-2.483-2.755-1.518z" fill="#FAFAFA"/><path d="M319.559 124.325v23.444l-10.195 11.722h10.195v23.582l106.63-61.644V62.682l-106.63 61.643z" fill="url(#paint12_linear)"/><path d="M333.473 125.154l43.258-24.961c2.067-1.241 3.858-.276 3.858 2.206 0 2.483-1.653 5.379-3.858 6.62l-43.258 24.96c-2.066 1.242-3.857.276-3.857-2.206.137-2.482 1.791-5.378 3.857-6.619zM331.131 144.046l83.623-48.267c.689-.413 1.378-.138 1.378.69 0 .827-.551 1.793-1.378 2.206l-83.623 48.267c-.689.414-1.378.138-1.378-.69 0-.689.551-1.792 1.378-2.206zM331.131 152.872l83.623-48.266c.689-.414 1.378-.138 1.378.689 0 .828-.551 1.793-1.378 2.207l-83.623 48.266c-.689.414-1.378.138-1.378-.689 0-.828.551-1.793 1.378-2.207zM331.131 161.698l83.623-48.266c.689-.414 1.378-.138 1.378.689 0 .828-.551 1.793-1.378 2.207l-83.623 48.266c-.689.414-1.378.138-1.378-.689 0-.828.551-1.793 1.378-2.207z" fill="#FAFAFA"/><path d="M334.299 186.383l5.786-3.31c1.24-.689 2.205-.138 2.205 1.241v6.758c0 1.379-.965 3.034-2.205 3.723l-5.786 3.31c-1.24.689-2.204.138-2.204-1.241v-6.758c0-1.379.964-3.034 2.204-3.723z" fill="url(#paint13_linear)"/><path d="M350.005 180.177l35.267-20.41c1.516-.828 2.756-.276 2.756 1.379s-1.24 3.585-2.756 4.551l-35.267 20.41c-1.516.827-2.756.275-2.756-1.379 0-1.655 1.24-3.724 2.756-4.551zM333.474 207.344l88.72-51.3c.689-.414 1.378-.138 1.378.689 0 .828-.551 1.793-1.378 2.207l-88.72 51.3c-.689.414-1.378.138-1.378-.689 0-.828.551-1.793 1.378-2.207zM333.473 216.17l88.721-51.3c.688-.414 1.377-.138 1.377.689 0 .828-.551 1.793-1.377 2.207l-88.721 51.3c-.689.414-1.378.138-1.378-.689 0-.828.551-1.793 1.378-2.207zM333.473 224.995l88.721-51.3c.688-.414 1.377-.138 1.377.689 0 .828-.551 1.793-1.377 2.207l-88.721 51.3c-.689.414-1.378.138-1.378-.689 0-.828.551-1.793 1.378-2.207zM333.473 233.822l88.721-51.3c.688-.414 1.377-.138 1.377.689 0 .828-.551 1.793-1.377 2.207l-88.721 51.3c-.689.414-1.378.138-1.378-.689 0-.828.551-1.793 1.378-2.207z" fill="#455A64"/><path d="M334.299 250.923l5.786-3.309c1.24-.69 2.205-.138 2.205 1.241v6.757c0 1.379-.965 3.034-2.205 3.724l-5.786 3.309c-1.24.69-2.204.138-2.204-1.241v-6.757c0-1.379.964-3.034 2.204-3.724z" fill="url(#paint14_linear)"/><path d="M350.005 244.718l35.267-20.41c1.516-.828 2.756-.276 2.756 1.379s-1.24 3.585-2.756 4.551l-35.267 20.41c-1.516.827-2.756.275-2.756-1.379 0-1.655 1.24-3.724 2.756-4.551zM333.474 271.884l88.721-51.3c.689-.414 1.378-.138 1.378.689 0 .828-.551 1.793-1.378 2.207l-88.721 51.3c-.689.414-1.378.138-1.378-.689 0-.69.551-1.793 1.378-2.207zM333.473 280.71l88.721-51.3c.688-.414 1.377-.138 1.377.689 0 .828-.551 1.793-1.377 2.207l-88.721 51.3c-.689.414-1.378.138-1.378-.689 0-.69.551-1.793 1.378-2.207zM333.473 289.536l88.721-51.3c.688-.414 1.377-.138 1.377.689 0 .828-.551 1.793-1.377 2.207l-88.721 51.3c-.689.414-1.378.138-1.378-.689 0-.828.551-1.793 1.378-2.207zM333.473 298.362l88.721-51.3c.688-.414 1.377-.138 1.377.689 0 .828-.551 1.793-1.377 2.207l-88.721 51.3c-.689.414-1.378.138-1.378-.689 0-.828.551-1.793 1.378-2.207z" fill="#455A64"/><path d="M342.565 311.188l5.786-3.31c1.24-.69 2.205-.138 2.205 1.241v6.757c0 1.379-.965 3.034-2.205 3.724l-5.786 3.309c-1.24.69-2.204.138-2.204-1.241v-6.757c0-1.241.964-3.034 2.204-3.723z" fill="url(#paint15_linear)"/><path d="M333.473 334.08l24.109-13.928c.688-.414 1.377-.138 1.377.69 0 .827-.551 1.792-1.377 2.206l-24.109 13.928c-.689.414-1.378.138-1.378-.689 0-.828.551-1.793 1.378-2.207z" fill="#455A64"/><path d="M374.802 292.57l5.786-3.309c1.24-.69 2.204-.138 2.204 1.241v6.757c0 1.379-.964 3.034-2.204 3.724l-5.786 3.309c-1.24.69-2.204.138-2.204-1.241v-6.757c.137-1.379 1.102-3.034 2.204-3.724z" fill="url(#paint16_linear)"/><path d="M365.709 315.463l24.109-13.928c.689-.414 1.378-.138 1.378.689 0 .828-.551 1.793-1.378 2.207l-24.109 13.928c-.689.414-1.377.138-1.377-.689.137-.828.688-1.793 1.377-2.207z" fill="#455A64"/><path d="M407.177 273.815l5.787-3.31c1.239-.69 2.204-.138 2.204 1.241v6.757c0 1.379-.965 3.034-2.204 3.724l-5.787 3.309c-1.24.69-2.204.138-2.204-1.241v-6.757c0-1.379 1.102-3.034 2.204-3.723z" fill="url(#paint17_linear)"/><path d="M398.084 296.707l24.109-13.928c.689-.414 1.378-.138 1.378.689 0 .828-.551 1.793-1.378 2.207l-24.109 13.928c-.688.414-1.377.138-1.377-.689 0-.828.689-1.793 1.377-2.207zM333.473 339.871l24.109-13.928c.689-.414 1.378-.138 1.378.689s-.551 1.793-1.378 2.207l-24.109 13.928c-.689.414-1.378.138-1.378-.69 0-.827.552-1.792 1.378-2.206zM365.71 321.115l24.109-13.928c.688-.414 1.377-.138 1.377.69 0 .827-.551 1.792-1.377 2.206l-24.109 13.928c-.689.414-1.378.138-1.378-.689.138-.69.689-1.793 1.378-2.207zM398.084 302.499l24.109-13.929c.689-.413 1.378-.137 1.378.69s-.551 1.793-1.378 2.206l-24.109 13.929c-.688.414-1.377.138-1.377-.69 0-.827.689-1.793 1.377-2.206zM333.473 345.525l24.109-13.928c.689-.414 1.378-.138 1.378.689 0 .828-.551 1.793-1.378 2.207l-24.109 13.928c-.689.414-1.378.138-1.378-.689 0-.69.552-1.793 1.378-2.207zM365.71 326.908l24.109-13.928c.688-.414 1.377-.138 1.377.689 0 .828-.551 1.793-1.377 2.207l-24.109 13.928c-.689.414-1.378.138-1.378-.69.138-.827.689-1.792 1.378-2.206zM398.084 308.153l24.109-13.929c.689-.413 1.378-.138 1.378.69 0 .827-.551 1.793-1.378 2.206l-24.109 13.929c-.688.413-1.377.138-1.377-.69 0-.827.689-1.793 1.377-2.206z" fill="#455A64"/><path d="M342.566 359.454l5.786-3.31c1.24-.69 2.204-.138 2.204 1.241v6.757c0 1.38-.964 3.034-2.204 3.724l-5.786 3.31c-1.24.689-2.205.138-2.205-1.242v-6.757c0-1.379.965-3.034 2.205-3.723z" fill="url(#paint18_linear)"/><path d="M333.473 382.345l24.109-13.928c.688-.414 1.377-.138 1.377.689 0 .828-.551 1.793-1.377 2.207l-24.109 13.928c-.689.414-1.378.138-1.378-.69 0-.827.551-1.792 1.378-2.206z" fill="#455A64"/><path d="M374.802 340.699l5.786-3.31c1.24-.689 2.204-.138 2.204 1.241v6.758c0 1.379-.964 3.033-2.204 3.723l-5.786 3.31c-1.24.689-2.204.138-2.204-1.241v-6.758c.137-1.379 1.102-3.034 2.204-3.723z" fill="url(#paint19_linear)"/><path d="M365.71 363.591l24.109-13.928c.688-.414 1.377-.138 1.377.689 0 .828-.551 1.793-1.377 2.207l-24.109 13.928c-.689.414-1.378.138-1.378-.689.138-.69.689-1.793 1.378-2.207z" fill="#455A64"/><path d="M407.177 322.082l5.786-3.31c1.24-.69 2.205-.138 2.205 1.241v6.757c0 1.379-.965 3.034-2.205 3.724l-5.786 3.31c-1.24.689-2.204.137-2.204-1.242v-6.757c0-1.379 1.102-3.034 2.204-3.723z" fill="url(#paint20_linear)"/><path d="M398.084 344.974l24.109-13.928c.689-.414 1.378-.138 1.378.689s-.551 1.793-1.378 2.207l-24.109 13.928c-.688.414-1.377.138-1.377-.69 0-.827.689-1.792 1.377-2.206zM333.473 388l24.109-13.929c.688-.413 1.377-.137 1.377.69s-.551 1.793-1.377 2.206l-24.109 13.929c-.689.413-1.378.138-1.378-.69 0-.689.551-1.793 1.378-2.206zM365.71 369.383l24.109-13.929c.689-.413 1.378-.138 1.378.69 0 .827-.551 1.792-1.378 2.206l-24.109 13.929c-.689.413-1.377.137-1.377-.69.137-.827.688-1.793 1.377-2.206zM398.084 350.628l24.109-13.928c.689-.414 1.378-.138 1.378.689 0 .828-.551 1.793-1.378 2.207l-24.109 13.928c-.688.414-1.377.138-1.377-.689 0-.69.689-1.793 1.377-2.207zM333.473 393.791l24.109-13.928c.688-.414 1.377-.138 1.377.689 0 .828-.551 1.793-1.377 2.207l-24.109 13.928c-.689.414-1.378.138-1.378-.689 0-.828.551-1.793 1.378-2.207zM365.71 375.036l24.109-13.928c.689-.414 1.378-.138 1.378.69 0 .827-.551 1.792-1.378 2.206l-24.109 13.928c-.689.414-1.377.138-1.377-.689.137-.69.688-1.793 1.377-2.207zM398.084 356.42l24.109-13.929c.689-.413 1.378-.138 1.378.69 0 .827-.551 1.793-1.378 2.206l-24.109 13.929c-.688.413-1.377.138-1.377-.69 0-.827.689-1.793 1.377-2.206z" fill="#455A64"/><path d="M278.918 147.907c14.052-8.136 25.487-1.517 25.487 14.756s-11.435 35.993-25.487 44.13c-14.052 8.136-25.487 1.517-25.487-14.756s11.435-35.993 25.487-44.13z" fill="#E0E0E0"/><path d="M278.918 160.732c4.546-2.62 8.265-.551 8.265 4.827 0 5.24-3.719 11.722-8.265 14.342-4.547 2.62-8.266.552-8.266-4.827 0-5.378 3.719-11.721 8.266-14.342zM295.036 188.727c0-8.688-6.061-12.135-13.501-7.86l-4.684 2.758c-7.439 4.275-13.501 14.893-13.501 23.581v2.345c4.271 1.379 9.782.689 15.706-2.758 6.061-3.586 11.71-9.24 16.118-15.997v-2.069h-.138z" fill="#FAFAFA"/><path d="M263.901 248.578l35.268-20.41c1.515-.828 2.755-.276 2.755 1.379s-1.24 3.585-2.755 4.551l-35.268 20.41c-1.515.827-2.755.275-2.755-1.38 0-1.654 1.24-3.723 2.755-4.55z" fill="#E0E0E0"/></g><defs><filter id="filter0_d" x="0" y="0" width="565" height="521.149" filterUnits="userSpaceOnUse" color-interpolation-filters="sRGB"><feFlood flood-opacity="0" result="BackgroundImageFix"/><feColorMatrix in="SourceAlpha" values="0 0 0 0 0 0 0 0 0 0 0 0 0 0 0 0 0 0 127 0"/><feOffset dy="4"/><feGaussianBlur stdDeviation="5"/><feColorMatrix values="0 0 0 0 0 0 0 0 0 0 0 0 0 0 0 0 0 0 0.2 0"/><feBlend in2="BackgroundImageFix" result="effect1_dropShadow"/><feBlend in="SourceGraphic" in2="effect1_dropShadow" result="shape"/></filter><linearGradient id="paint0_linear" x1="466.16" y1="311.242" x2="436.67" y2="271.575" gradientUnits="userSpaceOnUse"><stop stop-color="#0081F1"/><stop offset="1" stop-color="#00B2F1"/></linearGradient><linearGradient id="paint1_linear" x1="461.393" y1="331.396" x2="442.217" y2="300.537" gradientUnits="userSpaceOnUse"><stop stop-color="#0081F1"/><stop offset="1" stop-color="#00B2F1"/></linearGradient><linearGradient id="paint2_linear" x1="230.93" y1="389.83" x2="66.725" y2="197.693" gradientUnits="userSpaceOnUse"><stop stop-color="#0081F1"/><stop offset="1" stop-color="#00B2F1"/></linearGradient><linearGradient id="paint3_linear" x1="230.93" y1="389.83" x2="66.725" y2="197.693" gradientUnits="userSpaceOnUse"><stop stop-color="#0081F1"/><stop offset="1" stop-color="#00B2F1"/></linearGradient><linearGradient id="paint4_linear" x1="259.327" y1="397.615" x2="115.417" y2="184.288" gradientUnits="userSpaceOnUse"><stop stop-color="#0081F1"/><stop offset="1" stop-color="#00B2F1"/></linearGradient><linearGradient id="paint5_linear" x1="260.035" y1="283.354" x2="252.856" y2="275.311" gradientUnits="userSpaceOnUse"><stop stop-color="#0081F1"/><stop offset="1" stop-color="#00B2F1"/></linearGradient><linearGradient id="paint6_linear" x1="260.035" y1="306.798" x2="252.856" y2="298.755" gradientUnits="userSpaceOnUse"><stop stop-color="#0081F1"/><stop offset="1" stop-color="#00B2F1"/></linearGradient><linearGradient id="paint7_linear" x1="260.035" y1="330.243" x2="252.856" y2="322.2" gradientUnits="userSpaceOnUse"><stop stop-color="#0081F1"/><stop offset="1" stop-color="#00B2F1"/></linearGradient><linearGradient id="paint8_linear" x1="260.035" y1="353.824" x2="252.856" y2="345.78" gradientUnits="userSpaceOnUse"><stop stop-color="#0081F1"/><stop offset="1" stop-color="#00B2F1"/></linearGradient><linearGradient id="paint9_linear" x1="279.432" y1="405.187" x2="270.997" y2="383.389" gradientUnits="userSpaceOnUse"><stop stop-color="#0081F1"/><stop offset="1" stop-color="#00B2F1"/></linearGradient><linearGradient id="paint10_linear" x1="268.423" y1="385.028" x2="262.767" y2="371.672" gradientUnits="userSpaceOnUse"><stop stop-color="#0081F1"/><stop offset="1" stop-color="#00B2F1"/></linearGradient><linearGradient id="paint11_linear" x1="285.81" y1="426.74" x2="275.775" y2="400.103" gradientUnits="userSpaceOnUse"><stop stop-color="#0081F1"/><stop offset="1" stop-color="#00B2F1"/></linearGradient><linearGradient id="paint12_linear" x1="383.458" y1="143.786" x2="334.339" y2="61.926" gradientUnits="userSpaceOnUse"><stop stop-color="#0081F1"/><stop offset="1" stop-color="#00B2F1"/></linearGradient><linearGradient id="paint13_linear" x1="338.561" y1="193.303" x2="331.382" y2="185.259" gradientUnits="userSpaceOnUse"><stop stop-color="#0081F1"/><stop offset="1" stop-color="#00B2F1"/></linearGradient><linearGradient id="paint14_linear" x1="338.561" y1="257.843" x2="331.382" y2="249.8" gradientUnits="userSpaceOnUse"><stop stop-color="#0081F1"/><stop offset="1" stop-color="#00B2F1"/></linearGradient><linearGradient id="paint15_linear" x1="346.827" y1="318.107" x2="339.649" y2="310.064" gradientUnits="userSpaceOnUse"><stop stop-color="#0081F1"/><stop offset="1" stop-color="#00B2F1"/></linearGradient><linearGradient id="paint16_linear" x1="379.063" y1="299.49" x2="371.885" y2="291.447" gradientUnits="userSpaceOnUse"><stop stop-color="#0081F1"/><stop offset="1" stop-color="#00B2F1"/></linearGradient><linearGradient id="paint17_linear" x1="411.439" y1="280.734" x2="404.261" y2="272.691" gradientUnits="userSpaceOnUse"><stop stop-color="#0081F1"/><stop offset="1" stop-color="#00B2F1"/></linearGradient><linearGradient id="paint18_linear" x1="346.827" y1="366.374" x2="339.649" y2="358.33" gradientUnits="userSpaceOnUse"><stop stop-color="#0081F1"/><stop offset="1" stop-color="#00B2F1"/></linearGradient><linearGradient id="paint19_linear" x1="379.063" y1="347.619" x2="371.885" y2="339.575" gradientUnits="userSpaceOnUse"><stop stop-color="#0081F1"/><stop offset="1" stop-color="#00B2F1"/></linearGradient><linearGradient id="paint20_linear" x1="411.439" y1="329.001" x2="404.26" y2="320.958" gradientUnits="userSpaceOnUse"><stop stop-color="#0081F1"/><stop offset="1" stop-color="#00B2F1"/></linearGradient></defs></svg>